<?xml version="1.0" encoding="UTF-8"?>
<svg id="Layer_1" data-name="Layer 1" xmlns="http://www.w3.org/2000/svg" version="1.1" viewBox="0 0 1920 1920">
  <defs>
    <style>
      .cls-1 {
        fill: #493934;
      }

      .cls-1, .cls-2, .cls-3, .cls-4, .cls-5, .cls-6, .cls-7, .cls-8 {
        stroke-width: 0px;
      }

      .cls-2 {
        fill: #483934;
      }

      .cls-3 {
        fill: #463732;
      }

      .cls-4 {
        fill: #473833;
      }

      .cls-5 {
        fill: #453632;
      }

      .cls-6 {
        fill: #483834;
      }

      .cls-7 {
        fill: #8a3626;
      }

      .cls-8 {
        fill: #040303;
      }
    </style>
  </defs>
  <path class="cls-8" d="M1150.96,1123.97c-3.95,3.22-8.05,6.27-11.83,9.68-15.5,14.02-33.56,21.47-54.23,25.22-15.47,2.81-29.87,3.02-43.6-4.15-13.37-6.98-25.6-15.93-37.4-25.43-15.78-12.71-31.09-25.64-49.15-35.76-19.49-10.92-28.41-32.03-35.42-52.79-10.82-32.01,4.12-55.2,26.64-75.39-19.17-26.89-34.37-55.99-49.02-86.83-16.59-3.74-33.58-8.82-44.71-25.38-3.99-13.13-.16-26.53,3.21-40.09-15.7-8.75-31.72-15.45-45-25.7-13.75-10.61-28.12-14.96-44.79-15.04-10.09-.05-19.53-4.27-28.13-8.47-21.3-10.39-44.15-16.41-65.92-25.39-17.05-7.03-33.5-14.9-48.98-24.93-8.86-5.74-18.34-9.29-29.38-9.82-12.43-.6-24.38-5.25-35.28-11.09-11.24-6.03-15.36-17.47-16.88-29.57-.82-6.55.11-13.18,2.18-19.49,4.06-12.41,8.16-24.82,12.61-37.09,5.37-14.83,18.79-23.44,28.38-34.96,3.74-4.5,11.31-6.08,18.47-5.07,6.44.91,13.05,2.15,19.92.21,9.47-14.64,17.15-31.56,46.78-35.09,14.66.02,27.95,18.73,45.02,31.27,18.35,13.49,25.23,34.1,37.37,54.54,17.35,6.26,37.15,12.9,56.56,20.52,39,15.32,78.97,27.44,119.67,37.17,27.43,6.55,55.34,12.7,79.86,26.6,34.57,19.6,72.09,30.93,108.93,44.44,23.37,8.57,46.59,17.59,68.42,29.83,12.37,6.94,24.17,15.43,39.93,13.9,6.46-.63,12.25,3.86,17.3,8.46,18.57,16.9,32.05,36.42,33.53,62.48.07,1.17,1.1,2.29,1.93,3.91,10.14,2.81,20.75,1.47,30.81-.85,7.87-1.82,15.53-2.16,23.37-2.13,25.62.12,40.39,22.64,32.28,47.09-8.31,25.04-26.6,38.2-50.09,45.8-11.14,3.61-22.62,6.31-34.09,8.65-5.8,1.19-11.51,1.85-17.79,7.77,13.89,13.32,28.32,25.97,41.35,39.91,22.04,23.58,44.05,47.55,57.32,77.49,12.03,27.14,20.74,55.32,17.34,85.77-.36,3.25.27,6.83-.89,9.72-10.49,26.32-8.35,54.17-10.01,81.53-.67,11.09.48,22.05,2.16,33.24,2.51,16.7,3.23,33.87-2.25,50.88-4.53,14.03-13.2,24.13-24.22,32.65-10.84,8.38-23.21,6.97-35.66,4.03-18.7-4.43-35.37-13.94-53.1-20.78-13.39-5.17-27.08-9.55-40.66-14.23-1.85-.64-4.04-1.77-5.68-1.3-22.05,6.34-37.42-8.24-52.91-18.71-15.12-10.22-26.16-24.65-32.61-43.26-10.79-31.12-9.72-59.98,7.3-88.32,4.67-7.77,7.84-16.44,12.14-24.45,7.82-14.57,13.25-29.74,13.09-46.52,2.05-3.19,3.71-6.4.02-10.07-1.43,1.84-2.82,3.63-4.21,5.41ZM703.9,601.89c.51.96,1.02,1.93,1.52,2.89.52-.54,1.04-1.08,1.55-1.62-.98-.47-1.95-.94-2.93-1.41,1.2-10.87-6.4-17.74-11.1-26.22-11.44-20.66-13.91-22.67-35.56-19.73-3.12,6.27-6.25,12.58-10.11,20.34,20.08,7.22,36.34,20.62,56.62,25.76ZM1240.53,840.34c0-5.17-.55-9.89-7.67-9.46-.37,5.41,2.85,8.06,7.41,9.7.08,2.64-.46,5.49.33,7.9,7.24,21.86,10.89,43.75,3.96,66.58-1.09,3.58-7.46,7.14-1.44,12.47,7.28.37,15.93-1.24,22.7,1.61,11.78,4.95,23.55,3.2,35.03,2.5,21.07-1.3,31.24-14.35,29.02-35.61h-59.1c-11.33-9.48-17.08-19.04-19.64-32.46-1.37-7.2,1.48-19.69-10.61-23.23ZM954.37,888.11c-.47-.97-.95-1.93-1.42-2.9-.53.52-1.06,1.04-1.59,1.56.95.5,1.91,1,2.86,1.5-1.87,14.57,6.3,27.9,4.01,42.47,37.9,35.81,82.88,54.93,132.61,66.76,9.94-14.62,21.34-25.67,34.83-35.45-15.58-7.92-28.74-18.01-43.43-21.4-34.28-7.9-65.49-22.15-96.23-38.39-10.17-5.37-19.79-12.37-31.63-14.15ZM1170.95,975.66c-9.64,11.66-27,15.48-30.02,34.14,6.42,6.25,13.5,13.14,20.57,20.02,5.19,5.05,9.5,10.62,13.3,16.95,5.78,9.63,4.64,20.06,6.5,30.23,4.32,23.59,5.67,47.02,3.7,70.91-1.24,15.01-3.98,29.91-9.16,43.54-4.91,12.89-7.41,26.19-10.26,39.25-3.93,18.01,1.09,34.86,14.44,48.85,9.62,10.09,20.55,18.73,32.08,25.9,31.15,19.4,65.26,28.21,101.9,23.58,3.12-2.14,4.78-4.64,6.2-7.83,15.61-34.9,14.95-71.44,8.68-107.72-3.31-19.15-6.52-38.39-8.32-57.57-3.36-35.84-8.52-70.64-28.52-101.65-17.18-26.65-35.68-51.51-66.44-64.39-10.05-4.21-18.77-11.59-28.98-18.08-6.67,5.37-15.44,3.27-25.67,3.87ZM562.3,657.79c8.23,4.39,15.83,9.06,24.63,11.77,29.39,9.05,58.7,18.36,87.96,27.83,39.27,12.72,78.33,26.27,112.53,50.12,22.24,15.51,47.26,18.93,72.76,22.1,1.83-3.37,3.46-5.47,4.18-7.85,5.51-18.03,13.67-34.65,24.94-49.82,2.84-3.82,2.33-8.62.28-13.21-11.5-3.83-23.08-7.49-34.52-11.56-11.49-4.1-22.92-8.44-34.3-12.76-22.11-8.38-44.89-15.81-68.04-20.37-19.37-3.81-37.5-9.14-53.9-19.92-3.33-2.19-6.64-3.51-10.31-4.92-22.25-8.54-46.27-11.03-68.24-19.93-16.11-6.52-28.98-2.67-40.89,7.89-11.43,10.14-22.34,20.88-17.08,40.62ZM1068.75,1040.84c-16.8-3.19-31.21-9.65-44.48-18.22-13.78-8.9-26.87-18.87-39.49-27.82-20.42.98-27.72,14.37-33.22,28.22,2.47,7.77,4.21,14.09,6.5,20.2,4.58,12.29,8.55,25.68,18.08,34.56,19.73,18.38,40.36,35.97,64.65,48.47,8.62,4.43,17.98,5.6,26.98,3.43,20.58-4.98,40.66-11.46,53.68-31.43,2.45-13.34-5.1-23.74-11.59-35.61-20.94,17.59-41.69,29.61-68.26,19.05-4.46-23.24,14.26-28.83,27.15-40.85ZM1092.51,852.91c-6.85,13.91-15.27,23.7-32.76,23.75-16.45.05-28.66-7.19-41.42-16.4-17.39,1.29-33.71-4.69-49.62-11.94-3.49,5.47-3.16,10.41-.13,17.55,38.21,16.32,77.84,33.25,119.37,50.99,28.05-34.51,28.95-78.27,40.68-117.5-19.53-13.39-37.15-28.08-59.86-32.9-22.26-4.73-42.21-19.27-64.23-17.5-6.85,5.86-8.32,11.56-10.79,17.94,26.09,9.42,52.51,17.94,72.8,37.92,1.39,1.37,3.25,2.26,4.65,3.63,12.28,11.93,26.63,22.83,21.3,44.47ZM1151.44,816.33c-4.29,6.32-4.24,13.38-5.6,19.17-7.26,30.98-26.3,58.47-26.32,91.75,7.63,2.5,16.22-.4,24.57,2.04,21.01,6.13,40.79,2.84,58.46-8.71,5.26-15.67,15.02-30.08,9.09-45.76-5.13-13.56-5.96-30.65-18.74-39.35-12.38-8.43-25.88-16.57-41.46-19.14ZM931.38,846.9c13.28-37.68,21.5-75.09,42.36-107.89-16.1-5.09-30.03-13.03-44.4-22.34-20.92,31.56-35.67,65.84-50.22,100.18-1.28,3.02-1.74,7.89,2.69,11.35,8.29,1.1,17.69-1.09,25.97,4.45,8.07,5.4,16.62,10.07,23.61,14.25ZM1073.03,845.89c-2.66-23.88-18.87-34.47-31.48-37.17-19.37-4.15-38.81-7.99-58.24-11.83-1.05-.21-2.33.75-3.96,1.32-1.9,5.39-1.86,11-.52,16.35,12.49,7.9,26.37,11.95,37.61,21.17,3.49,2.87,8.64,5.1,14.41,4.93,13.52-.4,27.21-1.43,42.19,5.23Z"/>
  <path class="cls-7" d="M1170.95,975.66c10.23-.6,19,1.5,25.67-3.87,10.21,6.49,18.93,13.87,28.98,18.08,30.76,12.88,49.26,37.74,66.44,64.39,20,31.02,25.16,65.81,28.52,101.65,1.8,19.18,5.01,38.43,8.32,57.57,6.27,36.28,6.93,72.81-8.68,107.72-1.43,3.19-3.09,5.69-6.2,7.83-36.63,4.63-70.74-4.18-101.9-23.58-11.53-7.18-22.45-15.82-32.08-25.9-13.36-14-18.37-30.84-14.44-48.85,2.85-13.06,5.35-26.36,10.26-39.25,5.18-13.62,7.93-28.53,9.16-43.54,1.97-23.89.61-47.32-3.7-70.91-1.86-10.17-.72-20.6-6.5-30.23-3.8-6.33-8.11-11.89-13.3-16.95-7.07-6.88-14.14-13.77-20.57-20.02,3.02-18.66,20.38-22.48,30.02-34.14Z"/>
  <path class="cls-1" d="M562.3,657.79c-5.26-19.74,5.65-30.48,17.08-40.62,11.9-10.56,24.78-14.4,40.89-7.89,21.97,8.89,45.99,11.39,68.24,19.93,3.67,1.41,6.98,2.73,10.31,4.92,16.4,10.78,34.53,16.11,53.9,19.92,23.15,4.55,45.93,11.99,68.04,20.37,11.39,4.31,22.82,8.66,34.3,12.76,11.43,4.08,23.01,7.73,34.52,11.56,2.05,4.59,2.56,9.39-.28,13.21-11.27,15.17-19.43,31.79-24.94,49.82-.73,2.38-2.35,4.48-4.18,7.85-25.5-3.17-50.52-6.58-72.76-22.1-34.19-23.85-73.25-37.4-112.53-50.12-29.26-9.48-58.57-18.78-87.96-27.83-8.8-2.71-16.4-7.38-24.63-11.77Z"/>
  <path class="cls-4" d="M1092.51,852.91c5.33-21.64-9.02-32.54-21.3-44.47-1.4-1.36-3.26-2.26-4.65-3.63-20.29-19.98-46.71-28.5-72.8-37.92,2.47-6.38,3.94-12.08,10.79-17.94,22.03-1.77,41.97,12.77,64.23,17.5,22.71,4.82,40.33,19.51,59.86,32.9-11.73,39.24-12.64,82.99-40.68,117.5-41.54-17.74-81.16-34.67-119.37-50.99-3.03-7.15-3.36-12.08.13-17.55,15.91,7.26,32.23,13.24,49.62,11.94,12.76,9.21,24.97,16.44,41.42,16.4,17.49-.05,25.9-9.84,32.76-23.75Z"/>
  <path class="cls-6" d="M954.37,888.11c11.84,1.79,21.47,8.78,31.63,14.15,30.74,16.24,61.95,30.49,96.23,38.39,14.7,3.39,27.85,13.48,43.43,21.4-13.48,9.77-24.89,20.83-34.83,35.45-49.73-11.83-94.72-30.94-132.61-66.76,2.29-14.57-5.88-27.9-4.01-42.47l.15-.15Z"/>
  <path class="cls-2" d="M1151.44,816.33c15.58,2.56,29.08,10.71,41.46,19.14,12.78,8.7,13.61,25.79,18.74,39.35,5.93,15.68-3.83,30.09-9.09,45.76-17.67,11.56-37.46,14.84-58.46,8.71-8.36-2.44-16.94.46-24.57-2.04.02-33.28,19.06-60.77,26.32-91.75,1.36-5.79,1.31-12.85,5.6-19.17Z"/>
  <path class="cls-6" d="M931.38,846.9c-6.99-4.18-15.54-8.85-23.61-14.25-8.28-5.54-17.68-3.34-25.97-4.45-4.43-3.46-3.97-8.33-2.69-11.35,14.55-34.34,29.3-68.62,50.22-100.18,14.38,9.31,28.31,17.25,44.4,22.34-20.86,32.8-29.08,70.21-42.36,107.89Z"/>
  <path class="cls-5" d="M1240.53,840.34c12.08,3.54,9.23,16.02,10.61,23.23,2.56,13.41,8.3,22.98,19.64,32.46h59.1c2.22,21.26-7.94,34.32-29.02,35.61-11.48.71-23.25,2.46-35.03-2.5-6.77-2.85-15.42-1.24-22.7-1.61-6.01-5.33.36-8.89,1.44-12.47,6.93-22.83,3.28-44.72-3.96-66.58-.8-2.41-.25-5.26-.33-7.9l.26-.24Z"/>
  <path class="cls-3" d="M1073.03,845.89c-14.98-6.66-28.67-5.63-42.19-5.23-5.77.17-10.91-2.06-14.41-4.93-11.23-9.22-25.12-13.27-37.61-21.17-1.33-5.34-1.37-10.96.52-16.35,1.63-.58,2.91-1.53,3.96-1.32,19.43,3.84,38.87,7.68,58.24,11.83,12.61,2.7,28.81,13.28,31.48,37.17Z"/>
  <path class="cls-3" d="M703.9,601.89c-20.27-5.14-36.54-18.54-56.62-25.76,3.86-7.76,6.99-14.07,10.11-20.34,21.65-2.94,24.12-.93,35.56,19.73,4.7,8.49,12.29,15.36,11.1,26.22l-.14.15Z"/>
  <path class="cls-5" d="M1240.27,840.58c-4.56-1.63-7.78-4.28-7.41-9.7,7.12-.44,7.67,4.29,7.67,9.46l-.26.24Z"/>
  <path class="cls-3" d="M704.04,601.75c.98.47,1.95.94,2.93,1.41-.52.54-1.04,1.08-1.55,1.62-.51-.96-1.02-1.93-1.52-2.89l.14-.15Z"/>
  <path class="cls-6" d="M954.22,888.26c-.95-.5-1.91-1-2.86-1.5.53-.52,1.06-1.04,1.59-1.56.47.97.95,1.93,1.42,2.9l-.15.15Z"/>
</svg>