<?xml version="1.0" encoding="UTF-8"?>
<svg id="Layer_1" data-name="Layer 1" xmlns="http://www.w3.org/2000/svg" version="1.1" viewBox="0 0 1920 1920">
  <defs>
    <style>
      .cls-1 {
        fill: #893625;
      }

      .cls-1, .cls-2, .cls-3, .cls-4, .cls-5, .cls-6, .cls-7, .cls-8, .cls-9, .cls-10 {
        stroke-width: 0px;
      }

      .cls-2 {
        fill: #cfcab7;
      }

      .cls-3 {
        fill: #060403;
      }

      .cls-4 {
        fill: #493834;
      }

      .cls-5 {
        fill: #473733;
      }

      .cls-6 {
        fill: #443531;
      }

      .cls-7 {
        fill: #463632;
      }

      .cls-8 {
        fill: #483834;
      }

      .cls-9 {
        fill: #040303;
      }

      .cls-10 {
        fill: #483734;
      }
    </style>
  </defs>
  <path class="cls-9" d="M1170.05,1474.13c-22.14-2.44-42.14-10.85-57.87-26.59-19.94-19.96-42.38-37.03-62.65-56.54-14.01-13.48-27.95-27.08-39.56-42.74-6.3-8.5-12.59-17.07-14.35-28.12-2.18-13.74,2.57-24.52,12.71-33.31,2.36-2.04,5.27-3.45,7.98-5.07,8.16-4.88,16.02-10.01,22.55-17.17,8.01-8.79,17.82-15.63,26.98-23.17,12.46-10.26,21.44-23.04,27.28-38.05,1.45-3.74,2.14-7.62,1.21-12.43-10.24-11.25-17.98-24.95-25.29-38.92-4.18-8-9.58-13.72-19.44-15-6.86-.89-13.37-2.64-20.55-1.61-26.58,3.83-44.37-10.3-58.63-30.32-8.97-12.59-15.07-26.81-20.37-41.27-2.79-7.61-2.16-15.7-.42-23.44,2.63-11.64,8.16-22.14,14.79-31.95,4.89-7.23,12.26-10.91,20.81-12.15,3.51-.51,7.06-.68,11.54-1.09-5.79-7.56-9.89-15.32-13.18-23.64-3.77-9.53-5.05-18.57-1.64-28.66,3.25-9.61,4.6-19.86,9.69-28.23-18.89-18.52-39.73-33.91-55.78-54.31-4.91-6.24-11.22-11.09-18.05-15.22-29.14-17.59-53.36-40.9-76.16-65.81-9.12-9.96-8.99-13.03-.89-24.59,2.48-3.54,5.06-7.02,7.67-10.46,2.56-3.38,5.22-6.69,8.06-10.32-17.83-15.81-35.34-31.16-52.64-46.75-10.26-9.24-21.09-18.08-30.05-28.49-10.22-11.88-21.75-21.65-34.96-29.81-3.33-2.06-6.37-4.85-8.93-7.82-17.94-20.8-40.46-36.83-59.05-56.94-1.6-1.73-3.34-4-5.4-4.52-12.95-3.29-19.92-13.85-27.9-22.92-4.99-5.67-10.01-11.13-15.91-15.84-5.27-4.21-10.02-8.95-13.46-14.89-4.44-7.67-4.13-16.96,2.24-22.88,8.47-7.88,14.99-17.16,21.63-26.45,9.14-12.8,25.29-14.4,34.42-3.63,3.56,4.19,8.01,7.63,12.59,11.91,12.01-2.16,24.22-.8,36.35,2.26,13.69,3.46,24.84,11.64,35.97,19.59,6,4.29,7.13,11.8,8.12,18.97-5.31,6.56-7.47,15.68-16.72,19.8,22.31,21.39,44.84,41.16,67.6,60.68,22.24,19.07,44.32,38.26,64.54,59.61,10.81,11.42,23.82,20.77,35.85,31.03,28.91,24.66,57.89,49.26,86.7,74.03,5.1,4.38,9.45,9.63,14.32,14.29,6.8,6.5,13.06,13.36,21.77,17.96,6.44,3.4,11.24,9.9,16.78,15.01,5.5,5.08,9.97,11.36,17.23,14.83,4.15,0,8.52.07,12.88-.02,6.57-.13,12.9,1.78,17.61,5.81,15.94,13.64,33.4,25.47,48.19,40.46,3.61,3.66,7.11,7.39,10.29,11.49,7.08,9.13,15.84,16.57,25.06,23.52,16.88,12.71,31.72,27.37,42.9,45.52,3.72,6.04,7.86,11.83,12.75,17.07,4.94,5.29,7.53,11.56,8.54,18.92,1.61,11.8,4.85,22.97,14.7,31.31,6.32,5.35,11.42,12.1,18.76,16.35,4.89,2.83,9.79,4.42,15.71,4.01,13.84-.96,15.32.43,18.78,13.67.19.72.67,1.37,1.04,2.1-4.1,14.25-14.9,21.93-27.78,26.78-12.8,4.82-25.81,9.04-39.84,9.44-13.5.39-25.87-2.43-37.42-9.99-7.47,4.03-14.4,9.13-22.05,12.09-1.26,3.32-.7,5.73.87,8.31,12.36,20.19,23.18,41.22,33.23,62.64,2.21,4.72,5.13,8.87,7.92,13.14,19,29.08,24.84,60.58,19.15,94.78-2.45,14.71-4.73,29.42-7.81,44.01-3.19,15.1-9.03,29.1-16.14,42.73-12.18,23.35-25.67,46.03-36.01,70.31-3.08,7.24-5.54,14.75-5.13,22.8.29,5.55-.96,10.9-1.5,16.31-.86,8.57-4.94,13.81-12.23,17.61ZM1160.69,1453.25c.29.6.58,1.2.87,1.8.31-.34.62-.68.93-1.02-.6-.26-1.2-.52-1.8-.78,0-10.71.13-21.43-.06-32.14-.11-6.39,1.71-12.44,4.02-18.04,8.73-21.26,20.59-40.94,32.08-60.78,5.87-10.14,14.16-18.85,20.27-28.66,10.74-17.21,15.01-37.35,12.2-57.3-2.16-15.33-3.46-30.84-6.54-46.07-3.42-16.89-9.12-32.74-19.36-46.85-9.59-13.23-21.9-23.85-33.06-35.58-5.43-5.7-12.38-7.02-19.53-5.54-9.02,1.86-22.83,19.45-23.32,28.98-.34,6.64-1.21,13.18-2.02,19.76-1.92,15.69-6.75,30.14-13.72,44.15-5.38,10.81-11.35,21.22-17.55,31.58-8.27,13.83-18.66,24.99-32.46,33.07-11.43,6.69-22.75,13.61-34.53,19.63-7.27,3.72-11.46,8.07-9.01,16.57,2.24,2.75,4.58,5.42,6.7,8.25,11.5,15.38,23.12,30.76,36.44,44.53,17.86,18.47,35.16,37.58,55.44,53.58,14.09,11.12,28.84,21.28,44.02,30.84ZM624.91,493.97c3.2,1.38,5.95,3.64,8.04,6.48,12.49,17.03,28.33,30.94,43.64,45.16,13.22,12.27,27.56,23.37,40.41,36.13,2.47,2.45,5.16,4.67,8.03,6.78,9.45,6.94,20.24,13.27,26.93,22.46,12.63,17.34,31.2,27.43,46.21,41.76,13.3,12.7,28.11,23.92,41.09,37.12,16.03,16.3,32.21,32.43,50.67,46.08,3.14,2.32,5.86,5.41,8.21,8.57,8.01,10.8,17.47,19.98,28.22,28.11,10.61,8.03,21.1,16.39,30.56,25.7,12.68,12.47,26.53,23.62,39.31,35.99,6.99,6.77,14.56,13.17,21.8,19.82,1.27,1.16,2.86,1.19,5.92.91,6.38-8.92,14.79-17.48,23.22-26.06-1.93-2.09-2.82-3.53-4.1-4.36-13.68-8.81-22.96-22.54-36.23-31.93-10.84-7.67-20.2-17.42-30.96-25.23-19.07-13.83-36.78-29.22-53.94-45.25-12.18-11.38-23.72-23.44-35.4-35.34-11.8-12.03-23.77-23.89-35.82-35.67-4.18-4.09-8.49-8.01-13.24-11.61-9.37-7.11-18.3-15.28-26.09-23.85-11.17-12.28-22.88-23.99-34.43-35.87-14.6-15.01-29.35-29.9-45.56-43.24-14.81-12.19-29.26-24.82-44.2-36.85-9.46-7.61-19.24-14.8-27.96-23.3-5.7-5.56-11.88-6.41-19.17-2.55-5.02,2.66-8.85,6.42-12.86,10.19-3.01,2.84-3.37,6.01-2.32,9.87ZM1169.26,1084.4c-14.56-1.37-27.03-5.97-36.48-15.71-8.42-8.68-17.76-16.01-27.42-23.01-13.31-9.63-26.17-19.83-38.36-30.78-10.61-9.53-20.69-19.74-30.28-30.3-5.89-6.48-12.56-12.87-14.36-21.86,2.59-5.28,4.98-10.14,7.75-15.79-2.02-1.79-3.92-4.92-6.15-5.17-9.12-1.04-12.7-8.34-17.83-14.5.91,7.11-1.41,13.61-3.61,19.56-2.71,7.33-1.01,12.68,2.71,18.62,8.51,13.58,18.94,25.67,28.66,38.33,7.21,9.39,14.58,18.38,24.74,24.82,2.59,1.64,4.96,4.21,6.45,6.9,4.85,8.77,10.52,17.25,13.21,26.99,3.31,11.95,6.4,24.11-1.04,35.88-1.24,1.96-2.16,4.14-3.05,6.29-2.52,6.08-2.57,11.43,1.58,17.48,7.77,11.34,16.61,22.07,21.39,35.07,5.04-1.87,3.97-6.32,5.22-9.36,5.25-12.87,14.03-23.35,22.61-33.83,4.37-5.34,11.04-8.18,18.49-8.81,14.41-1.21,27.49,2.93,41.06,9.51-.4-13.07-11.44-19.75-15.29-30.34ZM1043.17,1048.35c-4.23-12.4-12.99-19.89-21.13-28.03-9.3-9.3-27.14-10.76-36.43,4.1-5.7,9.12-9.38,19.02-12.58,29.16-.85,2.68-.5,5.43.42,8.16,5.83,17.35,13.24,33.91,25.95,47.36,6.65,7.04,14.25,10.8,25.29,8.9,9.59-1.65,18.35-7.86,28.2-5.15,9.52-10.01,12.57-21.97,14-34.5-2.48-3.77-2.32-9.32-7.87-11.49-11.49,16.44-27.86,21.07-46.71,20.25-5.45-.24-9.28-2.21-11.06-7.21-1.92-5.4,1.88-7.9,5.86-10.04,17.33,4.04,27.06-1.78,36.05-21.52ZM1180.62,972.27c-8.89-16.29-8.95-16.21-20.57-24.42-2.88-2.04-5.37-4.68-7.89-7.18-14.24-14.16-28.43-28.37-42.7-42.62-3.29,3.35-6.65,5.55-8.37,9.17,1.44,4.28,4.16,7.49,6.8,10.92,7.58,9.85,14.81,19.98,21.8,30.26,7.95,11.7,7.96,25.03,6.87,38.62-1.66,2.51-3.62,4.93-6.75,6.15-2.9-1.06-5.51-2.58-8.94-2.3-8.9.71-16.53-2.72-23.97-7.5-12.47-8.01-25.07-15.74-35.73-26.22-1.8-1.77-4.5-2.63-6.89-3.98-3.24,2.92-4.68,6.33-5.39,9.97,22.59,23.8,45.85,46.32,68.53,68.84,24.46-17.42,42.3-39.82,63.19-59.72ZM1006.24,877.23c-2.13-5.08-6.75-7.33-9.39-11.22-11.69-17.23-25.31-32.79-41.61-45.7-6.51-5.16-12.63-10.63-18.52-16.42-14.6-14.35-28.2-29.86-45.74-40.84-7.54-4.72-12.71-12.85-21.61-15.2-6.11,3.79-13.88,6.17-10.78,15.84,21.55,23.32,46.81,42.74,68.28,66.08,5.91,6.42,11.71,13.21,18.64,18.38,16.2,12.05,30.54,26.03,44.76,40.22,2.35,2.35,4.83,4.58,7.82,7.41,1.93-7.38,5.38-12.94,8.16-18.55ZM1194.05,983.1c-9.05,7.54-16.63,15.48-24.88,22.67-12.42,10.84-24.81,22.1-33.01,36.95-1.23,2.23-2.24,4.01-.81,7.61,9.49,1.09,18.08,6.32,25.89,12.37,11.22,8.69,22.73,8.46,34.94,3.42,3.2-1.32,6.19-3.12,9.33-4.73-.07-3.95,2.44-6.34,4.6-9.17,9.49-12.43,14.46-25.76,5.88-40.82-5.78-10.15-11.68-20.25-21.94-28.3ZM1073.68,836.31c.37,5.7,4.07,8.3,6.96,11.5,9.01,9.99,20.64,17.05,29.65,27.08,14.49,16.14,31.54,29.19,49.78,40.86,4.36,2.79,8.69,5.76,11.91,10.75,4.32,6.69,10.35,12.77,16.86,17.42,9.75,6.96,18.51,14.5,24.1,25.19,1.35,2.58,2.43,4.91,5.79,4.99,6.55-4.3,3.26-10.46,3.66-15.69-4.35-3.79-7.34-7.95-11.99-10.53-12-6.65-22.07-15.99-32.55-24.66-5.39-4.46-10.17-9.66-14.08-15.78-4.92-7.71-13.68-11.69-20.06-18.1-14.28-14.34-28.87-28.37-42.78-43.05-7.67-8.09-16.33-11.46-27.25-9.98ZM1126.91,984.67c1.81-15.93-7.9-25.3-14.36-35.94-6.61-10.88-15.16-20.2-23.16-28.97-7.38,7.48-14.26,14.47-21.47,21.78,14.9,19.22,34.29,33.21,58.99,43.12ZM1062.2,847.48c-6.68,9.41-16.9,15.01-23.44,24.27,4.38,6.2,5.79,13.35,11.02,19.15,11.02-2.2,13.43,8.12,19.83,14.9,5.38-11.32,13.32-19.92,21.57-27.66-5.68-14.18-16.41-22.93-28.97-30.67ZM1302.82,1038.63c-9.53,0-16.97.2-24.4-.05-9.22-.31-17.27-3.32-24.16-9.93-8.75-8.4-12.76-19.26-17.53-29.91-2.51-5.6-3.07-12.41-8.58-17.13-1.53,5.93.14,9.95,2.79,14.81,6.71,12.28,10.7,25.5,4.92,39.65-2.11,5.18-3.98,10.46-5.95,15.69,9.34,3.02,18.88,1.72,27.01,4.16,10.95,3.29,19.72-.91,29.26-3.1,6.73-1.55,11.63-5.88,16.63-14.17ZM1013.09,907.87c3.47,1.7,4.34,6.19,8.3,7.3,5.37,1.52,8.43,5.59,10.32,10.42,1.71,4.36,4.42,7.18,9.19,8.6,7.26-3.29,8.93-11.5,14.72-15.74-5.6-7.52-15.37-11.42-14.69-22.36-7.12-1.2-10.86-7.58-16.88-10.32-6.3,6.51-8.24,14.48-10.96,22.1ZM698.55,483.94c8.93,11.44,20.33,19.36,30.87,28.51,5.07-4.01,9.28-7.89,11.17-13.69-11.79-7.65-29.18-13.86-42.04-14.83Z"/>
  <path class="cls-1" d="M1160.69,1453.25c-15.18-9.56-29.93-19.72-44.02-30.84-20.27-16.01-37.58-35.12-55.44-53.58-13.32-13.78-24.94-29.15-36.44-44.53-2.12-2.83-4.46-5.51-6.7-8.25-2.45-8.51,1.74-12.86,9.01-16.57,11.78-6.02,23.1-12.94,34.53-19.63,13.79-8.08,24.19-19.25,32.46-33.07,6.2-10.37,12.17-20.77,17.55-31.58,6.97-14.01,11.8-28.45,13.72-44.15.81-6.58,1.68-13.12,2.02-19.76.49-9.53,14.31-27.12,23.32-28.98,7.15-1.47,14.1-.16,19.53,5.54,11.16,11.73,23.47,22.35,33.06,35.58,10.24,14.12,15.94,29.97,19.36,46.85,3.08,15.22,4.37,30.74,6.54,46.07,2.81,19.95-1.46,40.09-12.2,57.3-6.12,9.81-14.4,18.51-20.27,28.66-11.49,19.83-23.35,39.52-32.08,60.78-2.3,5.61-4.13,11.66-4.02,18.04.18,10.71.06,21.43.06,32.14h0ZM1191.52,1330.92c1.95-17.07-8.88-29.54-14.65-43.89,5.47-9.91,10.47-19.96,12.33-31.32-1.83-3.25-2.38-7.45-6.3-9.42-9.29-.45-12.16-.56-15.81,2.4-7.14,5.8-15.52,8.63-22.27,11.05-10.62-1.44-15.09-12.1-25.1-11.59-10.13,7.03-8.96,17.67-9,26.65-8.27,12.82-24.54,16.81-28.85,32.12,3.23,10.39,12.16,13.09,21.28,15.14,9.33,2.1,18.25,4.6,23.83,13.52.8,11.09,1.61,22.36,12.3,29.86,6.49-4.98,10.87-10.58,14.56-17.33,3.71-6.8,3.44-15.12,8.72-21.48,9.19,2.41,17.81,7.02,28.96,4.28Z"/>
  <path class="cls-4" d="M624.91,493.97c-1.05-3.86-.69-7.03,2.32-9.87,4.01-3.77,7.84-7.53,12.86-10.19,7.28-3.86,13.47-3.01,19.17,2.55,8.71,8.5,18.5,15.69,27.96,23.3,14.94,12.03,29.39,24.66,44.2,36.85,16.21,13.35,30.95,28.23,45.56,43.24,11.55,11.88,23.26,23.59,34.43,35.87,7.79,8.57,16.72,16.74,26.09,23.85,4.75,3.6,9.06,7.52,13.24,11.61,12.05,11.78,24.01,23.64,35.82,35.67,11.68,11.9,23.22,23.96,35.4,35.34,17.16,16.03,34.87,31.42,53.94,45.25,10.76,7.8,20.12,17.56,30.96,25.23,13.27,9.39,22.55,23.12,36.23,31.93,1.28.83,2.17,2.27,4.1,4.36-8.43,8.59-16.84,17.15-23.22,26.06-3.06.27-4.66.25-5.92-.91-7.24-6.65-14.81-13.05-21.8-19.82-12.78-12.37-26.63-23.52-39.31-35.99-9.47-9.31-19.95-17.68-30.56-25.7-10.75-8.13-20.21-17.31-28.22-28.11-2.34-3.16-5.07-6.25-8.21-8.57-18.46-13.65-34.64-29.78-50.67-46.08-12.98-13.2-27.79-24.42-41.09-37.12-15.01-14.33-33.58-24.42-46.21-41.76-6.69-9.18-17.49-15.52-26.93-22.46-2.87-2.11-5.56-4.33-8.03-6.78-12.85-12.76-27.19-23.85-40.41-36.13-15.31-14.21-31.14-28.12-43.64-45.16-2.09-2.84-4.83-5.1-8.04-6.48Z"/>
  <path class="cls-4" d="M1169.26,1084.4c3.85,10.59,14.89,17.27,15.29,30.34-13.57-6.58-26.65-10.72-41.06-9.51-7.45.63-14.12,3.47-18.49,8.81-8.59,10.47-17.36,20.96-22.61,33.83-1.24,3.04-.18,7.5-5.22,9.36-4.77-13-13.62-23.73-21.39-35.07-4.15-6.06-4.1-11.41-1.58-17.48.89-2.15,1.81-4.33,3.05-6.29,7.44-11.77,4.34-23.93,1.04-35.88-2.69-9.74-8.36-18.22-13.21-26.99-1.49-2.69-3.86-5.26-6.45-6.9-10.16-6.44-17.53-15.44-24.74-24.82-9.72-12.65-20.15-24.75-28.66-38.33-3.72-5.93-5.43-11.29-2.71-18.62,2.2-5.95,4.52-12.46,3.61-19.56,5.13,6.16,8.71,13.46,17.83,14.5,2.23.25,4.12,3.39,6.15,5.17-2.77,5.65-5.16,10.51-7.75,15.79,1.8,8.99,8.47,15.37,14.36,21.86,9.59,10.56,19.67,20.77,30.28,30.3,12.19,10.95,25.06,21.15,38.36,30.78,9.67,7,19,14.33,27.42,23.01,9.45,9.74,21.92,14.34,36.48,15.71Z"/>
  <path class="cls-10" d="M1180.62,972.27c-20.89,19.89-38.73,42.3-63.19,59.72-22.68-22.52-45.94-45.03-68.53-68.84.71-3.64,2.14-7.05,5.39-9.97,2.39,1.34,5.09,2.21,6.89,3.98,10.67,10.47,23.26,18.21,35.73,26.22,7.44,4.78,15.07,8.21,23.97,7.5,3.42-.27,6.03,1.24,8.94,2.3,3.13-1.22,5.09-3.64,6.75-6.15,1.09-13.59,1.08-26.92-6.87-38.62-6.99-10.28-14.22-20.41-21.8-30.26-2.64-3.43-5.36-6.65-6.8-10.92,1.71-3.62,5.08-5.82,8.37-9.17,14.27,14.25,28.46,28.46,42.7,42.62,2.52,2.51,5,5.15,7.89,7.18,11.62,8.2,11.68,8.12,20.57,24.42Z"/>
  <path class="cls-8" d="M1006.24,877.23c-2.78,5.61-6.23,11.17-8.16,18.55-2.99-2.83-5.47-5.06-7.82-7.41-14.21-14.19-28.56-28.17-44.76-40.22-6.94-5.16-12.74-11.95-18.64-18.38-21.47-23.34-46.72-42.76-68.28-66.08-3.09-9.67,4.67-12.05,10.78-15.84,8.9,2.34,14.07,10.47,21.61,15.2,17.54,10.98,31.14,26.49,45.74,40.84,5.89,5.79,12,11.26,18.52,16.42,16.3,12.92,29.93,28.48,41.61,45.7,2.64,3.89,7.26,6.14,9.39,11.22Z"/>
  <path class="cls-4" d="M1194.05,983.1c10.25,8.05,16.15,18.16,21.94,28.3,8.59,15.06,3.62,28.38-5.88,40.82-2.16,2.82-4.66,5.21-4.6,9.17-3.14,1.61-6.14,3.41-9.33,4.73-12.21,5.04-23.73,5.27-34.94-3.42-7.81-6.05-16.4-11.29-25.89-12.37-1.43-3.6-.42-5.38.81-7.61,8.21-14.84,20.59-26.11,33.01-36.95,8.25-7.2,15.83-15.13,24.88-22.67Z"/>
  <path class="cls-7" d="M1073.68,836.31c10.92-1.47,19.58,1.9,27.25,9.98,13.92,14.67,28.51,28.71,42.78,43.05,6.38,6.41,15.14,10.39,20.06,18.1,3.91,6.13,8.69,11.33,14.08,15.78,10.49,8.67,20.55,18.01,32.55,24.66,4.65,2.58,7.64,6.73,11.99,10.53-.4,5.23,2.89,11.39-3.66,15.69-3.36-.08-4.44-2.41-5.79-4.99-5.59-10.69-14.35-18.22-24.1-25.19-6.51-4.65-12.54-10.73-16.86-17.42-3.22-4.99-7.55-7.96-11.91-10.75-18.24-11.68-35.29-24.73-49.78-40.86-9.01-10.03-20.65-17.09-29.65-27.08-2.89-3.21-6.6-5.8-6.96-11.5Z"/>
  <path class="cls-8" d="M1126.91,984.67c-24.7-9.92-44.09-23.9-58.99-43.12,7.21-7.32,14.1-14.3,21.47-21.78,7.99,8.77,16.55,18.08,23.16,28.97,6.46,10.64,16.17,20.01,14.36,35.94Z"/>
  <path class="cls-10" d="M1062.2,847.48c12.56,7.74,23.29,16.49,28.97,30.67-8.24,7.74-16.19,16.34-21.57,27.66-6.4-6.78-8.81-17.1-19.83-14.9-5.22-5.8-6.63-12.96-11.02-19.15,6.55-9.26,16.77-14.86,23.44-24.27Z"/>
  <path class="cls-7" d="M1302.82,1038.63c-5,8.29-9.9,12.62-16.63,14.17-9.54,2.2-18.31,6.4-29.26,3.1-8.13-2.44-17.67-1.14-27.01-4.16,1.98-5.23,3.84-10.51,5.95-15.69,5.77-14.15,1.79-27.37-4.92-39.65-2.66-4.86-4.32-8.88-2.79-14.81,5.51,4.72,6.07,11.53,8.58,17.13,4.77,10.65,8.78,21.51,17.53,29.91,6.88,6.61,14.94,9.63,24.16,9.93,7.43.25,14.87.05,24.4.05Z"/>
  <path class="cls-5" d="M1013.09,907.87c2.72-7.62,4.66-15.59,10.96-22.1,6.02,2.74,9.76,9.11,16.88,10.32-.68,10.94,9.09,14.84,14.69,22.36-5.79,4.25-7.46,12.45-14.72,15.74-4.77-1.42-7.48-4.24-9.19-8.6-1.89-4.83-4.95-8.91-10.32-10.42-3.96-1.12-4.83-5.6-8.3-7.3Z"/>
  <path class="cls-6" d="M698.55,483.94c12.86.97,30.25,7.18,42.04,14.83-1.9,5.8-6.11,9.67-11.17,13.69-10.54-9.15-21.94-17.07-30.87-28.51Z"/>
  <path class="cls-1" d="M1160.68,1453.25c.6.26,1.2.52,1.8.78-.31.34-.62.68-.93,1.02-.29-.6-.58-1.2-.87-1.8h0Z"/>
  <path class="cls-3" d="M1191.52,1330.92c-11.15,2.73-19.76-1.87-28.96-4.28-5.28,6.36-5.01,14.68-8.72,21.48-3.69,6.75-8.07,12.36-14.56,17.33-10.69-7.5-11.5-18.77-12.3-29.86-5.58-8.92-14.5-11.42-23.83-13.52-9.11-2.05-18.05-4.75-21.28-15.14,4.31-15.3,20.58-19.3,28.85-32.12.03-8.99-1.14-19.62,9-26.65,10-.51,14.47,10.15,25.1,11.59,6.75-2.42,15.13-5.25,22.27-11.05,3.65-2.96,6.51-2.85,15.81-2.4,3.93,1.97,4.47,6.17,6.3,9.42-1.85,11.35-6.85,21.4-12.33,31.32,5.78,14.35,16.61,26.82,14.65,43.89ZM1127,1267.1c4.63,17.16-3.21,27.42-17.27,34.74,7.23,5.64,15.68,5.51,22.27,10.27,7.78,5.61,7.86,13.97,10.63,22.98,3.1-8.42,4.79-16.52,12.46-19.64,6.29-1.37,11.83.67,18.27,1.54-4.1-8.99-10.37-15.48-12.38-24.4.03-4.2,4.15-8.5.48-13.56-15.03,8.44-24.35-.58-34.44-11.92Z"/>
  <path class="cls-2" d="M1127,1267.1c10.1,11.34,19.41,20.36,34.44,11.92,3.67,5.06-.45,9.35-.48,13.56,2.01,8.93,8.28,15.41,12.38,24.4-6.45-.87-11.98-2.92-18.27-1.54-7.67,3.12-9.36,11.22-12.46,19.64-2.77-9.01-2.84-17.37-10.63-22.98-6.59-4.75-15.04-4.62-22.27-10.27,14.06-7.31,21.91-17.58,17.27-34.74Z"/>
</svg>