<?xml version="1.0" encoding="UTF-8"?>
<svg id="Layer_1" data-name="Layer 1" xmlns="http://www.w3.org/2000/svg" version="1.1" viewBox="0 0 1920 1920">
  <defs>
    <style>
      .cls-1 {
        fill: #050503;
      }

      .cls-1, .cls-2, .cls-3, .cls-4, .cls-5, .cls-6, .cls-7 {
        stroke-width: 0px;
      }

      .cls-2 {
        fill: #050403;
      }

      .cls-3 {
        fill: #fadd2a;
      }

      .cls-4 {
        fill: #f1d529;
      }

      .cls-5 {
        fill: #dac125;
      }

      .cls-6 {
        fill: #fcde2b;
      }

      .cls-7 {
        fill: #070601;
      }
    </style>
  </defs>
  <path class="cls-2" d="M629.64,1160.17c1.52-38.68,8.67-76.49,27.02-112.16,25.8-50.15,53.69-98.68,89.34-142.72,18.95-23.41,39.98-44.16,63.96-61.95,19.67-14.58,40.1-28.2,61.97-39.33,15.82-8.05,32.23-14.78,47.49-24.1,9.56-5.83,20.75-8.79,32.35-8.68,2.67.03,5.6.53,7.96-.37,22.54-8.59,43.03-.66,63.28,7.89,26.05,11.01,49.19,26.62,68.26,47.55,20.31,22.29,43.04,41.43,68.5,57.5,22.85,14.43,40.04,35.17,57.77,54.88,23.57,26.2,40.04,57.46,57.96,87.69,17.61,29.72,18.45,60.13,8.31,91.61-8.35,25.92-12.05,52.73-16.24,79.38-4.7,29.9-15.87,57.11-30.32,83.21-11.23,20.29-20.67,41.53-33.19,61.15-5.33,8.36-10.23,16.72-18.4,22.77-3.7,2.74-7.19,6.15-9.76,9.95-19.83,29.21-47.29,47.3-80.55,58.16-30.2,9.87-60.28,19.29-92.23,21.98-17.81,1.5-35.33,1.61-53.14-.09-29.05-2.77-57.16-9.27-85.11-17.27-18.49-5.29-36.16-12.62-53.51-20.57-21.05-9.64-42.07-19.56-61.7-32-23.77-15.07-44.14-34.08-62.76-55.07-.41-.46-.29-1.45-.73-1.83-35.09-30.48-42.88-73.08-51.67-115.41-3.54-17.06-4.19-34.21-4.88-52.18ZM949.94,1401.59c26.93,1.26,52.85-4.43,78.59-10.85,14.66-3.65,30.18-4.04,43.74-12.17,12.52-7.52,25.99-13.22,40.11-17.08,7.25-1.98,13.94-5.07,18.99-10.48,20.07-21.51,47.48-37.09,55.56-68.4.48-1.85,1.88-3.49,2.99-5.14,15.67-23.28,24.6-49.58,33.82-75.73,1.53-4.33,3.26-8.98,3.15-13.43-.43-16.76,3.9-32.93,5.62-49.4,3.17-30.53-1.51-58.87-16.22-85.86-4.36-8-7.7-16.46-9.77-25.84-4.11-18.65-9.01-37.68-20.52-53.46-16.92-23.2-35.94-44.27-60.98-59.58-18.66-11.41-36.79-24.05-52.53-39.4-19.64-19.17-41.64-35.24-63.45-51.7-12.51-9.45-24.99-10.4-39.35-5.7-27.87,9.13-53.4,22.82-78.02,38.44-10.09,6.4-19.79,13.46-30.06,19.55-25.9,15.34-48.16,35.37-71.05,54.56-33.58,28.15-58.24,63.95-82.69,99.65-12.29,17.94-24.34,36.93-29.37,58.34-7.05,29.99-7.11,60.21,1.38,90.52,6.78,24.2,14.07,48.22,21.13,72.32,3.24,11.06,6.9,21.52,14.15,30.31,25.33,30.69,50.08,60.98,87.01,80.37,46.81,24.58,95.26,38.84,147.75,40.19Z"/>
  <path class="cls-1" d="M1122.81,557.99c17.52,6,29.93,17.47,42.98,27.46,25.84,19.77,30.5,64.99,10.62,89.25-4.32,5.27-9.26,9.12-15.44,12.15-34.48,16.93-70,28.18-109.14,23-9.29-1.23-18.7-.16-27.87,1.73-31.34,6.45-60.28-1.87-88.04-15.15-8.72-4.17-16.95-10.56-20.3-20.76-1.3-3.95-3.43-7.22-6.67-9.75-23.17-18.03-37.19-43.32-50.93-68.09-8.79-15.85-13.44-34.12-15.77-52.85-5.39-43.25,43.56-88.53,95.54-62.15,12.34,6.26,24.45,9.53,38.14,9.19,7.81-.19,14.12-2.11,20-7.27,7.98-7,16.31-14.68,26.42-17.38,27.01-7.22,52.3-1.99,73.92,16.06,10.6,8.85,13.36,22.72,17.34,35.2,3.98,12.48,6.07,25.56,9.21,39.35ZM1152.1,663.03c4.88-7.19,9-13.09,6.8-21.22-5.08-18.77-14.87-33.87-34.08-43.59-11,3.66-22.45-1.52-33.88-4.38-25.04-6.25-33.72-27.78-21.44-50.85,2.79-5.25,6.24-10.18,9.67-15.06,4.19-5.94,5.84-12.24,1.59-18.49-3.96-5.81-9.64-8.69-17.19-7.93-12.79,1.29-23.96,3.75-33.37,14.69-19.17,22.27-50.97,29.35-80.46,8.71-7.72-5.4-13.72-12.53-20.78-17.8-33.29-4.48-50.79,17.94-38.77,48.48,8.25,20.98,24.28,34.95,42.64,45.86,19.62,11.66,34.21,26.58,40.35,49.09,10.64-.76,19.99,3.23,30.05,2.09,35.88-4.06,71.78-3.64,106.47,7.01,13.98,4.29,27.27,4.21,42.4,3.39Z"/>
  <path class="cls-6" d="M949.94,1401.59c-52.49-1.35-100.94-15.62-147.75-40.19-36.92-19.39-61.68-49.68-87.01-80.37-7.25-8.79-10.91-19.25-14.15-30.31-7.06-24.1-14.35-48.12-21.13-72.32-8.5-30.31-8.43-60.53-1.38-90.52,5.03-21.41,17.08-40.4,29.37-58.34,24.45-35.69,49.11-71.5,82.69-99.65,22.89-19.19,45.16-39.22,71.05-54.56,10.27-6.09,19.97-13.15,30.06-19.55,24.62-15.62,50.15-29.31,78.02-38.44,14.35-4.7,26.84-3.75,39.35,5.7,21.8,16.46,43.81,32.53,63.45,51.7,15.74,15.36,33.87,27.99,52.53,39.4,25.04,15.31,44.06,36.38,60.98,59.58,11.5,15.78,16.4,34.81,20.52,53.46,2.07,9.38,5.41,17.85,9.77,25.84,14.71,26.98,19.4,55.33,16.22,85.86-1.71,16.47-6.04,32.65-5.62,49.4.11,4.46-1.62,9.1-3.15,13.43-9.22,26.15-18.15,52.45-33.82,75.73-1.11,1.65-2.52,3.29-2.99,5.14-8.08,31.31-35.49,46.89-55.56,68.4-5.05,5.42-11.74,8.51-18.99,10.48-14.13,3.86-27.59,9.56-40.11,17.08-13.56,8.14-29.08,8.52-43.74,12.17-25.74,6.42-51.66,12.1-78.59,10.85ZM1073.41,1083.71c6.38-4.8,12.66-3.68,18.51-4.08,4.73-.32,9.16-1.09,13.5-2.94,10.8-4.59,14.97-11.09,13.63-21.49-1.33-10.24-7.42-16.94-17.93-18.15-7.17-.82-14.54-1.74-21.65,1.4-5.56,2.45-11.58,2.8-17.55,2.64-17.98-27.89-30-31.39-46.3-14.36-5.05,14.22,4.8,26.26,4.36,38.74-20.87,21.16-47.68,38.07-39.21,73.86,12.71,9.01,23.75,19.41,32.47,32.24,5.51,8.11,13.19,12.43,23.4,13.02,9.78.56,19.48,2.57,28.47,3.84,9.68,12.57,3.47,27.46,11.04,40.31-28.92,4.98-58.78,3.47-73.07,33.6q10.96,18.8,29.69,19.11c16.33.28,32.66.58,49.41-6.23-8.87,26.64-7.09,38.97,5.67,45.98,13.08,7.19,26.28,4.73,34.05-11.13,5.66-19.69-9.34-34.62-9.12-52.57,9.17-9.45,18.47-18.75,25.89-30.11,11.54-17.68,8.66-34.62,2.68-53.14-5.66-17.52-18.75-22.36-34.13-25.42-2.52-.5-5.03-1.02-7.21-1.46-9.07-21.85-25.4-39.94-26.59-63.66Z"/>
  <path class="cls-3" d="M1152.1,663.03c-15.13.81-28.42.9-42.4-3.39-34.69-10.65-70.59-11.07-106.47-7.01-10.06,1.14-19.41-2.85-30.05-2.09-6.14-22.5-20.73-37.43-40.35-49.09-18.37-10.91-34.39-24.88-42.64-45.86-12.02-30.55,5.48-52.96,38.77-48.48,7.06,5.27,13.06,12.4,20.78,17.8,29.49,20.64,61.3,13.56,80.46-8.71,9.41-10.94,20.59-13.4,33.37-14.69,7.55-.76,13.23,2.13,17.19,7.93,4.26,6.25,2.61,12.54-1.59,18.49-3.44,4.87-6.88,9.81-9.67,15.06-12.28,23.07-3.6,44.6,21.44,50.85,11.43,2.85,22.88,8.03,33.88,4.38,19.21,9.72,29,24.82,34.08,43.59,2.2,8.13-1.92,14.03-6.8,21.22Z"/>
  <path class="cls-7" d="M1073.41,1083.71c1.2,23.73,17.53,41.81,26.59,63.66,2.17.44,4.69.95,7.21,1.46,15.38,3.06,28.47,7.9,34.13,25.42,5.99,18.52,8.86,35.46-2.68,53.14-7.42,11.36-16.72,20.67-25.89,30.11-.21,17.95,14.78,32.87,9.12,52.57-7.78,15.86-20.97,18.32-34.05,11.13-12.76-7.01-14.54-19.34-5.67-45.98-16.75,6.81-33.08,6.51-49.41,6.23q-18.73-.32-29.69-19.11c14.29-30.13,44.15-28.61,73.07-33.6-7.57-12.85-1.36-27.74-11.04-40.31-8.99-1.27-18.68-3.27-28.47-3.84-10.21-.59-17.9-4.91-23.4-13.02-8.72-12.83-19.76-23.23-32.47-32.24-8.48-35.79,18.34-52.7,39.21-73.86.43-12.48-9.41-24.52-4.36-38.74,16.3-17.03,28.31-13.53,46.3,14.36,5.97.16,11.99-.18,17.55-2.64,7.12-3.14,14.48-2.22,21.65-1.4,10.51,1.21,16.6,7.9,17.93,18.15,1.35,10.39-2.83,16.9-13.63,21.49-4.34,1.84-8.77,2.62-13.5,2.94-5.85.39-12.13-.73-18.51,4.08ZM1040.6,1096.7c-9.82,10.37-22.92,15.21-30.05,27.96,8.4,7,16.37,13.64,23.91,19.92,7.38-.96,14.03,2.3,21.61-2.43-5.58-14.33-6.51-30.2-15.47-45.45ZM1111.85,1218.73c11.42-8.71,20.54-18.12,13.31-33.01-5.1-1.97-9.96-2.89-13.31.58v32.44Z"/>
  <path class="cls-4" d="M1040.6,1096.7c8.96,15.25,9.89,31.12,15.47,45.45-7.59,4.73-14.23,1.47-21.61,2.43-7.54-6.28-15.51-12.92-23.91-19.92,7.14-12.75,20.23-17.59,30.05-27.96Z"/>
  <path class="cls-5" d="M1111.85,1218.73v-32.44c3.35-3.46,8.22-2.55,13.31-.58,7.23,14.89-1.9,24.3-13.31,33.01Z"/>
</svg>