<?xml version="1.0" encoding="UTF-8"?>
<svg id="Layer_1" data-name="Layer 1" xmlns="http://www.w3.org/2000/svg" version="1.1" viewBox="0 0 1920 1920">
  <defs>
    <style>
      .cls-1 {
        fill: #9d8077;
      }

      .cls-1, .cls-2, .cls-3, .cls-4, .cls-5, .cls-6, .cls-7, .cls-8 {
        stroke-width: 0px;
      }

      .cls-2 {
        fill: #453531;
      }

      .cls-3 {
        fill: #493a35;
      }

      .cls-4 {
        fill: #483733;
      }

      .cls-5 {
        fill: #493834;
      }

      .cls-6 {
        fill: #fff;
      }

      .cls-7 {
        fill: #483834;
      }

      .cls-8 {
        fill: #030303;
      }
    </style>
  </defs>
  <g>
    <path class="cls-8" d="M777.5,1208.55c-38.77-3.72-72.75-15.22-105.63-30.6-10.92-5.11-19.13-12.61-24.26-23.52-8.81-18.69-13.87-37.06-11.11-58.97,3.75-29.82,9.67-59.59,8.97-90.02-.44-19.25,10.23-35.6,17.15-52.86,4.34-10.83,12.21-19.02,19.44-27.86,10.34-12.63,25.79-15.21,39.18-21.8,3.13-1.54,6.87-1.64,10.22-3.43,21.49-11.48,44.64-14.24,68.59-12.41,2.99.23,6.02.03,7.6.03,5.95-3.22,5.14-8.09,6.37-11.97,11.24-35.44,36.91-58.89,65.84-79.68,20.72-14.89,42.93-26.77,67.78-33.39-4.03-9.4-7.21-18.66-5.7-28.32,3.62-23.15,32.51-47.63,61.98-36.19,15.9,6.17,27.66,17.55,34.62,33.05,7.75,17.23.47,32.82-7.15,48.06-.79,1.57-2.03,2.92-3,4.29,3.82,8.55,12.22,9.96,19.5,12.03,19.35,5.49,34.03,16.1,46.33,32.44,14.27,18.96,26.39,38.72,36.11,60.29,3.67,8.15,2.25,18.3,9.94,24.73,20.21,3.92,40.65,4.83,61.19,5.22,10.78.21,21.57,1.41,32.28,2.78,11.03,1.41,18.84,7.75,23.65,17.79,2.71,16.72-3.46,28.17-20,33.69-6.51,2.17-10.34,7.31-14.48,12.85-21.37,28.58-43.64,56.48-65.19,84.92-8.77,11.57-16.52,23.92-24.72,35.88.42,14.07-1.74,27.61-4.85,41.21-2.14,9.36-2.51,19.35-2.19,29.01.78,23.73-1.07,47.31-4.08,70.72-2.29,17.83-6.75,35.39-10.61,52.98-.6,2.72-2.88,5.27-4.89,7.43-14.59,15.76-30.41,29.37-52.79,32.99-6.99,1.13-13.52,4.9-20.38,7.1-15.94,5.12-32.55,3.98-48.66,2.62-7.62-.64-15.47-1.93-23.22-2.26-18.67-.79-37.17-2.77-55.48-6.52-2.95-.6-6.08-.87-9.07-.62-20.66,1.7-40.74-5.57-61.5-3.64-9.81.91-18.54-4.83-27.52-8.21-5.04-1.89-9.57-4.88-14.85-6.6-15.12-4.93-23.99-16.71-23.2-32.78.94-19.23,3.58-38.37,5.5-57.55.71-7.13,1.45-14.25,2.34-22.96ZM915.09,817.12c-2.83-5.49-6.71-3.15-10.68-1.61-10.92,4.22-18.51,13.2-27.93,19.32-14.36,9.34-20.47,24.57-30.39,37.01-1.7,2.13-1.51,6.96,1.58,11.06,17.7,1.64,36.21.71,54.68,3.45,14.15,2.1,28.77,3.22,41.63,8.65,19.93,8.41,40.88,7.77,61.3,9.79,24.1,2.38,48.6.74,72.92.63,4.01-.02,8.59,1.71,12.34-2.87.54-19.05-9.36-34.67-18.67-50.61-5.91-10.12-12.95-19.66-24.33-22.74-8.29-2.24-15.56-6.02-22.78-9.9-16.72-8.99-34.47-11.9-53.19-12.88-16.47-.86-31.94,4.58-48.03,4.41-.68,2.41-1.16,4.14-1.65,5.86-2.27.14-4.54.28-6.81.43ZM1065.63,1300.06c16.27-8.42,15.79-25.58,16.72-39.29,1.63-23.98,5.73-47.78,4.82-72.09-1.29-34.65-.49-69.38-.23-104.08.08-11.32-1.31-22.67,3.06-33.93,2.06-5.3,1.92-12.51.2-18.04-5.57-17.83-2.89-35.97-3.29-53.95-.24-10.85-.2-21.51-5.6-32.24-6.25-5.77-14.9-4.34-23.26-4.62-44.69-1.51-89.43,2.92-134.18-3-19.48-2.58-39.24-6.51-59.25-4.4-2.26.24-5.01-.1-6.91-1.23-8.98-5.37-15.81-.78-22.76,3.88,3.04,13.72,7.31,26.72,7.12,40.61-.34,25.92,1.22,51.97-3.99,77.59-6.35,31.27-18.1,61.48-18.2,93.96-7.72,18.83-3.14,39.05-6.15,58.59-3.06,19.86-7.45,40.42-4.6,61.01.62,4.44-5.57,6.93-1.81,12.8,18.02,7.54,37.19,14.52,57.46,19.45,11.13,2.71,22.32,2.51,33.38,4.94,17.38,3.83,35.61,8.69,53.36,4.79,16.84-3.71,33.51-2.51,50.28-3.17,4.25-.17,8.83.84,12.7-.4,16.67-5.34,33.75-7.08,51.12-7.17ZM797.45,931.35c-21.37-.88-41.98-1.98-61.71,3.79-12.23,3.58-25.42,4.99-36.1,13.89-19.67,16.38-34.35,34.63-33.17,62.25,1.05,24.69.13,49.36,3.34,74.1,2.33,17.97,5.89,35.04,13.88,51.2,4.95,10,12.69,16.89,22.28,22.69,23.57,14.25,48.89,8.04,72.95,9.51,7.23-10.5,4.65-19.71,3.38-29.42-12.52,1.3-23.05-4.27-34.72-3.91-21.78.66-44.54-20.55-44.36-45.2.14-18.66,1.74-37.24,2.83-55.81,1.28-21.71,9.66-39.2,21.33-55.86,6.28-8.97,15.23-14.27,27.41-15.11,12.74-.88,25.22-6.05,37.5.66,4.54-10.74,7.34-20.36,5.17-32.76ZM787.32,1096.11c-1.31-31.89,5.71-62.9,2.13-94.95-16.08.16-31.26-8.68-45.99,1.71-14.1,19.38-12.49,64.43-2.66,94.5,15.8,7.17,24.06,7.07,46.52-1.25ZM1137.06,1041.13c24.88-26.69,47.93-50.89,66.77-79.93-20.86-3.71-40.55-9.95-62.42-7.78,0,15.21,2.61,29.71-.7,42.7-3.71,14.55-1.33,28.52-3.66,45ZM973.75,738.79c7.1,8.24,14.4,16.87,26.08,20.19,4.6-2.82,8.67-6.11,10.3-11.3-7.21-19.79-10.43-21.87-32.49-20.31,1.29,4.38-4.38,6.13-3.89,11.42Z"/>
    <path class="cls-3" d="M1065.62,1300.06c-17.36.09-34.44,1.83-51.11,7.17-3.88,1.24-8.45.23-12.7.4-16.77.66-33.44-.54-50.28,3.17-17.75,3.91-35.98-.96-53.36-4.79-11.06-2.43-22.25-2.24-33.38-4.94-20.28-4.94-39.44-11.92-57.46-19.45-3.76-5.87,2.43-8.36,1.81-12.8-2.85-20.59,1.54-41.15,4.6-61.01,3.01-19.55-1.57-39.77,6.15-58.59.1-32.48,11.85-62.69,18.2-93.96,5.2-25.62,3.64-51.67,3.99-77.59.18-13.89-4.09-26.89-7.12-40.61,6.95-4.66,13.79-9.25,22.76-3.88,1.89,1.13,4.65,1.47,6.91,1.23,20.01-2.11,39.78,1.82,59.25,4.4,44.75,5.92,89.48,1.49,134.18,3,8.36.28,17.01-1.14,23.26,4.62,5.4,10.73,5.36,21.4,5.6,32.24.39,17.98-2.29,36.12,3.29,53.95,1.73,5.53,1.86,12.74-.2,18.04-4.38,11.26-2.98,22.61-3.06,33.93-.26,34.7-1.06,69.43.23,104.08.9,24.31-3.2,48.11-4.82,72.09-.93,13.7-.45,30.87-16.72,39.29Z"/>
    <path class="cls-5" d="M921.9,816.7c.49-1.73.97-3.45,1.65-5.86,16.09.17,31.56-5.27,48.03-4.41,18.71.97,36.47,3.89,53.19,12.88,7.22,3.88,14.49,7.66,22.78,9.9,11.38,3.08,18.42,12.62,24.33,22.74,9.31,15.94,19.21,31.56,18.67,50.61-3.76,4.58-8.34,2.85-12.34,2.87-24.32.11-48.82,1.75-72.92-.63-20.43-2.01-41.38-1.38-61.3-9.79-12.86-5.43-27.48-6.54-41.63-8.65-18.47-2.74-36.98-1.82-54.68-3.45-3.09-4.11-3.28-8.93-1.58-11.06,9.92-12.44,16.04-27.67,30.39-37.01,9.42-6.12,17.01-15.1,27.93-19.32,3.98-1.54,7.86-3.88,10.68,1.61-7.33,8.23-14.66,16.46-21.51,24.14v14.71c4.22,5.16,8.25,9.62,13.9,12.94,6.94,0,14.3.82,21.4-.2,9.95-1.43,19.89-4.28,24.5-14.69,4.49-10.14,2.26-19.92-3.66-28.8-1.95-2.92-5.15-5.01-7.4-7.12-7.26-.5-13.84-.95-20.43-1.4Z"/>
    <path class="cls-7" d="M797.45,931.35c2.17,12.4-.63,22.02-5.17,32.76-12.28-6.71-24.76-1.53-37.5-.66-12.18.84-21.13,6.14-27.41,15.11-11.66,16.65-20.04,34.14-21.33,55.86-1.1,18.57-2.7,37.15-2.83,55.81-.18,24.65,22.58,45.86,44.36,45.2,11.67-.35,22.2,5.22,34.72,3.91,1.27,9.71,3.85,18.92-3.38,29.42-24.06-1.47-49.38,4.74-72.95-9.51-9.59-5.8-17.34-12.68-22.28-22.69-7.99-16.16-11.55-33.24-13.88-51.2-3.21-24.73-2.29-49.4-3.34-74.1-1.17-27.62,13.51-45.86,33.17-62.25,10.68-8.9,23.87-10.31,36.1-13.89,19.73-5.77,40.33-4.67,61.71-3.79Z"/>
    <path class="cls-4" d="M1137.06,1041.13c2.33-16.48-.05-30.45,3.66-45,3.31-12.99.7-27.49.7-42.7,21.87-2.17,41.56,4.07,62.42,7.78-18.84,29.04-41.89,53.24-66.77,79.93Z"/>
    <path class="cls-1" d="M921.9,816.7c6.59.45,13.17.91,20.43,1.4,2.25,2.11,5.45,4.2,7.4,7.12,5.91,8.88,8.14,18.67,3.66,28.8-4.61,10.42-14.55,13.26-24.5,14.69-7.1,1.02-14.46.2-21.4.2-5.64-3.32-9.68-7.78-13.9-12.94v-14.71c6.85-7.69,14.18-15.92,21.51-24.14,2.27-.14,4.54-.28,6.81-.43Z"/>
    <path class="cls-2" d="M973.75,738.79c-.49-5.29,5.19-7.04,3.89-11.42,22.06-1.55,25.27.52,32.49,20.31-1.63,5.19-5.7,8.48-10.3,11.3-11.68-3.33-18.98-11.95-26.08-20.19Z"/>
  </g>
  <path class="cls-6" d="M1185.27,594.23c-.99,9.38,1.99,18.68,4.93,27.64,4.81,14.69,9.63,29.38,14.44,44.07,5.57,17.01,11.22,34.96,7.73,52.52-2.53,12.72-9.63,23.97-16.24,35.13-9.07,15.31-17.53,31.21-22.15,48.39-4.62,17.19-5.19,35.91,1.31,52.47,3.06,7.8,8.09,15.39,15.78,18.72,7.69,3.33,18.27.71,21.43-7.06,2.97-7.31-1.3-15.31-4.39-22.56-3.75-8.81-5.88-18.32-6.22-27.89-.32-8.86,1.05-18.21,6.42-25.27,2.89-3.8,6.77-6.72,10.64-9.52,16.36-11.82,33.8-22.64,47.06-37.86,13.26-15.22,21.91-36.19,16.74-55.7-4.46-16.82-18.1-29.46-31.68-40.35-12.67-10.16-26.02-19.84-35.93-32.71-5.01-6.51-9.02-13.95-11.24-21.89-1.62-5.81.72-19.41-2.39-23.2-9.13,4.09-15.22,15.44-16.23,25.06Z"/>
</svg>