<?xml version="1.0" encoding="UTF-8"?>
<svg id="Layer_1" data-name="Layer 1" xmlns="http://www.w3.org/2000/svg" version="1.1" viewBox="0 0 1920 1920">
  <defs>
    <style>
      .cls-1 {
        fill: #70a4da;
      }

      .cls-1, .cls-2, .cls-3, .cls-4, .cls-5, .cls-6, .cls-7, .cls-8, .cls-9, .cls-10, .cls-11, .cls-12, .cls-13, .cls-14, .cls-15 {
        stroke-width: 0px;
      }

      .cls-2 {
        fill: #cfc9b7;
      }

      .cls-3 {
        fill: #d0cbb8;
      }

      .cls-4 {
        fill: #483934;
      }

      .cls-5 {
        fill: #050506;
      }

      .cls-6 {
        fill: #ede9de;
      }

      .cls-7 {
        fill: #275c90;
      }

      .cls-8 {
        fill: #cec8b6;
      }

      .cls-9 {
        fill: #6da1d5;
      }

      .cls-10 {
        fill: #eeeade;
      }

      .cls-11 {
        fill: #76412e;
      }

      .cls-12 {
        fill: #eeeadf;
      }

      .cls-13 {
        fill: #6ea2d7;
      }

      .cls-14 {
        fill: #040303;
      }

      .cls-15 {
        fill: #834834;
      }
    </style>
  </defs>
  <path class="cls-14" d="M1637.02,889.22c-5.08.69-9.38-.66-13.4-3.51-9.63-6.82-18.98-13.67-24.95-24.46-3.37-6.09-8.56-11.21-13.12-16.61-1.24-1.47-3.02-2.68-4.78-3.51-14.27-6.72-25.76-17-36.76-28.46-3.73,1.26-4.14,4.98-4.95,7.89-3.92,14.11-11.88,26.04-19.05,38.57-8.23,14.39-16.88,28.67-21.98,44.78-4.32,13.62-10.24,26.72-15.29,40.11-3.9,10.34-6.89,21.08-11.47,31.1-8.23,17.98-14.61,36.6-20.46,55.4-3.28,10.54-7.41,20.71-11.18,31.05-4.84,13.28-11.92,25.44-17.6,38.28-6.77,15.29-15.71,29.58-21.58,45.34-3.02,8.1-6.31,16.11-9.23,24.24-3.4,9.48-8.51,18.14-12.63,27.27-1.02,2.26-2.45,3.84-4.37,5.33-3.45,2.69-6.75,5.59-9.88,8.66-5.28,5.19-11.97,7.72-18.87,8.95-13.36,2.39-27.68-9.59-29.3-24.42-1.5-13.75-.13-27.41,2.48-41.01,3.21-16.72,10.59-31.51,18.56-46.43,17.03-31.87,34.58-63.57,48.03-97.2,6.69-16.74,12.85-33.72,18.98-50.68,6.56-18.14,16.11-34.62,25.59-51.18,11.83-20.68,24.22-41.09,33.88-62.87,5.41-12.21,9.9-24.8,16.92-36.26.68-1.1,1.21-2.43,1.34-3.7.72-7.09,3.52-13.53,6.18-19.79-1.17-2.8-3.5-1.84-5.31-2.2-9.17-1.82-18.37-3.31-27.05-7.17-5.84-2.6-12.1-3.83-18.66-3.3-3.99.32-7.93-.39-11.94-1.09-7.09-1.23-14.2-3.51-21.7-1.07-3.06,1-6.95.96-10.05.03-9.2-2.76-17.69.4-26.48,1.92-6.3,1.09-12.75,4.2-19.17-.5-4.28-3.13-5.4-5.42-4.39-10.72,1.11-5.88,4.01-10.58,8.12-14.8,13.69-14.05,30.37-23.1,48.66-29.6,19.74-7.02,39.84-11.42,61.02-10.51,14.08.61,28.23-.24,42.2,2.43,7.21,1.38,13.88,4.55,20.77,6.47,2.94-3.36,5.37-6.54,8.21-9.29,5.37-5.2,12.36-7.09,19.4-6.58,7.95.58,17.26,11.78,16.59,20.03-.52,6.47,1.87,13.21-2.27,19.4,14.15,10.8,27.02,22.12,38.7,34.73,4.35,4.7,8.2,9.73,11.58,15.24,3.85,6.27,7.81,12.51,12.9,17.96,3.72,3.98,6.06,8.71,7.13,14.21,1.53,7.81,2.37,15.74,5.55,23.25,3.51,8.31,2.96,17.64,5.59,26.32,1.02,3.39-.55,7.87-3.35,11.12-1.98,2.31-3.74,4.81-7.15,6.83ZM1343.98,1194.39c8.4-4.74,15.36-11.93,22.85-18.39,1.64-1.42,2.87-3.89,3.28-6.07,2.34-12.53,9.04-23.32,13.6-34.95,5.77-14.71,12.44-29.09,17.66-43.99,5.56-15.89,12.58-31.15,18.69-46.8,5.39-13.82,12.11-27.14,17.02-41.12,6.87-19.55,16.32-38.08,21.75-58.23,3.4-12.63,10.13-24.21,14.44-36.71,4.17-12.11,8.94-24.05,12.81-36.28,2.52-7.96,6.58-15.31,11.15-22.02,8.82-12.96,14.81-27.12,20.51-41.52.91-2.29,1.18-4.45.59-6.73q-9.12-6.85-16.27-6.15c3.5,17.61-6.08,30.49-16.48,42.85-3.1,3.68-5.32,7.74-7.09,11.95-5.49,13.04-10.61,26.23-15.62,39.47-3.04,8.03-7.25,15.51-10.57,23.34-4.64,10.96-9.36,21.83-14.44,32.6-4.91,10.4-9.11,21.24-12.45,32.25-2.69,8.87-5.13,17.72-9.6,25.9-3.01,5.5-6.64,10.78-8.77,16.61-4.91,13.36-11.45,25.98-17.2,38.94-4.4,9.93-10.26,19.16-16.53,28.29-9.29,13.53-14.89,29.46-21.24,44.73-6.49,15.62-7.49,32.64-11.89,48.82-1.08,3.99-2.32,9.58,3.79,13.2ZM1632.35,856.69c-5.25-5.32-7.93-11.17-10.54-17.41-3.87-9.25-5.24-20.15-14.63-26.43-.53-.35-.97-1-1.19-1.61-2.13-5.95-7.05-9.65-11.79-12.92-5.62-3.87-10.1-8.78-15.02-13.3-3.68-3.38-6.94-7.08-11.35-9.82-5.33-3.32-10.03-7.78-14.56-12.19-8.14-7.93-16.86-14.61-27.53-19.17-15.81-6.76-31.87-12.74-48.98-14.05-18.61-1.42-37.11-.03-55.3,5.52-12.6,3.85-24.89,8.4-36.88,13.67-5.63,2.47-12.47,3.9-16.12,10.87,7.77.15,14.25-.57,21.2-2.98,8.93-3.09,19.05-1.02,28.69-2.64,8.88-1.49,18.21-.43,27.33-.32,2.62.03,5.19-.25,7.9.89,7.31,3.09,15.29,3.64,22.93,5.43,4.76,1.11,9.71,1.23,14.38,3.21,8.37,3.55,16.29,8.45,25.82,8.92,2.09.1,4.28,1.81,6.09,3.22,16.99,13.23,35.63,24.18,52.61,37.35,10.92,8.47,19.93,19.31,30.93,27.84.72.56.97,1.71,1.54,2.51,5.99,8.43,12.04,16.82,21.52,21.8.47.25,1.24-.08,1.93-.15,1.67-2.43.53-5.21.99-8.25ZM1538.64,721.58c2.66,4.27,6.44,6.59,11.45,7.85.93-3.08,1.82-6.04,2.91-9.65-4.22.07-5.41-4.32-11.05-4.58,0,0-1.28,1.18-2.15,2.59-.66,1.06-.77,2.45-1.16,3.78Z"/>
  <path class="cls-5" d="M426.57,1076.35c-6.8-6.04-10.46-13.1-15.1-19.46-7.78-10.66-11.62-23.45-20.07-33.59-1.8-2.15-2.31-5.45-3.17-8.29-3.59-11.85-8.03-23.36-13.76-34.35-3.77-7.22-5.24-15.06-6.47-22.97-.31-1.99,0-4.19-.72-6-4.05-10.05,1.38-17.06,6.92-24.53,9.42-12.71,20.75-23.51,32.57-33.84,4.38-3.82,10.18-5.8,15.89-4.73,21.6,4.05,43.24,8.11,63.7,16.57,10.18,4.21,20.78,7.07,31.5,9.51,17.06,3.88,28.29,13.07,32.65,31.04,2.7,11.11,4.83,22.04,4.94,33.43.12,12.76-5.4,22.64-15.55,29.89-6.25,4.46-12.99,8.25-19.54,12.29-24.23,14.97-46.86,32.4-71.4,46.89-6.86,4.05-13.55,8.86-22.39,8.14ZM450.93,1040.25c22.59-15.36,48.01-26.02,70.74-42.28-9.08-5.31-17.01-11.42-25.24-17.55-7.67,5.42-14.72,10.77-19.51,18.77-3.59,6.01-7.86,11.61-11.84,17.39-5.11,7.44-10.23,14.87-15.35,22.31-.93.73-2.45.75-2.83,2.83,1.64.12,3.12.59,4.02-1.47ZM425.76,1043.82c.76-1.23,1.68-2.04,1.73-2.92.62-9.54,3.91-19.08-.11-28.66-.88-2.09-.98-4.58-1.09-6.9-.84-16.7-.87-33.35,3.88-50.17-15.88-.84-31.45.65-45.34-6.77-1.78,2.11-.88,3.62-.47,5.22,2.15,8.37,4.83,16.53,5.7,25.3,1.23,12.43,5.62,24.33,13.27,34.12,5.25,6.72,9.59,13.66,13.09,21.28,1.88,4.1,4.32,7.61,9.33,9.49ZM434.37,1044.22c18.85-22.41,34.65-44.82,46.42-69.88-22.96-13.1-25.15-13.84-37.26-12.69-6.84,26.69-6.52,54.12-9.17,82.57ZM489.12,924.95c-4.6-2.66-8.91-4.18-13.5-5.07-10.56-2.05-21.47-.44-31.86-3.62-4.93-1.51-9.98-2.6-17.91-4.63,7.24,11.29,1.27,23.59,9.41,32.42,10.78,1.14,15.93.91,23.08-2.65,10.41-5.19,20.54-10.94,30.79-16.45ZM514,970.64c1.72-1.32,1.77-2.85,1.37-4-4.47-12.68-13.47-23.17-17.11-36.65-12,5.69-22.33,12.7-31.33,21.63-1.7,1.69-3.23,3.52-1.55,6.1,15.96,5.83,32.26,10.25,48.62,12.92ZM415.96,907.95c-15.66,3.25-21.53,17.28-33.32,25.8,8.69,1.75,16.08,3.45,23.55,4.69,7.32,1.22,13.79,5.89,22.33,5.99-4.35-12.64-8.39-24.36-12.56-36.49ZM512,932.49c-.24,1.23-.65,1.98-.43,2.4,5,9.8,7.07,20.61,10.88,30.8,2.26,6.03,6.33,11.16,12.34,16.02,2.02-15.97,4.18-30.61-3.94-44.97-6.71.57-12.15-4.59-18.85-4.26Z"/>
  <path class="cls-12" d="M281.49,936.28c-3.71-3.39-6.68-6.11-9.32-8.51.42-10.62,4.43-15.86,11.91-15.6,6.16.21,11.64,4.27,12.13,11.92.48,7.5-4.7,11.57-14.73,12.19Z"/>
  <path class="cls-10" d="M370.12,871.86c-8.77-4.6-12.55-9.92-10.64-15.21,2.84-7.89,9.54-7.96,16.84-7.26,1.4,1.3,3.1,2.89,4.96,4.63v10.2c-2.24,4.02-6.37,5.93-11.15,7.64Z"/>
  <path class="cls-6" d="M588.9,928.53h8.92c3.7,3.43,5.62,7.41,4.83,13.58-1.82,1.63-4.31,3.86-7.03,6.29h-8.57c-1.2-1.26-2.81-2.95-4.35-4.56-.07-5.96-1.98-12.07,6.19-15.31Z"/>
  <path class="cls-10" d="M326.56,973.3v8.53c-7.28,7.32-8.27,7.35-15.54.53-1.14-2.44-.25-5.15-.5-7.77,1.47-2.36,3.32-4.27,5.65-5.66,4.07-.34,6.76,2.3,10.4,4.36Z"/>
  <path class="cls-15" d="M1343.98,1194.39c-6.11-3.61-4.87-9.21-3.79-13.2,4.4-16.18,5.4-33.2,11.89-48.82,6.35-15.27,11.95-31.2,21.24-44.73,6.27-9.13,12.12-18.36,16.53-28.29,5.75-12.96,12.29-25.58,17.2-38.94,2.14-5.82,5.77-11.11,8.77-16.61,4.47-8.17,6.91-17.03,9.6-25.9,3.34-11,7.54-21.84,12.45-32.25,5.08-10.77,9.8-21.65,14.44-32.6,3.32-7.83,7.53-15.31,10.57-23.34,5.01-13.23,10.13-26.43,15.62-39.47,1.77-4.21,3.99-8.27,7.09-11.95,10.4-12.36,19.98-25.25,16.48-42.85q7.15-.7,16.27,6.15c.59,2.28.32,4.44-.59,6.73-5.71,14.4-11.69,28.56-20.51,41.52-4.57,6.71-8.63,14.06-11.15,22.02-3.88,12.23-8.64,24.17-12.81,36.28-4.31,12.5-11.04,24.08-14.44,36.71-5.43,20.16-14.88,38.68-21.75,58.23-4.91,13.97-11.62,27.3-17.02,41.12-6.11,15.65-13.13,30.91-18.69,46.8-5.21,14.9-11.88,29.28-17.66,43.99-4.56,11.63-11.26,22.42-13.6,34.95-.41,2.18-1.64,4.66-3.28,6.07-7.49,6.45-14.46,13.64-22.85,18.39Z"/>
  <path class="cls-4" d="M1632.35,856.69c-.46,3.04.68,5.82-.99,8.25-.7.07-1.47.39-1.93.15-9.48-4.98-15.53-13.37-21.52-21.8-.57-.8-.81-1.95-1.54-2.51-11-8.53-20.01-19.37-30.93-27.84-16.98-13.17-35.62-24.12-52.61-37.35-1.81-1.41-4-3.11-6.09-3.22-9.53-.48-17.46-5.37-25.82-8.92-4.67-1.98-9.62-2.09-14.38-3.21-7.65-1.79-15.63-2.35-22.93-5.43-2.7-1.14-5.28-.86-7.9-.89-9.13-.11-18.45-1.17-27.33.32-9.64,1.62-19.76-.45-28.69,2.64-6.96,2.41-13.43,3.12-21.2,2.98,3.65-6.97,10.5-8.39,16.12-10.87,11.99-5.27,24.28-9.82,36.88-13.67,18.18-5.55,36.68-6.95,55.3-5.52,17.12,1.31,33.17,7.29,48.98,14.05,10.67,4.56,19.38,11.24,27.53,19.17,4.53,4.42,9.23,8.88,14.56,12.19,4.41,2.75,7.67,6.44,11.35,9.82,4.92,4.52,9.4,9.43,15.02,13.3,4.75,3.27,9.67,6.97,11.79,12.92.22.61.66,1.25,1.19,1.61,9.39,6.29,10.76,17.18,14.63,26.43,2.61,6.24,5.29,12.09,10.54,17.41Z"/>
  <path class="cls-11" d="M1538.64,721.58c.38-1.34.5-2.73,1.16-3.78.87-1.41,2.15-2.59,2.15-2.59,5.63.25,6.82,4.64,11.05,4.58-1.09,3.61-1.98,6.57-2.91,9.65-5.01-1.26-8.78-3.58-11.45-7.85Z"/>
  <path class="cls-3" d="M425.76,1043.82c-5.02-1.89-7.45-5.4-9.33-9.49-3.5-7.62-7.84-14.57-13.09-21.28-7.65-9.79-12.04-21.69-13.27-34.12-.87-8.77-3.55-16.93-5.7-25.3-.41-1.6-1.31-3.11.47-5.22,13.89,7.42,29.46,5.94,45.34,6.77-4.75,16.82-4.72,33.48-3.88,50.17.12,2.32.22,4.81,1.09,6.9,4.02,9.58.73,19.12.11,28.66-.06.87-.98,1.69-1.73,2.92Z"/>
  <path class="cls-1" d="M434.37,1044.22c2.65-28.45,2.33-55.88,9.17-82.57,12.1-1.15,14.29-.41,37.26,12.69-11.78,25.06-27.57,47.47-46.42,69.88Z"/>
  <path class="cls-2" d="M449.75,1038.89c5.12-7.43,10.24-14.87,15.35-22.31,3.97-5.78,8.24-11.38,11.84-17.39,4.79-8,11.84-13.36,19.51-18.77,8.22,6.14,16.15,12.25,25.24,17.55-22.73,16.26-48.16,26.91-70.74,42.28-.41-.44-.81-.89-1.19-1.36Z"/>
  <path class="cls-8" d="M489.12,924.95c-10.25,5.51-20.38,11.27-30.79,16.45-7.15,3.56-12.29,3.78-23.08,2.65-8.14-8.84-2.16-21.13-9.41-32.42,7.93,2.03,12.98,3.12,17.91,4.63,10.4,3.18,21.31,1.57,31.86,3.62,4.59.89,8.91,2.42,13.5,5.07Z"/>
  <path class="cls-7" d="M514,970.64c-16.37-2.67-32.66-7.09-48.62-12.92-1.68-2.58-.15-4.41,1.55-6.1,9-8.94,19.33-15.94,31.33-21.63,3.64,13.48,12.64,23.97,17.11,36.65.41,1.15.36,2.68-1.37,4Z"/>
  <path class="cls-13" d="M415.96,907.95c4.17,12.13,8.21,23.85,12.56,36.49-8.54-.11-15-4.77-22.33-5.99-7.46-1.25-14.85-2.94-23.55-4.69,11.78-8.52,17.65-22.55,33.32-25.8Z"/>
  <path class="cls-9" d="M512,932.49c6.7-.33,12.15,4.83,18.85,4.26,8.12,14.36,5.96,29,3.94,44.97-6.01-4.86-10.09-9.99-12.34-16.02-3.81-10.19-5.88-21.01-10.88-30.8-.22-.43.19-1.17.43-2.4Z"/>
  <path class="cls-2" d="M450.93,1040.25c-.9,2.06-2.38,1.59-4.02,1.47.37-2.08,1.9-2.1,2.83-2.83.38.47.78.92,1.19,1.36Z"/>
</svg>