<?xml version="1.0" encoding="UTF-8"?>
<svg id="Layer_1" data-name="Layer 1" xmlns="http://www.w3.org/2000/svg" version="1.1" viewBox="0 0 1920 1920">
  <defs>
    <style>
      .cls-1 {
        fill: #050503;
      }

      .cls-1, .cls-2, .cls-3, .cls-4, .cls-5, .cls-6, .cls-7, .cls-8, .cls-9, .cls-10 {
        stroke-width: 0px;
      }

      .cls-2 {
        fill: #070701;
      }

      .cls-3 {
        fill: #050403;
      }

      .cls-4 {
        fill: #e3c826;
      }

      .cls-5 {
        fill: #dbc225;
      }

      .cls-6 {
        fill: #fadd2a;
      }

      .cls-7 {
        fill: #f1d529;
      }

      .cls-8 {
        fill: #dac125;
      }

      .cls-9 {
        fill: #fcde2b;
      }

      .cls-10 {
        fill: #070601;
      }
    </style>
  </defs>
  <path class="cls-1" d="M632.97,1046.21c.33,12.43,2.17,24.61,4.24,36.85,1.2,7.1,1.04,14.39-.9,21.77-2.58,9.8-4.09,19.94-5.25,30.03-.56,4.89-1.67,9.5-4.3,13.34-11.6,16.88-21.35,34.98-35.19,50.4-16.98,18.92-37.99,31.24-62.16,37.16-15.1,3.7-30.54,6.95-46.35,7.79-7.63.4-14.56-1.79-21.65-3.1-20.54-3.78-41.19-5.47-62.03-5.96-19.54-.45-35.96-9.05-50.71-21.01-23.4-18.98-36.81-44.19-44.45-72.86-1.69-6.34-3.13-12.78-5.41-18.91-4.73-12.72-7.4-25.75-8.39-39.28-.58-7.93-4.07-15.37-4.13-23.57-.11-13.96-.4-27.73,6.27-40.71,2.48-4.82,3.63-10.35,5.09-15.64,4-14.49,12.67-26.57,21.92-37.69,7.39-8.88,15.32-17.62,24.27-25.3,9.69-8.31,19.15-16.79,27.39-26.9,10.66-13.08,24.58-23.06,39.38-31.43,5.76-3.26,11.5-6.41,16.58-10.74,11.92-10.15,25.89-10.29,40.34-7.88,17.63,2.94,33.34,9.85,47.99,20.29,14.89,10.61,31.28,19.07,45.75,30.4,2.02,1.58,4.2,2.83,5.7,5.07,6.38,9.53,14.32,17.71,22.46,25.71,11.71,11.51,18.68,26.2,26.77,40.14,2.39,4.12,4.61,8.35,7.3,12.27,7.6,11.08,7.68,24.04,9.38,36.57.59,4.33.09,8.8.09,13.21ZM463.96,1212.91c8.53.25,14.59-.22,20.67-2.39,7.87-2.81,16.08-4.66,24.13-6.98,25.73-7.45,50.43-16.34,71.32-34.53,20.08-17.49,34.57-36.9,38.36-64.18,1.61-11.6.45-22.55-1.17-33.5-2.94-19.87-12-37.98-19.18-56.53-5.65-14.59-13.62-28.27-20.18-42.53-5.12-11.14-14.29-18.77-23.86-24.98-26.37-17.1-53.61-32.88-80.41-49.33-15.59-9.57-31.29-9.3-45.88,1.44-8.56,6.3-16.89,12.91-25.34,19.37-18.54,14.19-38.51,26.32-54.26,44.3-16.71,19.07-30.45,39.09-35.71,64.25-.9,4.31-.93,8.27-.64,12.72.83,12.82,3.62,25.34,4.8,38.02,2.04,21.88,7.27,42.98,12.36,64.22,4.17,17.42,14.27,30.32,28.94,39.7,18.9,12.09,39.03,21.09,61.61,24.55,15.54,2.38,31.02,5.11,44.44,6.4Z"/>
  <path class="cls-3" d="M1459.86,1222.87c-26.83-1.06-52.61-7.05-77.74-16.38-14.11-5.24-27.33-12.33-40.63-19.18-15.59-8.03-26.82-21.55-39.56-33.2-17.19-15.71-24.44-35.69-28.68-57.71-2.85-14.8-5.21-29.52-3.94-44.59,1.51-17.88,5-35.23,13.15-51.53,13.15-26.27,28.15-51.36,45.67-74.96,17.59-23.69,39.94-41.77,65.23-56.68,11.65-6.87,24.64-11.04,35.87-18.7,2.93-2,6.68-3.05,10.21-3.9,20.86-4.98,40.58-2.25,58.81,9.38,8.37,5.34,16.72,10.79,23.45,18.2,11.91,13.11,25.63,23.89,40.01,34.24,22.9,16.48,40.52,38.09,54.6,62.52,2.56,4.44,4.49,9.3,7.46,13.43,11.72,16.3,12.07,33.93,6.38,52.17-4.68,15.01-6.74,30.5-9.39,45.89-1.55,8.99-4.02,17.66-7.74,26.07-7.82,17.71-17.24,34.56-26.9,51.29-.91,1.58-1.46,3.52-2.73,4.72-9.89,9.35-17.1,21.2-27.64,29.85-7.9,6.48-16.42,11.88-26.64,14.65-12.64,3.43-24.62,9.01-37.75,11.05-10.46,1.63-20.83,3.59-31.51,3.35ZM1445.77,1192.68c14.86.69,29.17-2.42,43.38-5.98,8.1-2.02,16.65-2.29,24.14-6.74,6.93-4.12,14.35-7.28,22.16-9.39,4-1.08,7.67-2.81,10.47-5.81,11.07-11.86,26.2-20.45,30.64-37.71.26-1.02,1.05-1.92,1.66-2.83,8.64-12.83,13.61-27.3,18.65-41.74.83-2.39,1.79-4.95,1.73-7.4-.25-9.23,2.13-18.15,3.1-27.22,1.81-16.85-.86-32.45-9-47.31-2.42-4.41-4.24-9.06-5.32-14.26-5.65-27.37-21.99-47.24-45.13-62.19-10.15-6.56-20.27-13.32-28.95-21.78-10.84-10.57-23-19.41-35.03-28.48-6.91-5.21-13.8-5.66-21.73-3.07-15.39,5.03-29.47,12.61-43.07,21.19-5.58,3.52-10.94,7.39-16.6,10.76-14.26,8.5-26.58,19.5-39.21,30.08-18.53,15.53-32.13,35.26-45.63,54.92-6.58,9.58-13.02,19.72-15.86,31.11-4.2,16.86-4.31,33.84.48,50.92,3.74,13.34,7.77,26.57,11.65,39.85,1.78,6.1,3.83,11.85,7.84,16.69,13.99,16.91,27.64,33.63,48.05,44.27,25.85,13.47,52.58,21.46,81.58,22.1Z"/>
  <path class="cls-1" d="M371.89,829.07c-6.31-4.21-11.02-9.48-18.07-11.47-2.57-.73-5.07-3.25-6.67-5.59-7.42-10.85-11.53-22.06-6.45-35.66,5.74-15.36,15.23-26.25,30.79-31.72,1.29-.45,2.9-.66,3.87-3.08-2.41-14.79,5.39-26.56,14.99-37.43,8.25-9.34,20.79-11.16,31.72-4.92,6.68,3.81,13.28,7.76,19.72,11.94,5.54,3.59,10.04,2.91,14.72-1.71,13.69-13.49,30.88-15.83,48.92-14.06,12.7,1.24,23.64,14.39,23.94,27.31.3,12.83-4.71,24.23-9.92,35.39-10.53,22.57-25.13,42.65-40.07,62.45-5.97,7.91-15.01,9.86-24.1,11.32-15.28,2.46-30.73,2.19-46.08,1.59-10.15-.4-20.22-2.53-30.34-3.83-2.18-.28-4.38-.33-6.97-.52ZM508.75,728.67c-8.34-7.82-8.3-7.59-19.27-5.54-4.06.76-7.65,2.11-11.3,3.9-8.5,4.18-16.43,9.69-25.74,11.52-12.12-2.86-23.05-7.57-31.9-16.4-1.51-1.51-3.59-2.5-5.51-3.55-5.26-2.85-8.82-2.19-12.49,2.6-1.51,1.98-2.44,4.4-3.62,6.6,1.84,3.96,3.75,7.51,5.17,11.25,5.28,13.93-.44,26.54-14.11,32.07-3.25,1.32-6.48,1.16-9.74,1.3-10.71.45-19.19,3.97-22.34,15.34-.29,1.05-.61,2.09-.91,3.13,1.06,5.09,3.99,8,8.71,10.36,7.18,3.58,14.5,2.96,21.58,1.65,17.77-3.27,35-1.66,52,3.83,3.24,1.05,6.34,1.72,9.76.63,5.08-3.67,9.63-8.21,12.85-13.45,5.83-9.51,13.4-17.39,21.14-25.19,6.22-6.28,12.39-12.64,18.97-18.53,6.67-5.97,9.66-12.73,6.75-21.52Z"/>
  <path class="cls-1" d="M1541.44,727.85c8.44,3.44,14.96,8.74,21.49,14.1,6.47,5.32,10.16,12.48,13.27,19.82,5.81,13.71-2.66,33.37-17.19,38.96-10.58,4.07-21.17,7.88-32.23,10.38-7.28,1.65-14.65,1.5-21.94.69-7.07-.79-14.01-.33-20.88.94-16.23,3-31.04-1.87-45.45-8.22-3.52-1.55-7.08-4.67-8.92-8-3.66-6.64-9.51-11.06-14.26-16.57-12.99-15.05-23.57-31.76-27.98-51.28-5.19-22.96,4.99-38.78,27.07-45.68,8.34-2.61,17.47-.86,25.45,3.74,3.84,2.21,7.73,4.1,12.23,4.61,8.77.99,17.16-.02,23.28-6.88,12.37-13.85,39.82-7.4,50.39,1.51,4.68,3.94,6.77,9.5,8.44,15.09,2.58,8.67,4.74,17.46,7.24,26.81ZM1543.47,750.29c-7.14,1.01-14.28-1-21.24-3.1-12.1-3.65-16.87-14.68-11.52-25.97,1.71-3.61,4.41-6.73,6.43-10.2,4.48-7.68.86-14.39-7.89-14.25-7.47.12-13.98,1.88-19.45,8.23-10.33,11.99-28.03,16.11-44.45,4.45-4.23-3-7.49-7-11.45-9.76-18.39-2.19-27.91,10.32-21.13,27.09,4.34,10.72,12.37,18.18,21.89,23.89,11.31,6.78,20.5,15.01,23.93,28.3,6.72-.86,12.5,1.31,18.92.68,19.37-1.89,38.98-1.69,57.7,4.49,7.79,2.57,14.97,1.87,22.13,1.36,6.88-12.31,2.78-22.42-13.89-35.21Z"/>
  <path class="cls-9" d="M463.96,1212.91c-13.42-1.29-28.9-4.02-44.44-6.4-22.58-3.46-42.7-12.46-61.61-24.55-14.67-9.38-24.77-22.28-28.94-39.7-5.09-21.23-10.32-42.34-12.36-64.22-1.18-12.68-3.97-25.2-4.8-38.02-.29-4.45-.26-8.41.64-12.72,5.26-25.16,19-45.18,35.71-64.25,15.76-17.99,35.72-30.12,54.26-44.3,8.44-6.46,16.78-13.07,25.34-19.37,14.59-10.74,30.28-11.01,45.88-1.44,26.8,16.45,54.03,32.23,80.41,49.33,9.57,6.2,18.73,13.84,23.86,24.98,6.56,14.26,14.53,27.94,20.18,42.53,7.18,18.55,16.24,36.67,19.18,56.53,1.62,10.95,2.78,21.91,1.17,33.5-3.79,27.28-18.28,46.69-38.36,64.18-20.89,18.19-45.59,27.09-71.32,34.53-8.05,2.33-16.26,4.18-24.13,6.98-6.08,2.17-12.15,2.64-20.67,2.39ZM393.52,1126.8c4.22-2.18,6.81-3.49,9.38-4.85,7.56-4.02,13.84-10,13.24-18.66-.65-9.44-1.62-19.32-13.37-24.07-10.45-4.23-20.77-8.6-31.82-11.34-2.17-8.55-4.62-16.88-1.61-25.81h16.21c6.99-3.6,7.73-9.09,6.65-14.25-3.92-9.69-12.46-9.06-20.18-10.74,3.81-9.74,3.89-18.4-3.98-25.52-10.57-.18-12.79,1.82-16.29,10.72-2.3,5.84-.09,12.61-4.35,17.84-2.66,1.93-5.5,3.66-7.95,5.82-19.83,17.48-11.26,44.21,8.6,50.35,2.98.92,6.34,1.93,8.67,5.04.95,4.29,1.98,8.91,3.01,13.53,1,4.49,4.96,8.23,3.57,13.4-3.74,3.81-8.13,2.94-12.45,2.1-1.77-.34-3.43-1.35-5.19-1.53-8.1-.84-12.38,4.76-9.66,12.41,2,5.64,5.54,8.76,11.84,9.85,8.68,1.51,17.2,1.43,26.52-.36.4,9.45,2.8,17.32,10.91,21.69,7.55,1.6,12.89-1.81,15.45-8,2.84-6.87-.21-12.82-7.2-17.63Z"/>
  <path class="cls-9" d="M1445.77,1192.68c-29.01-.64-55.73-8.62-81.58-22.1-20.41-10.64-34.06-27.36-48.05-44.27-4.01-4.84-6.06-10.59-7.84-16.69-3.88-13.29-7.91-26.52-11.65-39.85-4.79-17.08-4.68-34.06-.48-50.92,2.84-11.4,9.28-21.53,15.86-31.11,13.5-19.66,27.11-39.39,45.63-54.92,12.63-10.59,24.95-21.59,39.21-30.08,5.66-3.37,11.03-7.24,16.6-10.76,13.6-8.59,27.67-16.17,43.07-21.19,7.93-2.59,14.82-2.14,21.73,3.07,12.04,9.07,24.2,17.91,35.03,28.48,8.68,8.47,18.8,15.23,28.95,21.78,23.14,14.95,39.47,34.82,45.13,62.19,1.07,5.2,2.9,9.85,5.32,14.26,8.14,14.86,10.8,30.46,9,47.31-.97,9.07-3.35,17.99-3.1,27.22.07,2.45-.89,5.01-1.73,7.4-5.04,14.43-10.01,28.91-18.65,41.74-.61.91-1.4,1.81-1.66,2.83-4.45,17.26-19.57,25.85-30.64,37.71-2.79,2.99-6.46,4.73-10.47,5.81-7.81,2.11-15.23,5.26-22.16,9.39-7.48,4.45-16.04,4.72-24.14,6.74-14.22,3.55-28.52,6.67-43.38,5.98ZM1519.5,1122.47c-1.99,5.28-3.56,8.22-4.18,11.35-1.37,6.87,2.58,13.45,8.95,15.71,6.06,2.15,11.43.21,15.18-5.4,2.95-4.42,2.75-9.56.97-13.76-2.28-5.39-3.64-10.91-5.24-16.7,5.32-5.38,10.76-10.75,14.96-17.38,6.22-9.81,4.23-19.08,1.02-29.3-3-9.56-10.26-11.42-18.04-13.51-1.37-.37-2.83-.39-4.52-.6-4.84-12.07-14.27-22.11-14.62-35.83,6.34-2.78,12.59-.8,18.04-3.47,5.33-2.62,7.5-5.78,7.03-11.14-.49-5.66-3.85-9.83-9.29-10.57-3.95-.53-8.08-1.06-11.99.5-3.45,1.37-6.95,2.04-10.51,1.49-9.69-15.41-16.86-17.29-25.63-7.07-1.86,7.36,2.4,13.72,2.81,20.57-11.02,11.46-26.19,20.55-21.8,40.67,7.28,5.15,13.68,11.61,19.02,19.17,2.65,3.75,6.59,5.47,11.29,5.89,5.74.51,11.43,1.54,16.58,2.26,4.74,7.03,1.85,14.94,5.84,21.45-5.66,1.89-10.64,2.38-15.7,2.94-10.73,1.18-19.24,6.21-24.73,15.77,2.7,8.01,7.66,11.49,15.88,11.09,9.06-.44,18.22.51,28.69-4.12Z"/>
  <path class="cls-6" d="M508.75,728.66c2.91,8.79-.08,15.55-6.75,21.52-6.58,5.89-12.75,12.25-18.97,18.53-7.73,7.81-15.3,15.68-21.14,25.19-3.21,5.24-7.77,9.79-12.85,13.45-3.42,1.09-6.51.42-9.76-.63-17-5.49-34.23-7.11-52-3.83-7.09,1.31-14.4,1.93-21.58-1.65-4.72-2.36-7.65-5.27-8.71-10.36.3-1.04.62-2.08.91-3.13,3.15-11.37,11.63-14.89,22.34-15.34,3.25-.14,6.49.02,9.74-1.3,13.66-5.54,19.39-18.14,14.11-32.07-1.42-3.74-3.33-7.29-5.17-11.25,1.18-2.2,2.1-4.62,3.62-6.6,3.66-4.79,7.22-5.45,12.49-2.6,1.92,1.04,4,2.04,5.51,3.55,8.85,8.83,19.78,13.54,31.9,16.4,9.32-1.82,17.24-7.33,25.74-11.52,3.65-1.8,7.25-3.15,11.3-3.9,10.97-2.05,10.93-2.28,19.27,5.54Z"/>
  <path class="cls-6" d="M1543.47,750.29c16.66,12.78,20.77,22.89,13.89,35.21-7.16.52-14.35,1.21-22.13-1.36-18.72-6.18-38.33-6.38-57.7-4.49-6.42.63-12.2-1.54-18.92-.68-3.42-13.29-12.62-21.52-23.93-28.3-9.52-5.71-17.55-13.17-21.89-23.89-6.79-16.77,2.74-29.28,21.13-27.09,3.95,2.76,7.22,6.76,11.45,9.76,16.41,11.67,34.11,7.54,44.45-4.45,5.47-6.35,11.98-8.11,19.45-8.23,8.75-.14,12.37,6.57,7.89,14.25-2.03,3.47-4.73,6.6-6.43,10.2-5.35,11.29-.58,22.32,11.52,25.97,6.96,2.1,14.1,4.11,21.24,3.1Z"/>
  <path class="cls-2" d="M393.52,1126.8c6.99,4.81,10.04,10.76,7.2,17.63-2.56,6.18-7.9,9.59-15.45,8-8.11-4.38-10.51-12.24-10.91-21.69-9.31,1.79-17.84,1.87-26.52.36-6.3-1.1-9.84-4.21-11.84-9.85-2.72-7.66,1.56-13.25,9.66-12.41,1.76.18,3.43,1.19,5.19,1.53,4.32.84,8.72,1.71,12.45-2.1,1.39-5.17-2.57-8.91-3.57-13.4-1.03-4.62-2.05-9.25-3.01-13.53-2.33-3.11-5.69-4.12-8.67-5.04-19.86-6.14-28.44-32.87-8.6-50.35,2.45-2.16,5.29-3.89,7.95-5.83,4.27-5.22,2.06-11.99,4.36-17.84,3.5-8.9,5.72-10.9,16.29-10.72,7.87,7.12,7.79,15.78,3.98,25.52,7.72,1.68,16.25,1.05,20.18,10.74,1.08,5.16.34,10.65-6.65,14.25h-16.21c-3.01,8.93-.56,17.26,1.61,25.81,11.05,2.74,21.37,7.11,31.82,11.34,11.75,4.76,12.72,14.63,13.37,24.07.6,8.66-5.68,14.64-13.24,18.66-2.57,1.36-5.16,2.67-9.38,4.85ZM390.68,1093.15c-4.99-4.35-10.08-5.38-17.02-6.58,4.7,6.21,4.49,12.92,8.03,18.26,5.74-2.09,6.73-6.86,8.98-11.68ZM354.51,1062.5c-.05-6.36-.92-11.37-3.16-16.48-5.78,1.35-7.3,5-7.52,9.54q3.9,4.86,10.68,6.94Z"/>
  <path class="cls-10" d="M1519.5,1122.47c-10.47,4.63-19.63,3.68-28.69,4.12-8.22.4-13.17-3.07-15.88-11.09,5.49-9.56,14-14.59,24.73-15.77,5.06-.56,10.04-1.05,15.7-2.94-3.99-6.52-1.1-14.42-5.84-21.45-5.15-.72-10.84-1.75-16.58-2.26-4.7-.42-8.64-2.14-11.29-5.89-5.34-7.56-11.73-14.01-19.02-19.17-4.39-20.11,10.78-29.21,21.8-40.67-.41-6.85-4.67-13.21-2.81-20.57,8.77-10.21,15.94-8.34,25.63,7.07,3.56.55,7.06-.12,10.51-1.49,3.92-1.56,8.04-1.03,11.99-.5,5.44.73,8.8,4.91,9.29,10.57.47,5.36-1.71,8.52-7.03,11.14-5.45,2.68-11.69.7-18.04,3.47.36,13.73,9.78,23.77,14.62,35.83,1.69.21,3.15.23,4.52.6,7.78,2.09,15.04,3.95,18.04,13.51,3.21,10.22,5.2,19.49-1.02,29.3-4.2,6.62-9.64,12-14.96,17.38,1.6,5.79,2.96,11.32,5.24,16.7,1.78,4.2,1.98,9.34-.97,13.76-3.75,5.61-9.12,7.55-15.18,5.4-6.37-2.27-10.33-8.84-8.95-15.71.63-3.13,2.19-6.07,4.18-11.35ZM1504.16,1051c-2.46-9.44-3.52-18.17-8.62-26.1-5.23,5.51-12.46,8.17-16.39,15.2,4.64,3.86,9.04,7.52,13.11,10.9h11.9ZM1534.23,1074.61c2.13,5.75-1.16,12.29,2.44,18.56,4.98-6.51,9.98-12.05,5.22-20.26-2.24.39-4.42-.61-7.66,1.7Z"/>
  <path class="cls-4" d="M390.68,1093.15c-2.26,4.82-3.25,9.59-8.98,11.68-3.54-5.34-3.33-12.05-8.03-18.26,6.93,1.21,12.03,2.23,17.02,6.58Z"/>
  <path class="cls-5" d="M354.51,1062.5q-6.78-2.08-10.68-6.94c.22-4.54,1.74-8.19,7.52-9.54,2.24,5.11,3.11,10.12,3.16,16.48Z"/>
  <path class="cls-7" d="M1504.16,1051h-11.9c-4.07-3.38-8.47-7.04-13.11-10.9,3.93-7.03,11.16-9.69,16.39-15.2,5.1,7.93,6.16,16.66,8.62,26.1Z"/>
  <path class="cls-8" d="M1534.23,1074.61c3.24-2.31,5.42-1.31,7.66-1.7,4.76,8.21-.24,13.75-5.22,20.26-3.6-6.27-.31-12.82-2.44-18.56Z"/>
</svg>