<?xml version="1.0" encoding="UTF-8"?>
<svg id="Layer_1" data-name="Layer 1" xmlns="http://www.w3.org/2000/svg" version="1.1" viewBox="0 0 1920 1920">
  <defs>
    <style>
      .cls-1 {
        fill: #893625;
      }

      .cls-1, .cls-2, .cls-3, .cls-4, .cls-5 {
        stroke-width: 0px;
      }

      .cls-2 {
        fill: #883525;
      }

      .cls-3 {
        fill: #080807;
      }

      .cls-4 {
        fill: #d3cdba;
      }

      .cls-5 {
        fill: #040403;
      }
    </style>
  </defs>
  <path class="cls-5" d="M818.06,560.04c5.52-31.49,21.06-50.52,47.16-62.11,25.38-11.27,49.09,1.17,73.77,1.69,9.47,9.38,18.63,18.55,27.27,28.51,16.6,19.13,13.11,43.35,18.33,65.13,7.41,30.93,16.89,61.62,18.52,93.81.24,4.68,3.78,9.19,6.52,15.45,35.48,5.62,65.72,22.58,90.24,51.04,12.71,14.75,22.08,31.99,28.59,48.68,12.98,33.26,20,68.61,19.45,105.38-1.11,73.5,9.32,145.83,23.87,217.86,5.69,28.16,13.12,56.66,12.07,85.86-.93,25.91-1.62,52.06-13.55,76.13-5.39,10.89-3.67,23.32-8.66,34.83-25.13,57.97-70.56,88.83-131.02,97.26-18.65,2.6-37.27,8.95-56.53,6.77-15.82-1.8-31.25-5.47-47.35-6.71-34.7-2.66-69.04-9.2-101.27-23.66-25.12-11.27-42.14-29.98-51.64-55.73-8.78-23.78-12.77-48.45-12.48-73.68.49-42.36-7.12-83.9-13.73-125.35-6.17-38.71-10.38-77.45-11.25-116.49-.83-37.42.33-74.89.55-112.34.21-35.62,7.46-69.4,23.17-101.7,9.14-18.79,21.45-33.91,38.82-44.91,25.09-15.88,38.51-37.4,35.36-68.01-1.56-15.12,0-30.23,1.02-45.41.99-14.91,1.18-30.07-6.2-44.46-7.76-15.14-2.96-33.74-11.02-47.84ZM824.27,1210.72c11.77-1.06,23.72-1.28,35.36-3.33,41.43-7.28,82.85-14.7,124.09-23,41.14-8.27,81.96-17.91,116.68-44.67.87-56.2-11.81-110.18-20.65-164.5-2.12-13.01-3.68-25.89-4.15-38.87-.65-18.07-1.66-35.93-8.36-54.9-25.23,10.68-52.58,9.17-78.77,14.29-37.78,7.38-75.54,11.29-114.03,10.37-28.32-.68-55.15-6.3-82.08-18.95-1.88,22.84-4.69,45.05.88,66.58,15.42,59.53,22.31,120.2,22.68,181.34.15,25.32,2.1,49.73,8.35,75.63ZM1054.67,837.64c-14.14-27.08-31.88-44.26-54.13-51.88-33.54-11.49-49.01-37.22-50.18-67.01-1.54-39.08-8.92-77.83-7.24-116.84,1.16-26.77-6.77-47.05-27.96-60.3-14.99-3.19-27.34-1.14-39.4,9.64,0,8.53.51,18.55-.1,28.51-1.79,29.28.59,58.14,13.57,84.65,10.12,20.66-.62,44.04,10.66,64.02-10.89,27.23-18.39,56.09-44.67,74.6-13.62,9.6-25.76,21.71-35.48,37.34,79.33,20.12,155.8,23.9,234.91-2.73ZM850.49,1320.34c27.12,15.19,54.28,16.1,79.99,22.32,40.05,9.69,63.54,9.43,103.16.19,27-6.3,48.54-22.66,65.46-44.43,4.04-5.2,6.99-12.65,7.21-19.17.82-24.91,2.53-49.96-.57-73.87-15.44-6.05-27.13,2.08-39.62,3.62-56.99,7-111.87,22.42-166.24,40.13-21.41,6.97-42.02,16.87-64.92,15.92-6.75,23.73,3.3,40.32,15.52,55.29Z"/>
  <path class="cls-4" d="M824.27,1210.72c-6.25-25.9-8.2-50.31-8.35-75.63-.36-61.14-7.25-121.81-22.68-181.34-5.58-21.53-2.77-43.75-.88-66.58,26.93,12.65,53.76,18.27,82.08,18.95,38.5.93,76.26-2.99,114.03-10.37,26.19-5.12,53.54-3.61,78.77-14.29,6.7,18.96,7.7,36.83,8.36,54.9.47,12.98,2.04,25.86,4.15,38.87,8.84,54.32,21.52,108.3,20.65,164.5-34.72,26.76-75.54,36.39-116.68,44.67-41.24,8.29-82.66,15.71-124.09,23-11.64,2.05-23.59,2.27-35.36,3.33ZM858.48,1146.91c18.8,30.99,31.42,32.58,52.24,7.43,9.6-11.59,19.09-23.1,26.2-36.75,6.82-13.09,15.77-25.31,27.72-35.9,21.77,27.63,53.96,29.01,82.3,37.25,13.07-8.26,13.9-18.14,8.88-29.02-19.54-19.92-46.18-29.15-65.04-47.31,1.54-9.45,8.43-13.13,12.2-18.94,9.21-14.19,21.11-26.49,26.17-43.55,6.64-22.4,7.1-23.1-15.17-37.68-41.14,3.55-48.87,42.86-70.21,66.43-10.11,1.05-15.84-4.33-21.58-10.44-12.78-13.61-29.44-20.54-47.02-24.94-10.76-2.69-20.24-.41-22.74,13.35,15.85,29.6,44.81,44.2,72.14,60.32-18.16,36.07-54.81,58.27-66.07,99.75Z"/>
  <path class="cls-2" d="M1054.67,837.64c-79.12,26.63-155.58,22.85-234.91,2.73,9.72-15.63,21.86-27.74,35.48-37.34,26.28-18.51,33.77-47.38,44.67-74.6-11.27-19.98-.54-43.36-10.66-64.02-12.98-26.51-15.36-55.36-13.57-84.65.61-9.96.1-19.98.1-28.51,12.06-10.79,24.41-12.83,39.4-9.64,21.19,13.25,29.12,33.53,27.96,60.3-1.69,39.01,5.69,77.75,7.24,116.84,1.17,29.79,16.64,55.52,50.18,67.01,22.25,7.62,39.99,24.8,54.13,51.88Z"/>
  <path class="cls-1" d="M850.49,1320.34c-12.23-14.97-22.27-31.56-15.52-55.29,22.9.95,43.51-8.95,64.92-15.92,54.37-17.71,109.25-33.13,166.24-40.13,12.5-1.54,24.18-9.67,39.62-3.62,3.09,23.91,1.39,48.95.57,73.87-.22,6.52-3.16,13.98-7.21,19.17-16.92,21.77-38.46,38.13-65.46,44.43-39.62,9.24-63.12,9.5-103.16-.19-25.71-6.22-52.87-7.13-79.99-22.32Z"/>
  <path class="cls-3" d="M858.48,1146.91c11.27-41.48,47.91-63.68,66.07-99.75-27.33-16.13-56.29-30.72-72.14-60.32,2.5-13.76,11.98-16.05,22.74-13.35,17.58,4.4,34.25,11.33,47.02,24.94,5.73,6.11,11.47,11.5,21.58,10.44,21.34-23.57,29.08-62.88,70.21-66.43,22.27,14.58,21.81,15.28,15.17,37.68-5.06,17.06-16.96,29.37-26.17,43.55-3.77,5.81-10.66,9.49-12.2,18.94,18.86,18.16,45.5,27.39,65.04,47.31,5.03,10.88,4.19,20.75-8.88,29.02-28.34-8.24-60.53-9.62-82.3-37.25-11.95,10.59-20.9,22.81-27.72,35.9-7.11,13.65-16.6,25.16-26.2,36.75-20.82,25.15-33.44,23.56-52.24-7.43Z"/>
</svg>