<?xml version="1.0" encoding="UTF-8"?>
<svg id="Layer_1" data-name="Layer 1" xmlns="http://www.w3.org/2000/svg" version="1.1" viewBox="0 0 1920 1920">
  <defs>
    <style>
      .cls-1 {
        fill: #493934;
      }

      .cls-1, .cls-2, .cls-3, .cls-4, .cls-5, .cls-6, .cls-7, .cls-8, .cls-9 {
        stroke-width: 0px;
      }

      .cls-2 {
        fill: #483934;
      }

      .cls-3 {
        fill: #463732;
      }

      .cls-4 {
        fill: #473833;
      }

      .cls-5 {
        fill: #453632;
      }

      .cls-6 {
        fill: #483834;
      }

      .cls-7 {
        fill: #8a3626;
      }

      .cls-8 {
        fill: #040303;
      }

      .cls-9 {
        fill: #030303;
      }
    </style>
  </defs>
  <path class="cls-9" d="M1485.9,940.63c.72,2.34,2.39,2.35,3.49,3.13,10.96,7.81,15.02,19.2,11.64,31.96-3.1,11.7-9.38,21.11-19.15,28.23-11.04,8.04-22.43,15.67-35.8,19.03-16.77,4.22-32.05,1.26-44.43-11.8-.39-.41-.83-.78-1.29-1.1-.22-.15-.55-.15-1.47-.38-.47,6.5-1.72,12.89-.14,19.26.88,3.54,2.44,6.83,5.04,9.71,4.19,4.65,7.4,10.04,10.23,15.67,8.83,17.54,2.89,34.13-10.36,44.56-5.98,4.71-12.67,7.5-19.63,9.85-12.86,4.35-25.82,8.41-38.79,12.42-4.03,1.25-8.19,2.34-12.37,2.77-5.39.56-10.69.3-15.19-3.79-2.25-2.05-5.33-3.21-8.04-4.74-5.44-3.09-7.61-8.21-8.53-14.01-1.96-12.38-2.76-24.77-.37-37.22.37-1.91.58-4.34-.27-5.9-4.84-8.83-2.02-17.95-.57-26.63,4.45-26.56,17.47-49.44,32.86-71.03,3.44-4.83,7.91-9.04,12.78-12.61,1.56-1.14,2.44-2.29,1.9-4.63-3.28-1.57-7.04-.51-10.6-.93-3.98-.47-7.89-.95-11.22-3.38-8.56-6.25-16.62-12.93-19.98-23.6-2.2-6.99-2.11-8.9,1.13-16.33,11.84-5.39,24.03.1,36.12-.74,4.61-15.28,12.07-26.86,30.74-25.6,9.2-15.68,26.2-20.37,41.43-27.7,4.33-2.08,8.97-3.51,13.41-5.37,1.85-.78,3.65-1.37,5.69-1.36,14.31.06,27.19-5.45,39.7-11.34,11.39-5.37,22.99-8.96,35.33-11.56,17.63-3.71,35.59-6.93,51.84-15.57,3.99-2.12,7.71-4.67,11.91-6.48,2.83-1.22,4.44-4.26,6.17-6.93,5.28-8.16,11.29-15.8,20.06-20.43,8.14-4.29,16.52-6.84,25.66-1.91,4.36,2.35,6.45,6.2,8.56,9.51,1.9,1.71,3.68,1.15,5.35,1.27,5.58.38,9.68,3.1,12.05,8.13,1.67,3.54,3.59,6.62,6.39,9.58,4.79,5.06,4.77,11.85,3.63,18.47-.34,1.94-.95,3.85-1.58,5.73-2.58,7.79-7.03,13.37-15.9,14.52-9.38,1.22-17.82,5.14-26.22,9.48-17.4,8.97-35.74,15.79-54.05,22.7-11.59,4.37-23.32,8.67-34.11,14.71-.66,4.34-.82,8.6.58,12.17,1.67,4.27.03,7.32-2.13,10.12-2.96,3.84-6.71,7.38-11.44,8.67-5.06,1.38-9.06,4.64-14.1,6.14-2.69,10.33-8.53,18.6-15.93,25.29ZM1382.85,949.9c-4.86-1.35-8.42.12-11.8,2.44-10.29,7.05-19.18,15.81-28.83,23.65-2.71,2.2-4.29,5.16-5.33,8.47-2.26,7.16-4.22,14.41-6.25,21.63-3.08,10.96-7.44,21.56-10.98,32.4-5.41,16.57-4.34,33.36-.73,50.06.74,3.42.42,7.42,3.91,10.43,2.2-1.25,3.7,1.43,6.02,1.58,15.72,1.05,31.01.21,45.02-8.32,6.03-3.67,11.36-8.12,12.39-15.15,1.23-8.42,1.72-17.27-.26-25.53-2.73-11.35-5.65-22.66-8.45-34-3.4-13.8.18-25.93,6.96-36.96,3.94-6.42,8.66-13.2,17.11-17.49-7.49-3.8-13.78-7.48-18.76-13.2ZM1519.37,858.48c2.82,0,4.66.17,6.61-.92,11.48-6.37,23.69-10.81,36.41-14.14,10.84-2.84,20.46-8.83,30.47-13.63,18.1-8.69,37.29-14.01,56.17-20.36-.12-8.53-4.39-15.74-11.86-19.64-3.73,3.15-8.58.85-12.88,2.16-19.92,6.06-39.68,12.52-58.45,21.7-5.48,2.68-11.26,4.77-16.93,7.04-12.79,5.12-25.48,10.48-39.43,14.95,5.85,6.83,7.15,14.9,9.9,22.84ZM1417.58,984.88c-6.03,8.5-6.62,14.39-2.6,20.44,6.9,10.38,17.94,13.63,29.78,9.43,10.63-3.77,19.43-10.37,28.62-16.55,8.35-5.62,11.94-13.17,12.44-22.87.62-12.1-.81-14.7-12.78-20.4-9.45,12.65-25.28,14.8-38.4,21.77,3.33,6.96,12.63,8.12,13.6,16.5-1.27,1.33-1.24,3.72-3.48,4.47-11.92,2.64-20.08-3.25-27.19-12.79ZM1464.9,857.27c-10.36,1.82-20.86.78-30.72,4.59-9.85,3.81-19.54,7.84-28.65,13.26,1.09,4.28,2.75,8.08,3.7,12.16,1.36,5.87,1.69,12.59,5.8,17.19,4.87,5.43,8.66,11.49,12.48,17.81,7.66-4.33,15.74-6.99,22.68-12.4,12.28,1.88,21.54-3.65,29.17-13.05-.92-2.54-1.81-5.02-2.92-8.1-8.6,7.22-17.5,12.04-28.04,13.65-7.11,1.09-13.88,1.55-20.3-2.58-4.69-3.02-7.14-9.36-4.46-13.69,4.84-7.79,10.94-14.23,19.98-17.31,7.32-2.49,14.55-5.24,21.82-7.87.21-1.12.46-2.22-.55-3.66ZM1397.3,881.66c-3.85,3.62-6.41,6.87-9.71,8.95-8.01,5.06-12.76,12.26-15.5,21.05-2.18,7-.78,13.31,5.24,17.14,5.85,3.72,12.72,6.54,19.76,4.97,5.25-1.17,10.97-2.1,16.04-6.77-3.58-4.83-3.55-11.06-5.14-16.86-.92-3.37.36-6.79-1.26-9.94-3.04-5.89-6.01-11.82-9.42-18.53ZM1510.34,883.72c-.22-16.2-5.93-29.89-14.79-42.86-7.42,4.35-15.93,2.3-22.36,6.08-2.8,4.91,1.69,7.12,2.77,10.38,3.29,9.97,6.92,19.83,10.21,29.8.7,2.11,1.61,3.5,4.23,4.17,6.32-2.43,12.51-6.25,19.95-7.56ZM1480.11,912.68c-9.06,3.7-16.41,6.66-20.79,13.63-1.22,1.94-2.73,2.79-4.34,3.59-8.28,4.16-17.32,6.43-26.34,7.22-6.61.58-12.29,2.49-18.91,5.34,3.78,7.3,8.55,12.9,14.33,17.48,4.38-1.83,7.91-4.07,11.94-5.39,11.23-3.66,21.3-9.69,31.05-16.2,2.77-1.85,6.28-4.62,6.76-7.43,1-5.86,3.68-10.99,6.29-18.26ZM1350.31,909.28c-5.57,6.44-11.41,8.94-19.69,6.4-3.93-1.2-8.06-1.63-11.52-4.09-2.47-1.75-4.96-2.49-7.64-.74-.81,3.12-.11,5.43,2.11,7.78,5.32,5.64,11.64,8.55,19.35,8.54,4.84,0,9.68-.12,14.52.06,4.79.17,9.29-.55,13.13-2.69,1.38-3.17-1.27-5.14-.45-8.4,2.15-8.54-.28-17.66,2.8-27.02-12.02,2.81-11.6,11.74-12.59,20.16ZM1429.52,891.12c1.48,3.72,4.55,4.17,7.18,3.2,2.07-.77,4.25-1.25,6.29-2.1,8.95-3.7,17.68-8.06,27.74-8.11,1.61,0,3.57-1.07,4.64-2.58-1.55-3.08-1.32-6.79-4.28-9.32-2.42,1.11-5.08,1.57-7.89,1.88-8.81.97-17.36,3.3-25.53,6.79-4.29,1.83-7.57,4.67-8.16,10.23ZM1614.49,772.79c-14.96-.38-21.85,5.57-26.31,23.04,11.35-5.14,22.6-8.66,32.81-15.89-2.51-2.75-4.39-4.82-6.51-7.15Z"/>
  <path class="cls-8" d="M293.48,804.26c5.03-7.22,9.21-13.68,18.48-16.02,17.14,6.49,29.2,18.93,37.28,37.55,14.23,4.99,29.8,10.12,45.12,15.9,17.27,6.51,35.69,8.86,53.01,15.1,8.29,2.99,16.53,6.05,23.88,11.05,2.14,1.46,4.5,2.32,6.95,3.18,14.43,5.03,28.92,9.96,43.14,15.56,8.67,3.42,17.04,7.71,24.78,12.95,15.56-2.51,28.73,15.57,30.7,32.8,4.68,1.44,9.52.75,14.11-.35,3.42-.82,6.75-.87,10.11-.76,10.79.33,17.18,10.12,13.26,20.28-3.43,8.89-8.92,15.74-18.58,18.5-6.52,1.86-12.74,4.77-19.64,5.36-2.14.18-4.21,1.31-6.69,2.14,13.4,11.74,25.43,24.22,35.64,38.27,10.62,14.62,16.39,30.98,15.54,49.32-.05,1.14.11,2.37-.25,3.41-2.78,7.83-3.28,15.91-3.78,24.14-.55,9.06-1.13,17.92.2,27.05,1.21,8.32,1.72,16.88-2.44,25.08-6.8,13.4-15.18,15.7-26.04,12.52-6.84-2-13.23-5.09-19.72-7.9-9.15-3.95-18.26-7.36-28.46-7.65-7.15-.2-12.38-5.36-17.79-9.39-6.31-4.69-10.76-10.89-12.51-18.75-.31-1.39-.43-2.87-.99-4.15-4.82-10.98-1.82-21.21,3.6-30.77,6.08-10.71,11.1-21.67,12.51-34.01.09-.78-.31-1.61-.48-2.44-2.6.59-3.76,2.74-5.27,4.36-8.9,9.59-20.56,12.63-32.9,13.87-4.64.47-8.85-1.6-12.86-3.78-7.3-3.98-13.72-9.19-19.96-14.62-3.87-3.36-7.96-6.28-12.48-8.83-12.9-7.28-18.8-19.22-20.28-33.46-.57-5.5,1.68-10.54,5.01-14.95,2.42-3.19,5.1-6.16,8.68-8.89-9.39-11.21-15.4-24.32-22.08-37.64-7.27-1.44-14.53-3.76-19.32-11.08-1.12-5.35-.36-10.91,1.42-15.8-.71-2.58-2.51-2.8-4.01-3.59-6.77-3.59-13.98-6.58-19.58-11.95-2.87-2.76-6.55-2.46-9.51-2.68-6.1-.45-11.92-1.57-17.31-4.1-9.25-4.34-19.01-7.24-28.49-10.92-8.23-3.2-16.09-7.09-23.37-12.03-2.48-1.69-4.93-2.92-7.85-2.85-4.66.12-8.87-1.46-13.14-3.01-9.76-3.54-13.99-9.62-12.08-19.59,2.48-12.92,7.12-25.03,17.36-34.08,2.38-2.11,5.27-3.26,8.65-2.87,2.82.33,5.67.37,8.42.53ZM329.03,819.04c.22.42.44.83.66,1.25.22-.23.45-.47.67-.7-.42-.2-.84-.41-1.27-.61.52-4.69-2.76-7.66-4.79-11.32-4.94-8.92-6.01-9.79-15.36-8.52-1.35,2.71-2.7,5.43-4.24,8.52,8.36,3.75,15.7,8.9,24.33,11.38ZM560.89,921.97c0-2.23-.24-4.27-3.31-4.08-.16,2.34,1.23,3.48,3.2,4.19.03,1.14-.2,2.37.14,3.41,3.13,9.44,4.71,18.89,1.71,28.74-.47,1.54-3.22,3.08-.62,5.38,3.14.16,6.88-.54,9.81.69,5.09,2.14,10.17,1.38,15.14,1.08,9.11-.56,13.5-6.2,12.54-15.37h-25.53c-4.9-4.09-7.38-8.22-8.48-14.01-.59-3.11.64-8.5-4.58-10.03ZM437.25,942.59c-.2-.42-.41-.83-.61-1.25-.23.22-.46.45-.69.67.41.22.82.43,1.24.65-.81,6.3,2.74,12.06,1.75,18.3,16.31,15.7,35.74,23.98,58.17,28.99,2.49-7.47,8.98-10.73,14.31-16.11-8.3-3.62-15.65-8-23.61-10.01-11.73-2.96-22.5-7.72-33.14-13.17-5.69-2.91-11.01-6.69-17.42-8.06ZM517.83,994.24c3.48,3.69,6.56,7.08,9.77,10.33,4.77,4.82,6.97,10.41,7.79,17.3.77,6.47.31,13.15,1.78,19.3,1.6,6.68-.36,12.75-.95,18.94-.92,9.66-5.2,18.68-7.23,28.24-2.01,9.46-.25,17.33,6.64,24,16.03,15.52,34.91,23.06,57.39,20.58,2.08-2.28,3.05-4.82,3.94-7.53,5.27-16.04,4.54-32.19,1.03-48.39-.29-1.32-.96-2.56-1.08-4.02-.77-9.51-1.63-18.98-3.24-28.42-1.75-10.29-4.15-20.02-9.88-29.06-2.75-4.34-6.13-8.05-8.94-12.22-4.73-7.01-10.66-12.5-18.4-15.78-5.24-2.22-9.51-5.88-14.7-9.05-3.09,3.41-7.46.95-10.85,2.12-2.79,2.12-4.71,4.57-7.66,6-2.88,1.39-3.98,4.62-5.41,7.68ZM267.88,843.49c3.72,1.36,7.11,3.64,11.24,4.88,14.31,4.29,28.53,8.93,42.72,13.63,15.1,4.99,30,10.62,43.11,19.79,9.62,6.74,20.46,8.15,31.13,9.65,4.52-4.59,4.12-10.7,7.05-15.53,2.72-4.48,7.64-8.46,6.49-14.91-5.17-1.71-10.2-3.21-15.1-5.04-5.2-1.94-10.41-3.95-15.61-5.76-9.65-3.35-19.21-7.42-29.41-8.74-7.67-.99-14.88-3.28-21.07-7.44-4.83-3.24-10.08-4.98-15.33-6.16-6.79-1.53-13.52-3.33-19.98-5.67-6.97-2.53-12.57-1.26-17.74,3.32-4.93,4.36-9.73,8.96-7.5,17.99ZM435.95,1000.74c1.05,3.14,1.87,5.84,2.84,8.49,2.04,5.59,3.78,11.63,8.23,15.62,8.24,7.39,16.56,14.79,26.55,19.96,3.72,1.92,7.54,2.98,11.5,2.19,9.58-1.91,18.71-4.87,24.34-13.64.99-6.04-2.35-10.31-4.74-15.05-15.32,10.7-22.33,12.2-30.13,6.41-1.18-8.95,6.97-11.28,12.16-16.08-7.05-1.47-13.27-4.13-18.96-7.8-5.96-3.84-11.63-8.14-17.17-12.05-8.39-.07-11.74,5.38-14.62,11.97ZM512.71,904.32c-8.35-5.71-15.95-11.93-25.78-14.14-9.61-2.16-18.3-8.07-28.36-7.67-2.2,2.71-3.73,4.92-4.12,7.4,9.92,5.29,21.57,6.16,28.85,15.43.63.8,2.09.89,2.88,1.62,6.08,5.54,13.24,10.53,10.69,20.16-2.77,9.3-9.73,10.98-18.1,10.4-4.19-.29-7.38-2.64-10.66-4.64-1.99-1.21-3.65-2.32-6.12-2.37-6.23-.12-12.1-1.82-17.56-4.88-.29-.16-.96.34-1.53.56-.8,1.86-.86,3.75.49,6.81,16.49,7.04,33.81,14.42,51.51,21.97,12.27-14.75,12.23-33.43,17.81-50.65ZM544.37,956.92c2.22-6.99,6.69-13.18,4.09-19.94-2.25-5.84-2.56-13.23-8.05-17.02-5.35-3.69-11.22-7.15-17.88-8.34-2.16,2.52-1.91,5.68-2.5,8.15-3.19,13.39-11.28,25.31-11.5,40.16,3.1,0,6.78-.88,9.78.16,9.26,3.23,17.55,1.21,26.06-3.18ZM426.5,868.44c-9.07,13.85-15.57,28.58-21.77,43.46-.55,1.32-.73,3.41,1.27,4.94,8.52-1.18,14.51,5.44,21.97,8.16,1.5-1.96.98-4.43,1.37-6.52,1.31-6.99,6.07-12.63,7.3-19.44,1.37-7.58,3.79-14.46,9.94-20.29-7.51-2.77-13.96-5.81-20.09-10.3ZM447.81,910.93c5.5,3.12,11.58,5.32,16.73,9.26,1.13.87,2.67,1.91,4.58,1.89,6.35-.07,12.73-.5,19.02,1.81-.15-7.13-5.87-14.33-12.06-15.54-9.18-1.79-18.4-3.36-28.05-5.1-.61,2.59-.88,5-.22,7.68Z"/>
  <path class="cls-7" d="M1382.85,949.9c4.98,5.73,11.27,9.4,18.76,13.2-8.44,4.29-13.17,11.07-17.11,17.49-6.77,11.03-10.36,23.17-6.96,36.96,2.8,11.34,5.72,22.65,8.45,34,1.99,8.27,1.5,17.11.26,25.53-1.03,7.03-6.36,11.48-12.39,15.15-14.01,8.52-29.3,9.36-45.02,8.32-2.31-.15-3.81-2.84-6.02-1.58-3.48-3.01-3.17-7.01-3.91-10.43-3.61-16.7-4.68-33.49.73-50.06,3.54-10.84,7.9-21.44,10.98-32.4,2.03-7.23,3.99-14.47,6.25-21.63,1.04-3.3,2.62-6.26,5.33-8.47,9.65-7.83,18.54-16.59,28.83-23.65,3.37-2.31,6.93-3.79,11.8-2.44Z"/>
  <path class="cls-1" d="M1519.37,858.48c-2.75-7.94-4.05-16.01-9.9-22.84,13.94-4.47,26.64-9.83,39.43-14.95,5.68-2.27,11.45-4.36,16.93-7.04,18.77-9.18,38.53-15.64,58.45-21.7,4.3-1.31,9.15.99,12.88-2.16,7.47,3.9,11.75,11.11,11.86,19.64-18.88,6.35-38.07,11.67-56.17,20.36-10.01,4.8-19.62,10.79-30.47,13.63-12.71,3.33-24.93,7.78-36.41,14.14-1.95,1.08-3.79.92-6.61.92Z"/>
  <path class="cls-4" d="M1464.9,857.27c1.01,1.44.75,2.54.55,3.66-7.27,2.63-14.5,5.38-21.82,7.87-9.04,3.08-15.14,9.52-19.98,17.31-2.68,4.32-.23,10.67,4.46,13.69,6.43,4.14,13.19,3.67,20.3,2.58,10.54-1.61,19.44-6.44,28.04-13.65,1.11,3.08,2,5.56,2.92,8.1-7.63,9.39-16.89,14.93-29.17,13.05-6.95,5.41-15.02,8.06-22.68,12.4-3.82-6.32-7.61-12.38-12.48-17.81-4.12-4.59-4.44-11.31-5.8-17.19-.95-4.08-2.6-7.88-3.7-12.16,9.11-5.42,18.8-9.46,28.65-13.26,9.85-3.81,20.36-2.76,30.72-4.59Z"/>
  <path class="cls-2" d="M1397.3,881.66c3.41,6.72,6.38,12.64,9.42,18.53,1.62,3.15.34,6.57,1.26,9.94,1.59,5.8,1.57,12.03,5.14,16.86-5.07,4.67-10.79,5.61-16.04,6.77-7.04,1.56-13.91-1.25-19.76-4.97-6.01-3.83-7.42-10.14-5.24-17.14,2.74-8.79,7.49-15.99,15.5-21.05,3.3-2.08,5.86-5.34,9.71-8.95Z"/>
  <path class="cls-6" d="M1510.34,883.72c-7.44,1.31-13.63,5.13-19.95,7.56-2.62-.67-3.53-2.05-4.23-4.17-3.28-9.97-6.92-19.83-10.21-29.8-1.08-3.26-5.57-5.47-2.77-10.38,6.42-3.78,14.94-1.73,22.36-6.08,8.86,12.97,14.57,26.66,14.79,42.86Z"/>
  <path class="cls-4" d="M1480.11,912.68c-2.62,7.27-5.29,12.4-6.29,18.26-.48,2.81-3.99,5.58-6.76,7.43-9.75,6.5-19.82,12.53-31.05,16.2-4.03,1.31-7.56,3.56-11.94,5.39-5.78-4.58-10.56-10.18-14.33-17.48,6.62-2.85,12.29-4.76,18.91-5.34,9.02-.79,18.06-3.07,26.34-7.22,1.61-.81,3.12-1.65,4.34-3.59,4.38-6.97,11.73-9.93,20.79-13.63Z"/>
  <path class="cls-3" d="M1350.31,909.28c.99-8.42.58-17.35,12.59-20.16-3.08,9.36-.65,18.48-2.8,27.02-.82,3.26,1.83,5.23.45,8.4-3.84,2.14-8.33,2.87-13.13,2.69-4.83-.17-9.68-.06-14.52-.06-7.71,0-14.03-2.9-19.35-8.54-2.22-2.36-2.92-4.67-2.11-7.78,2.68-1.75,5.17-1.01,7.64.74,3.47,2.46,7.6,2.89,11.52,4.09,8.28,2.54,14.12.04,19.69-6.4Z"/>
  <path class="cls-3" d="M1429.52,891.12c.59-5.56,3.86-8.4,8.16-10.23,8.17-3.49,16.72-5.82,25.53-6.79,2.81-.31,5.47-.77,7.89-1.88,2.96,2.53,2.73,6.24,4.28,9.32-1.08,1.5-3.03,2.57-4.64,2.58-10.07.05-18.8,4.41-27.74,8.11-2.05.85-4.22,1.33-6.29,2.1-2.63.97-5.71.52-7.18-3.2Z"/>
  <path class="cls-3" d="M1614.49,772.79c2.12,2.33,4,4.4,6.51,7.15-10.21,7.23-21.47,10.75-32.81,15.89,4.45-17.47,11.35-23.42,26.31-23.04Z"/>
  <path class="cls-7" d="M517.83,994.24c1.42-3.06,2.53-6.29,5.41-7.68,2.94-1.43,4.86-3.88,7.66-6,3.39-1.17,7.76,1.29,10.85-2.12,5.19,3.17,9.46,6.83,14.7,9.05,7.74,3.28,13.67,8.77,18.4,15.78,2.81,4.17,6.19,7.88,8.94,12.22,5.74,9.04,8.13,18.77,9.88,29.06,1.61,9.44,2.47,18.91,3.24,28.42.12,1.46.8,2.7,1.08,4.02,3.51,16.19,4.24,32.34-1.03,48.39-.89,2.72-1.86,5.26-3.94,7.53-22.48,2.48-41.36-5.06-57.39-20.58-6.89-6.67-8.65-14.54-6.64-24,2.03-9.55,6.31-18.58,7.23-28.24.59-6.19,2.55-12.26.95-18.94-1.47-6.15-1.01-12.83-1.78-19.3-.82-6.89-3.02-12.48-7.79-17.3-3.21-3.25-6.29-6.63-9.77-10.33Z"/>
  <path class="cls-1" d="M267.88,843.49c-2.23-9.04,2.57-13.63,7.5-17.99,5.17-4.58,10.77-5.85,17.74-3.32,6.45,2.34,13.18,4.15,19.98,5.67,5.25,1.18,10.5,2.91,15.33,6.16,6.19,4.16,13.4,6.44,21.07,7.44,10.2,1.32,19.77,5.39,29.41,8.74,5.2,1.81,10.41,3.82,15.61,5.76,4.91,1.83,9.93,3.33,15.1,5.04,1.16,6.44-3.77,10.42-6.49,14.91-2.93,4.84-2.53,10.94-7.05,15.53-10.67-1.49-21.51-2.91-31.13-9.65-13.11-9.18-28.01-14.8-43.11-19.79-14.19-4.69-28.4-9.34-42.72-13.63-4.13-1.24-7.52-3.51-11.24-4.88Z"/>
  <path class="cls-4" d="M512.71,904.32c-5.58,17.22-5.54,35.9-17.81,50.65-17.69-7.55-35.01-14.94-51.51-21.97-1.35-3.06-1.3-4.95-.49-6.81.57-.22,1.24-.73,1.53-.56,5.46,3.06,11.33,4.75,17.56,4.88,2.47.05,4.12,1.16,6.12,2.37,3.28,2,6.48,4.35,10.66,4.64,8.37.58,15.34-1.1,18.1-10.4,2.55-9.63-4.61-14.62-10.69-20.16-.8-.73-2.26-.82-2.88-1.62-7.28-9.26-18.93-10.14-28.85-15.43.39-2.48,1.92-4.68,4.12-7.4,10.06-.4,18.75,5.52,28.36,7.67,9.82,2.2,17.43,8.43,25.78,14.14Z"/>
  <path class="cls-6" d="M437.25,942.59c6.41,1.37,11.73,5.15,17.42,8.06,10.65,5.45,21.42,10.2,33.14,13.17,7.95,2.01,15.31,6.39,23.61,10.01-5.33,5.38-11.82,8.64-14.31,16.11-22.43-5-41.86-13.29-58.17-28.99.99-6.24-2.57-12-1.75-18.3l.07-.07Z"/>
  <path class="cls-2" d="M544.37,956.92c-8.51,4.39-16.8,6.41-26.06,3.18-3-1.05-6.68-.16-9.78-.16.22-14.85,8.31-26.77,11.5-40.16.59-2.47.34-5.63,2.5-8.15,6.66,1.19,12.53,4.65,17.88,8.34,5.5,3.79,5.81,11.18,8.05,17.02,2.6,6.76-1.87,12.95-4.09,19.94Z"/>
  <path class="cls-6" d="M426.5,868.44c6.13,4.49,12.58,7.53,20.09,10.3-6.15,5.83-8.57,12.71-9.94,20.29-1.23,6.81-5.99,12.44-7.3,19.44-.39,2.1.13,4.56-1.37,6.52-7.46-2.72-13.45-9.35-21.97-8.16-2.01-1.52-1.82-3.62-1.27-4.94,6.2-14.87,12.7-29.61,21.77-43.46Z"/>
  <path class="cls-5" d="M560.89,921.97c5.22,1.53,3.99,6.92,4.58,10.03,1.1,5.79,3.59,9.92,8.48,14.01h25.53c.96,9.18-3.43,14.81-12.54,15.37-4.96.3-10.05,1.06-15.14-1.08-2.93-1.23-6.66-.53-9.81-.69-2.6-2.3.15-3.84.62-5.38,2.99-9.86,1.42-19.31-1.71-28.74-.34-1.04-.11-2.27-.14-3.41l.11-.1Z"/>
  <path class="cls-3" d="M447.81,910.93c-.66-2.68-.39-5.09.22-7.68,9.65,1.74,18.87,3.32,28.05,5.1,6.18,1.2,11.9,8.41,12.06,15.54-6.28-2.31-12.67-1.87-19.02-1.81-1.91.02-3.45-1.02-4.58-1.89-5.15-3.95-11.23-6.15-16.73-9.26Z"/>
  <path class="cls-3" d="M329.03,819.04c-8.63-2.48-15.97-7.63-24.33-11.38,1.54-3.09,2.89-5.81,4.24-8.52,9.35-1.27,10.42-.4,15.36,8.52,2.03,3.66,5.31,6.63,4.79,11.32l-.06.06Z"/>
  <path class="cls-5" d="M560.78,922.08c-1.97-.71-3.36-1.85-3.2-4.19,3.07-.19,3.31,1.85,3.31,4.08l-.11.1Z"/>
  <path class="cls-3" d="M329.09,818.98c.42.2.84.41,1.27.61-.22.23-.45.47-.67.7-.22-.42-.44-.83-.66-1.25l.06-.06Z"/>
  <path class="cls-6" d="M437.19,942.66c-.41-.22-.82-.43-1.24-.65.23-.22.46-.45.69-.67.2.42.41.83.61,1.25l-.07.07Z"/>
</svg>