<?xml version="1.0" encoding="UTF-8"?>
<svg id="Layer_1" data-name="Layer 1" xmlns="http://www.w3.org/2000/svg" version="1.1" viewBox="0 0 1920 1920">
  <defs>
    <style>
      .cls-1 {
        fill: #060404;
      }

      .cls-1, .cls-2, .cls-3 {
        stroke-width: 0px;
      }

      .cls-2 {
        fill: #fff;
      }

      .cls-3 {
        fill: #e44637;
      }
    </style>
  </defs>
  <path class="cls-2" d="M995.79,467.78c-4.37-3.4-9.73-5.21-14.99-6.97-1.14-.38-2.28-.76-3.43-1.14-5.97-5.73-14.17-9.09-22.45-9.08-1.17,0-2.38.07-3.45.54-1.7.73-2.86,2.33-3.74,3.96-5.05,9.35-2.82,22.03,5.11,29.1,4.27,3.81,9.74,5.95,15.15,7.81,6.6,2.28,13.58,4.3,20.47,3.19,6.89-1.11,13.61-6.22,14.36-13.16.59-5.5-2.67-10.86-7.04-14.26Z"/>
  <path class="cls-2" d="M1046.68,411.81c5.17,2.26,11.05,2,16.69,1.7,4.74-.25,10.14-.85,12.9-4.72,2.19-3.06,1.94-7.16,1.61-10.91-1.5-16.75-22.64-39.61-41.57-31.65-21.15,8.89-4.36,39.12,10.37,45.57Z"/>
  <path class="cls-3" d="M857.98,825.04c-11.64.54-22.55,5.67-33.2,10.81-6.45,3.12-10.15,8.59-10.52,14.38-.85,13.18-6.24,25.55-5.15,39.1,1.61,20.15-4.41,39.87-5.07,60.09-.28,8.61-1.83,18.91-5.83,27.93-16.28,36.75-25.42,75.59-30.2,115.26-4.94,41.07-14.72,81.24-20.66,122.02-3.88,26.64-8.91,52.42-16.63,78.34-6.99,23.45-8.55,49.12-8.74,73.84-.23,29.39-8,57.48-10.66,86.39-1.88,20.4,2.82,34.76,20.9,43.97,13.55,6.9,28.06,11.05,42.71,15.06,17.22,4.71,32.54-2.24,48.21-6.43,6.85-1.83,9.36-8.83,12.09-15.76,9.38-23.84,12.89-49.2,20.48-73.42,13.18-42.04,20.6-85.38,28.57-128.46,6.26-33.82,14.79-67.17,19.9-101.2,2.85-19,7.42-37.76,9.88-56.8,3.81-29.4,9.22-58.44,15.89-87.3,11.47-49.61,23.38-99.01,22.58-150.7-.34-22-.76-42.82-16.35-62.64-5.4-1.35-11.37-3.94-17.42-4.14-20.25-.68-40.56-1.3-60.77-.35Z"/>
  <path class="cls-2" d="M1261.56,506.59c-.32-2.17-.78-4.42-2.16-6.13-1.32-1.64-3.27-2.5-5.32-3.1-.15-.12-.25-.27-.41-.39-3.33-2.47-7.46-3.47-11.41-4.48-1.91-.49-3.83-1-5.76-1.46h.94c-.68-.03-1.34-.14-2.01-.26-.35-.08-.71-.12-1.06-.19-6.12-1.36-11.85-5.15-18.11-4.71-5.92.42-10.91,4.6-14.63,9.23-4.19,5.22-7.34,12.73-3.79,18.41,2.58,4.12,7.74,5.67,12.46,6.81,12.76,3.09,26,5.58,38.98,3.58,3.79-.58,7.79-1.71,10.2-4.69,2.77-3.41,2.7-8.28,2.07-12.63Z"/>
  <path class="cls-2" d="M1200.27,372.45c-1.4-2.97-3.91-5.09-6.86-6.45-.03-.03-.05-.06-.08-.09l-3.83-2.96c-2.95-1.71-6.13-2.57-9.54-2.58l-5.03.68c-.08.02-.15.06-.23.08-.21.03-.42.06-.63.09-.09.02-.19.05-.28.07-1.51.64-3.01,1.27-4.52,1.91-1.3.99-2.59,1.99-3.88,3-.56.6-2.65,3.26-3.06,3.96-.08.13-.2.39-.34.69-7.3,9.12-14.05,19.41-14.2,31.01-.03,2.3.23,4.67,1.31,6.69.81,1.51,2.04,2.76,3.41,3.79,5.13,3.89,12.08,4.84,18.39,3.57s12.06-4.54,17.21-8.39c3.08-2.31,6.04-4.89,8.08-8.15,2.1-3.35,3.13-7.24,4.05-11.08,1.26-5.24,2.33-10.97.03-15.84Z"/>
  <path class="cls-2" d="M1142.95,597.66l-7.79-10.01c-8.03-6.35-21.61-3.47-26.27,5.64-2.05,4.02-2.45,8.7-2.15,13.2.88,13.09,7.66,25.68,18.1,33.62,10.44,7.95,24.38,11.12,37.23,8.48,2.94-.6,5.95-1.57,8.06-3.71,3.07-3.12,3.51-7.9,3.67-12.28.17-4.52.21-9.19-1.57-13.35-4.86-11.35-20.01-13.44-29.28-21.59Z"/>
  <path class="cls-1" d="M1064.63,511.06c-14.08,7.46-27.23,16.8-41.6,23.6-25.53,12.07-43.68,31.27-57.14,55.38-2.85,5.1-5.96,9.87-10.84,12.33-17.81,8.98-24.57,26.03-30.86,42.78-6.29,16.74-11.59,33.83-14.08,51.92-3.11,22.57-14.76,43.12-17.67,67.69-17.46,2.35-33.26,3.96-48.85,6.7-25.35,4.45-56.58,31.91-57.54,63.2-.4,12.91-4.37,24.23-8.7,35.99-7.85,21.34-13.79,43.22-17.96,65.72-4.29,23.18-5.56,46.74-9.94,69.78-9.68,50.88-26.57,99.93-40.2,149.81-10.07,36.89-15.35,74.38-17.37,112.45-.75,14.09-1.26,28.19-2.36,42.26-2.27,29.21-16.03,55.63-20.84,84.22-4.36,25.92-11.22,51.46-10.56,78.15.35,13.83,4.22,26.85,12.56,36.64,25.29,29.69,57.61,46.97,97.17,49.58,22.45,1.48,44.55-1.4,65.38-8.73,24.04-8.46,44.61-23.4,54.36-48.09,6.03-15.27,11.85-31.04,13.86-47.59,3.44-28.4,8.01-56.57,9.96-85.29,2.46-36.32,10.38-72.36,17.25-108.27,4.9-25.64,12.64-50.72,17.82-76.31,6.19-30.53,16.26-59.83,25.32-89.5,7.05-23.08,13.65-46.37,13.49-70.91-.1-16.09-.96-32.29.52-48.25,2.67-28.89,10.98-56.71,17.75-84.86,11.69-48.62-1.35-77.06-40.13-109.87-7.97-6.74-19.75-5.98-28.42-13.38,2.52-11.38,4.34-23.05,3.74-34.71-1.28-24.64,6.9-45.91,19.82-66.4,8.76-13.88,19.02-27.04,23.95-43.28,2.22-7.31,8.2-12.75,14.34-17.59,12.53-9.88,25.31-19.51,37.17-30.17,10.93-9.82,22.47-18.26,35.59-24.98,12.24-6.27,24.8-12.53,33.54-23.15-.02-5.61,1.32-10.58-1.53-14.91-11.95-10.43-24.66-8.49-37.02-1.95ZM936.16,829.53c15.59,19.82,16.01,40.64,16.35,62.64.8,51.69-11.11,101.08-22.58,150.7-6.67,28.86-12.08,57.9-15.89,87.3-2.47,19.04-7.03,37.8-9.88,56.8-5.1,34.04-13.64,67.39-19.9,101.2-7.97,43.07-15.38,86.42-28.57,128.46-7.59,24.21-11.1,49.58-20.48,73.42-2.73,6.94-5.24,13.93-12.09,15.76-15.67,4.19-30.99,11.14-48.21,6.43-14.65-4.01-29.16-8.16-42.71-15.06-18.08-9.21-22.78-23.58-20.9-43.97,2.67-28.91,10.43-57.01,10.66-86.39.2-24.72,1.76-50.39,8.74-73.84,7.72-25.92,12.75-51.69,16.63-78.34,5.94-40.78,15.72-80.95,20.66-122.02,4.77-39.67,13.92-78.51,30.2-115.26,4-9.03,5.55-19.33,5.83-27.93.66-20.22,6.68-39.94,5.07-60.09-1.09-13.55,4.3-25.92,5.15-39.1.37-5.79,4.07-11.27,10.52-14.38,10.65-5.14,21.57-10.27,33.2-10.81,20.21-.94,40.52-.33,60.77.35,6.05.2,12.01,2.79,17.42,4.14Z"/>
</svg>