<?xml version="1.0" encoding="UTF-8"?>
<svg id="Layer_1" data-name="Layer 1" xmlns="http://www.w3.org/2000/svg" version="1.1" viewBox="0 0 1920 1920">
  <defs>
    <style>
      .cls-1 {
        fill: #8c3625;
      }

      .cls-1, .cls-2, .cls-3, .cls-4, .cls-5, .cls-6, .cls-7, .cls-8, .cls-9 {
        stroke-width: 0px;
      }

      .cls-2 {
        fill: #040201;
      }

      .cls-3 {
        fill: #080302;
      }

      .cls-4 {
        fill: #050403;
      }

      .cls-5 {
        fill: #080707;
      }

      .cls-6 {
        fill: #d6cfbd;
      }

      .cls-7 {
        fill: #0d0c0b;
      }

      .cls-8 {
        fill: #8c3725;
      }

      .cls-9 {
        fill: #f4d729;
      }
    </style>
  </defs>
  <path class="cls-4" d="M1089.21,526.37h20.12c5.43,5.59,13.22,8.09,16.91,15.3,1.03,2.01,3.09,3.88,3.2,5.9.91,15.97,4.78,31.91-3.97,47.52-5.84,10.42-8.18,22.7-15.22,33.28-1.2,1.01-3.14,1-5.03,1-9.95,0-11.51-1.05-14.25-10.86-2.62-9.39-8.23-16.8-14.71-23.75-1.71-1.84-3.64-2.71-7.02-1.83-3.85,4.9-7.81,11-14.21,14.37-2.25,9.97,2.87,18.95,1.88,28.54-.98,9.41-.21,19.01-.21,29.53,9.87,7.43,19.41,16.55,27.85,26.95,17.33,21.36,31.5,43.94,35.98,71.87,3.7,23.02,9.27,45.74,13.37,68.71,3.99,22.35,1.11,44.09-6.64,65.48-4.76,13.15-9.54,26.21-16,38.64-2.45,4.72-3.97,9.78-4.62,15.12-2.77,22.64-10.36,44.02-18.99,64.82-4.98,12.01-11.94,23.48-20.09,34.27.78,17.34-1.15,34.5-5.7,51.39-.78,2.88-.51,6.06-.67,9.1-.73,13.61,1.68,27.36-2.09,40.84-1.15,4.13,1.75,7.92,1.7,12.22-.23,21.27-3,42.19-9.34,62.43-3.33,10.62-10.13,19.35-19.9,25.51-4.68,2.95-9.71,3.73-15.33,3.99-1.74,10.99-3.29,21.73-5.18,32.4-2.36,13.36-4.7,26.75-7.62,40-2.2,9.96-6.13,19.4-10.94,28.42-2.25,4.22-6.46,6.27-9.83,8.32-6.68,19.07-10.43,38.4-17.66,56.67-4.57,11.56-10.06,17.07-21.87,21.14-12.3-1.6-17.34-10.46-21.5-20.74-4.58-11.32-5.75-23.4-7.83-35.15-2.16-12.22-4.48-24.47-6.02-36.99-9.56-7.24-12.32-17.29-13.38-28.82-1.63-17.61-4.66-35.09-7.1-52.69-1.3-.88-2.44-1.96-3.79-2.51-13.76-5.59-15.88-17.72-13.53-28.03,3.31-14.49,4.38-29.06,4.81-43.89.51-17.41-1.71-34.4-4.51-51.44-1.28-7.81-1.72-15.79-2.39-23.64-1.3-15.06-4.16-30.1-2.66-45.37.21-2.19.2-5.08-1.02-6.61-7.74-9.72-10.34-22.65-19.72-31.27-9.27-8.51-13.66-19.87-17.95-31.19-.93-2.45-1.65-4.81-3.07-7.13-17.91-29.42-28.45-61.18-32.14-95.59-2.09-19.49-3.41-39.06-5.59-58.55-1.99-17.88-1.92-36.14.35-54.5,2.01-16.23,8.94-30.21,13.68-45.19,1.02-3.21,2.99-6.05,3.02-9.66.12-19.97,10.85-34.12,25.81-45.61,5.93-4.55,10.47-10.79,18.03-13.53,3.06-1.11,5.48-4.39,6.94-8.43,8.35-23.12,20.34-44.65,30.87-66.78,6.63-13.92,12.84-28.15,20.5-41.62,1.49-2.61,2.59-5.52,3.41-8.42,5.9-21.07,19.22-37.42,33.33-53.4,10.93-12.38,25.14-18.68,40.7-19.75,15.39-1.05,31.06-1.48,46.58,1.05,10.77,1.75,20.31,6.07,29.14,12.01,6.59,4.43,12.93,9.4,18.68,14.87,5.81,5.53,9.36,12.8,12.44,21.29ZM862.19,1020.47c.07-11.05,1.35-21.53,2.01-31.97.92-14.3,4.27-28.48,2.85-42.94-.14-1.42.57-2.9.74-4.37,1.84-16.13,3.33-32.2-1.64-48.17-2.44-7.83-5.05-16.03-3.62-24.24,2.42-13.88,4.82-27.87,9.47-41.22,6.25-17.93,5.3-35.45-3.15-52.09-4.46-8.78-6.47-18.22-10.16-27.12-2.57-6.19,2.99-10.37,2.09-15.81,3.11-.04,5.42-.82,7.39.73,1.65,3.05,3.47,5.91,4.82,8.98,5.73,12.96,11.16,26.08,11.95,40.43.45,8.29,2.5,16.17,4.14,24.21,2.08,10.2,5.07,20.23,5.33,30.84.51,20.88-3.46,40.97-9.88,60.61-1.74,5.33-2.11,10.03-.41,15.3,1.48,4.57,3.23,9.41,3.1,14.08-.63,22.33,1.3,44.6-1.55,67.03-2.27,17.86.23,36.26-3.74,55.31,12.72,7.03,23.26,16.68,36.97,21.37,3.98,1.36,7.88,2.19,12.08,2.16,13.35-.09,26.69.01,40.04-.01,2.26,0,4.6.05,6.78-.47,10.44-2.52,20.89-4.81,31.14-8.32,16.63-5.69,32.12-11.85,37.01-31.15.17-.68.93-1.19,1.32-1.85,11.45-19.22,23.33-38.21,34.18-57.76,8.94-16.11,16.16-32.98,14.43-52.26-.85-9.48,1.53-19.01,5.15-27.28,5.3-12.12,6.97-25.01,10.95-37.33,1.98-6.14,3.83-12.2.34-18.52-.62-1.12-.28-2.99.1-4.39,6.05-22.68-2.14-43.54-8.2-64.67-5.35-5.32-6.57-12.77-7.95-19.37-3.69-17.65-15.77-29.79-26.89-42.08-7.14-7.89-16.78-13.82-25.04-20.97-3.77-3.27-5.94-8.74-11.31-9.91-22.56,13.38-30.31,10.54-48.12-1.65-8.41,3.7-14.87,10.1-21.49,15.58h-10.83c-8.31-2.39-10.69-10.38-16.71-13.81-1.52.22-2.68.22-3.74.56-8.12,2.55-15.86,5.93-24.88,2.08-4.86-2.08-10.52-.24-14.96,3.17-7.1,5.46-14.98,8.13-24,8.07-5.58-.04-11.8.91-15.78,4.46-13.03,11.61-25.67,23.78-35.65,38.24-3.37,4.88-5.22,10.51-5.06,16.98.44,17.15.13,34.31.07,51.47-.01,4.12-.75,8.03-1.76,12.13-2.48,10.09-3.56,20.55-4.93,30.9-.34,2.54-.32,5.17.62,7.85,2.69,7.69,1.79,15.51.42,23.38-2.08,12-5.26,24.1,1.12,35.89,1.42,2.62,2.47,5.43,3.75,8.12,9.49,19.89,20.35,39.13,28.45,59.7,1.78,4.51,3.82,8.85,4.41,13.74,1.4,11.69,6.56,20.85,18.26,26.38ZM945.81,1423.23c6.56-11.83,8.75-24.4,10.8-37.33,2.09-13.15,4.85-26.28,7.54-39.14,1.99-6.27,9.54-6.31,12.35-11.41,2.89-5.23,5.49-10.66,7.73-16.2,3.33-8.26,6.07-16.76,9.43-25,.9-2.2,1.58-4.24,1.39-6.52-1.55-18.99,3.57-37.68,2.3-56.34,6.67-10.86,16.18-9.47,25.57-6.04,3.28-5.67,5.92-10.31,6.8-16.18,1.79-11.84,4.67-23.54,4.34-35.6-.24-8.72,3.32-17.03,2.4-25.82-.13-1.28.98-2.78,1.74-4.05,2.66-4.44,2.35-9.33,2.74-14.24,1.17-14.84-3.15-29.33-2.46-44.13.17-3.67.94-7.51-.7-11.26-11.66,5.45-22.82,11.54-34.76,16.08-12.19,4.63-24.75,7.9-37.15,11.75-15.09,4.69-29.88,4.52-45.11-.11-11.28-3.43-20.07-10.93-30.78-16.07-1.01,7.78,2.61,14.81,2.3,22.44-.73,17.89-.6,35.85-.02,53.76.33,10.32-1.74,20.33-2.99,30.35-1.61,13-3.93,25.88-4.23,39.05-.14,5.93.73,11.23,5.09,15.4,11.07,3.53,11.31,3.71,20.22,14.52,0,18.99.07,38.42-.04,57.85-.03,5.47.56,10.57,5.32,15.17,6.67-.75,11.38,3.21,13.96,7.25,7.09,28.14,7.78,55.58,16.19,81.83ZM875.36,667.63c8.24,2.24,13.45-2.94,19.54-4.24,6.55-1.41,12.97-4.49,18.7,1.83,1.44,1.59,3.57,1.02,5.43,1.02,5.33,0,10.59-.3,15.68-2.26,10.31-3.96,19.99-2.62,28.52,4.51,9.07-4.41,17.63-7.3,27.6-5.09,6.15,1.36,12.84.25,19.08.25,6.94-5.14,13.33-10.57,22.19-12.54-1.08-5.27,1.62-9.79,1.6-14.69-.06-13.97,4.93-26.67,9.75-39.41.91-2.41,3.08-4.45,1.62-7.36-30.45-8-36.81-12.25-40.64-19.95,1.13-3.55,4.03-5.15,7.11-6.84,7.01-3.84,14.36-6.72,21.98-9.1,4.29-1.34,9.3-1.97,12.26-5.55,5.85-7.07,12.47-13.07,21.37-17.02-3.25-7.29-6.14-13.75-9-20.16-8.79-5.12-18.18-7.58-28.26-7.49-2.66.02-5.43.2-7.98-.4-15.01-3.56-30.27-2.1-45.44-2.61-5.22-.17-9.38,1.6-13.21,5.43-7.83,7.84-14.97,16.22-21,25.44-11.58,17.7-22.69,35.71-34.16,53.48-4.76,7.37-8.25,15.02-9.94,23.8-3.65,19.04-10.76,36.92-20.15,53.88-.72,1.3-1.38,2.64-2.65,5.06ZM1098.53,545.24c-8.07-1.29-15.66.38-21.15,4.65-8.13,6.32-16.99,10.72-28.41,14.83,5.54.33,8.98.32,12.36.78,6.77.93,13.72,1.91,18.37,7.66,8.49,10.5,18.53,19.85,24.54,33.6,7.33-13.89,14.17-26.79,11.8-41.96-6.28-7.02-12.05-13.46-17.51-19.56Z"/>
  <path class="cls-8" d="M862.19,1020.47c-11.69-5.53-16.86-14.69-18.26-26.38-.59-4.89-2.63-9.22-4.41-13.74-8.1-20.57-18.96-39.8-28.45-59.7-1.28-2.69-2.34-5.5-3.75-8.12-6.38-11.79-3.2-23.89-1.12-35.89,1.37-7.88,2.27-15.69-.42-23.38-.94-2.67-.95-5.31-.62-7.85,1.37-10.35,2.45-20.8,4.93-30.9,1.01-4.1,1.75-8.01,1.76-12.13.06-17.16.36-34.33-.07-51.47-.17-6.48,1.69-12.1,5.06-16.98,9.98-14.46,22.62-26.63,35.65-38.24,3.98-3.55,10.2-4.5,15.78-4.46,9.03.06,16.9-2.61,24-8.07,4.44-3.41,10.1-5.25,14.96-3.17,9.02,3.85,16.76.47,24.88-2.08,1.06-.33,2.22-.34,3.74-.56,6.02,3.43,8.4,11.42,16.71,13.81h10.83c6.62-5.48,13.08-11.88,21.49-15.58,17.81,12.19,25.56,15.04,48.12,1.65,5.38,1.17,7.54,6.65,11.31,9.91,8.27,7.15,17.91,13.08,25.04,20.97,11.12,12.3,23.21,24.43,26.89,42.08,1.38,6.6,2.6,14.05,7.95,19.37,6.06,21.13,14.25,41.99,8.2,64.67-.37,1.4-.71,3.27-.1,4.39,3.48,6.31,1.64,12.37-.34,18.52-3.98,12.33-5.65,25.21-10.95,37.33-3.62,8.28-6,17.8-5.15,27.28,1.73,19.29-5.5,36.15-14.43,52.26-10.85,19.56-22.73,38.54-34.18,57.76-.39.65-1.15,1.16-1.32,1.85-4.88,19.3-20.37,25.45-37.01,31.15-10.26,3.51-20.7,5.8-31.14,8.32-2.17.52-4.51.47-6.78.47-13.35.02-26.69-.08-40.04.01-4.2.03-8.11-.8-12.08-2.16-13.71-4.69-24.25-14.34-36.97-21.37,3.97-19.05,1.47-37.46,3.74-55.31,2.86-22.44.93-44.71,1.55-67.03.13-4.67-1.62-9.51-3.1-14.08-1.7-5.26-1.33-9.97.41-15.3,6.42-19.65,10.39-39.74,9.88-60.61-.26-10.61-3.25-20.64-5.33-30.84-1.64-8.04-3.69-15.92-4.14-24.21-.79-14.34-6.22-27.47-11.95-40.43-1.36-3.07-3.17-5.93-4.82-8.98-1.97-1.55-4.29-.77-7.39-.73.9,5.45-4.66,9.62-2.09,15.81,3.69,8.9,5.7,18.34,10.16,27.12,8.45,16.64,9.4,34.16,3.15,52.09-4.65,13.35-7.06,27.34-9.47,41.22-1.43,8.21,1.18,16.41,3.62,24.24,4.98,15.97,3.49,32.04,1.64,48.17-.17,1.47-.88,2.95-.74,4.37,1.42,14.46-1.93,28.64-2.85,42.94-.67,10.44-1.95,20.92-2.01,31.97ZM1019.29,812.98c-1.07,1.87-3.04,3.76-3.13,5.73-.41,9.43-.95,18.93-.18,28.3.58,7.05,6.22,10.59,14.41,10.95,3.24-2.46,6.43-5.07,8.19-8.86,0-4.7-.32-9.26.07-13.77.8-9.49-2.42-16.91-10.71-22.43-2.57-.7-5.51-.59-8.63.07ZM982.47,798.25c5.11,1.69,8.75-.05,11.21-3.88,2.42-3.76,4.77-7.78,3.21-12.63-1.36-4.24-2.15-8.84-4.38-12.57-3.76-6.28-6.85-13.5-14.4-16.34-5.66,3.9-6.01,3.92-5.76,8.51.7,13.12,3.21,25.8,10.12,36.91ZM1064.86,784.65c2.26-2.22,6.03-4.68,7.5-7.59,1.87-9.95.21-17.98-4.54-25.16-3.12-4.71-7.19-8-13.63-4.25-6.71,8.06-3.41,17.76-4.33,28.57,2.47,1.98,5.44,4.37,8.43,6.74,1.17.93,2.22,2.13,6.57,1.7Z"/>
  <path class="cls-1" d="M945.81,1423.23c-8.41-26.25-9.11-53.69-16.19-81.83-2.58-4.04-7.3-8.01-13.96-7.25-4.77-4.6-5.36-9.69-5.32-15.17.12-19.43.04-38.86.04-57.85-8.91-10.82-9.16-10.99-20.22-14.52-4.36-4.17-5.23-9.47-5.09-15.4.31-13.16,2.62-26.04,4.23-39.05,1.24-10.02,3.32-20.03,2.99-30.35-.58-17.91-.72-35.87.02-53.76.31-7.63-3.31-14.66-2.3-22.44,10.71,5.13,19.5,12.64,30.78,16.07,15.23,4.63,30.02,4.8,45.11.11,12.4-3.85,24.96-7.12,37.15-11.75,11.94-4.54,23.1-10.63,34.76-16.08,1.63,3.75.87,7.59.7,11.26-.69,14.8,3.63,29.29,2.46,44.13-.39,4.9-.07,9.8-2.74,14.24-.76,1.27-1.88,2.77-1.74,4.05.93,8.78-2.64,17.1-2.4,25.82.33,12.06-2.54,23.76-4.34,35.6-.89,5.87-3.52,10.51-6.8,16.18-9.39-3.42-18.9-4.82-25.57,6.04,1.27,18.67-3.86,37.35-2.3,56.34.19,2.29-.5,4.33-1.39,6.52-3.36,8.25-6.1,16.75-9.43,25-2.24,5.54-4.84,10.97-7.73,16.2-2.81,5.1-10.36,5.14-12.35,11.41-2.69,12.86-5.45,25.99-7.54,39.14-2.05,12.93-4.24,25.49-10.8,37.33Z"/>
  <path class="cls-6" d="M875.36,667.63c1.26-2.42,1.93-3.76,2.65-5.06,9.38-16.96,16.5-34.84,20.15-53.88,1.68-8.78,5.18-16.42,9.94-23.8,11.47-17.77,22.59-35.78,34.16-53.48,6.03-9.22,13.18-17.61,21-25.44,3.82-3.83,7.99-5.61,13.21-5.43,15.16.5,30.43-.96,45.44,2.61,2.55.61,5.32.42,7.98.4,10.08-.09,19.47,2.38,28.26,7.49,2.86,6.41,5.75,12.88,9,20.16-8.9,3.96-15.52,9.95-21.37,17.02-2.96,3.58-7.96,4.21-12.26,5.55-7.61,2.38-14.97,5.26-21.98,9.1-3.08,1.69-5.98,3.29-7.11,6.84,3.83,7.7,10.19,11.95,40.64,19.95,1.46,2.91-.71,4.95-1.62,7.36-4.82,12.74-9.81,25.44-9.75,39.41.02,4.89-2.68,9.42-1.6,14.69-8.86,1.96-15.26,7.4-22.19,12.54-6.24,0-12.93,1.11-19.08-.25-9.97-2.2-18.54.68-27.6,5.09-8.53-7.13-18.21-8.48-28.52-4.51-5.09,1.96-10.35,2.26-15.68,2.26-1.85,0-3.99.57-5.43-1.02-5.74-6.32-12.16-3.24-18.7-1.83-6.09,1.31-11.3,6.48-19.54,4.24ZM997.96,555.99c4.03-3.05,6.62-6,6.62-10.76,0-4.7-.82-9.21-3.68-12.84-4.31-5.48-10.43-4.7-18.61,1.85-3.14,17.92-.07,22.31,15.67,21.75ZM1028.79,542.09c12.5-5.73,13.2-6.98,10.96-18.89-10.54-5.41-16.46-4.58-20.29,2.83-3.52,6.81-.73,11.85,9.34,16.06Z"/>
  <path class="cls-9" d="M1098.53,545.24c5.46,6.1,11.23,12.54,17.51,19.56,2.37,15.17-4.47,28.07-11.8,41.96-6.01-13.75-16.05-23.1-24.54-33.6-4.65-5.75-11.6-6.72-18.37-7.66-3.38-.47-6.82-.45-12.36-.78,11.42-4.11,20.27-8.51,28.41-14.83,5.5-4.27,13.08-5.94,21.15-4.65Z"/>
  <path class="cls-3" d="M1019.29,812.98c3.12-.66,6.06-.77,8.63-.07,8.3,5.52,11.52,12.94,10.71,22.43-.38,4.51-.07,9.07-.07,13.77-1.76,3.79-4.95,6.4-8.19,8.86-8.19-.36-13.83-3.9-14.41-10.95-.77-9.37-.23-18.88.18-28.3.09-1.97,2.06-3.86,3.13-5.73Z"/>
  <path class="cls-3" d="M982.47,798.25c-6.9-11.11-9.41-23.78-10.12-36.91-.25-4.59.1-4.61,5.76-8.51,7.55,2.84,10.64,10.07,14.4,16.34,2.23,3.73,3.02,8.33,4.38,12.57,1.56,4.85-.8,8.87-3.21,12.63-2.46,3.83-6.1,5.57-11.21,3.88Z"/>
  <path class="cls-2" d="M1064.86,784.65c-4.36.44-5.4-.77-6.57-1.7-2.99-2.37-5.96-4.77-8.43-6.74.92-10.81-2.37-20.51,4.33-28.57,6.44-3.74,10.51-.46,13.63,4.25,4.76,7.18,6.42,15.21,4.54,25.16-1.48,2.92-5.24,5.37-7.5,7.59Z"/>
  <path class="cls-5" d="M997.96,555.99c-15.74.56-18.81-3.83-15.67-21.75,8.18-6.56,14.3-7.33,18.61-1.85,2.86,3.63,3.69,8.14,3.68,12.84,0,4.76-2.59,7.71-6.62,10.76Z"/>
  <path class="cls-7" d="M1028.79,542.09c-10.07-4.21-12.86-9.24-9.34-16.06,3.83-7.41,9.75-8.24,20.29-2.83,2.24,11.91,1.55,13.16-10.96,18.89Z"/>
</svg>