<?xml version="1.0" encoding="UTF-8"?>
<svg id="Layer_1" data-name="Layer 1" xmlns="http://www.w3.org/2000/svg" version="1.1" viewBox="0 0 1920 1920">
  <defs>
    <style>
      .cls-1 {
        fill: #f9dc2a;
      }

      .cls-1, .cls-2, .cls-3, .cls-4, .cls-5, .cls-6, .cls-7, .cls-8, .cls-9, .cls-10 {
        stroke-width: 0px;
      }

      .cls-2 {
        fill: #f1d429;
      }

      .cls-3 {
        fill: #d7d0bd;
      }

      .cls-4 {
        fill: #baa51f;
      }

      .cls-5 {
        fill: #060503;
      }

      .cls-6 {
        fill: #efd328;
      }

      .cls-7 {
        fill: #f6d92a;
      }

      .cls-8 {
        fill: #f0d429;
      }

      .cls-9 {
        fill: #f3d629;
      }

      .cls-10 {
        fill: #f5d92a;
      }
    </style>
  </defs>
  <path class="cls-5" d="M1158.36,1130.45c-4.11,3.34-8.36,6.52-12.29,10.06-16.13,14.53-34.87,22.33-56.36,26.19-16.07,2.89-31.04,3.16-45.32-4.33-13.89-7.28-26.58-16.6-38.86-26.43-16.43-13.16-32.3-26.65-51.08-37.17-20.24-11.34-29.52-33.28-36.81-54.87-11.23-33.27,4.32-57.36,27.68-78.34-19.92-27.94-35.71-58.19-50.93-90.23-17.26-3.86-34.89-9.18-46.9-27.04-2.63-12.94-1.15-26.96,4.65-40.52-17.19-9.58-33.84-16.53-47.63-27.19-14.29-11.04-29.23-15.55-46.55-15.62-10.48-.05-20.3-4.44-29.23-8.81-22.13-10.81-45.88-17.04-68.51-26.38-17.71-7.31-34.82-15.48-50.9-25.91-9.21-5.98-19.07-9.61-30.53-10.2-12.91-.66-25.35-5.43-36.66-11.53-11.66-6.29-16.12-18.15-17.48-30.75-.8-7.43.81-14.75,2.88-22.15,3.3-11.82,8.4-22.94,11.82-34.75,4.88-16.83,20.19-26.92,31.83-39.13,4.18-4.39,10.93-5.01,17.45-4.33,6.74.7,13.57,2.2,21.08.09,8.99-16.6,19.52-32.37,40.43-36.43,35,3.85,80.44,52.76,91.89,88.68,19.59,7.07,40.16,13.95,60.34,21.88,40.53,15.92,82.06,28.53,124.36,38.63,28.51,6.81,57.51,13.2,82.99,27.65,35.92,20.37,74.92,32.13,113.2,46.18,24.28,8.91,48.41,18.26,71.1,31,12.85,7.22,25.11,16.04,41.49,14.43,6.7-.66,12.72,4.03,17.97,8.81,19.29,17.56,33.3,37.85,34.84,64.93.07,1.22,1.15,2.38,2.01,4.06,10.54,2.92,21.57,1.51,32.02-.9,8.18-1.88,16.14-2.25,24.29-2.21,26.63.14,41.96,23.55,33.52,48.96-8.64,26.01-27.64,39.7-52.06,47.59-11.58,3.74-23.5,6.55-35.43,9-6.02,1.23-11.96,1.88-18.4,8.03,14.41,13.84,29.36,27.01,42.92,41.5,22.92,24.5,45.77,49.42,59.55,80.53,12.49,28.2,21.58,57.48,18.03,89.13-.38,3.37.26,7.09-.93,10.1-10.86,27.36-8.71,56.29-10.39,84.72-.68,11.53.49,22.92,2.24,34.54,2.61,17.36,3.37,35.19-2.33,52.87-4.7,14.59-13.69,25.09-25.17,33.93-11.27,8.69-24.12,7.27-37.05,4.21-19.44-4.6-36.76-14.49-55.18-21.59-13.92-5.37-28.15-9.93-42.26-14.79-1.92-.66-4.19-1.85-5.9-1.36-22.91,6.57-38.89-8.55-55-19.44-15.71-10.62-27.18-25.62-33.89-44.95-11.23-32.34-10.15-62.33,7.57-91.78,4.86-8.08,8.14-17.08,12.61-25.42,8.12-15.15,13.76-30.91,13.6-48.36,2.14-3.32,3.85-6.65.02-10.45-1.49,1.92-2.92,3.78-4.36,5.64ZM1242.95,823.55c-.89-.75.2-4.84-2.95-1.75,1.07.49,2.14.98,3.21,1.48-1.07,4.18.2,7.72,1.92,11.65,4.3,9.86,7.77,20.08,11.58,30.16-2.02,10.31,4.41,19.87,2.3,30.4-2.03,10.12-10.03,19.25-6.2,30.75,14.88,1.74,29.04,3.1,43.12,5.09,30.37,4.29,46.75-7.1,52.66-37.24-6.37-5.93-14.2-4.59-21.15-2.56-8.12,2.38-16.21,2.31-24.34,2.47-24.03.48-31.52-5.13-39.87-29.1.75-17.47-4.23-32.12-20.27-41.35ZM1328.77,1344.07c1.73-2.11,3.33-3.52,4.21-5.28,1.83-3.66,3.3-7.49,4.86-11.28,13-31.61,12.33-65.13,7.44-97.32-4.29-28.29-8.94-56.47-11.74-85-2.2-22.42-8.01-44.36-16.6-65.03-11.71-28.17-31.52-51.08-52.83-72.56-4.87-4.9-10.85-8.32-17.15-11.18-13.73-6.22-26.62-13.85-38.9-24.15-8.88,3.84-18.52,2.62-28.63,3.6-9.52,12.61-28.13,17.15-32.06,35.39.83,1.12,1.46,2.46,2.49,3.29,23.11,18.53,42.94,38.88,40.66,71.82-.04.63.49,1.29.62,1.96,6.64,36.75,4.83,72.99-5.97,108.82-4.11,13.65-8.1,27.4-10.99,41.34-4.65,22.39,1.21,41.94,18.23,57.71,38.62,35.78,83.75,52.69,136.37,47.88ZM545.33,643.37c4.35,6.71,9.67,8.82,15.67,11.18,36.81,14.45,75.02,24.44,112.54,36.59,33.07,10.71,66.1,22.52,95.05,41.83,20.36,13.58,41.47,23,65.12,27.5,7.82,1.49,15.99.73,25.78,6.36,3.97-30.08,19.95-52.46,33.46-77.08-31.31-10.82-61.38-21.16-91.42-31.61-21.18-7.37-42.22-15.27-64.44-19.02-18.38-3.11-35.41-9.02-51.07-19.62-7.17-4.86-15.98-8.38-24.52-9.91-18.22-3.25-35.52-9.49-53.18-14.48-34.93-9.87-63.15,11.16-62.98,48.26ZM986.94,996.7c-23.75,3.03-36.21,15.56-33.28,33.97,3.04,19.13,9.95,38.05,23.17,51.53,19.59,19.97,41.79,37.59,67.05,50.6,8.96,4.62,18.76,5.94,28.05,3.54,21.23-5.49,42.35-11.9,55.51-32.23,2.91-14.5-5.02-25.21-11.85-37.08-21.97,17.72-43.37,30.84-70.85,19.42-5.08-24.81,16.3-30.06,27.76-42.32-34.02-6.67-58.66-28-85.54-47.42ZM994.43,759.15c10.33,4.6,20.36,10.94,31.28,13.56,26.98,6.48,45.65,25.53,62.78,44.07,22.7,24.56,2.93,50.65-18.98,54.73-12.91,2.4-24.37.33-35.07-6.77-8.03-5.33-16.22-11.09-25.97-11.19-13.95-.14-26.75-3.79-38.85-10.09-3.92,5.76-4.01,10.91-2.18,17.31,39.59,21.46,82.72,36.08,124.89,55,31.4-35.94,30.72-81.57,44.07-123.57-16.86-9.72-30.66-24.2-49.12-29.66-26-7.7-51.21-17.72-77.39-25.57-6.13,6.64-14.45,11.22-15.46,22.18ZM1134.1,959.66c-21.56-7.33-38.01-18.73-57.16-23.81-32.4-8.59-63.2-20.89-92.22-37.8-10.6-6.17-21.81-11.29-36.26-18.69,7.8,19.92,5.08,37.49,11.08,52.89,38.5,37.06,85.93,54.99,136.42,68.78,9.17-16.04,23.24-27.17,38.14-41.38ZM1158.16,809.05c-9.28,40.43-29.63,75.74-34.65,115.59,18.16,6.61,35.92,5.94,53.61,5.78,27.37-.25,34.49-5.68,42.88-31.53,8.29-25.57,0-48.46-16.08-66.62-10.24-11.56-26.6-18.51-45.75-23.22ZM926.41,706.68c-20.48,37.68-43.4,72.24-52.15,115.49,22.76.79,39.45,11.47,56.19,21.8,15.05-38.36,22.82-78.52,44.13-113.38-15.99-7.94-31.22-15.5-48.17-23.92ZM1078.85,840.14c-3-18.98-12.96-31.01-27.58-35.49-22.46-6.89-46-10.29-70.58-15.49-.64,7.49-8.07,11.76-4.08,20.54,16.89,5.43,32.72,14.39,47.73,25.87,17.35-1.29,34.46,4.32,54.52,4.57ZM653.92,534.37c-12.38,5.42-15.39,15.67-18.74,27.11,21.56,8.84,39.8,23.05,63.05,28.3-10.25-21.67-16.05-46.36-44.31-55.41Z"/>
  <path class="cls-3" d="M1328.77,1344.07c-52.62,4.81-97.75-12.1-136.37-47.88-17.02-15.77-22.88-35.32-18.23-57.71,2.89-13.94,6.88-27.69,10.99-41.34,10.79-35.83,12.61-72.07,5.97-108.82-.12-.67-.66-1.32-.62-1.96,2.28-32.93-17.55-53.29-40.66-71.82-1.03-.83-1.66-2.17-2.49-3.29,3.93-18.25,22.55-22.78,32.06-35.39,10.11-.98,19.76.24,28.63-3.6,12.28,10.3,25.17,17.93,38.9,24.15,6.3,2.85,12.28,6.27,17.15,11.18,21.32,21.48,41.12,44.4,52.83,72.56,8.6,20.67,14.41,42.62,16.6,65.03,2.79,28.53,7.44,56.71,11.74,85,4.89,32.19,5.56,65.71-7.44,97.32-1.56,3.79-3.03,7.62-4.86,11.28-.88,1.76-2.49,3.17-4.21,5.28Z"/>
  <path class="cls-1" d="M545.33,643.37c-.17-37.1,28.05-58.12,62.98-48.26,17.66,4.99,34.96,11.22,53.18,14.48,8.53,1.52,17.35,5.05,24.52,9.91,15.66,10.61,32.7,16.52,51.07,19.62,22.23,3.76,43.26,11.65,64.44,19.02,30.04,10.45,60.11,20.79,91.42,31.61-13.51,24.62-29.49,47-33.46,77.08-9.79-5.63-17.95-4.87-25.78-6.36-23.64-4.51-44.76-13.93-65.12-27.5-28.95-19.31-61.98-31.12-95.05-41.83-37.52-12.15-75.73-22.14-112.54-36.59-6.01-2.36-11.32-4.48-15.67-11.18Z"/>
  <path class="cls-9" d="M994.43,759.15c1.01-10.96,9.33-15.54,15.46-22.18,26.18,7.85,51.39,17.87,77.39,25.57,18.47,5.46,32.26,19.94,49.12,29.66-13.35,41.99-12.67,87.63-44.07,123.57-42.18-18.93-85.3-33.54-124.89-55-1.84-6.4-1.74-11.56,2.18-17.31,12.1,6.3,24.9,9.95,38.85,10.09,9.75.1,17.95,5.87,25.97,11.19,10.7,7.1,22.16,9.17,35.07,6.77,21.91-4.07,41.68-30.17,18.98-54.73-17.14-18.55-35.81-37.6-62.78-44.07-10.92-2.62-20.95-8.96-31.28-13.56Z"/>
  <path class="cls-7" d="M1134.1,959.66c-14.9,14.22-28.97,25.34-38.14,41.38-50.49-13.8-97.92-31.73-136.42-68.78-6-15.4-3.28-32.98-11.08-52.89,14.45,7.4,25.66,12.51,36.26,18.69,29.01,16.9,59.82,29.21,92.22,37.8,19.15,5.08,35.6,16.48,57.16,23.81Z"/>
  <path class="cls-7" d="M1158.16,809.05c19.16,4.71,35.52,11.66,45.75,23.22,16.08,18.16,24.37,41.05,16.08,66.62-8.38,25.85-15.51,31.28-42.88,31.53-17.69.16-35.45.83-53.61-5.78,5.02-39.86,25.38-75.16,34.65-115.59Z"/>
  <path class="cls-10" d="M926.41,706.68c16.95,8.42,32.18,15.98,48.17,23.92-21.31,34.86-29.08,75.02-44.13,113.38-16.74-10.33-33.43-21.02-56.19-21.8,8.75-43.25,31.67-77.81,52.15-115.49Z"/>
  <path class="cls-8" d="M1263.21,864.9c8.35,23.96,15.84,29.57,39.87,29.1,8.13-.16,16.22-.1,24.34-2.47,6.94-2.03,14.78-3.37,21.15,2.56-5.91,30.14-22.29,41.53-52.66,37.24-14.08-1.99-28.24-3.36-43.12-5.09-3.84-11.49,4.17-20.63,6.2-30.75,2.11-10.52-4.32-20.08-2.3-30.4,2.17-.06,4.34-.12,6.52-.18Z"/>
  <path class="cls-2" d="M1078.85,840.14c-20.07-.26-37.17-5.86-54.52-4.57-15.01-11.48-30.84-20.44-47.73-25.87-3.98-8.77,3.45-13.05,4.08-20.54,24.59,5.2,48.12,8.6,70.58,15.49,14.63,4.48,24.58,16.51,27.58,35.49Z"/>
  <path class="cls-6" d="M653.92,534.37c28.26,9.05,34.07,33.74,44.31,55.41-23.25-5.25-41.49-19.45-63.05-28.3,3.34-11.44,6.35-21.69,18.74-27.11Z"/>
  <path class="cls-4" d="M1263.21,864.9c-2.17.06-4.34.12-6.52.18-3.81-10.08-7.28-20.3-11.58-30.16-1.71-3.93-2.99-7.47-1.92-11.65l-.26.27c16.04,9.23,21.02,23.88,20.27,41.35Z"/>
  <path class="cls-4" d="M1243.2,823.28c-1.07-.49-2.14-.98-3.21-1.48,3.15-3.09,2.07,1,2.95,1.75l.26-.27Z"/>
</svg>