<?xml version="1.0" encoding="UTF-8"?>
<svg id="Layer_1" data-name="Layer 1" xmlns="http://www.w3.org/2000/svg" version="1.1" viewBox="0 0 1920 1920">
  <defs>
    <style>
      .cls-1 {
        fill: #000;
      }

      .cls-1, .cls-2, .cls-3 {
        stroke-width: 0px;
      }

      .cls-2 {
        fill: #fcfcfc;
      }

      .cls-3 {
        fill: #fddf2b;
      }
    </style>
  </defs>
  <path class="cls-1" d="M1133.05,857.67c18.6-29.45,25.89-61.3,22.51-91.83-1.84-66.07-2.53-67.9-45.08-112.45-8.66-9.06-18.78-16.87-26.57-26.58-16.45-20.49-38.1-26.97-62.59-23.67-25.75,3.46-51.55,4.3-77.39,5.97-35.49,2.3-73.22,1.24-96,37.19-19.62,30.96-42.29,60.8-39.09,100.61.63,7.81-.91,15.11-4.8,21.69-33.48,56.62-50.26,119.65-72,181.04-38.7,109.26-92.38,212.58-126.66,324.02-21.67,70.46-13.95,112.67,47.59,139.51,71.97,31.39,141.5,73.04,226.22,60.51,16.65-2.46,28.66-5.25,36.93-19.42,15.26-26.12,26.13-54.19,33.92-83.25,25.51-95.2,49.1-190.86,93.54-279.89,23.89-47.86,41.9-98.43,56.3-149.97,8.15-29.16,16.94-57.78,33.17-83.48ZM723.97,1395.6c-18.39-11.44-36.13-23.96-54.79-34.91-13.9-8.16-10.74-11.86,1.02-19.5,48.63-31.61,97.11-16.94,145.89-1.57,8.5,2.68,10.68,9.19,11.86,17.19,3.82,26.08,8.13,52.1,12.8,81.57-40.69-12.45-81.14-20.59-116.77-42.77ZM820.39,1293.12c-3.41,12.47-10.33,7.78-17.01,6.27-21.13-4.75-42.26-9.55-63.26-14.88-23.36-5.93-46.2-5.05-74.36,6.03,19.8-54.92,32.41-106.45,46.22-157.66,23.82-88.36,67.61-168.6,103.83-251.9,20.3-46.69,39.1-93.63,47.01-144.35,7.67-49.17,31.41-70.42,80.51-69.45,30.79.6,61.48,5.5,92.27,7.7,11.63.83,14.56,5.29,10.34,15.71-12.19,30.07-19.93,61.6-34.22,91.15-38.18,78.96-68.5,161.09-94.04,245.05-11.14,36.63-29.31,71.59-36.57,108.82-11.05,56.67-45.86,103.1-60.73,157.52ZM1091.53,753.79c-.34,29.24-3.42,57.72-15.33,85.15-27.05,62.3-36.09,129.96-56.36,194.27-17.3,54.88-33.16,110.75-56.82,162.94-25.37,55.96-42,115.91-76.73,170.73-8.76-18.6-19.22-33.42-15.45-55.53,14.66-85.88,47.63-165.94,77.24-246.92,21.46-58.66,51.33-114.36,71.03-173.52,17.79-53.41,48.68-100.27,67.34-152.81.47-5.79,2.57-10.66,8.86-15.11,4.65,11.68.47,21.24-3.79,30.8Z"/>
  <g>
    <path class="cls-2" d="M1226.84,1106.29c-8.77-2.12-18.49-.58-26.14-6.94h0c-15.02-9.64-29.77-7.81-44.37,1.01-18.66,24.98-15.65,36.49,11.77,49.61,17.86,8.54,36.44,11.34,55.75,9.29,13.95-1.48,26.38-5.91,27.2-23.21.82-17.1-8.73-26.02-24.23-29.76Z"/>
    <path class="cls-2" d="M1136.09,1336.94c-18.25-6.51-33.03-18.84-50.51-26.34-8.17-7.74-16.46-7.52-24.84-.35-10.51,12.51-9.82,26.7,2.09,35.41,16.16,11.83,30.94,24.81,45.84,38.05,12.91,11.47,36.28,7.06,44.35-5.98,8.3-13.43.76-34.48-16.93-40.79Z"/>
    <path class="cls-2" d="M750.14,646.68c-15.98-5.02-24.7-18.61-37.31-27.42-7.36-5.15-15.47-9.57-23.82-12.87-8.79-3.47-18.14-4.16-24.44,5.4-5.92,8.99-3.65,18.86,2.17,25.59,18.6,21.51,40.67,39.48,67.67,49.05,15.11,5.35,25.74-2.16,27.55-19.18-1.17-8.52-3.62-18-11.82-20.58Z"/>
    <path class="cls-2" d="M1306.52,882.93c-8.14-6.35-16.44-6.1-24.86-.58-16.55-1.22-32.93-1.03-48.71,5.24-10.32,4.1-12.86,12.13-11.64,22.1,1.25,10.21,8.13,13.27,17.42,13.97,15.63,1.19,30.83,4.23,46.1,8.38,14.19,3.86,30.84,5.54,38.34-12.76,7.11-17.34-2.3-28.24-16.65-36.34Z"/>
    <path class="cls-2" d="M1198.2,638.12c23.56-.2,57.48-27.19,62.73-50.3,1.68-7.39,1.78-14.94-4.81-20.67-7.18-6.24-15.37-6.55-23.31-2.6-19.5,9.69-36.69,22.87-52.76,37.42-7.64,6.92-8.78,15.95-4.87,25.23,4.3,10.21,13.38,11.41,23.03,10.92Z"/>
    <path class="cls-2" d="M953.09,444.39c-12.3,2.11-16.64,11.94-17.27,24.2-1.25,24.37,11.4,44.84,18.23,66.87,2.53,8.15,10.87,12.76,20.58,9.81,11.11-3.37,15.97-11.35,15.71-25.13-3.98-17.89-7.82-38.29-13.22-58.26-3.06-11.31-11.52-19.64-24.03-17.49Z"/>
  </g>
  <g>
    <path class="cls-3" d="M816.08,1339.62c-48.78-15.36-97.26-30.04-145.89,1.57-11.76,7.64-14.92,11.34-1.02,19.5,18.66,10.95,36.41,23.47,54.79,34.91,35.63,22.18,76.08,30.32,116.77,42.77-4.67-29.47-8.98-55.48-12.8-81.57-1.17-8-3.36-14.51-11.86-17.19Z"/>
    <path class="cls-3" d="M740.12,1284.52c20.99,5.33,42.12,10.12,63.26,14.88,6.68,1.5,13.61,6.2,17.01-6.27,14.87-54.43,49.68-100.85,60.73-157.52,7.26-37.23,25.43-72.19,36.57-108.82,25.54-83.96,55.85-166.09,94.04-245.05,14.29-29.55,22.02-61.08,34.22-91.15,4.22-10.42,1.29-14.87-10.34-15.71-30.79-2.2-61.48-7.1-92.27-7.7-49.1-.96-72.84,20.28-80.51,69.45-7.91,50.72-26.7,97.66-47.01,144.35-36.22,83.3-80.01,163.54-103.83,251.9-13.81,51.21-26.42,102.74-46.22,157.66,28.15-11.08,51-11.95,74.36-6.03Z"/>
    <path class="cls-3" d="M1095.31,722.98c-6.28,4.45-8.39,9.33-8.86,15.11-18.66,52.54-49.55,99.4-67.34,152.81-19.7,59.16-49.58,114.86-71.03,173.52-29.62,80.98-62.58,161.05-77.24,246.92-3.77,22.11,6.69,36.93,15.45,55.53,34.74-54.83,51.36-114.77,76.73-170.73,23.66-52.18,39.52-108.06,56.82-162.94,20.27-64.31,29.31-131.97,56.36-194.27,11.92-27.44,14.99-55.91,15.33-85.15,4.25-9.56,8.44-19.12,3.79-30.8Z"/>
  </g>
</svg>