<?xml version="1.0" encoding="UTF-8"?>
<svg id="Layer_1" data-name="Layer 1" xmlns="http://www.w3.org/2000/svg" version="1.1" viewBox="0 0 1920 1920">
  <defs>
    <style>
      .cls-1 {
        fill: #483934;
      }

      .cls-1, .cls-2, .cls-3, .cls-4, .cls-5, .cls-6, .cls-7, .cls-8 {
        stroke-width: 0px;
      }

      .cls-2 {
        fill: #ede9de;
      }

      .cls-3 {
        fill: #fadc28;
      }

      .cls-4 {
        fill: #060603;
      }

      .cls-5 {
        fill: #76412e;
      }

      .cls-6 {
        fill: #040303;
      }

      .cls-7 {
        fill: #edeade;
      }

      .cls-8 {
        fill: #834834;
      }
    </style>
  </defs>
  <path class="cls-6" d="M1611.54,786.6c-4.91,5.65-6.08,12.35-8.21,18.47-3.39,9.71-7.49,18.99-13.64,27.24-10.84,14.55-17.29,31.55-26.3,47.13-4.96,8.58-6.71,19.07-10.56,28.49-5.01,12.24-9.55,24.69-14.18,37.08-4.25,11.37-7.77,23.04-12.66,34.12-9.05,20.48-16.52,41.5-23.15,62.84-3.84,12.34-8.65,24.31-12.94,36.46-5.27,14.91-12.71,28.7-19.65,42.68-12.74,25.66-25.74,51.21-35.29,78.21-4.6,13-9.31,26.05-16.93,37.22-10.78,15.8-24.76,28.27-45.9,28.48-4.64.05-8.43-1.43-11.91-4.12-10.59-8.19-16.7-18.57-16.45-32.38.56-30.59,5.05-59.97,20.92-87.1,10.09-17.24,18.93-35.23,28.75-52.69,8.44-15,15.28-30.95,21.97-46.84,1.65-3.93,3.82-7.63,5.49-11.54,11.07-25.94,19.49-52.86,30.23-78.92,4.65-11.3,10.1-22.19,16.02-32.8,16.09-28.82,33.55-56.88,48-86.62,3.96-8.15,5.87-17.15,10.21-24.98,9.17-16.53,16.29-33.76,20.21-52.73-14.96-2.08-30.16-5.6-44.6-11.85-2.6-1.13-5.35-1.26-8.17-1.21-8.29.16-16.48-.1-24.69-1.98-7.12-1.63-14.35-2.41-21.93-.73-4.66,1.03-9.94.7-15.11-.87-7.3-2.22-14.72,1.13-22.08,1.91-6.54.69-12.93,2.88-18.95,4.31-1.22-.44-1.92-.76-2.65-.96-11.63-3.07-15.38-10.58-8.07-23.65,5.37-9.61,13.97-15.84,22.32-22.31,18.37-14.25,40-21.61,61.94-27.89,28.99-8.29,58.76-6.32,88.3-4.53,12.32.75,24.56,3.92,36.13,9.3,3.5-3.8,6.41-7.63,9.98-10.68,6.73-5.75,14.48-9.62,23.63-7.74,11.16,2.29,18.26,12,19.2,25.1.51,7.13-.47,14.09-2.67,21.06,17.38,13.65,33.91,27.6,48.18,44,3.88,4.46,7.46,8.98,10.45,14.18,4.1,7.11,8.34,14.35,14.29,20.18,6.18,6.05,9.71,13.68,10.5,21.78.81,8.35,3,16.06,5.43,23.94,2.06,6.68,3.36,13.66,4.28,20.6.52,3.92,1.29,7.69,2.8,10.88-1.75,4.91-2.47,9.4-5.67,13.32-5.79,7.08-10.28,9.29-18.05,5.02-11-6.04-22.09-12.28-28.99-23.55-2.06-3.36-4.3-6.62-6.66-9.78-7.52-10.02-15.1-19.38-26.96-25.52-13.82-7.15-25.93-17.4-36.19-30.06ZM1563.07,766.72c0,2.52-.06,4.46,0,6.4.46,13.5-4.39,25.02-12.77,35.39-4.4,5.44-9.21,10.85-12.22,17.06-6.41,13.23-12.52,26.75-17.51,40.48-9.42,25.92-20.85,50.89-32.6,75.74-5.98,12.65-10.93,25.7-15.11,38.92-3.27,10.35-5.91,20.84-11.13,30.44-3.52,6.47-7.56,12.71-10.58,19.4-7.48,16.59-14.13,33.56-21.87,50.02-4.96,10.56-12.32,19.89-18.24,29.86-9.87,16.62-17.16,34.75-24.57,52.7-4.94,11.95-6.69,24.54-9.39,36.98-1.89,8.7-4.62,17.22-4.75,26.24-.06,4.37.94,7.81,5.92,8.53,4.08-.46,5.84-3.97,8.55-6.15,2.73-2.2,4.79-5.03,8.28-6.51,6.93-2.94,11.05-9.36,12.62-15.86,3.5-14.5,10.77-27.33,16.18-40.95,6.43-16.18,14.04-31.92,19.79-48.32,9.99-28.5,22.53-55.95,33.5-84.04,7.74-19.81,15.72-39.54,23.97-59.15,4.8-11.43,7.31-23.66,12.17-34.94,7.65-17.78,14.21-35.94,21.23-53.94,6.32-16.19,10.03-33.43,19.09-48.52,3.41-5.67,7.89-10.76,10.81-16.64,7.36-14.78,14.44-29.73,20.01-46.59-7.91.33-11.36-10-21.38-6.56ZM1405.58,725.5c8.44-.47,16.34,1.54,23.39-3.28,2.16-1.48,4.37-1.55,6.73-1.6,8.19-.15,16.48-1.69,24.42-1.77,18.22-.17,37.06-4.71,54.73,4.03,1.29.64,3.23-.19,4.71.23,12.19,3.46,25.27,3.27,36.85,9.33,7.47,3.91,15.32,6.84,23.93,7.63,2.47.23,4.87,2.37,7.09,3.94,19.96,14.18,39.7,28.68,59.9,42.51,6.98,4.78,11.77,11.1,17.29,17.14,5.65,6.18,14.45,9.2,19.99,16.01.96,1.18,1.46,2.73,2.39,3.94,7.39,9.58,14.06,19.92,25.56,25.33.47.22,1.37-.46,2.5-.87v-9.74c-5.17-4.61-8.63-11.11-11.42-18.05-4.7-11.72-6.58-24.96-17.88-33.16-.58-.42-.88-1.28-1.19-1.99-3.04-7.1-9.04-11.69-14.99-15.77-4.29-2.94-7.9-6.39-11.62-9.85-6.32-5.87-11.93-12.42-19.33-17.25-6.18-4.04-11.59-9.33-17-14.42-9.11-8.57-18.72-15.87-30.48-21.01-18.52-8.08-37.34-15.1-57.38-16.8-21.83-1.85-43.58-.17-64.95,6.2-14.82,4.42-29.18,9.93-43.32,15.93-6.89,2.92-15.06,4.88-19.93,13.35ZM1612.15,672.39c-4.47,1.81-6.69,4.06-6.18,8.28q5.29,5.73,13.88,8.79c-.69-3.84,1.78-6.59,2.44-9.96-3.2-2.24-6.34-4.44-10.14-7.1Z"/>
  <path class="cls-4" d="M321.62,1112.3c-15.15-1.58-35.86-1.9-54.73-12.93-8.95-5.23-13.14-12.18-14.09-21.47-.76-7.39-.07-14.87,1.85-22.23,2.16-8.31,3.77-16.77,5.51-25.18.31-1.51.68-3.45.02-4.65-5.2-9.52.62-18.24,1.8-27.26.96-7.37,5.87-13.71,5.91-21.42,0-1.06.86-2.24,1.58-3.14,7.8-9.74,14.11-20.74,25.84-26.94,12-6.35,24.64-9.98,38.02-11.43,3.92-.43,7.8-.78,11.6-2.21,12.74-4.8,25.71-1.25,38.42.13,5.34.58,10.14,4.68,14.79,8.74,8.23,7.18,13.6,16.78,22.93,23.16,9.12,6.24,16.23,16.94,15.73,27.79-.76,16.46,1.39,33.82-7.7,49.21-15.51,26.28-35.58,47.82-63.49,61.11-12.11,5.76-24.81,9.81-43.99,8.73ZM387.12,968.28c-7.58,1.25-14.05-2.03-20.64-5.99-6.76-4.06-14.94-5.44-22.56-4.96-8.93.56-17.82,2.66-26.8,3.74-8.45,1.02-15.61,4.72-19.31,13.38-2.29,5.36-4.99,10.57-7.44,15.87-3.94,8.51-7.62,17.32-14.01,24.54-3.52,3.98-4.41,8.72-4.56,14.16-.44,16.13,7.49,30.26,10.43,45.59,1.32,6.9,8.38,13.76,15.52,14.66,11.99,1.52,24.11,4.27,36.13,2.72,15.89-12.99,32.57-24.07,50.33-33.63,6.87-3.7,14.11-6.99,19.96-12.39,10.63-9.8,14.88-21.86,12.44-36.86-3.29-4.05-8.74-7.34-10.87-13.03-3.79-10.14-10.25-18.43-18.63-27.79Z"/>
  <path class="cls-7" d="M273.61,879.82c-3.8-3.21-6.51-5.5-8.82-7.45v-12.49c2.75-2.99,5.4-5.87,7.59-8.25h14.15c2.66,1.56,4.86,3.76,6.57,6.58v15.2q-7.5,6.8-19.49,6.4Z"/>
  <path class="cls-2" d="M209.37,982.95q.24,9.01-3.81,16.06h-15.31c-4.46-4.11-4.81-9.38-3.91-16.21,1.29-1.19,3.3-3.05,5.28-4.87h12.86c1.52,1.56,3.43,3.51,4.9,5.02Z"/>
  <path class="cls-7" d="M381.61,901.13c-2.05,3.23-2.48,6.52-5.03,8.6-5.02,3.54-8.87,1.73-14.34-6.77,6.25-11.35,9.62-11.77,19.36-1.83Z"/>
  <path class="cls-8" d="M1563.07,766.72c10.02-3.44,13.48,6.89,21.38,6.56-5.56,16.85-12.64,31.8-20.01,46.59-2.93,5.88-7.41,10.97-10.81,16.64-9.06,15.09-12.77,32.33-19.09,48.52-7.02,18-13.58,36.16-21.23,53.94-4.86,11.28-7.37,23.52-12.17,34.94-8.25,19.61-16.23,39.33-23.97,59.15-10.97,28.09-23.51,55.53-33.5,84.04-5.75,16.4-13.36,32.14-19.79,48.32-5.41,13.63-12.68,26.45-16.18,40.95-1.57,6.5-5.69,12.93-12.62,15.86-3.49,1.48-5.55,4.31-8.28,6.51-2.7,2.18-4.47,5.69-8.55,6.15-4.98-.71-5.98-4.16-5.92-8.53.13-9.02,2.86-17.54,4.75-26.24,2.7-12.44,4.46-25.03,9.39-36.98,7.42-17.95,14.71-36.08,24.57-52.7,5.92-9.98,13.28-19.31,18.24-29.86,7.74-16.46,14.38-33.43,21.87-50.02,3.02-6.69,7.06-12.93,10.58-19.4,5.22-9.6,7.86-20.09,11.13-30.44,4.18-13.22,9.12-26.27,15.11-38.92,11.75-24.85,23.18-49.81,32.6-75.74,4.99-13.73,11.1-27.25,17.51-40.48,3.01-6.21,7.82-11.62,12.22-17.06,8.39-10.37,13.23-21.89,12.77-35.39-.07-1.94,0-3.88,0-6.4Z"/>
  <path class="cls-1" d="M1405.58,725.5c4.86-8.47,13.03-10.42,19.93-13.35,14.14-6,28.5-11.51,43.32-15.93,21.36-6.37,43.11-8.05,64.95-6.2,20.04,1.7,38.86,8.72,57.38,16.8,11.76,5.13,21.37,12.44,30.48,21.01,5.41,5.09,10.82,10.39,17,14.42,7.4,4.83,13.01,11.38,19.33,17.25,3.72,3.46,7.33,6.9,11.62,9.85,5.95,4.08,11.95,8.67,14.99,15.77.3.71.61,1.57,1.19,1.99,11.29,8.2,13.17,21.44,17.88,33.16,2.78,6.94,6.24,13.44,11.42,18.05v9.74c-1.13.42-2.03,1.1-2.5.87-11.5-5.42-18.17-15.75-25.56-25.33-.93-1.21-1.43-2.76-2.39-3.94-5.53-6.81-14.33-9.84-19.99-16.01-5.52-6.03-10.31-12.36-17.29-17.14-20.2-13.82-39.94-28.33-59.9-42.51-2.21-1.57-4.62-3.71-7.09-3.94-8.61-.79-16.46-3.72-23.93-7.63-11.59-6.06-24.66-5.87-36.85-9.33-1.48-.42-3.42.41-4.71-.23-17.67-8.74-36.51-4.2-54.73-4.03-7.93.07-16.22,1.61-24.42,1.77-2.37.04-4.57.12-6.73,1.6-7.05,4.82-14.95,2.81-23.39,3.28Z"/>
  <path class="cls-5" d="M1612.15,672.39c3.8,2.66,6.94,4.86,10.14,7.1-.66,3.37-3.13,6.12-2.44,9.96q-8.59-3.05-13.88-8.78c-.51-4.22,1.71-6.46,6.18-8.28Z"/>
  <path class="cls-3" d="M387.12,968.28c8.38,9.37,14.83,17.65,18.63,27.79,2.13,5.69,7.58,8.98,10.87,13.03,2.44,15.01-1.81,27.06-12.44,36.86-5.85,5.39-13.09,8.69-19.96,12.39-17.76,9.56-34.44,20.64-50.33,33.63-12.02,1.55-24.14-1.2-36.13-2.72-7.14-.9-14.2-7.76-15.52-14.66-2.94-15.33-10.87-29.46-10.43-45.59.15-5.43,1.04-10.18,4.56-14.16,6.39-7.22,10.07-16.03,14.01-24.54,2.45-5.3,5.15-10.5,7.44-15.87,3.69-8.66,10.85-12.36,19.31-13.38,8.98-1.08,17.87-3.18,26.8-3.74,7.62-.48,15.8.9,22.56,4.96,6.59,3.96,13.07,7.25,20.64,5.99Z"/>
</svg>