<?xml version="1.0" encoding="UTF-8"?>
<svg id="Layer_1" data-name="Layer 1" xmlns="http://www.w3.org/2000/svg" version="1.1" viewBox="0 0 1920 1920">
  <defs>
    <style>
      .cls-1 {
        fill: #772f20;
      }

      .cls-1, .cls-2, .cls-3, .cls-4, .cls-5, .cls-6, .cls-7, .cls-8, .cls-9, .cls-10, .cls-11, .cls-12, .cls-13 {
        stroke-width: 0px;
      }

      .cls-2 {
        fill: #893625;
      }

      .cls-3 {
        fill: #d4cfbc;
      }

      .cls-4 {
        fill: #883525;
      }

      .cls-5 {
        fill: #090404;
      }

      .cls-6 {
        fill: #873525;
      }

      .cls-7 {
        fill: #050403;
      }

      .cls-8 {
        fill: #813223;
      }

      .cls-9 {
        fill: #8a3625;
      }

      .cls-10 {
        fill: #ccc6b4;
      }

      .cls-11 {
        fill: #e14637;
      }

      .cls-12 {
        fill: #843424;
      }

      .cls-13 {
        fill: #863424;
      }
    </style>
  </defs>
  <path class="cls-7" d="M976,1078.38c-24.13.39-46.27,6.44-68.97,5.81-24.93-.7-49.91,1.24-74.7-4.09-11.61-2.5-22.36-7.14-32.8-11.81-36.3-16.25-72.33-33.73-104.49-57.16-34.86-25.4-65.54-55.82-90.59-91.33-4.6-6.52-8.94-11.55-17.1-14.61-31.23-11.7-44.28-37.35-48.31-68.5-1.2-9.26-1.31-18.51-3.61-27.81-4.62-18.69.07-37.19,5.98-54.75,21.66-64.32,56.42-122.26,99.65-173.27,63.85-75.34,142.83-129.67,242.86-147.15,2.31-.4,4.92-.23,6.9-1.27,29.09-15.27,60.58-13.34,91.85-13.07,4.7.04,9.65.68,14.08-.5,22.71-6.07,44.51-2.3,66.11,5.07,9.55,3.26,19,6.99,28.76,9.48,34.65,8.86,53.03,33.02,63.27,65.49,3.27,10.36,6.39,21.15,11.91,30.34,17.18,28.63,23.77,60.21,29.43,92.48,5.54,31.58,5.37,63.56,8.64,95.29,1.72,16.74-.93,34.33-4.15,51.05-2.98,15.52-3.16,30.99-3.91,46.52-1.18,24.34-6.35,47.49-18.23,68.98-2.99,5.41-5.96,11.05-7.6,16.96-9.02,32.43-27.55,59.05-50.89,83.89,9.7,19.44,20.72,38.27,25.77,59.62,1.77,7.49,8.18,11.6,14.16,15.04,9.95,5.73,16.48,13.88,21.64,23.88,3.92,7.6,8.29,15.22,13.81,21.69,12.26,14.37,19.86,31.07,28.55,47.63,15.49,29.51,32,58.84,52.68,85.23,6.89,8.78,12.17,18.11,17.51,29.2,15.75,9.22,34.3,15.04,51.33,24.47,46.18,25.56,52.26,100.8,23.37,136.45-15.65,19.31-36.78,31.16-62.97,30.14-9.3,13.9-23.57,21.27-35.86,30.73-17.29,13.3-37.87,17.09-59.74,15.19-23.03-2-35.27-19.21-47.94-34.46-12.88-15.51-21.55-34.26-29.26-52.95-10.73-26.02-8.73-51.96,4.52-76.51-7.08-26.06-21.7-46.59-36.3-68.13-21.65-31.95-45.6-63.46-55.03-102.35-1.09-4.48-2.31-9.61-5.23-12.85-22.37-24.91-39.55-54.16-65.1-78.06ZM1083.7,495.39c-7.31,1.13-12.72-2.12-17.73-5.47-17.57-11.73-37.09-13.85-57.6-14.76-55.79-2.47-110.31,5.58-163.65,20.42-59.8,16.64-114.05,43.92-158.96,88.53-33.96,33.74-64.88,69.61-92.2,108.95-17.38,25.04-33.16,50.39-40.32,80.33-7.81,32.62,11.53,62.92,45.17,65.65,46.74,3.79,93.26,1.42,138.85-12.38,39.81-12.05,75.04-33.06,110.07-54.2,38.6-23.29,76.5-48.2,110.01-78.4,16.56-14.93,35.93-25.94,50.79-43.78,22.41-26.91,45.24-52.53,61.48-84.36,11.18-21.9,17.66-42.78,14.09-70.53ZM1031.82,1066.84c9.37,13.83,14.99,27.25,20.56,41,9.62,23.74,21.54,47.22,41.62,63.72,10.7,8.79,19.31,18.37,24.99,30.17,12.47,25.88,32.46,45.17,52.82,64.33,6.28,5.91,13.42,11.16,18.57,17.94,9.7,12.77,16,26.27,7.15,43.02-10.27,19.41-13.91,40.25-16.31,62.52-3.03,28.19,9.92,46.14,26.99,63.27,13.2,13.25,41.64,7.24,50.34-9.2,7.72-14.58,14.52-29.51,16-48.61,9.47,9.59,19.4,12.29,29.2,14.45,19.51,4.3,38-4.2,45.35-19.8,8.56-18.17,5-45.93-9.47-56.23-11.09-7.9-22.11-15.87-36.97-18.78-22.48-4.39-40.44-14.98-49.58-40.32-7.98-22.12-21.65-42.53-37.36-61.34-31.45-37.64-63.19-75.38-82.94-121.13-2.57-5.96-6.13-11.04-10.91-15.05-16.2-13.62-30.05-29.1-39.13-49.83-14.34,17.41-32.61,26.87-50.92,39.87ZM1032.74,851.76c-2.86-19.63,3.94-37.64.71-57.3-5.28-32.08-6.12-44.43-14.6-54.52-26.97,6.99-54.22,14.05-80.71,20.91-15.31,26.58-41.73,39.42-60.18,56.12v79.79c55.51-3.93,102.78-30.86,154.78-45.01ZM917.87,1024.05c52.46-2.32,98.82-21.69,146.95-51.03-17.79-5.08-21.43-18.98-21.6-28.8-.38-21.47-12.76-39.64-10.87-62.85-50.79,6.58-93.63,34.25-142.5,38.82-2.64.25-5.01,3.41-8.87,6.2,2.18,35.98,16.41,67.45,36.89,97.67ZM1146.14,669.19c-10.92-39.35-24.76-79.21-43.93-119.34-6.58,10.76-12.68,18.72-16.63,27.63-7.66,17.28-17.37,32.74-31.76,45.25-8.61,7.49-11.57,17.26-12.17,28.92-1.04,20.36,5.7,39.46,6,59.63,35.59-8.39,69.32-17.63,98.48-42.09ZM730.45,944.75c3.91,28.85,27.57,43.19,40.92,63.4,33.36,5.41,65.68,15.65,101.25,15.43-4.16-32.54-11.1-62.41-10.26-95.51-45.13,5.04-88.43,8.16-131.91,16.69ZM1151.14,717.31c-20.46-1.01-38.24-1.9-55.06,4.52-16.08,6.13-34.85,4.22-47.92,14.56-5.73,20.02,2.69,37.04,3.84,54.69,1.09,16.61,1.36,34.69,12.93,49.51,29.14-9.46,51.33-27.41,74.2-44.15,3.69-2.7,5.3-6.95,6.97-11.59,7.67-21.33,2.53-43.18,5.05-67.53ZM857.35,904.33c3.59-26.18-7.05-49.16-4.28-75.63-36.16,17.07-70.9,30.44-107.78,40.68-4.25,14.77-8.53,29.63-13,45.16,42.69,3.03,82.89-5.93,125.05-10.21ZM642.3,919.92c20.67-5.1,39.43,3.78,59.68-2.22-1.78-14.97,15.53-27.14,7.61-44.55-32.38,9.41-64.29,1.69-100.58-1.05,13.87,17.62,24.63,31.28,33.29,47.81ZM1073.74,880.33c4.44,22.81,12.71,44.34,11.43,68.71,29.76-18.36,45.59-54.78,38.64-86.81-15.81,5.72-31.46,11.38-50.07,18.11ZM973.67,726.35c13.97-8.85,32.63-.15,45.73-14.44-4.18-11.82,4.29-26.33-7.61-37.06-18.46,12.31-26.45,32.58-38.12,51.5ZM663.14,941.36c12.48,17.26,28.51,26.77,48.13,33.95-5.93-11.66,1.47-26.85-12.59-36.64-10.92,1.23-22.42-1.96-35.54,2.69Z"/>
  <path class="cls-11" d="M1083.7,495.39c3.57,27.74-2.91,48.62-14.09,70.53-16.25,31.82-39.07,57.44-61.48,84.36-14.86,17.84-34.23,28.85-50.79,43.78-33.51,30.21-71.42,55.11-110.01,78.4-35.04,21.15-70.26,42.15-110.07,54.2-45.59,13.8-92.11,16.17-138.85,12.38-33.64-2.73-52.98-33.03-45.17-65.65,7.17-29.94,22.94-55.29,40.32-80.33,27.32-39.34,58.24-75.21,92.2-108.95,44.91-44.61,99.16-71.89,158.96-88.53,53.34-14.84,107.85-22.88,163.65-20.42,20.5.91,40.03,3.03,57.6,14.76,5.01,3.35,10.42,6.6,17.73,5.47ZM896.73,585.61c-26.54-1.53-49.29,1.35-60.74,10.28-28.13,21.94-56.97,43.16-78.13,72.76-12.51,17.5-11.37,37.52,5.98,49.24,10.77,7.28,23.6,10.57,37.38,5.92,28.12-9.49,53.22-23.57,76.49-42.32,26.16-21.07,40.86-45.69,36.7-79.02-5.35-7.45-10.64-13.13-17.68-16.86Z"/>
  <path class="cls-3" d="M1031.82,1066.84c18.31-12.99,36.58-22.46,50.92-39.87,9.08,20.73,22.93,36.22,39.13,49.83,4.77,4.01,8.33,9.08,10.91,15.05,19.74,45.75,51.49,83.49,82.94,121.13,15.71,18.8,29.37,39.22,37.36,61.34,9.14,25.34,27.1,35.93,49.58,40.32,14.87,2.9,25.88,10.88,36.97,18.78,14.47,10.31,18.03,38.06,9.47,56.23-7.34,15.59-25.83,24.1-45.35,19.8-9.79-2.16-19.73-4.86-29.2-14.45-1.48,19.1-8.28,34.04-16,48.61-8.7,16.44-37.14,22.44-50.34,9.2-17.07-17.13-30.02-35.08-26.99-63.27,2.39-22.27,6.04-43.11,16.31-62.52,8.86-16.74,2.55-30.24-7.15-43.02-5.14-6.77-12.29-12.03-18.57-17.94-20.37-19.16-40.36-38.46-52.82-64.33-5.69-11.8-14.29-21.38-24.99-30.17-20.08-16.5-32-39.98-41.62-63.72-5.57-13.75-11.19-27.17-20.56-41Z"/>
  <path class="cls-2" d="M1032.74,851.76c-52,14.15-99.27,41.08-154.78,45.01v-79.79c18.45-16.71,44.87-29.55,60.18-56.12,26.49-6.86,53.74-13.92,80.71-20.91,8.48,10.1,9.32,22.45,14.6,54.52,3.23,19.66-3.57,37.67-.71,57.3Z"/>
  <path class="cls-9" d="M917.87,1024.05c-20.48-30.22-34.71-61.7-36.89-97.67,3.87-2.79,6.23-5.95,8.87-6.2,48.87-4.57,91.71-32.23,142.5-38.82-1.89,23.21,10.48,41.38,10.87,62.85.18,9.83,3.81,23.73,21.6,28.8-48.14,29.35-94.49,48.72-146.95,51.03Z"/>
  <path class="cls-4" d="M1146.14,669.19c-29.16,24.46-62.89,33.7-98.48,42.09-.3-20.17-7.04-39.27-6-59.63.59-11.65,3.56-21.43,12.17-28.92,14.39-12.51,24.1-27.96,31.76-45.25,3.95-8.91,10.05-16.87,16.63-27.63,19.17,40.12,33.01,79.99,43.93,119.34Z"/>
  <path class="cls-6" d="M730.45,944.75c43.48-8.52,86.78-11.65,131.91-16.69-.84,33.11,6.1,62.98,10.26,95.51-35.57.22-67.89-10.02-101.25-15.43-13.35-20.21-37.01-34.55-40.92-63.4Z"/>
  <path class="cls-4" d="M1151.14,717.31c-2.52,24.35,2.62,46.2-5.05,67.53-1.67,4.65-3.28,8.89-6.97,11.59-22.86,16.74-45.06,34.69-74.2,44.15-11.56-14.82-11.84-32.9-12.93-49.51-1.15-17.65-9.56-34.67-3.84-54.69,13.07-10.34,31.84-8.43,47.92-14.56,16.83-6.42,34.61-5.52,55.06-4.52Z"/>
  <path class="cls-6" d="M857.35,904.33c-42.17,4.28-82.36,13.24-125.05,10.21,4.47-15.53,8.75-30.39,13-45.16,36.88-10.24,71.62-23.61,107.78-40.68-2.77,26.47,7.86,49.45,4.28,75.63Z"/>
  <path class="cls-12" d="M642.3,919.92c-8.66-16.54-19.42-30.19-33.29-47.81,36.29,2.73,68.2,10.46,100.58,1.05,7.92,17.41-9.39,29.58-7.61,44.55-20.24,6-39-2.88-59.68,2.22Z"/>
  <path class="cls-13" d="M1073.74,880.33c18.6-6.73,34.26-12.39,50.07-18.11,6.96,32.03-8.87,68.45-38.64,86.81,1.28-24.37-6.99-45.9-11.43-68.71Z"/>
  <path class="cls-8" d="M973.67,726.35c11.67-18.92,19.66-39.19,38.12-51.5,11.9,10.73,3.43,25.24,7.61,37.06-13.1,14.29-31.76,5.59-45.73,14.44Z"/>
  <path class="cls-1" d="M663.14,941.36c13.12-4.64,24.62-1.46,35.54-2.69,14.06,9.78,6.65,24.97,12.59,36.64-19.61-7.18-35.64-16.69-48.13-33.95Z"/>
  <path class="cls-5" d="M896.73,585.61c7.04,3.73,12.33,9.41,17.68,16.86,4.16,33.32-10.53,57.94-36.7,79.02-23.28,18.75-48.38,32.83-76.49,42.32-13.78,4.65-26.62,1.35-37.38-5.92-17.35-11.72-18.49-31.74-5.98-49.24,21.16-29.61,50.01-50.82,78.13-72.76,11.44-8.93,34.2-11.8,60.74-10.28ZM767.37,689.74c37.64-9.37,68.38-23.39,96.62-43,7.18-4.99,11.8-11.93,14.4-23.46-22.2-.55-42.81-5.33-60.16,12.41-4.75,4.86-12.06,7.09-17.51,11.4-13.27,10.5-27.34,20.54-33.36,42.64Z"/>
  <path class="cls-10" d="M767.37,689.74c6.02-22.11,20.09-32.14,33.36-42.64,5.45-4.31,12.76-6.54,17.51-11.4,17.35-17.74,37.96-12.96,60.16-12.41-2.6,11.53-7.22,18.47-14.4,23.46-28.25,19.61-58.98,33.62-96.62,43Z"/>
</svg>