<?xml version="1.0" encoding="UTF-8"?>
<svg id="Layer_1" data-name="Layer 1" xmlns="http://www.w3.org/2000/svg" version="1.1" viewBox="0 0 1920 1920">
  <defs>
    <style>
      .cls-1 {
        fill: #050403;
      }

      .cls-1, .cls-2, .cls-3, .cls-4, .cls-5 {
        stroke-width: 0px;
      }

      .cls-2 {
        fill: #493834;
      }

      .cls-3 {
        fill: #e14637;
      }

      .cls-4 {
        fill: #f9db28;
      }

      .cls-5 {
        fill: #483834;
      }
    </style>
  </defs>
  <path class="cls-1" d="M800.93,888.79c-5.17-1.66-9.21-2.8-13.13-4.23-10.54-3.84-22.18-4.64-27.68-17.95-6.36-15.41-9-30.33-3.36-46.12,3.12-8.74,9.43-16.31,9.81-26.35-8.84-11.09-21.95-18.69-25.02-34.64-2.93-15.24-3.2-28.81,9.95-39.32,16.75-13.4,16.94-31.16,12.93-49.67-1.98-9.15-4.99-18.23-8.77-26.8-6.63-15.04-7.03-30.59-7.82-46.7-1.35-27.38-.82-54.62,1.61-81.78,2.5-27.84,13.16-53,29.61-75.54,9.82-13.46,24.79-19.61,39.26-26.42,36.09-17,71.02-13.55,105.63,4.78,8.09,4.28,14.04,10.47,19.77,16.86,28.14,31.39,48.71,65.61,50.03,110.13.73,24.61-.9,48.47-4.26,72.61-2.8,20.09-1.74,37.99,19.87,50.55,14.03,8.16,24.73,22.53,35.88,35.04,13.12,14.72,8.67,32.87,7.11,50.05-.45,4.9-2.41,9.98-4.85,14.31-5.86,10.4-3.15,19.4,2.99,28.37,5.77,8.42,9.3,18.01,11,27.85,3.97,22.99-7.08,37.21-30.53,40.72-2.09.31-4.44-.26-6.3,2.82,6.18,21.96,10.65,45.11,20.87,66.52,1.52,3.18,3.13,6.22,3.16,10.18.11,16.14,8.74,29.21,17.69,41.33,18.17,24.58,34.92,49.84,46.43,78.29,18.93,46.78,21.61,93.51.07,140.41-4.48,9.76-6.25,20.64-12.64,31.07,23.82,17.57,39.76,39.84,42.49,69.81,20.37.6,36.96,5.7,46.79,23.71,1.32,2.42,3.91,4.27,6.19,6.02,25.78,19.75,32.92,49.6,17.41,78.31-7.47,13.82-16.64,26.74-22.05,40.5-29.41,13.63-58.21,25.13-87.53,35.26-46.95,16.21-94.28,30.72-144.87,28.86-18.07-.66-35.93-3.31-53.05-8.58-23.31-7.18-46.13-8.04-70.46-5.01-35.69,4.45-70.87-.49-102.54-19.74-27.77-16.87-43.8-43.11-26.94-81.56,14.93-34.03,15.11-33.95,41.94-55,2.75-32.59,19.32-58.91,45.86-80.2-28.06-24.63-35.58-56.8-41.2-89.96-7.95-46.91,1.33-91.52,15.97-135.86,14.22-43.07,25.49-86.99,32.42-131.93,1.01-6.54,1.45-12.98.28-20.98ZM1006.95,1265.72c24.27-2.17,42.4-13.01,51.92-36.38,4.34-10.65,7.36-22.4,13.99-31.43,20.31-27.64,16.62-58.97,16.43-89.95-7.88-10.88-1.08-24.54-6.65-35.74-6.09-12.25-11.94-24.74-19.29-36.23-12.8-20.04-27.64-38.81-39.85-59.17-15.78-26.32-33.77-51.7-37.82-83.79-.92-7.28,2.01-16.28-5.66-23.67-47.9,2.47-96.19,9.68-146.05,14.71,4.7,21.21-.99,39.89-4.67,57.81-6.01,29.26-16.08,58.03-27.54,85.71-7.5,18.11-13.78,36.23-17.3,55.27-2.74,14.83-6.67,30.37-4.75,44.9,2.32,17.53,6.39,35.2,10.39,52.66,6.41,27.94,23.12,47.94,42.8,65.7,12.2,11.01,28.97,16.1,44.79,22.45-12.63-23.45-18.3-48.66-26.89-72.81-4.7-13.21-4.57-27.26-5.27-40.41-.9-16.74,4.35-34.09,8.69-50.72,2.62-10.04,4.21-21.65,14.01-26.99,8.58-3.37,17.15,1.09,24.69-4.06,10.95-43.45,25.3-86.16,30.78-130.52,5.13-2.66,8.5-7.08,14.39-6.26,12.63,6.92,14.79,20.56,19.93,32.25,5.49,12.47,9.47,25.75,16.14,37.53,15.27,26.99,32.63,52.94,32.48,85.73,0,2.05,1.53,4.07,1.83,6.17,2.38,16.41,11.81,30.75,13.14,47.61,1.07,13.56,4.55,26.91,6.22,40.45.69,5.62.19,11.34-1.31,17.21-5.33,20.83-17.19,39.35-20.92,60.67-1.69.61-4.1,1.57-2.28,3.47,1.69,1.76,3.04-.28,3.63-2.15ZM1012.66,743.17c5.5-12.8,5.21-23-6.94-31.09-7.83-5.21-13.55-13.01-22.14-17.64-11.27-6.08-17.62-16.23-22.57-28.27-13.39-32.6-7.65-66.32-6.28-99.45.95-22.99-.61-44.7-11.01-65.02-3.94-7.69-8.08-15.34-12.13-23.02-14.07-26.72-37.55-41.38-66.7-42.22-25.74-.73-50.92,6.6-68.23,28.18-19.81,24.69-32.39,54.12-24.93,84.81,6.03,24.86,10.92,50.7,22.57,74.57,7,14.35,11.72,30.33,7.82,48.46-4.95,22.99-13.51,42.34-32.43,56.65-2.78,2.11-5.73,4.65-4.03,10.24,6.48,6.47,17,9.31,22.88,17.62,15.76-6.1,31.45-8.17,47.34-9.44,26.77-2.14,53.25-6.71,79.88-9.82,32.19-3.77,64.95-9.71,96.89,5.44ZM1126.77,1356.57c-7.71,9.13-16.97,14.24-26.81,19.04-25.55,12.46-51.72,22.77-78.99,31.15-39.84,12.24-80.09,19.4-121.72,20.55-10.51.29-19.21-6.41-29.58-4.63-11.04,1.9-21.41-2.1-31.53-5.23-4.78-1.48-9.16-3.58-14.38-3.58-22.15.01-41.78-7.02-57.76-21.94-36.24,14.36-41.69,21.1-38.43,46.84,7.32,5.5,15.71,6.8,24.52,5.9,14.55-1.49,28.58,1.67,42.67,4.48,7.78,1.56,13.49,7.9,21.7,8.82,18.35,2.05,36.85,3.13,54.77,8.33,3.2.93,7.13-.19,10.63-.85,17.48-3.3,34.94-8.38,52.74-7.29,35.62,2.18,70.61-6.02,106.16-5.13,9.43.24,19.42-3.82,28.42-7.64,36.03-15.3,72.93-29.16,103.39-57.59-.42-6.18,1.94-14.05-2.13-22.02-15,.88-28.39-3.94-43.66-9.24ZM937.78,1013.95c-7.12,6.47-6.24,12.11-5.86,16.73,1.21,14.77-3.34,28.78-4.93,43.13-2.58,23.32-9.95,28.8-34.04,30.13-1.22.07-2.38,1.33-4.82,2.78,2.02,28.24,1.55,57.1-8.78,84.65,15.12,30.84,27.61,62.89,62.55,77.2,8.97-7.71,22.44-11.06,25.17-23.4,3.98-17.93,11.19-34.02,20.44-49.62,2.02-3.4,1.47-8.53,1.51-12.87.08-9.48-.69-18.98-.29-28.44,1-23.24-5.29-44.15-17.67-63.75-3.36-5.32-6.64-10.9-8.93-17.21-7.09-19.53-15.67-38.51-24.35-59.35ZM1106.38,1337.93c4.19-28.5-14.8-43.39-32.59-59.32-4.01,3.76-7.17,8.3-11.52,10.57-38.03,19.87-76.71,37.86-121.1,37.1-11.66-.2-23.39.76-34.97-.23-19.77-1.69-40.11-1.98-56.2-16.8-2.92-2.69-7.63-3.45-11.22-4.98-24.42,18.66-34.71,44.76-42.1,72.49.81.58,1.37,1.32,1.99,1.39,44.18,4.38,88.04-2.83,132.07-3.69.72-.01,1.48.03,2.15-.18,22.14-6.6,44.81-8.8,67.82-8.52,14.35.18,28.61.42,42.69-4.14,20.74-6.72,43.46-7.83,62.98-23.7ZM1021.79,826.9c3.27-8.23.86-12.12-2.79-16.25-15.95-18.03-34.03-31.8-58.4-37.31-11.4-2.58-22.95-6.02-33.72-3.05-7.8,2.15-15.34,2.61-23.06,3.76-19.59,2.92-39.24,5.91-58.55,10.27-27.06,6.12-43.75,27.48-62.09,45.79-3.34,3.34-9.13,10.47-1.93,17.78,10.91,0,23.19,2.66,33.73-.5,31.94-9.58,64.27-12.48,97.34-12.23,26.6.2,53.33,2.28,79.74-3.96,9.58-2.26,18.8-7.14,29.72-4.3Z"/>
  <path class="cls-3" d="M1005.6,1264.4c3.74-21.32,15.6-39.84,20.92-60.67,1.5-5.87,2-11.59,1.31-17.21-1.67-13.54-5.15-26.89-6.22-40.45-1.33-16.86-10.76-31.21-13.14-47.61-.31-2.11-1.84-4.12-1.83-6.17.15-32.79-17.21-58.74-32.48-85.73-6.66-11.78-10.65-25.06-16.14-37.53-5.14-11.69-7.3-25.32-19.93-32.25-5.89-.83-9.26,3.59-14.39,6.26-5.48,44.36-19.83,87.07-30.78,130.52-7.54,5.15-16.11.69-24.69,4.06-9.79,5.34-11.38,16.95-14.01,26.99-4.34,16.63-9.59,33.98-8.69,50.72.71,13.15.57,27.21,5.27,40.41,8.59,24.15,14.26,49.36,26.89,72.81-15.82-6.34-32.59-11.43-44.79-22.45-19.69-17.77-36.4-37.77-42.8-65.7-4-17.46-8.07-35.13-10.39-52.66-1.92-14.52,2.01-30.06,4.75-44.9,3.51-19.04,9.8-37.16,17.3-55.27,11.47-27.68,21.54-56.45,27.54-85.71,3.68-17.92,9.38-36.6,4.67-57.81,49.86-5.03,98.15-12.24,146.05-14.71,7.67,7.39,4.74,16.39,5.66,23.67,4.05,32.09,22.04,57.47,37.82,83.79,12.21,20.37,27.05,39.14,39.85,59.17,7.34,11.5,13.19,23.98,19.29,36.23,5.57,11.2-1.22,24.87,6.65,35.74.19,30.98,3.88,62.31-16.43,89.95-6.64,9.03-9.66,20.78-13.99,31.43-9.52,23.36-27.66,34.21-51.92,36.38l-1.35-1.32Z"/>
  <path class="cls-5" d="M1126.77,1356.57c15.28,5.3,28.66,10.12,43.66,9.24,4.07,7.97,1.71,15.84,2.13,22.02-30.46,28.43-67.37,42.29-103.39,57.59-9,3.82-18.99,7.87-28.42,7.64-35.55-.9-70.54,7.31-106.16,5.13-17.8-1.09-35.26,3.99-52.74,7.29-3.5.66-7.43,1.78-10.63.85-17.92-5.2-36.42-6.29-54.77-8.33-8.2-.92-13.91-7.26-21.7-8.82-14.08-2.82-28.11-5.97-42.67-4.48-8.81.9-17.19-.4-24.52-5.9-3.26-25.75,2.19-32.48,38.43-46.84,15.98,14.92,35.61,21.95,57.76,21.94,5.22,0,9.59,2.1,14.38,3.58,10.12,3.13,20.49,7.13,31.53,5.23,10.36-1.78,19.07,4.92,29.58,4.63,41.62-1.16,81.88-8.31,121.72-20.55,27.27-8.38,53.44-18.69,78.99-31.15,9.84-4.8,19.11-9.9,26.81-19.04Z"/>
  <path class="cls-4" d="M937.78,1013.95c8.68,20.84,17.26,39.82,24.35,59.35,2.29,6.31,5.57,11.88,8.93,17.21,12.37,19.6,18.67,40.51,17.67,63.75-.41,9.46.37,18.96.29,28.44-.04,4.34.51,9.46-1.51,12.87-9.25,15.6-16.46,31.69-20.44,49.62-2.74,12.34-16.21,15.7-25.17,23.4-34.94-14.31-47.43-46.36-62.55-77.2,10.33-27.55,10.79-56.4,8.78-84.65,2.45-1.46,3.6-2.72,4.82-2.78,24.09-1.33,31.45-6.82,34.04-30.13,1.59-14.35,6.14-28.36,4.93-43.13-.38-4.62-1.26-10.26,5.86-16.73Z"/>
  <path class="cls-2" d="M1106.38,1337.93c-19.51,15.88-42.24,16.98-62.98,23.7-14.08,4.56-28.34,4.31-42.69,4.14-23.02-.28-45.68,1.92-67.82,8.52-.67.2-1.43.16-2.15.18-44.04.85-87.89,8.07-132.07,3.69-.63-.06-1.19-.81-1.99-1.39,7.39-27.73,17.68-53.83,42.1-72.49,3.59,1.53,8.3,2.29,11.22,4.98,16.1,14.82,36.44,15.11,56.2,16.8,11.58.99,23.31.03,34.97.23,44.39.76,83.07-17.23,121.1-37.1,4.35-2.27,7.51-6.81,11.52-10.57,17.79,15.93,36.78,30.82,32.59,59.32Z"/>
  <path class="cls-5" d="M1021.79,826.9c-10.92-2.83-20.14,2.04-29.72,4.3-26.42,6.23-53.14,4.16-79.74,3.96-33.07-.25-65.4,2.65-97.34,12.23-10.54,3.16-22.82.5-33.73.5-7.2-7.31-1.42-14.45,1.93-17.78,18.34-18.31,35.02-39.67,62.09-45.79,19.31-4.36,38.95-7.35,58.55-10.27,7.72-1.15,15.26-1.61,23.06-3.76,10.77-2.97,22.32.47,33.72,3.05,24.37,5.51,42.45,19.29,58.4,37.31,3.65,4.13,6.06,8.02,2.79,16.25Z"/>
  <path class="cls-3" d="M1006.95,1265.72c-.59,1.87-1.94,3.92-3.63,2.15-1.82-1.9.59-2.86,2.28-3.47l1.35,1.32Z"/>
</svg>