<?xml version="1.0" encoding="UTF-8"?>
<svg id="Layer_1" data-name="Layer 1" xmlns="http://www.w3.org/2000/svg" version="1.1" viewBox="0 0 1920 1920">
  <defs>
    <style>
      .cls-1 {
        fill: #050503;
      }

      .cls-1, .cls-2, .cls-3, .cls-4, .cls-5, .cls-6, .cls-7 {
        stroke-width: 0px;
      }

      .cls-2 {
        fill: #f5d829;
      }

      .cls-3 {
        fill: #f7da2a;
      }

      .cls-4 {
        fill: #f6d92a;
      }

      .cls-5 {
        fill: #f3d729;
      }

      .cls-6 {
        fill: #f4d829;
      }

      .cls-7 {
        fill: #f4d729;
      }
    </style>
  </defs>
  <path class="cls-1" d="M1283.66,632.71c-12.07,3.7-22.53,7.57-31.79,14.59-12.22,9.26-24.59,18.37-37.21,27.08-17.52,12.09-37.54,16.91-58.31,20.25-32.97,5.29-65.61,12.84-98.68,17.21-19.69,2.6-39.54,4.9-59.44,6.37-36.13,2.67-72.24,4.74-108.5,4.41-32.45-.29-64.27-4.78-95.52-13.07-40.4-10.71-77.69-28.97-114.27-48.81-19.5-10.58-38.09-22.39-55.26-36.57-20.25-16.73-37.1-36.47-52.52-57.49-7.26-9.9-14.38-19.95-20.01-31.04-7.44-14.65-9.73-29.64-9.52-46.14.24-19.17,8.65-34.66,17.48-49.96,10.49-18.18,24.63-33.15,42.47-45.29,31.78-21.63,67.6-33.37,103.21-45.83,34.41-12.04,70.32-18.13,105.94-25.15,10.34-2.04,21.34-.54,32.02-1.06,52.12-2.57,104.27-1.87,156.4-1.3,31.39.34,62.34,4.91,91.79,17.21,23.85,9.96,48.39,18.28,72.09,28.58,51.35,22.32,99.96,49.41,142.35,86.57,4.79,4.2,9.38,8.69,13.21,13.95,3.24,4.46,6.74,9.33,12.21,11.03,6.49,2.02,9.5,6.91,12.32,12.23,5.37,10.11,10.13,20.59,16.06,30.36,7.73,12.74,10.78,26.65,12.65,41.1,1.3,10.07,3.89,20.03,4.44,30.12.48,8.82-.53,17.84-1.86,26.63-3.62,23.93-9.8,47.25-17.38,70.25-7.57,22.98-14.84,46-25.73,67.74-14.86,29.66-29.88,59.16-52.45,83.97-3.19,3.5-5.62,7.26-7.11,11.91-3.9,12.2-11.45,22.32-21.85,29.31-41.69,28.01-83.07,56.56-127.89,79.56-25.1,12.88-51.56,21.64-79.33,26.56-51.07,9.06-98.93,26.82-143.98,52.61-23.94,13.71-48.31,26.71-72.87,39.27-25.18,12.88-47.84,29.32-69.47,47.26-11.59,9.62-19.26,22.79-28.72,34.33-16.87,20.58-29.69,43.38-38.3,68.77-4.35,12.83-3.44,26-5.73,38.89-.6,3.35-.49,6.83-.58,10.25-.69,26.43-.99,52.88-2.14,79.29-.67,15.24-3.09,30.4-4.04,45.64-1.44,23.3-3.12,46.48,3.04,69.69,5.77,21.74,11.16,43.36,20.17,64.19,4.93,11.39,8,23.99,11.49,36.35-2.78,4.25-4.94,9.09-8.41,12.63-16.52,16.86-31.23,15.49-51.23,2.48-9.11-5.93-13.11-15.82-16.27-25.4-4.65-14.08-10.55-27.71-14.15-42.19-2.01-8.1-4.93-16.03-8.71-23.71-8.52-17.3-10.5-36.42-13.86-55.16-2.88-16.12-4.29-32.4-1.52-48.34,3.04-17.53,2.5-34.89,1.23-52.27-1.73-23.64-1.53-47.73-7.2-70.71-5.01-20.3.03-38.64,5.06-57.35,6.34-23.55,17.04-45.18,30.44-65.55,6.41-9.74,14.69-17.84,22.53-26.16,36.16-38.36,75.76-72.95,119.09-102.98,14.97-10.37,31.46-18.55,47.34-27.58,34.38-19.55,69.61-37.26,108.03-47.6,67.84-18.26,129.47-50.69,190.4-84.41,32.19-17.81,61.23-40.66,86.81-66.98,24.25-24.95,46.35-51.95,63.8-82.51,8.9-15.59,12.17-32.33,14.75-49.48,1.36-9.06,1.93-18.25,2.98-28.58ZM1069.92,954.89c5.22,1.87,9.02-1.81,12.99-3.79,28.91-14.41,56.08-31.9,84.13-47.83,12.01-6.82,19.53-17.05,27.36-27.51,4.5-6.01,6.4-12.82,6.61-20.16.17-5.95.03-11.91.03-19.29-32.14,28.05-68.88,45.14-106.82,60.73-1.06,2.03-2.71,4.15-3.32,6.53-4.02,15.72-10.26,30.47-18.52,44.4-1.28,2.16-3.1,4.19-2.32,7.05-.75.41-3.13.2-.85,1.78.5.35,1.17-.93.7-1.92ZM1205.41,458.69c-16.21-9.49-33.13-17.6-51.17-22.6-10.65-2.95-21.27-5.92-31.79-9.3-19.85-6.39-39.71-12.02-60.95-12.51-21.69-.5-43.22-3.73-64.23-9.61-17.7-4.96-35.66-8.26-54.13-8.15-19.65.12-39.23.59-58.87,2.15-28.11,2.23-55.75,7.24-83.41,11.96-36.02,6.15-71.31,16.2-107.84,19.99-12.8,1.33-24.76,6.63-34.19,15.97-10.01,9.92-19.48,20.35-27.5,32.03-7.52,10.95-8.1,21.44-.62,33.09,13.19,20.56,32.27,34.89,50.77,49.77,20.46,16.46,44.45,26.59,68.57,36.46,41.36,16.93,82.63,33.46,127.17,41.17,22.39,3.87,44.77,5.04,67.18,6.71,43.23,3.23,86.04-.87,128.41-9.7,23.32-4.86,46.46-10.43,68.84-18.79,14.71-5.49,28.32-13.64,43.69-17.57,14.46-3.7,27.35-11.35,40.9-17.32,5.99-2.64,10.54-6.83,15.18-11.4,9.89-9.74,13.33-22.57,18.2-34.73,1.64-4.09.24-8.24-1.72-12.32-6.35-13.27-14.89-24.74-25.88-34.52-10.16-9.05-21.4-17.22-26.64-30.77ZM695,1565.23c-2.4-4.85-5.48-9.58-7.19-14.77-12.07-36.59-24.34-73.13-35.51-110-4.79-15.82-8.19-32.35-6.12-49.14,1.09-8.88,2.48-17.69,2.42-26.65-.09-14.99.43-30.02-.49-44.95-.59-9.56-5.19-18.56-6.05-28.27-.13-1.51-1.57-3.01-2.66-4.3-6.02-7.09-12.32-13.88-21.54-18.57-.16,3.12.08,5.71-.48,8.12-2.32,9.95-4.43,19.93-4.07,30.2.19,5.49,1.7,10.98,1.5,16.43-.84,23.14,3.08,46.01,3.58,69.1.21,9.89,2.34,19.96,6.22,29.7,9.04,22.71,14.72,46.15,9.18,70.96-.91,4.06-.24,8.3.63,12.63,3.47,17.21,10.09,33.01,17.8,48.73,7.25,14.8,17.84,21.99,33.63,22.01,5.09-2.23,6.13-7.26,9.16-11.24ZM967.89,672.91c-24-1.5-45.53-5.65-67-10.47-20.65-4.64-41.4-9.78-62.81-7.97-10.42.88-21.52.18-30.94,5.36-10,5.51-20.02,10.74-30.79,14.53-.43.15-.53,1.25-.84,2.06,12.8,4.54,25.42,9.42,38.3,13.49,26.98,8.51,54.94,9.94,82.96,10.73,3.4.1,6.89-.23,10.19.39,14.78,2.79,29.55.46,45.97,1.6-4.12-14.84,12.64-17.44,14.95-29.71ZM1078.54,902.8c-53.31,24.04-104.6,45.99-157.59,65.96,3.28,10.53,2.3,20.21-3.19,30.96,5.64-1.08,9.2-1.09,12.87-2.36,7.18-2.49,14.5-4.64,21.88-6.48,24.6-6.14,49.18-12.39,73.92-17.94,10.85-2.43,19.91-6.35,24.99-16.95,1.25-2.62,3.34-4.92,5.33-7.1,11.43-12.51,16.98-27.73,21.79-46.09ZM854.74,345.52c-54.34-.26-103.82,17.6-154.38,34.88,2.44,9.75-8.01,16.51-6.77,27.2,15.77-6.57,31.32-10.84,47.21-13,24.39-3.31,48.99-5.05,73.41-8.16,15.87-2.02,31.76-4.34,47.55-8.49.2-8.39,4.37-15.94,2-24.52-2.69-2.37-5.56-4.89-9.01-7.91ZM1278.92,553.73c-1.06,1.61-2.09,2.59-2.41,3.75-5.81,21.33-21.67,33.98-39.01,45.31-7.57,4.94-15.67,8.46-25.08,7.9-2.03-.12-4.1.94-6.18,1.22-19.61,2.65-36.38,13.73-55.25,18.04-3.01,5.23-5.15,10.5-8.62,14.66-7.75,9.27-6.46,19.2-4.4,30.12,12.48-4.32,24.05-8.36,35.65-12.34,23.9-8.2,46.27-19.48,65.99-35.29,16.94-13.58,33.17-28.06,49.51-42.37,3.48-3.05,6.04-7.13,9.1-10.68,4.71-5.47,2.83-13.73-3.86-17.4-4.58-2.51-9.41-3.85-15.45-2.91ZM1120.39,641.15c-3.14-.36-6.16.62-9.41,1.62-21.79,6.74-43.63,13.31-65.51,19.73-18.72,5.49-37.64,10.01-57.35,9.91-.76,0-1.52.66-2.2.98-1.8,2.94-3.57,5.81-5.62,9.14,4.59,5.64,1.26,12.9,3.16,19.94,48.13-.88,94.57-7.4,140.36-22.87-3.02-13.26,1.56-25.87-3.43-38.45ZM679.27,392.5c-5.45-2.57-8.63-.09-12.08,1.41-23.47,10.15-45.5,22.74-66.05,38.03-12.17,9.05-22.55,19.5-29.55,33.03-5.1,9.85-7.85,20.16-6.55,28.81,12.91,10.33,26.39,7.6,39.06,10.62.48-2.12.86-3.28,1-4.47,2.69-23.57,14.21-42.08,31.89-57.44,10.65-9.26,23.02-15.94,34.09-24.1,2.74-8.65,5.39-17.02,8.2-25.9ZM1313.55,557.22c5.77-6.88,6.62-13.71,6-20.49-.69-7.57-1.57-15.37-4.02-22.5-7.3-21.22-19.01-40.11-35.73-54.97-13.61-12.11-28.47-22.95-44.89-32.26-8.04,5.51-20.73-.72-26.73,11.53,12.97,7.78,25.3,15.96,36.93,25.2,6.46,5.14,11.56,11.03,15.55,18.31,4.7,8.59,6.69,18.26,11.78,26.72,5.72,9.51,9.58,19.87,8.55,30.02,5.61,5.77,12.21,3.45,17.74,5.57,6.26,2.4,10.07,7.58,14.81,12.86ZM1049.1,385.37c18.71,3.15,36.64,6.39,53.85,12.19,25.65,8.65,51.16,17.72,76.25,27.95,13.5,5.5,25.45,1.84,32.76-9.98-.77-.9-1.4-2.23-2.43-2.73-20.98-10.19-41.16-21.98-62.52-31.43-18.62-8.24-37.39-16.06-57.55-19.51-10.32-1.77-20.63-5.35-31.08-2.93-7.38,7.54-7.49,16.89-9.28,26.44ZM1316.47,597.61c.28,5.7.61,10.81.77,15.92.1,3.41,2.61,6.42,1.61,9.97-3.78,13.37-5.35,27.23-10.12,40.46-3.06,8.5-6.21,17.6-4.11,27.24,2.63,12.01,5.04,24.03,4.14,36.49-.43,5.91-.07,11.87-.07,17.81,9.68-15.73,18.57-31.48,22.9-49.09,5.75-23.42,10.63-47.05,16.08-70.54,4.47-19.25,4.18-38.43-.26-57.6-.84-3.62-1.66-7.45-5.93-9.9-8.96,12.43-14.98,26.6-25.02,39.23ZM875.98,376.49c54.38-1.24,107.11-.64,159.73,5.86,4.18-9.46,5.51-17.69.12-26.47-51.34.5-102.25-.4-152.24-9.73-4.87,9.84-1.95,20.16-7.61,30.35ZM1294.31,708.22c-21.93,39.71-46.52,73.66-72.35,107.8.14,7.25-2.92,14.94-2.5,23.15.4,7.66-5.6,14.99-1.03,24.79,19.99-26.87,43-49.61,61.91-75.97-.98-10.25,2.65-19.19,8.69-27.18,6.01-7.95,9.54-16.91,12.31-26.66-4.65-6.81-4.56-15.09-7.03-25.92ZM762.79,1052.22c-35.25,27.87-67.11,58.18-97.44,91.51,11.06,5.53,15.64,15.06,20.78,25.35,20.1-29.29,44.32-53.58,72.23-74.1-.2-14.34,4.14-27.76,4.43-42.76ZM620.33,1250.95c10.37,6.28,10.55,6.18,17.48,18.66,2.87,5.16,5.81,9.77,12.25,12.23,1.21-11.93,2.3-22.87,3.42-33.81,1.29-12.7,3.35-25.18,9.45-36.66,3.78-7.11,7-14.53,11.04-21.48,4.67-8.02,4.12-15.23-1.5-22.43-2.85-3.65-5.34-7.58-7.94-11.3-2.15-.69-4.19-1.3-6.32-.42-16.92,22.19-34.53,66.21-37.88,95.21ZM758.05,666.99c12.04-6.69,27.86-6.06,39.9-16.82-10.94-3.45-20.49-6.65-29.94-10.35-10.75-4.21-19.94-11.23-30.49-15.53-13.75-5.61-27.13-11.85-39.8-19.59-2.59-1.58-5.29-3.49-8.27-2.18-6.91,3.02-14.23,1.97-21.35,2.82-2.94.35-5.73,1.2-6.63,5.34,31.12,20.08,59.71,44.47,96.59,56.31ZM568.85,510.15c-.57,5.82.27,9.64,2.13,13.7,4.86,10.65,12.8,18.83,19.88,27.86,13.86,17.69,30.08,32.26,49.04,43.78,7.54-1.09,14.99-1.97,21.93-.11,6.03,1.62,10.33.19,16.43-3.57-27.12-17.96-50.58-37.9-65.59-65.79-14.39-5.4-26.97-14.6-43.81-15.87ZM907.54,978.66c-3.47-1.15-5.31-.28-7.29.71-23.54,11.78-46.57,24.5-68.9,38.42-12.32,7.68-25.19,14.02-38.71,19.09-3.54,1.33-7.25,2.07-10.25,4.64,2.86,9.73,8.82,18.46,7.88,30.84,33.03-22.9,65.08-44.33,100.5-59.54,4.62-11.99,17.61-19.26,16.77-34.16Z"/>
  <path class="cls-4" d="M695,1565.23c-3.03,3.98-4.07,9.01-9.16,11.24-15.8-.02-26.38-7.22-33.63-22.01-7.71-15.72-14.32-31.53-17.8-48.73-.87-4.33-1.54-8.57-.63-12.63,5.54-24.81-.14-48.25-9.18-70.96-3.88-9.74-6-19.81-6.22-29.7-.5-23.08-4.42-45.96-3.58-69.1.2-5.45-1.31-10.94-1.5-16.43-.36-10.27,1.75-20.25,4.07-30.2.56-2.4.32-5,.48-8.12,9.22,4.69,15.52,11.48,21.54,18.57,1.09,1.29,2.52,2.79,2.66,4.3.87,9.71,5.46,18.71,6.05,28.27.92,14.94.4,29.96.49,44.95.05,8.97-1.33,17.78-2.42,26.65-2.07,16.78,1.33,33.31,6.12,49.14,11.17,36.87,23.44,73.41,35.51,110,1.71,5.19,4.79,9.92,7.19,14.77Z"/>
  <path class="cls-2" d="M967.89,672.91c-2.31,12.28-19.07,14.88-14.95,29.71-16.42-1.14-31.19,1.19-45.97-1.6-3.3-.62-6.79-.29-10.19-.39-28.01-.79-55.98-2.22-82.96-10.73-12.88-4.06-25.5-8.95-38.3-13.49.31-.81.41-1.9.84-2.06,10.76-3.8,20.78-9.02,30.79-14.53,9.42-5.19,20.52-4.48,30.94-5.36,21.41-1.81,42.16,3.33,62.81,7.97,21.47,4.82,43,8.97,67,10.47Z"/>
  <path class="cls-3" d="M1078.54,902.8c-4.81,18.36-10.36,33.57-21.79,46.09-1.99,2.18-4.08,4.48-5.33,7.1-5.08,10.61-14.14,14.52-24.99,16.95-24.74,5.55-49.32,11.81-73.92,17.94-7.38,1.84-14.7,3.99-21.88,6.48-3.68,1.27-7.24,1.28-12.87,2.36,5.49-10.75,6.47-20.43,3.19-30.96,52.99-19.97,104.28-41.92,157.59-65.96Z"/>
  <path class="cls-4" d="M854.74,345.52c3.44,3.03,6.31,5.55,9.01,7.91,2.38,8.57-1.79,16.13-2,24.52-15.79,4.16-31.68,6.47-47.55,8.49-24.42,3.11-49.02,4.85-73.41,8.16-15.89,2.16-31.44,6.43-47.21,13-1.24-10.69,9.21-17.45,6.77-27.2,50.56-17.28,100.04-35.14,154.38-34.88Z"/>
  <path class="cls-4" d="M1278.92,553.73c6.04-.94,10.87.4,15.45,2.91,6.68,3.67,8.56,11.93,3.86,17.4-3.05,3.55-5.62,7.63-9.1,10.68-16.34,14.31-32.56,28.8-49.51,42.37-19.73,15.81-42.09,27.09-65.99,35.29-11.6,3.98-23.17,8.02-35.65,12.34-2.05-10.92-3.34-20.85,4.4-30.12,3.47-4.16,5.61-9.43,8.62-14.66,18.86-4.31,35.63-15.39,55.25-18.04,2.08-.28,4.15-1.34,6.18-1.22,9.41.56,17.51-2.96,25.08-7.9,17.33-11.33,33.2-23.98,39.01-45.31.32-1.17,1.35-2.14,2.41-3.75Z"/>
  <path class="cls-4" d="M1070.07,955.02c-.77-2.86,1.04-4.89,2.32-7.05,8.26-13.93,14.5-28.68,18.52-44.4.61-2.39,2.26-4.5,3.32-6.53,37.93-15.6,74.68-32.68,106.82-60.73,0,7.38.13,13.34-.03,19.29-.21,7.34-2.11,14.15-6.61,20.16-7.83,10.46-15.35,20.68-27.36,27.51-28.05,15.93-55.22,33.42-84.13,47.83-3.97,1.98-7.77,5.65-12.99,3.79l.15.14Z"/>
  <path class="cls-4" d="M1120.39,641.15c4.99,12.58.41,25.19,3.43,38.45-45.79,15.47-92.23,21.99-140.36,22.87-1.9-7.04,1.43-14.29-3.16-19.94,2.05-3.33,3.81-6.21,5.62-9.14.69-.32,1.45-.98,2.2-.98,19.71.1,38.63-4.42,57.35-9.91,21.88-6.42,43.72-12.99,65.51-19.73,3.25-1.01,6.27-1.98,9.41-1.62Z"/>
  <path class="cls-4" d="M679.27,392.5c-2.81,8.88-5.46,17.25-8.2,25.9-11.06,8.16-23.43,14.84-34.09,24.1-17.68,15.36-29.2,33.87-31.89,57.44-.14,1.19-.52,2.35-1,4.47-12.67-3.01-26.15-.29-39.06-10.62-1.31-8.65,1.45-18.96,6.55-28.81,7-13.54,17.39-23.98,29.55-33.03,20.55-15.29,42.57-27.89,66.05-38.03,3.45-1.49,6.63-3.98,12.08-1.41Z"/>
  <path class="cls-4" d="M1313.55,557.22c-4.74-5.28-8.56-10.46-14.81-12.86-5.53-2.12-12.12.2-17.74-5.57,1.03-10.14-2.84-20.51-8.55-30.02-5.09-8.46-7.07-18.13-11.78-26.72-3.98-7.28-9.08-13.18-15.55-18.31-11.63-9.24-23.96-17.42-36.93-25.2,6-12.25,18.69-6.01,26.73-11.53,16.41,9.31,31.27,20.15,44.89,32.26,16.71,14.87,28.43,33.76,35.73,54.97,2.45,7.13,3.33,14.93,4.02,22.5.62,6.77-.24,13.6-6,20.49Z"/>
  <path class="cls-4" d="M1049.1,385.37c1.8-9.55,1.9-18.9,9.28-26.44,10.45-2.41,20.76,1.16,31.08,2.93,20.16,3.46,38.93,11.27,57.55,19.51,21.36,9.45,41.54,21.24,62.52,31.43,1.03.5,1.65,1.83,2.43,2.73-7.3,11.82-19.26,15.48-32.76,9.98-25.08-10.23-50.6-19.3-76.25-27.95-17.22-5.8-35.15-9.04-53.85-12.19Z"/>
  <path class="cls-2" d="M1316.47,597.61c10.04-12.63,16.06-26.8,25.02-39.23,4.27,2.45,5.09,6.28,5.93,9.9,4.43,19.16,4.72,38.34.26,57.6-5.45,23.49-10.33,47.12-16.08,70.54-4.33,17.61-13.22,33.36-22.9,49.09,0-5.94-.35-11.9.07-17.81.9-12.46-1.51-24.48-4.14-36.49-2.11-9.64,1.04-18.74,4.11-27.24,4.77-13.23,6.34-27.09,10.12-40.46,1-3.55-1.51-6.56-1.61-9.97-.16-5.12-.49-10.23-.77-15.92Z"/>
  <path class="cls-7" d="M875.98,376.49c5.66-10.19,2.75-20.5,7.61-30.35,49.99,9.33,100.9,10.24,152.24,9.73,5.4,8.78,4.06,17.01-.12,26.47-52.62-6.5-105.36-7.09-159.73-5.86Z"/>
  <path class="cls-5" d="M1294.31,708.22c2.48,10.83,2.38,19.11,7.03,25.92-2.77,9.75-6.31,18.71-12.31,26.66-6.04,7.99-9.66,16.93-8.69,27.18-18.92,26.36-41.93,49.1-61.91,75.97-4.57-9.79,1.43-17.13,1.03-24.79-.43-8.2,2.63-15.9,2.5-23.15,25.83-34.14,50.43-68.08,72.35-107.8Z"/>
  <path class="cls-4" d="M762.79,1052.22c-.29,15-4.63,28.42-4.43,42.76-27.91,20.52-52.12,44.81-72.23,74.1-5.14-10.29-9.72-19.82-20.78-25.35,30.33-33.32,62.19-63.64,97.44-91.51Z"/>
  <path class="cls-2" d="M620.33,1250.95c3.35-29.01,20.96-73.02,37.88-95.21,2.13-.87,4.16-.27,6.32.42,2.6,3.72,5.09,7.65,7.94,11.3,5.62,7.2,6.17,14.41,1.5,22.43-4.04,6.95-7.26,14.37-11.04,21.48-6.1,11.48-8.16,23.96-9.45,36.66-1.11,10.94-2.21,21.89-3.42,33.81-6.45-2.46-9.39-7.07-12.25-12.23-6.93-12.48-7.11-12.39-17.48-18.66Z"/>
  <path class="cls-4" d="M758.05,666.99c-36.88-11.85-65.47-36.23-96.59-56.31.89-4.13,3.68-4.99,6.63-5.34,7.12-.85,14.45.2,21.35-2.82,2.99-1.31,5.68.6,8.27,2.18,12.67,7.74,26.06,13.98,39.8,19.59,10.55,4.3,19.74,11.32,30.49,15.53,9.45,3.7,19,6.9,29.94,10.35-12.04,10.76-27.86,10.13-39.9,16.82Z"/>
  <path class="cls-4" d="M568.85,510.15c16.84,1.28,29.42,10.47,43.81,15.87,15.01,27.88,38.48,47.83,65.59,65.79-6.1,3.76-10.4,5.19-16.43,3.57-6.93-1.86-14.39-.98-21.93.11-18.96-11.53-35.17-26.1-49.04-43.78-7.08-9.03-15.02-17.21-19.88-27.86-1.85-4.06-2.69-7.88-2.13-13.7Z"/>
  <path class="cls-6" d="M907.54,978.66c.84,14.9-12.15,22.17-16.77,34.16-35.42,15.2-67.47,36.63-100.5,59.54.94-12.38-5.01-21.11-7.88-30.84,3-2.58,6.71-3.32,10.25-4.64,13.52-5.07,26.39-11.41,38.71-19.09,22.33-13.92,45.36-26.64,68.9-38.42,1.97-.99,3.81-1.86,7.29-.71Z"/>
  <path class="cls-4" d="M1069.92,954.89c.47.99-.2,2.26-.7,1.92-2.28-1.58.1-1.37.85-1.78l-.15-.14Z"/>
</svg>