<?xml version="1.0" encoding="UTF-8"?>
<svg id="Layer_1" data-name="Layer 1" xmlns="http://www.w3.org/2000/svg" version="1.1" viewBox="0 0 1920 1920">
  <defs>
    <style>
      .cls-1 {
        fill: #cdc7b5;
      }

      .cls-1, .cls-2, .cls-3, .cls-4, .cls-5, .cls-6, .cls-7 {
        stroke-width: 0px;
      }

      .cls-2 {
        fill: #299362;
      }

      .cls-3 {
        fill: #040505;
      }

      .cls-4 {
        fill: #d5cebb;
      }

      .cls-5 {
        fill: #060504;
      }

      .cls-6 {
        fill: #af7c59;
      }

      .cls-7 {
        fill: #e14538;
      }
    </style>
  </defs>
  <path class="cls-3" d="M1567.69,901.55c-4.98-4.57-10.01-9.28-15.17-13.83-.67-.59-2.06-.36-4.1-.66-2.4,14.69-10.58,28.19-6.86,46.16,1.96,1.64,5.72,4.08,8.58,7.32,7.4,8.37,10.06,18.24,7.2,29.17-1.55,5.91-4.31,11.54-5.52,17.5-1.92,9.48-3.47,19.09-4.29,28.73-.62,7.28-2.31,14.12-4.44,21.04-2.64,8.58-4.02,17.57-6.85,26.08-7.71,23.16-15.88,46.16-23.9,69.21-.92,2.63-1.67,4.83-1.08,8.09,1.77,9.85-3.23,17.93-12.38,22.65-20.03,10.33-40.84,10.64-62.04,4.67-15.72-4.42-30.22-11.83-44.76-19.09-8.27-4.13-14.89-10.39-20.87-17.23-4.8-5.48-5.72-12.37-5.03-19.38,1.27-12.89,3.99-25.51,7.9-37.86,4.44-14.04,8.95-28.07,13.41-42.11,1.65-5.18,2.96-10.41,2.9-15.94-.03-2.85.7-5.61,1.46-8.44,6.23-23.12,17.35-44.19,27.15-65.81,4.72-10.4,14.73-14.43,24.44-18.48,5.98-2.5,12.07-4.78,18.24-6.76,4.25-1.36,6.05-4.04,7.75-8.1,4.5-10.78,5.74-22.23,7.96-33.46,1.7-8.62,4.76-16.58,9.87-24.26-9.48-21.06-1.5-39.87,9.05-57.89,5.23-8.93,11.8-17.15,18.35-25.22,15.55-19.14,38.25-24.38,62.52-14.07,6.3,2.67,12.34,5.95,18.52,8.89,3.34,1.59,6.67,3.45,8.57,6.56,10.5,17.17,23.41,32.99,29.07,52.91,1.38,4.86,2.71,9.94,2.87,14.63.55,15.88,4.62,31.25,5.55,47.13.79,13.54,3.61,27.05,3.61,40.77,0,1.8,0,3.81.75,5.37,3.89,8.1,4.02,16.5,3.84,25.34-.18,9.08-1.79,17.75-3.54,26.51-.21,1.07-.89,2.15-.76,3.16.95,7.42-1.77,13.61-6.69,18.76-5.82,6.1-12.89,10.84-21.16,12.43-10.04,1.92-20.17,1.33-29.95-2.48-6.23-2.43-8.96-6.92-9.24-13.35-.27-6.14,1.73-12.58-.6-18.38-3.41-8.48-3.88-17.52-6.31-26.11-1.22-4.3-1.23-8.48-1.66-12.75-.68-6.82-1.88-13.59-2.28-20.42-.4-6.83-.09-13.71-.09-21ZM1438.92,952.42c-1.58,2.71-3.22,5.48-4.82,8.26-3.92,6.81-7.19,14.08-8.75,21.65-3.17,15.37-5.26,30.96-14.88,44.13-.58.79-.28,2.18-.78,3.07-6.61,12.03-8.67,25.6-12.17,38.54-4.36,16.11-8.3,32.59-7.5,49.75,1.25,1.36,2.4,2.77,3.71,4,9.53,8.95,21.01,15.13,32.49,20.84,8.74,4.35,17.91,9.75,28.62,7.34,5.88-1.33,11.82-2.26,17.68-3.85,10.77-2.92,17.33-9.41,20.56-19.87,2.73-8.81,5.34-17.69,8.79-26.22,9.52-23.54,13.29-48.57,19.53-72.96,3.34-13.04,5.41-26.31,11.53-38.72,2.84-5.77,4.32-12.96,2.06-20.5-1.61-5.38-4.05-9.83-7.07-14.23-6.21-9.08-9.57-18.45-7.05-29.94,1.04-4.75,2.19-9.73,2.64-14.71.93-10.3,1.95-20.58,4.24-30.71.52-2.32,1.06-5.04-.97-7.98-7.48-4.84-16.1-5.41-25.3-3.77-.77,1.46-1.66,2.64-2.04,3.96-2.99,10.56-5.48,21.27-8.95,31.67-2.36,7.07-4.99,14.01-6.53,21.35-2.9,13.85-12.79,22.54-27.06,23.04-6.38.22-12.05,1.48-18,5.85ZM1568.65,873.68c2.81-9.58,3.28-18.35,7.19-26.18,2.83-5.66,3.41-11.9,2.84-18.05-1.12-12-.55-23.96.01-35.92.4-8.52-2.62-15.42-8.47-20.97-7.54,1.38-14.64,2.6-21.7,4-12.98,2.58-25.46,6.02-32.2,19.15-2.3,4.49-5.1,8.74-7.12,13.34-2.01,4.59-4.48,9.51-2.49,14.59,1.97,5.01,1.61,10.69,5.01,15.85,10.14-.56,19.98,2.33,27.88,8.89,9.66,8.02,21.69,13.18,29.03,25.3ZM1580.18,884.14c13.22,22.28,24.7,43.76,46.41,56.86,4.71-9.15,4.78-9.15,4.32-16.92-.6-10.08-1.82-20.14-1.87-30.22-.04-8.16,1.22-16.28-.22-24.48-1.43-8.16-2.32-16.37-6.16-23.93-4.4-8.69-7.96-17.68-10.35-27.2-1.91-7.6-5.74-14.38-12.16-20.66-.85,5.19-2.04,9.39-2.11,13.62-.08,4.86-1.27,9.17-3.24,13.54-8.64,19.2-13.41,39.38-14.62,59.38ZM1591.88,990.68c12.17-.1,23.16,6.59,35,6.49,6.51-5.27,8.92-11.62,10.32-18.87-11.62-1.47-19.77-6.81-25.43-15.78-5.88-9.32-15.56-15.79-18.83-27.33-2.18,2.22-3.23,3.74-3.25,5.62-.11,14.82-.22,29.64-.13,44.46.01,1.62,1.34,3.22,2.32,5.41Z"/>
  <path class="cls-5" d="M392.49,1171.53c-6.25-3.77-12.81-5.75-15.56-12.46-.26-.63-.81-1.3-1.41-1.62-15.31-8.19-19.36-23.4-24.16-38.24-2.74-8.47-5.28-16.87-10.37-24.59-7.54-11.45-12.72-24.45-14.89-37.91-1.56-9.72-5.96-17.65-10.41-25.8-1.73-3.16-3.64-6.18-4.57-9.81-14.71-5.39-26.35-14.5-34.86-27.71-2-3.11-3.65-6.2-4.48-9.71-3.46-14.64-2.12-28.88,5.81-41.72,5.57-9.02,14.13-13.36,25.25-14.43,20.89-2,33.09,9.51,43.07,25.16,5.57,8.73,8.65,18.15,6.7,28.86-.77,4.23-.13,8.71-.13,13.96,8.39,9.9,11.7,22.87,16.59,35.23,4.23,10.66,9.03,21.24,15.84,30.72,7.78,10.84,14.24,22.6,19.3,34.83,5.17,12.5,8.18,25.88,12.67,38.68,2,5.7,1.49,10.68-1.82,15.28-6.05,8.39-11.64,17.39-22.57,21.26ZM403.92,1145.84c-8.38-10.97-14.08-23.16-17.29-36.43-3.48-14.37-10.19-27.5-16.3-40.73-6.31-13.68-10.91-27.96-16.9-41.72-2.92-6.72-7.72-11.16-14.12-14.01-2.64-1.18-5.62-1.33-8.14.94-2.94,2.65-2.82,5.84-1.29,8.93,3.02,6.11,5.61,12.63,9.7,17.97,7.81,10.2,11.86,21.84,16.18,33.67,3.77,10.3,5.87,21.39,12.55,30.57,7.2,9.89,13.52,20.27,18.74,31.39,2.5,5.34,4.93,11.27,10.33,14.05,3.18.07,4.65-1.42,6.54-4.63ZM296.34,950.95c-3.19,2.65-5.5,4.91-6.68,8.75-3.52,11.54,2.72,32.64,12.39,39.67,1.14.83,2.48,1.4,3.79,1.95,5.18,2.18,10.39,4.31,15.31,6.34,5.94-3.5,7.2-10.4,12.14-13.41v-20.35c-10.8-10.38-20.18-22.7-36.96-22.96Z"/>
  <path class="cls-2" d="M1438.92,952.42c5.95-4.38,11.62-5.63,18-5.85,14.27-.5,24.16-9.19,27.06-23.04,1.54-7.34,4.17-14.28,6.53-21.35,3.47-10.39,5.96-21.11,8.95-31.67.37-1.32,1.27-2.5,2.04-3.96,9.2-1.64,17.83-1.07,25.3,3.77,2.02,2.94,1.49,5.66.97,7.98-2.28,10.13-3.31,20.41-4.24,30.71-.45,4.98-1.6,9.96-2.64,14.71-2.52,11.5.84,20.87,7.05,29.94,3.02,4.4,5.46,8.85,7.07,14.23,2.26,7.55.78,14.74-2.06,20.5-6.11,12.41-8.19,25.67-11.53,38.72-6.24,24.39-10.02,49.42-19.53,72.96-3.45,8.53-6.07,17.42-8.79,26.22-3.24,10.46-9.79,16.95-20.56,19.87-5.86,1.59-11.8,2.53-17.68,3.85-10.7,2.41-19.87-2.99-28.62-7.34-11.48-5.71-22.96-11.89-32.49-20.84-1.31-1.23-2.46-2.64-3.71-4-.81-17.16,3.14-33.64,7.5-49.75,3.5-12.94,5.56-26.51,12.17-38.54.49-.9.2-2.28.78-3.07,9.62-13.17,11.71-28.76,14.88-44.13,1.56-7.57,4.83-14.83,8.75-21.65,1.6-2.78,3.24-5.55,4.82-8.26Z"/>
  <path class="cls-4" d="M1568.65,873.68c-7.34-12.13-19.37-17.28-29.03-25.3-7.9-6.56-17.74-9.44-27.88-8.89-3.4-5.16-3.03-10.83-5.01-15.85-2-5.08.47-10,2.49-14.59,2.02-4.6,4.82-8.85,7.12-13.34,6.74-13.13,19.22-16.57,32.2-19.15,7.06-1.4,14.16-2.62,21.7-4,5.85,5.55,8.87,12.45,8.47,20.97-.56,11.97-1.14,23.93-.01,35.92.58,6.14,0,12.38-2.84,18.05-3.91,7.83-4.38,16.59-7.19,26.18Z"/>
  <path class="cls-4" d="M1580.18,884.14c1.21-20,5.98-40.18,14.62-59.38,1.97-4.38,3.16-8.69,3.24-13.54.07-4.23,1.25-8.43,2.11-13.62,6.42,6.29,10.25,13.07,12.16,20.66,2.39,9.52,5.95,18.51,10.35,27.2,3.84,7.56,4.73,15.78,6.16,23.93,1.44,8.2.17,16.32.22,24.48.05,10.07,1.27,20.14,1.87,30.22.46,7.77.39,7.77-4.32,16.92-21.71-13.1-33.19-34.58-46.41-56.86Z"/>
  <path class="cls-1" d="M1591.88,990.68c-.98-2.19-2.31-3.8-2.32-5.41-.1-14.82.02-29.64.13-44.46.01-1.88,1.07-3.39,3.25-5.62,3.27,11.55,12.95,18.02,18.83,27.33,5.66,8.97,13.81,14.31,25.43,15.78-1.4,7.26-3.81,13.6-10.32,18.87-11.84.09-22.83-6.59-35-6.49Z"/>
  <path class="cls-6" d="M403.92,1145.84c-1.9,3.21-3.37,4.71-6.54,4.63-5.4-2.78-7.83-8.71-10.33-14.05-5.21-11.13-11.54-21.51-18.74-31.39-6.68-9.18-8.78-20.26-12.55-30.57-4.32-11.83-8.37-23.47-16.18-33.67-4.09-5.34-6.68-11.86-9.7-17.97-1.53-3.09-1.65-6.28,1.29-8.93,2.52-2.28,5.5-2.12,8.14-.94,6.4,2.86,11.2,7.3,14.12,14.01,5.99,13.76,10.59,28.04,16.9,41.72,6.1,13.23,12.82,26.37,16.3,40.73,3.22,13.27,8.91,25.46,17.29,36.43Z"/>
  <path class="cls-7" d="M296.34,950.95c16.78.26,26.16,12.58,36.96,22.96v20.35c-4.95,3.01-6.2,9.91-12.14,13.41-4.92-2.03-10.13-4.16-15.31-6.34-1.31-.55-2.65-1.13-3.79-1.95-9.67-7.03-15.91-28.14-12.39-39.67,1.17-3.85,3.48-6.1,6.68-8.75Z"/>
</svg>