<?xml version="1.0" encoding="UTF-8"?>
<svg id="Layer_1" data-name="Layer 1" xmlns="http://www.w3.org/2000/svg" version="1.1" viewBox="0 0 1920 1920">
  <defs>
    <style>
      .cls-1 {
        fill: #0e0e0d;
      }

      .cls-1, .cls-2, .cls-3, .cls-4, .cls-5, .cls-6 {
        stroke-width: 0px;
      }

      .cls-2 {
        fill: #0a0908;
      }

      .cls-3 {
        fill: #874a33;
      }

      .cls-4 {
        fill: #d3cdba;
      }

      .cls-5 {
        fill: #ccc6b4;
      }

      .cls-6 {
        fill: #050404;
      }
    </style>
  </defs>
  <path class="cls-6" d="M1300.79,1217.45c-5.19,10.25-13.97,11.2-22.62,13.37-4.05,5.14-1.84,10.68-.29,16.55,3.69,13.98,3.24,14.45-11.67,22.16-9.91-2.03-14.26-10.37-18.21-17.53-6.79-3.07-11.77-3.32-17.66.61-16.44,10.99-33.54,20.99-50.21,31.64-5.07,3.24-8.14,8.19-10.49,13.91-9.82,23.86-14.99,48.82-17.24,74.34-1.3,14.76-2.52,29.37-1.73,44.58,1.18,22.59-4.61,45.55-15.14,66.49-8.27,16.44-22.55,23.61-39.26,16.13-19.22-8.6-39.06-15.56-58.22-24.22-12.52-5.66-24.33-12.65-38.05-16.07-10.04-2.5-19.16-9.13-26.23-17.15-21.08-23.92-47.94-41.51-70.19-65.56-10.68.5-21.74,1.01-34.83,1.62,6.44,11,9.83,21.17,8.29,32.44-1.34,9.88-8.34,14.56-16.39,9.35-8.71-5.64-18.62-10.42-23.82-22.63-6.3,11.56-16.13,17.48-26.94,23.68-12.99-8.58-3.69-23.07-8.73-34.52-12.67-3.61-30.24,2.67-38.09-14.14,8.75-20.26,28.07-24.02,44.71-32.05-.91-15.65,2.18-30.25,6.27-44.84,3.62-12.9-.02-22.34-10.62-32.87-31.49-31.3-56.94-66.8-68.01-111.45-5.88-23.71-6.74-47.88-11.41-71.58-5.86-29.76-8.68-59.82-7.81-91.83-28.22-18.82-44.45-46.71-52.16-78.81-10.29-3.4-18.1,2.4-26.72,1.77-8.12-.59-14.47-2.79-17.38-10.36-2.45-6.39,1.67-11.05,5.9-15.72,6.36-7,14.52-11.13,22.38-14.9,1.73-12.77-13.05-17.41-12.1-29.15.6-3.35,3.4-5.2,6.42-7.49,9.52-.19,17.81,7.16,27.25,6.79,9.7-7.15,7.52-26.87,26.16-22.59,7.09,9.74,7.98,21.97,13.09,33.46,19.57,2.87,37.39,10.57,53.25,22.63,14.85-8.88,25.85-21.38,39.31-31.07,9.56-23.23,12.01-47.9,14.55-72.87,4.27-41.94,4.21-84.08,7.69-126.01,1.62-19.58,8.58-38.49,7.67-58.46-1.78-39.05,7.29-77.04,11.11-115.55,1.4-14.04,9.71-24.22,15.3-37.51,11.22,1.44,15.64-9.02,23.86-14.41,10.23-1.67,15.75,4.64,19.45,12.9,2.12,4.75,3.67,10.01,4.18,15.18,3.3,33.33,14.3,65.29,17.29,98.66.11,1.23,1.65,2.41,1.58,3.55-2.86,44.34,12.24,87.53,8.38,131.91-.34,3.86,1.21,8.03-1.35,11.54-8.12,11.14-5.99,23.86-5.87,36.32.23,22.55.28,45.11.39,67.66.02,4.47-1.35,9.21,3.27,13.67,23.7-15.81,47.54-31.71,71.73-47.85,3.65-12.7-1.97-26.21,2.61-39.98,15.22-2.02,24.83,9.2,36.92,15.21,12.52-9.32,26.69-16.16,41.11-22.62,3.1,1.2,5.84,2.84,7.69,6.24,1.33,13.78-7.66,24.39-13.31,36.93,10.23,10.13,31.62,11.11,27.91,32.97-10.61,10.72-25.62,12.68-39.38,19.44-.31,20.25,3.85,40.25,5.67,60.39.44,4.89,3.86,9.71,6.54,14.17,22.06,36.66,42.16,74.48,56.2,114.81,12.7,36.46,28.73,71.84,37.42,109.64,2.47,10.77,3.85,21.81,5.27,32.79,1.09,8.5,4.61,14.4,12.61,18.58,13.91,7.28,27.22,15.72,40.57,23.55,9.08-4.22,11.01-13.84,17.84-19.15,9.52-7.41,11.97-7.71,23.74.73,3.87,11.14-2.25,21.78-2.42,32.9,9.21,9.72,27.76,2.75,32.93,19.66ZM947.5,1352.53c-1.67-1.16-3.25-3.72-5.28-.76-.22.33,1.79,2.19,2.77,3.35,13.67,14.4,29.79,26.48,41.6,42.57,12.14,16.54,28.96,26.74,46.47,35.87,12.18,6.35,25.22,11.05,38.02,16.54q5.29-23.13,19.95-31.66c6.57-.19,9.81,6.55,17.41,7.91,7.37-23.01,8.92-47.32,12.28-71.04,3.48-24.55,11.29-48.77,8.91-73.94-13.18-8.31-28.79-12.3-36.4-26.98-1.51-19.75,19.74-19.11,27.22-30.35,1.12-7.47,3.2-14.64-1.13-22.42-6.17-3.21-11.31-9.83-19.73-10.78-7.71,6.93-11.39,15.12-10.7,24.95.67,9.54-1.85,18.23-5.24,25.95-9.64,9.75-18.66,3.64-27.42-.19q-5.25,13.93-16.78,15.67c-4.16-6.39-8.69-12.89-12.72-19.68-4-6.73-6.42-14.7-16.61-19.67,2.65,15.17,7.86,28.34-4.37,40.68-17.27-2.73-34.88-6.13-47.63-20.94-9.53-11.07-21.13-17.57-35.81-19.04-5.91,3.4-11.23,7.2-15.19,12.7-3.64,23.16,7.76,35.22,30.55,32.25,1.94-.25,3.84-.85,5.74-1.37,23.69-6.57,31.61-.25,30.36,24.33-.06,1.25-.92,2.46-1.41,3.69-2.69,7.46-13.03,6.66-15.92,14.72,8.49,14.19,22.51,26.82,15.65,46.24-8,7.44-16.4,2.73-24.59,1.43ZM842.82,1350.65c3.87-.41,7.94.32,11.37-2.45,8.75-7.07,19.48-10.12,29.35-14.91,16.23-7.87,35.43-6.84,50.99-18.9-5.51-7.07-10.35-14.71-13.9-22.56-3.23-1.84-5.87-4.07-8.91-4.97-16.43-4.83-22.67-17.43-28.04-32.41-3.69-10.28,1.2-18.48,3.28-26.56,5.15-20.02,21.94-44.75,52.01-41.46,9.46,1.04,17.51,2.79,25.46,8.39,9.65,6.8,18.41,14.15,24.33,24.02,11.72-2.57,11.36-16.51,22.54-21.06,10.85,3.54,16.26,15.81,26.19,21.37,6.21-4.61,5.86-12.6,10.87-16.63,5.1-4.1,10.9-8.14,12.43-14.25,3.08-12.29,12.72-17.95,21.82-24.04,11.98-8.02,24.88-6.78,36.23,2.3,17.16,13.72,24.9,42.53,16.77,63-1.6,4.03-3.77,7.84-5.47,11.34,3.86,6.32,10.51,6.35,14.75,9.54,22.78-8.53,40.09-24.4,60.11-37.78-22-9.89-41.1-22.34-60.72-33.87-8.62-5.07-13.87-12.75-14.73-22.01-.79-8.53-2.67-16.66-4.18-24.99-5.67-31.25-11.54-62.51-15.75-93.98-3.66-27.3-15.02-49.74-35.7-67.62-20.81-18-33.39-41.78-45.57-65.68-3.88-7.62-5.24-15.61-3.7-25.46,2.19-14.05,6.54-28.08,5.26-42.82-1.08-12.52-.19-25.21-.49-37.81-.08-3.47,2.12-8.17-4.38-10.19-20.08,15.92-42.53,29.79-59.62,50.1-5.29,6.28-12.14,12.81-19.21,12.8-13.34-.01-25.39,6.59-38.81,5.22-9.74-1-19.68.53-28.38-5.88-6.85-5.05-14.31-3.11-20.14,1.43-12.33,9.6-25.31,18.94-35.44,30.62-7.32,8.45-14.29,17.46-22.78,24.45-11.99,9.87-24.44,20.68-43.7,15.8-17.6-12.35-35-28.74-60.78-30.93-3.45,18.56.17,32.3,17.6,41.76,16.35,8.88,29,22.62,41.82,37.95-3.51,44.65.2,89.81,7.42,134.63,2.86,17.75,5.73,35.49,18.15,50.71,13.96,17.12,23.85,37.27,38.73,54.07,15.92,17.96,20.28,41.49,26.58,63.96,4.35,15.51,5.05,30.45.1,46.07-2.91,9.19-5.65,18.84-4.59,28.87-.9.64-1.81,1.28-2.71,1.92.59.58,1.18,1.15,1.77,1.73.58-.95,1.17-1.9,1.75-2.85ZM889.09,814.79c7.88-37.44,5.62-74.99,4.19-112.5-.05-1.27-.55-2.56-.99-3.78-5.38-14.9-4.29-30.58-1.29-45.16,3.14-15.28,4.5-30.53,2.05-45.24-2.92-17.57-1.32-35.02-2.44-52.48-1.23-19.27-4.24-37.83-10.83-57.59-.91,8.33-.96,15.05-2.47,21.43-7.46,31.58-10,63.67-11.36,95.97-.71,16.71,3.54,32.77,4.66,49.22,2.21,32.6-2.31,64.41-9.86,96.06-4.25,17.84-4.03,36.08-1.38,57.32,10.62-9.57,19.65-1.95,29.72-3.23ZM935.98,1346.44c-.44.4-1.3.91-1.24,1.18.21.87.78,1.65,1.21,2.46.44-.4,1.3-.91,1.23-1.19-.21-.87-.78-1.65-1.2-2.46Z"/>
  <path class="cls-3" d="M842,1349.85c-1.06-10.02,1.68-19.68,4.59-28.87,4.95-15.62,4.25-30.56-.1-46.07-6.3-22.47-10.67-46-26.58-63.96-14.89-16.8-24.77-36.95-38.73-54.07-12.41-15.22-15.28-32.96-18.15-50.71-7.23-44.82-10.93-89.98-7.42-134.63-12.82-15.33-25.47-29.07-41.82-37.95-17.42-9.46-21.04-23.2-17.6-41.76,25.78,2.19,43.18,18.58,60.78,30.93,19.26,4.88,31.7-5.93,43.7-15.8,8.5-6.99,15.46-16,22.78-24.45,10.13-11.69,23.1-21.02,35.44-30.62,5.84-4.54,13.3-6.48,20.14-1.43,8.7,6.41,18.64,4.88,28.38,5.88,13.42,1.37,25.47-5.23,38.81-5.22,7.07,0,13.93-6.52,19.21-12.8,17.09-20.31,39.54-34.18,59.62-50.1,6.51,2.02,4.3,6.72,4.38,10.19.31,12.6-.59,25.29.49,37.81,1.28,14.74-3.07,28.77-5.26,42.82-1.54,9.85-.18,17.84,3.7,25.46,12.18,23.9,24.76,47.69,45.57,65.68,20.67,17.88,32.04,40.32,35.7,67.62,4.21,31.47,10.09,62.72,15.75,93.98,1.51,8.32,3.38,16.46,4.18,24.99.86,9.26,6.11,16.94,14.73,22.01,19.62,11.54,38.73,23.98,60.72,33.87-20.02,13.37-37.33,29.25-60.11,37.78-4.24-3.19-10.89-3.21-14.75-9.54,1.7-3.5,3.87-7.3,5.47-11.34,8.12-20.48.39-49.28-16.77-63-11.35-9.08-24.25-10.31-36.23-2.3-9.1,6.09-18.74,11.75-21.82,24.04-1.53,6.12-7.33,10.15-12.43,14.25-5.01,4.03-4.66,12.02-10.87,16.63-9.93-5.56-15.35-17.82-26.19-21.37-11.18,4.56-10.82,18.5-22.54,21.06-5.92-9.86-14.67-17.21-24.33-24.02-7.95-5.6-16-7.35-25.46-8.39-30.07-3.3-46.86,21.44-52.01,41.46-2.08,8.08-6.96,16.28-3.28,26.56,5.37,14.97,11.61,27.58,28.04,32.41,3.04.89,5.68,3.12,8.91,4.97,3.55,7.85,8.39,15.49,13.9,22.56-15.56,12.06-34.77,11.03-50.99,18.9-9.88,4.79-20.6,7.84-29.35,14.91-3.43,2.77-7.5,2.04-11.37,2.45l-.81-.8Z"/>
  <path class="cls-4" d="M947.5,1352.53c8.2,1.31,16.59,6.01,24.59-1.43,6.86-19.42-7.16-32.05-15.65-46.24,2.89-8.06,13.23-7.26,15.92-14.72.49-1.23,1.34-2.44,1.41-3.69,1.25-24.58-6.67-30.89-30.36-24.33-1.9.53-3.8,1.12-5.74,1.37-22.79,2.97-34.19-9.09-30.55-32.26,3.96-5.5,9.28-9.29,15.19-12.7,14.68,1.47,26.29,7.98,35.81,19.04,12.75,14.81,30.36,18.21,47.63,20.94,12.23-12.34,7.02-25.51,4.37-40.68,10.19,4.98,12.61,12.95,16.61,19.67,4.04,6.79,8.57,13.29,12.72,19.68q11.53-1.74,16.78-15.67c8.76,3.83,17.78,9.93,27.42.19,3.39-7.72,5.91-16.42,5.24-25.95-.69-9.83,2.99-18.03,10.7-24.95,8.42.95,13.56,7.57,19.73,10.78,4.33,7.79,2.25,14.95,1.13,22.42-7.47,11.24-28.73,10.6-27.22,30.35,7.61,14.68,23.22,18.68,36.4,26.98,2.39,25.18-5.43,49.4-8.91,73.94-3.36,23.72-4.91,48.04-12.28,71.04-7.6-1.36-10.84-8.1-17.41-7.9q-14.65,8.52-19.95,31.65c-12.8-5.5-25.84-10.19-38.02-16.54-17.51-9.13-34.33-19.33-46.47-35.87-11.81-16.09-27.94-28.17-41.6-42.57.86-.84,1.69-1.7,2.51-2.59ZM1089.85,1303.12c-18.29,8.73-27.02,20.55-23.59,31.79,3.18,10.42,14.44,15.28,33.26,14.39,11.97-7.38,12.36-17.71,10.07-30.55-2.25-12.59-11.98-12.13-19.74-15.63ZM1041.12,1347.94c-.36-14.16-10.02-25.31-21.9-25.28-13.22.04-21.87,10.23-21.18,24.97.63,13.6,9.39,22.05,22.39,21.59,11.96-.42,20.99-9.71,20.7-21.29Z"/>
  <path class="cls-5" d="M889.09,814.79c-10.07,1.28-19.1-6.34-29.72,3.23-2.65-21.25-2.87-39.48,1.38-57.32,7.55-31.65,12.07-63.46,9.86-96.06-1.11-16.44-5.36-32.51-4.66-49.22,1.37-32.3,3.9-64.39,11.36-95.97,1.51-6.38,1.55-13.1,2.47-21.43,6.59,19.76,9.6,38.32,10.83,57.59,1.12,17.46-.48,34.91,2.44,52.48,2.44,14.71,1.09,29.97-2.05,45.24-3,14.58-4.09,30.26,1.29,45.16.44,1.22.94,2.51.99,3.78,1.43,37.51,3.69,75.06-4.19,112.5Z"/>
  <path class="cls-4" d="M935.98,1346.44c.43.81.99,1.59,1.2,2.46.07.28-.8.78-1.23,1.19-.43-.81-.99-1.59-1.21-2.46-.07-.28.8-.78,1.24-1.18Z"/>
  <path class="cls-3" d="M842.82,1350.65c-.58.95-1.17,1.9-1.75,2.85-.59-.58-1.18-1.15-1.77-1.73.9-.64,1.81-1.28,2.71-1.92l.81.8Z"/>
  <path class="cls-4" d="M945,1355.11c-.98-1.15-3-3.02-2.77-3.35,2.02-2.96,3.6-.39,5.28.76-.81.88-1.65,1.75-2.51,2.59Z"/>
  <path class="cls-2" d="M1089.85,1303.12c7.76,3.49,17.5,3.04,19.74,15.63,2.29,12.85,1.9,23.17-10.07,30.55-18.82.9-30.07-3.97-33.26-14.39-3.44-11.24,5.29-23.06,23.59-31.79Z"/>
  <path class="cls-1" d="M1041.12,1347.94c.3,11.58-8.74,20.87-20.7,21.29-13,.46-21.76-7.99-22.39-21.59-.68-14.74,7.96-24.93,21.18-24.97,11.88-.04,21.54,11.12,21.9,25.28Z"/>
</svg>