<?xml version="1.0" encoding="UTF-8"?>
<svg id="Layer_1" data-name="Layer 1" xmlns="http://www.w3.org/2000/svg" version="1.1" viewBox="0 0 1920 1920">
  <defs>
    <style>
      .cls-1 {
        fill: #7d6966;
      }

      .cls-1, .cls-2, .cls-3, .cls-4, .cls-5, .cls-6, .cls-7, .cls-8, .cls-9, .cls-10, .cls-11 {
        stroke-width: 0px;
      }

      .cls-2 {
        fill: #7c6866;
      }

      .cls-3 {
        fill: #050505;
      }

      .cls-4 {
        fill: #d6cfbd;
      }

      .cls-5 {
        fill: #060505;
      }

      .cls-6 {
        fill: #7b6865;
      }

      .cls-7 {
        fill: #766461;
      }

      .cls-8 {
        fill: #74615f;
      }

      .cls-9 {
        fill: #d1cab8;
      }

      .cls-10 {
        fill: #776562;
      }

      .cls-11 {
        fill: #080706;
      }
    </style>
  </defs>
  <path class="cls-3" d="M714.94,1061.82c-10.71,7.33-12.22,15.44-12.54,24.07-.63,17.02.56,34.2,6.88,49.82,11.6,28.68,16.98,59.31,29.23,87.75,6.11,14.2,1.22,25.56-13.19,32.03-27.16,12.2-54.77,22.79-84.77,26.59-23.4,2.96-45.98,10.28-68.3,17.93-4.69,1.61-8.94,4.79-13.08,7.69-8.84,6.18-18.51,10.69-28.58,14.27-13.63,4.85-27.16,1.86-32.88-16.48-3.6-11.53-3.42-23.27-4.81-34.86-1.94-16.22-1.28-32.5,1.52-48.86,3.06-17.91,1.46-36.22.6-54.36-.54-11.38.36-22.45,4.06-33.33,9.01-26.49,14.58-54.1,26.47-79.66,5.45-11.72,9.54-24.11,15.61-35.48,3.87-7.24,8.38-14.4,16.32-19.03,6.21-3.62,11.38-9.38,16.28-14.84,15.56-17.37,34.41-28.83,57.36-33.47.97-.2,1.76-1.34,3.06-2.4,3.63-7.67-4.25-14.47-1.92-21.79-27.54-18.12-51.7-37.3-43.72-75.09,3.13-6.58,9.68-8.72,17.58-12.43,20.95,14.06,46.05,22.87,65.26,42.38,5.08-4.2,9.79-8.09,15.25-12.61-1.89-12.34,1.76-23.73,7.31-35.1,4.49-9.19,10.39-16.16,19.7-19.91,6.58-2.65,12.35-6.53,15.41-12.57,4.16-8.24,10.96-12.53,18.73-16.18,13.76-6.47,27.78-11.77,43.02-14.02,26.13-3.85,50.89-12.93,75.83-21.22,18.04-5.99,35.93-12.45,53.91-18.62,2.13-.73,4.43-.95,6.63-1.52,19.53-5.1,37.81-7.76,53.02,18.14,17.41-1.43,34.89-5.51,50.99-12.98,24.62-11.41,50.07-19.62,76.43-25.7,19.1-4.41,36.77-13.51,56.12-17.58,17.45-3.67,33.76-10.67,50.33-17.54,19.94-8.27,40.63-16.17,61.16-19.31,7.23-5.19,10.15-12.25,14.91-17.8,12.6-14.7,28.02-25.83,44.2-36.44,17.41-11.42,40.81-3.86,46.55,15.76.47,1.59.58,3.43,4.49,4.53,2.5.2,7.14-.05,11.42,1.07,6.6,1.72,12.21,4.72,15.98,11.39,9.94,17.58,12.23,37.1,15.18,56.4,1.37,8.99-2.37,16.33-11.29,20.68-8.09,3.94-15.96,7.68-25.05,9.39-9.81,1.84-19.17,6.06-28.78,9.07-28.92,9.06-57.71,18.54-87.13,25.93-20.66,5.19-41.74,8.28-62.37,13.78-20.18,5.38-39.41,13.19-58.89,20.29-43.84,15.98-87.29,33.02-129.66,52.66-4.06,1.88-8.09,3.81-12.73,6,3.58,7.34,6.71,14.35,10.35,21.09,7.32,13.55,8.4,28.31,6.35,42.82-2.34,16.55-12.93,28.49-27.31,36.6-6.33,3.57-13.26,6.19-20.13,8.68-21.84,7.94-41.46,20.24-62,30.74-12.93,6.61-26.29,12.39-40.04,18.82,1.83,6.09,3.51,11.3,4.96,16.58,5.49,19.88-.84,41.9-18.43,51.98-22.33,12.79-44.27,26.56-68.81,35.4-23.65,8.52-42.78,2.09-59.82-14.77-8.08-8-16.35-15.7-18.23-27.8-.32-2.03-2.26-3.82-4-6.58ZM689.05,1204.69c.55,1.38.83,4.03,2.75,1.12.63-.95-.81-1.94-2.27-1.62.86-6.31-.66-12.15-2.56-18.19-9.2-29.23-13.26-58.71-8.83-89.68,3.94-27.6,12.6-51.06,37.65-66,1.88-1.12,3.31-2.99,5.66-5.18-4.35-21.25-13.83-40.99-18.9-61.94-11.53,4.61-21.73,9.32-32.34,12.77-11.85,3.85-23.11,8.77-34.02,14.68-20.54,11.13-37.76,26.73-55.61,41.45-7.5,6.19-12.49,14.73-16.18,23.54-8.65,20.68-19.57,40.38-25.97,62.06-5.39,18.23-13.58,35.62-13.89,55.21-.42,26.51,3.53,52.68,4.77,81.91,14.36-16.79,28.42-30.42,42.16-44.31,20.22-20.44,43.73-25.66,71.22-20.72,16.25,2.92,30.35,11.68,46.34,14.91ZM949.65,772.61c-8.13-1.32-12.97-.69-18.02.35-26.62,5.46-53.16,11.69-80.03,15.44-28.87,4.02-54.6,14.61-78.39,30.74-3.7,2.51-7.53,5.44-8.91,9.98-7.58,24.91-12.05,49.43-.97,75.14,5.37,12.46,13.13,16.52,25.22,17.78,14.3,1.49,27.94-2.71,41.82-4.16,21.95-2.29,44.09-4.37,64.72-14.68,10.23-5.11,20.69-10.64,32.19-13.47,20.82-5.12,37.04-19.24,57.72-29.24-20.06-26.83-24.35-58.75-35.35-87.88ZM1387.23,642.4c-31.01,9.32-60.43,18.86-88.77,32.15-21.49,10.07-44.47,17.42-67.41,23.77-13.42,3.71-26.94,6.94-39.3,13.17-20.96,10.56-43.14,17.91-64.96,26.18-36.97,14.01-76.49,18.57-114.19,30.13-11.62,3.56-20.55,10.08-30.23,15.6,3.81,13.27,8.21,24.97,15.88,35,11.92-5.58,23.98-9.8,36.52-12.51,29.89-6.48,59.26-14.81,87.87-25.57,45.7-17.19,90.69-36.31,138.05-48.78,47.38-12.47,90.28-37.1,137.28-49.27,2.13-15.31-1.98-27.61-10.73-39.86ZM756.29,1013.03c10.77-.32,10.97.06,24.65-7.4,13.76-7.51,28.09-14.08,43.05-17.85,19.65-4.95,37.85-12.78,55.92-21.46,21.55-10.35,43.46-19.78,65.9-28.17,14.05-5.25,27.53-12.59,38.54-23.44,3.8-3.75,7.2-7.43,3.23-13.13-2.82-.72-5.29.17-8.03.97-17.09,5.04-33.67,11.25-49.71,19.08-26.02,12.7-54.27,19.42-81.4,29.12-15.63,5.59-32.36,9.58-48.53-.84-4.02-2.59-9.41-3.31-14.29-4.24-31.77-6.06-50.65-26.75-61.95-55.31-4.18-10.55-6.09-22-9.19-33.6-8.08,9.67-9.5,12.32-8.06,19.31,2.46,11.92,5.96,23.64,8.09,35.61,2.75,15.55,9.97,29.37,15.89,43.65,8.06,19.43,13.34,40.12,25.91,57.7ZM679.75,1233.45c-9.07-6.1-16.95-11.52-23.59-18.59-2.57-2.74-6.58-5.31-10.18-5.7-18.15-1.97-35.98-1.53-51.6,10.15-15.67,11.72-27.45,26.52-36.26,43.86-1.58,3.1-3.1,5.92.13,10.06,42.7-3.32,82.5-16.97,121.51-39.79ZM781.71,1087.55c22.2-6.02,42.69-14.59,61.36-27.78,11.71-8.27,16.57-17.77,11.85-32.11-4.52-3.36-8.99-8.4-15.83-7.23-15.71,2.67-31.21,6.52-47.72,7.61,2.89,6.71,5.06,11.78,9.03,15.99,3.86,4.1,7.21,8.65,7.53,14.61-16.41,15.28-23.36,12.87-41.94-14.57-4.31.91-8.16,2.83-11.85,5.68v18.07c6.17,11.54,15.07,18.54,27.58,19.73ZM662.29,917.02c-2.2,10.34,2.33,17.36,4.98,24.87,11.2-2.9,21.59-5.58,31.93-8.25-2.93-11.32-5.63-21.79-8.25-31.93-14-1.94-21.2,6.8-28.67,15.31ZM645.31,901.28c-8.47-21.04-28.74-34.11-47.67-31.99,3.16,18.65,5.31,20.13,47.67,31.99ZM1354.45,630.23q-4.51-12.27-22.05-10.98c-8.74,4.8-9.72,13.45-13.02,24.03,13.03-4.73,24.14-6.97,35.06-13.05Z"/>
  <path class="cls-4" d="M689.05,1204.69c-15.99-3.24-30.09-12-46.34-14.91-27.5-4.93-51,.28-71.22,20.72-13.75,13.9-27.8,27.53-42.16,44.31-1.24-29.24-5.19-55.4-4.77-81.91.31-19.59,8.5-36.98,13.89-55.21,6.41-21.68,17.32-41.38,25.97-62.06,3.68-8.81,8.67-17.35,16.18-23.54,17.84-14.72,35.06-30.32,55.61-41.45,10.91-5.91,22.17-10.83,34.02-14.68,10.61-3.45,20.81-8.16,32.34-12.77,5.07,20.94,14.55,40.69,18.9,61.94-2.36,2.19-3.79,4.06-5.66,5.18-25.05,14.94-33.71,38.39-37.65,66-4.42,30.97-.37,60.45,8.83,89.68,1.9,6.04,3.42,11.88,2.56,18.19l-.48.51Z"/>
  <path class="cls-1" d="M949.65,772.61c11,29.13,15.29,61.06,35.35,87.88-20.68,10-36.9,24.12-57.72,29.24-11.5,2.83-21.96,8.35-32.19,13.47-20.63,10.31-42.76,12.39-64.72,14.68-13.88,1.45-27.52,5.65-41.82,4.16-12.09-1.26-19.85-5.32-25.22-17.78-11.08-25.71-6.61-50.23.97-75.14,1.38-4.54,5.21-7.47,8.91-9.98,23.79-16.13,49.52-26.72,78.39-30.74,26.88-3.74,53.41-9.97,80.03-15.44,5.05-1.04,9.89-1.67,18.02-.35ZM791.03,823.12c-3.1,2.23-6.4,4.32-9.39,6.8-6.3,5.23-8.52,12.39-6.19,18.94,2.4,6.74,8.49,10.86,16.65,11.27,16.97.85,25.65-6.29,29.62-24.34-6.96-12-18.47-13.01-30.69-12.68ZM800.68,911.63c7.68-4.83,18.15-2.91,22.73-12.78,4.22-9.08,2.99-14.71-7.06-24.23h-19.52c-4.94,3.96-9.25,7.54-11.75,12.17-1.81,12.34,1.54,21.24,15.61,24.83Z"/>
  <path class="cls-2" d="M1387.23,642.4c8.75,12.26,12.87,24.55,10.73,39.86-47,12.17-89.9,36.8-137.28,49.27-47.36,12.47-92.36,31.59-138.05,48.78-28.6,10.76-57.98,19.08-87.87,25.57-12.54,2.72-24.6,6.94-36.52,12.51-7.66-10.03-12.07-21.73-15.88-35,9.68-5.52,18.61-12.04,30.23-15.6,37.7-11.56,77.22-16.12,114.19-30.13,21.82-8.27,44.01-15.62,64.96-26.18,12.36-6.23,25.88-9.46,39.3-13.17,22.93-6.35,45.92-13.69,67.41-23.77,28.34-13.29,57.76-22.83,88.77-32.15Z"/>
  <path class="cls-6" d="M756.29,1013.03c-12.56-17.58-17.84-38.28-25.91-57.7-5.93-14.28-13.14-28.1-15.89-43.65-2.12-11.97-5.63-23.69-8.09-35.61-1.44-6.98-.01-9.64,8.06-19.31,3.1,11.6,5.01,23.05,9.19,33.6,11.3,28.56,30.18,49.25,61.95,55.31,4.88.93,10.28,1.66,14.29,4.24,16.17,10.42,32.9,6.43,48.53.84,27.14-9.7,55.38-16.42,81.4-29.12,16.04-7.83,32.62-14.04,49.71-19.08,2.74-.81,5.2-1.69,8.03-.97,3.98,5.71.58,9.39-3.23,13.13-11.01,10.84-24.48,18.19-38.54,23.44-22.44,8.38-44.35,17.82-65.9,28.17-18.07,8.68-36.27,16.51-55.92,21.46-14.96,3.77-29.29,10.34-43.05,17.85-13.67,7.46-13.88,7.08-24.65,7.4Z"/>
  <path class="cls-9" d="M679.75,1233.45c-39.01,22.82-78.81,36.47-121.51,39.79-3.23-4.14-1.71-6.96-.13-10.06,8.82-17.34,20.6-32.15,36.26-43.86,15.62-11.68,33.45-12.13,51.6-10.15,3.6.39,7.61,2.96,10.18,5.7,6.65,7.07,14.52,12.49,23.59,18.59Z"/>
  <path class="cls-10" d="M662.29,917.02c7.46-8.51,14.66-17.25,28.67-15.31,2.62,10.14,5.32,20.6,8.25,31.93-10.34,2.67-20.73,5.36-31.93,8.25-2.65-7.51-7.18-14.53-4.98-24.87Z"/>
  <path class="cls-8" d="M645.31,901.28c-42.36-11.86-44.51-13.34-47.67-31.99,18.94-2.12,39.2,10.95,47.67,31.99Z"/>
  <path class="cls-7" d="M1354.45,630.23c-10.92,6.09-22.03,8.33-35.06,13.05,3.29-10.58,4.28-19.24,13.02-24.03q17.54-1.29,22.05,10.98Z"/>
  <path class="cls-4" d="M689.54,1204.18c1.46-.32,2.89.67,2.27,1.62-1.92,2.91-2.2.26-2.75-1.12l.48-.51Z"/>
  <path class="cls-11" d="M791.03,823.12c12.22-.33,23.73.67,30.7,12.67-3.97,18.05-12.66,25.19-29.62,24.34-8.16-.41-14.25-4.53-16.65-11.27-2.34-6.56-.11-13.71,6.19-18.94,2.99-2.48,6.29-4.58,9.39-6.8Z"/>
  <path class="cls-5" d="M800.68,911.63c-14.07-3.59-17.42-12.5-15.61-24.83,2.51-4.63,6.82-8.21,11.75-12.17h19.52c10.05,9.51,11.28,15.15,7.06,24.23-4.59,9.87-15.06,7.96-22.73,12.78Z"/>
</svg>