<?xml version="1.0" encoding="UTF-8"?>
<svg id="Layer_1" data-name="Layer 1" xmlns="http://www.w3.org/2000/svg" version="1.1" viewBox="0 0 1920 1920">
  <defs>
    <style>
      .cls-1 {
        fill: #050505;
      }

      .cls-1, .cls-2, .cls-3, .cls-4, .cls-5 {
        stroke-width: 0px;
      }

      .cls-2 {
        fill: #080707;
      }

      .cls-3 {
        fill: #050504;
      }

      .cls-4 {
        fill: #060505;
      }

      .cls-5 {
        fill: #806d67;
      }
    </style>
  </defs>
  <g>
    <path class="cls-1" d="M1252.49,1186.6c9.98.67,16.37,9.27,24.67,12.55,37.54,66.09-8.41,127.66-63.3,125.35,3.09,12.45,3.07,24.9,4,38.57,15.56,3.38,28.23,11.5,37.21,26.76.38,5.82,1.43,12.95,1.21,20.04-.61,20.5-14.74,34.79-35.16,35.65-9.97.42-19.97.07-28.19.07-20.56-15.76-21.58-17.17-28.3-38.32-49.48-14.97-96.03-36.93-143.38-60.2-2.34,6.17-4.72,12.44-7.03,18.5,7.1,9.64,16.83,15.73,19.66,28.24,4.77,21.09-1.02,28.91-21.84,24.99-2.64-.5-5.06-2.15-7.52-3.24-6.95,3.48-7.09,12.84-14.29,15.73-4.09,1.64-8.32,1.87-13.01.73-6.34-3.65-6.89-11.88-12.4-17.31-7.52-2.2-16.68,3.3-24.18-3.22-4.64-4.03-7.12-8.84-6.48-16.79,7.34-12.19,16.84-24.12,33.03-29.33,1.02-21,1.8-41.48,9.88-61.36-21.97-12.13-43.21-23.45-64.06-35.47-22.74-13.11-45.64-26.06-67.47-40.6-13.6-9.06-25.3-20.92-33.04-35.96-8.16-15.83-17.04-30.49-36.47-35.36-7.21-1.8-12.98-8.84-20.15-11.44-9.24-3.36-19.23-4.66-30.02-7.1-10.65,19.79-16.48,45.28-45.59,44.36-12.12-11.02-8.39-24.47-7.96-38.53-18.08,4.71-33.39,4.12-43.17-12.68,3.25-17.62,15.88-26.79,29.72-36.34-6.08-7.51-13.78-14.08-16.57-23.79-4.18-14.58,3.15-23.18,17.58-19.52,14.54,3.68,28.29,9.63,40.04,20.3,13.41-4.96,26.59-9.84,39.85-14.74-12.42-79.2,26.73-131.8,87.04-172.28,2.78-12.62-7.54-18.97-11.01-28.06-11.41-29.96-19.44-60.42-23.61-92.11-2.11-16.07-5.5-31.97-7.94-48-.9-5.95-4.06-10.66-6.98-15.48-9.38-15.47-14.8-31.94-14.59-50.23.23-20.69.43-41.39-.18-62.06-.35-11.96-2.14-23.89-3.61-35.79-1.9-15.37,4.4-30.1,1.07-46.28-2.1-10.21,6.01-22.79,13.61-32.3,4.95-.97,7.49.86,10.13,5.35,10.71,18.15,17.68,36.74,15.24,58.54-2.64,23.63,4.42,46.71,6.24,70.14,2.52,32.35,12.11,63.59,12.07,96.68-.03,21.38,8.41,42.96,14.32,64.1,4.95,17.67,9.64,35.47,14.17,53.18,4.61,18.04,14.05,32.15,24.11,46.2,30.58-5.04,61.15-4.44,127.61,25.44,2.85-9.11-5.19-14.14-7.44-21-2.2-6.71-7.96-11.27-9.69-18.83-3.45-15.04-4.32-14.84,8.36-27.28,10.09-.41,16.86,6.44,24.83,11.8,7.54-4.41,7.61-17.6,19.66-17.26,6.21.17,11.24,1.6,15.35,8.5v20.5c11.48,4.7,27.59-3.39,33.81,13.43-4.58,23.35-21.66,34.39-43.32,39.42-3.47,5.88-2.93,11.72-3.81,18.34,16.01,16.76,27.63,36.24,32.32,60.31,3,15.39,14.25,27.85,24.61,39.46,17.39,19.5,29.36,42.01,37.57,66.28,5.33,15.76,14.51,29.26,19.96,43.98,9.66,2.69,16.3-3.12,23.27-5.62,32.46-11.66,68.33,12.28,80.07,39.53,3.14,7.3-4.09,11.92-.56,20.88ZM1064.87,1304.08c.91.1,1.42.6,1.51,1.51-.35,4.27-.73,8.54.98,11.87,31.84,28.65,66.97,48.93,109.68,54.65,3.08-7.66.99-14.11,1.58-20.36.42-4.47-2.7-8.38-2.91-12.18-.57-10.69-6.37-20.11-5.59-31.22,1.34-18.98,6.81-25.56,25.65-26.07,13.54-.37,27.1-.07,40.32-.07,14.99-12.76,28.95-24.97,23.05-46.6-2.86-3.13-5.21-5.84-7.71-8.4-9.83-10.08-19.99-18.27-35.46-10.49-2.81,1.41-8.43,2.72-11.16-2.45,14.49-22,16.4-27.36,8.89-37.87-9.99-13.98-24.71-17.08-41.13-14.47-14.87,9.89-17.75,26.19-21.25,41.25-11.18,2.85-18.92-1.65-27.38-8.28-2.7-16.09-10.11-31.29-18.33-46.02-19.89-35.66-33.69-73.95-47.04-112.23-9.05-25.96-22.2-47.02-46.7-60.04-9.87-5.25-17.19-13.13-20.93-23.27-6.83-18.52-21.31-27-38.56-33-21.75-7.56-44.05-9.69-67.63-7.89-6.75,13.86-20.5,20.31-33.27,27.59-18.56,10.58-36.26,21.86-50.9,37.88-10.57,11.57-15.28,24.87-17.51,39.82-2.69,18.02-5.47,35.91-12.17,53.21-3.39,8.75-7.98,13.84-15.76,18.44-11.11,6.57-24.09,8.15-36.41,14.29,7.09,3.64,13.71,2.2,19.84,5.05,5.38,2.5,12.66.61,19.01,1.41,23.85,3.01,44.32,21.04,48.93,42.95,11.15,8.37,23.35,15.56,36.26,21.21,21.84,9.56,40.95,22.51,56.29,40.95,10.18,12.24,23.14,21.55,37.65,27.12,8.56,3.28,16.67,7.43,25.1,10.89,16.08,6.6,30.12,19.16,49.37,16.24,1.15-.17,2.46,1.46,3.8,1.7,13.62,2.47,21.57,12.87,30.77,21.64,5.43,5.17,9.15,13.61,19.09,11.22Z"/>
    <path class="cls-4" d="M1064.87,1304.08c-6.49-9.92-14.5-18.46-15.9-31.68-1.69-15.9-.62-21.69,14.44-32.97,9.37,5.95,14.44,15.84,17.6,25.46,4.31,13.09,12.34,22.33,23.07,29.38,6.78,4.45,9,10.26,10.22,16.96-2.42,7.05-7.08,11.07-13.96,14.01-13.04-2.93-24.05-10.29-33.95-19.64-.1-.91-.6-1.42-1.51-1.51Z"/>
    <path class="cls-2" d="M1161.3,1268.41v18.47c-4.16,6.54-9.16,11.55-15.18,15.43q-24.39.98-35.77-26.07c8.52-22.33,11.15-24.03,35.84-23.14,5.99,3.86,10.92,8.93,15.11,15.3Z"/>
    <path class="cls-3" d="M1075.84,1231.34c-.66-12.05,1.48-22.38,15.97-27.14,19.47-6.4,21.72-6.41,34.96,7.97,0,5.97,0,12.31,0,18.66-3.61,6.29-8.75,11.11-15.18,15.82-6.26,1.55-13.24,1.13-20.16.56-6.04-4.18-11.06-9.09-15.59-15.88Z"/>
  </g>
  <path class="cls-5" d="M1259.15,1235.62c-2.86-3.13-5.21-5.84-7.71-8.4-9.83-10.08-19.99-18.27-35.46-10.49-2.81,1.41-8.43,2.72-11.16-2.45,14.49-22,16.4-27.36,8.89-37.87-9.99-13.98-24.71-17.08-41.13-14.47-14.87,9.89-17.75,26.19-21.25,41.25-11.18,2.85-18.92-1.65-27.38-8.28-2.7-16.09-10.11-31.29-18.33-46.02-19.89-35.66-33.69-73.95-47.04-112.23-9.05-25.96-22.2-47.02-46.7-60.04-9.87-5.25-17.19-13.13-20.93-23.27-6.83-18.52-21.31-27-38.56-33-21.75-7.56-44.05-9.69-67.63-7.89-6.75,13.86-20.5,20.31-33.27,27.59-18.56,10.58-36.26,21.86-50.9,37.88-10.57,11.57-15.28,24.87-17.51,39.82-2.69,18.02-5.47,35.91-12.17,53.21-3.39,8.75-7.98,13.84-15.76,18.44-11.11,6.57-24.09,8.15-36.41,14.29,7.09,3.64,13.71,2.2,19.84,5.05,5.38,2.5,12.66.61,19.01,1.41,23.85,3.01,44.32,21.04,48.93,42.95,11.15,8.37,23.35,15.56,36.26,21.21,21.84,9.56,40.95,22.51,56.29,40.95,10.18,12.24,23.14,21.55,37.65,27.12,8.56,3.28,16.67,7.43,25.1,10.89,16.08,6.6,30.12,19.16,49.37,16.24,1.15-.17,2.46,1.46,3.8,1.7,13.62,2.47,21.57,12.87,30.77,21.64,2.41,2.29,4.48,5.23,6.9,7.58.33,1,.64,2,1.14,2.94.96,1.79,2.32,3.44,3.62,5,2.47,2.97,5.25,5.56,8.24,7.98.34.54.84.97,1.72,1.38.15.07.29.1.43.14,31.72,28.44,66.71,48.55,109.22,54.24,3.08-7.66.99-14.11,1.58-20.36.42-4.47-2.7-8.38-2.91-12.18-.57-10.69-6.37-20.11-5.59-31.22,1.34-18.98,6.81-25.56,25.65-26.07,13.54-.37,27.1-.07,40.32-.07,14.99-12.76,28.95-24.97,23.05-46.6ZM1091.81,1204.2c19.47-6.4,21.72-6.41,34.96,7.97v18.65c-3.61,6.3-8.75,11.12-15.18,15.83-6.26,1.55-13.24,1.13-20.16.56-6.04-4.18-11.06-9.09-15.59-15.88-.66-12.05,1.48-22.38,15.97-27.14ZM1100.33,1325.23c-9.55-2.14-18-6.67-25.74-12.61-4.81-4.79-9.1-10.12-14.03-14.79-5.32-7.55-10.5-15.05-11.6-25.44-1.69-15.9-.62-21.69,14.44-32.97,9.37,5.95,14.44,15.84,17.6,25.46,4.31,13.09,12.34,22.33,23.07,29.38,6.78,4.45,9,10.26,10.22,16.96-2.42,7.05-7.08,11.07-13.96,14.01ZM1161.3,1286.88c-4.16,6.54-9.16,11.55-15.18,15.43q-24.39.98-35.77-26.07c8.52-22.33,11.15-24.03,35.84-23.14,5.99,3.86,10.92,8.93,15.11,15.3v18.47Z"/>
</svg>