<?xml version="1.0" encoding="UTF-8"?>
<svg id="Layer_1" data-name="Layer 1" xmlns="http://www.w3.org/2000/svg" version="1.1" viewBox="0 0 1920 1920">
  <defs>
    <style>
      .cls-1 {
        fill: #e75649;
      }

      .cls-1, .cls-2, .cls-3, .cls-4, .cls-5, .cls-6 {
        stroke-width: 0px;
      }

      .cls-2 {
        fill: #e64b3e;
      }

      .cls-3 {
        fill: #060606;
      }

      .cls-4 {
        fill: #e75346;
      }

      .cls-5 {
        fill: #e65244;
      }

      .cls-6 {
        fill: #fff;
      }
    </style>
  </defs>
  <path class="cls-6" d="M912.26,1151.36c19.39,4.5,30.1-11.46,42.35-20.73,39.93-30.21,74.19-66.73,108.19-103.37,43.37-46.74,77.3-101.33,122.16-146.84,9.17-9.3,13.22-21.65,18.54-33.1,3.65-7.85,4.66-17.46-.21-24.65-20.03-29.56-37.32-61.79-71.61-81-7.64,34.72-20.05,66.33-38.42,94.69-30.05,46.38-53.76,96.02-77.8,145.44-29.12,59.87-59.01,118.99-103.21,169.55ZM1125.56,809.14c7.7-4.81,19.5-5.51,23.93-.48,9.43,10.72,26.06,14.54,30.46,33.92-7.26,19.27-20.84,25.34-41.94,20.13-6.51-6.17-14.17-13.44-20.25-19.2-1.73-14.51-4.58-26.63,7.8-34.37Z"/>
  <path class="cls-6" d="M917.13,1046.15c57.18-94.66,94.9-198.41,138.42-299.39,7.21-16.74,12.96-39.76-2.3-54.57-24.68-23.97-50.14-49.16-92.3-53.24,4.05,36.54,2.18,69.08-4.83,101.33-7.41,34.12-14.82,68.26-21.01,102.61-5.63,31.24-9.25,62.83-14.41,94.17-6.89,41.88-8.89,84.73-27.22,124.27,16.42,3.82,19.12-7.69,23.64-15.17ZM977.48,688.83c10.13-6.91,21.69-6.97,32.03,1.6,3.19,2.65,6.58,5.27,10.28,7.06,25.45,12.3,26.97,20.22,7.35,40.59-1.43,1.49-3.53,2.33-6.6,4.29-7.17,0-15.78,1.08-24.01-.25-12.13-1.97-21.28-9.25-24.61-21.43-3.07-11.22-6.08-23.93,5.55-31.86Z"/>
  <path class="cls-6" d="M875.47,626.93c-21.44-12.86-45.08-24.17-70.5-26.25-43.28-3.55-86.76-4.87-130.17-6.64-11.64-.47-23.39.44-35.03,1.47-11.09.98-17.56,6.79-16.18,18.86.03-.01.08-.02.11-.04l-.11.11.11-.11s.02.08.05.12c24.41,1.64,48.45,4.63,68.95,17.21,2.69,12.17-3.57,20.02-8.11,27.92-6.51,11.33-17.58,14.19-30.05,12.57-17.59-2.29-22.95-16.78-28.96-29.97-3.94-8.66,2.74-18.69-1.83-27.72-.05,0-.1,0-.15-.01,0-.03,0-.05,0-.07-.99.39-2.59.63-2.73,1.23-13.77,57.31-30.04,114.18-40.37,172.1-11.5,64.53-18.25,129.94-25.65,195.13-2.24,19.74-5.67,40.12.67,60.55,10.43,8.94,22.73,15.74,36.2,18.15,76.46,13.7,153.17,21.05,229.78,5.51,12.69-15.92,20.81-33.54,25.21-51.87,16.57-68.97,28.99-138.87,33.01-209.69,2.46-43.37,4.91-86.51,10.99-129.58,2.43-17.21,1.77-38.77-15.22-48.97ZM789.19,1059.04c-13.12,5.2-31.44.03-42.53-12-10.31-11.18-10.22-18.75,1.6-41.58h48.15c9.28,4.53,15.21,11.42,18.52,18.05-.21,12.89-14.35,31-25.74,35.52ZM716.31,927.76c-15.3.04-24.06-7.02-31.37-18.81-17.13-27.63-36.42-53.95-53.03-81.87-16.82-28.28-9.66-55.6,18.43-77.74h36.6c14,5.44,19.21,20.55,32.89,26.17,20.08-12.44,38.74-29.6,65.86-24.49,11.94,6.86,21.04,17.06,30.62,30.76-6.87,66.01-49.88,108.73-100.01,145.99Z"/>
  <path class="cls-6" d="M973.41,1236.36c75.45-33.04,141.75-80.64,205.61-131.56,20.76-16.55,41.73-32.65,63.33-47.98,8.63-6.13,18.76-10.47,26.39-17.58,14.05-13.1,30.16-28.85,24.32-48.83-8.3-28.39-15.47-58.79-40.6-80.59-15.66,24.46-35.05,44.04-55.37,62.84-41.42,38.32-81.47,78-119.28,119.94-20.64,22.9-40.94,46.47-64.11,66.61-31.83,27.66-62.43,58.39-107.03,66.86,6.1,10.3,14.71,16.22,24.02,21.47,15.45.52,29.08-5.2,42.72-11.17ZM1248.06,968.8c8.79,11.21,17.81,22.71,27.07,34.51-3.34,8.67-5.91,17.78-13.8,23.91q-31.44,4.03-48.69-31.73,11.45-27.36,35.41-26.7Z"/>
  <path class="cls-6" d="M1322.37,1087.8c-25.45,22.68-53.76,41.37-83.97,56.75-60.66,30.87-116.09,70.32-172.2,108.07-46.41,31.23-95.44,52.92-148.89,67.93-.01,9.37,6.12,15.24,13.45,22.85,30.18,3.13,58.8.48,86.2-8.43,48.26-15.68,95.74-33.48,142.35-53.85,46.5-20.31,89.85-47.44,138.4-63.21,12.29-3.99,22.37-11.94,32.45-19.76,8.98-6.97,15.97-17.53,14.04-27.26-5.48-27.52-3.25-57.27-21.82-83.09ZM1314.1,1190.84c-7.74,14.08-20.82,11.99-34.37,11.12-7.89-6.16-13.47-11.06-15.72-18.54-1.8-5.99-3.32-12.07-5.18-18.91q11.15-26.47,41.21-23.09c12.55,13.84,16.67,30.61,14.07,49.42Z"/>
  <path class="cls-6" d="M911.48,1152.13c-1.31,1.04-2.65,2.1-4.58,3.63,4.04.17,5.94-.48,4.58-3.63Z"/>
  <path class="cls-3" d="M623.69,614.33s-.08.02-.11.04c0,.03,0,.05,0,.07l.11-.11Z"/>
  <path class="cls-3" d="M911.48,1152.13c.13-.1.28-.22.41-.32.13-.15.24-.3.37-.45-.43-.1-.84-.15-1.28-.27.22.39.36.71.5,1.04Z"/>
  <path class="cls-3" d="M1375.49,1028.74c-3.34-9.23-6.59-17.83-5.83-27.45,1.38-17.58-4.24-33.63-12.25-48.37-15.08-27.72-32.64-54.1-47.4-81.96-13.06-24.64-36.84-43.82-38.17-74.67-.21-4.81-3.79-9.98-6.99-14.07-33.39-42.75-71.24-81.23-113.04-115.72-24.21-19.97-52.52-34.35-73.45-59.12-15.91-18.83-38.06-30.32-64.11-29.6-10.29.28-18.25-4.67-26.49-9.01-14.94-7.87-30.44-14-47.06-16.9-22.03-3.85-41.15-13-59.93-25.54-29.45-19.67-62.02-24.4-95.62-8.94-6.7,3.08-13.5,8.65-20.19,8.55-30.68-.47-61.48,3.61-92.08-2.78-21.35-4.46-42.59-11.72-65.01-6.64-44.11,10.01-62.7,39.52-70.79,86.6-1.97,11.47.17,23.94-3.23,34.81-9.51,30.36-12.16,61.88-15.46,92.94-6.34,59.75-8.74,119.91-13.53,179.84-3.22,40.33-1.27,80.65-.86,120.95.41,40.16,22.13,72.29,58.35,79.27,65.69,12.65,127.4,43.72,196.46,40.84,11.13,20.27,22.8,38.85,27.4,61.18,4.21,20.42,10.24,40.48,15.9,60.58,13.95,49.55,43.95,88.05,82.49,121.11,13.68,11.73,28.57,16.94,45.97,17.15,22.22.26,43.47-5.9,65.03-9.85,41.65-7.62,79.47-26.85,119.17-40.38,36.76-12.53,72.43-28.22,109.02-41.28,24.71-8.82,50.53-14.51,75.23-23.36,35.16-12.59,67.14-30.04,91.76-59.91,25.06-30.39,32.79-62.79,20.29-100.25-12-35.97-22.68-72.4-35.59-108.04ZM1093.26,836.37c18.37-28.36,30.79-59.98,38.42-94.69,34.29,19.21,51.58,51.43,71.61,81,4.87,7.19,3.86,16.79.21,24.65-5.32,11.45-9.37,23.8-18.54,33.1-44.86,45.5-78.79,100.1-122.16,146.84-34,36.64-68.26,73.15-108.19,103.37-12.25,9.27-22.97,25.23-42.35,20.73-.13.15-.24.3-.37.45-.13.1-.28.22-.41.32,1.36,3.14-.54,3.8-4.58,3.63,1.93-1.53,3.27-2.59,4.58-3.63-.14-.33-.28-.66-.5-1.04.44.12.85.17,1.28.27,44.19-50.56,74.09-109.68,103.21-169.55,24.04-49.42,47.75-99.06,77.8-145.44ZM890.69,675.9c-6.08,43.08-8.52,86.22-10.99,129.58-4.02,70.82-16.44,140.72-33.01,209.69-4.4,18.32-12.53,35.95-25.21,51.87-76.61,15.55-153.32,8.2-229.78-5.51-13.46-2.41-25.77-9.21-36.2-18.15-6.34-20.43-2.91-40.81-.67-60.55,7.4-65.19,14.14-130.61,25.65-195.13,10.33-57.93,26.6-114.8,40.37-172.1.14-.59,1.74-.84,2.73-1.23-1.38-12.07,5.09-17.88,16.18-18.86,11.64-1.03,23.39-1.94,35.03-1.47,43.42,1.76,86.89,3.09,130.17,6.64,25.42,2.08,49.07,13.39,70.5,26.25,16.99,10.2,17.65,31.76,15.22,48.97ZM893.49,1061.32c18.33-39.54,20.33-82.38,27.22-124.27,5.15-31.33,8.78-62.93,14.41-94.17,6.19-34.35,13.6-68.49,21.01-102.61,7-32.25,8.87-64.79,4.83-101.33,42.17,4.08,67.62,29.27,92.3,53.24,15.25,14.81,9.51,37.83,2.3,54.57-43.52,100.99-81.25,204.74-138.42,299.39-4.52,7.48-7.21,18.98-23.64,15.17ZM906.67,1226.05c44.6-8.47,75.21-39.2,107.03-66.86,23.17-20.14,43.47-43.72,64.11-66.61,37.81-41.95,77.86-81.62,119.28-119.94,20.32-18.8,39.71-38.38,55.37-62.84,25.14,21.8,32.3,52.2,40.6,80.59,5.84,19.98-10.27,35.73-24.32,48.83-7.63,7.11-17.76,11.46-26.39,17.58-21.6,15.34-42.58,31.43-63.33,47.98-63.86,50.92-130.16,98.52-205.61,131.56-13.63,5.97-27.27,11.69-42.72,11.17-9.31-5.24-17.92-11.17-24.02-21.47ZM1330.16,1198.16c-10.08,7.82-20.16,15.77-32.45,19.76-48.55,15.77-91.9,42.9-138.4,63.21-46.61,20.37-94.09,38.17-142.35,53.85-27.41,8.9-56.02,11.56-86.2,8.43-7.32-7.62-13.46-13.48-13.45-22.85,53.45-15.01,102.48-36.7,148.89-67.93,56.11-37.76,111.54-77.2,172.2-108.07,30.22-15.38,58.53-34.08,83.97-56.75,18.57,25.82,16.34,55.57,21.82,83.09,1.93,9.73-5.05,20.28-14.04,27.26Z"/>
  <path class="cls-2" d="M785.69,751.01c-27.12-5.11-45.78,12.06-65.86,24.49-13.68-5.62-18.9-20.72-32.89-26.17h-36.6c-28.08,22.14-35.25,49.45-18.43,77.74,16.61,27.92,35.9,54.24,53.03,81.87,7.31,11.79,16.07,18.85,31.37,18.81,50.12-37.26,93.14-79.97,100.01-145.99-9.59-13.69-18.69-23.89-30.62-30.76Z"/>
  <path class="cls-4" d="M796.42,1005.47h-48.15c-11.82,22.82-11.9,30.39-1.6,41.58,11.09,12.03,29.41,17.2,42.53,12,11.39-4.52,25.54-22.63,25.74-35.52-3.31-6.63-9.24-13.53-18.52-18.05Z"/>
  <path class="cls-1" d="M625.57,642.17c6.01,13.19,11.36,27.68,28.96,29.97,12.47,1.62,23.53-1.24,30.05-12.57,4.54-7.89,10.8-15.74,8.11-27.92-20.5-12.57-44.54-15.56-68.95-17.21,4.57,9.03-2.11,19.06,1.83,27.72Z"/>
  <path class="cls-1" d="M623.69,614.33l-.11.11c.05,0,.1,0,.15.01-.02-.04-.02-.08-.05-.12Z"/>
  <path class="cls-4" d="M1261.34,1027.23c7.89-6.14,10.46-15.24,13.8-23.91-9.26-11.8-18.28-23.31-27.07-34.51q-23.96-.66-35.41,26.7,17.25,35.76,48.69,31.73Z"/>
  <path class="cls-4" d="M1258.83,1164.51c1.86,6.85,3.38,12.92,5.18,18.91,2.25,7.49,7.84,12.38,15.72,18.54,13.56.87,26.63,2.96,34.37-11.12,2.6-18.82-1.51-35.58-14.07-49.42q-30.06-3.38-41.21,23.09Z"/>
  <path class="cls-1" d="M1138.01,862.71c21.1,5.21,34.69-.86,41.94-20.13-4.4-19.38-21.03-23.2-30.46-33.92-4.43-5.03-16.23-4.33-23.93.48-12.38,7.73-9.53,19.86-7.8,34.37,6.08,5.76,13.75,13.03,20.25,19.2Z"/>
  <path class="cls-5" d="M996.54,742.12c8.23,1.34,16.84.25,24.01.25,3.07-1.96,5.17-2.8,6.6-4.29,19.62-20.37,18.1-28.3-7.35-40.59-3.7-1.79-7.09-4.41-10.28-7.06-10.35-8.57-21.91-8.51-32.03-1.6-11.63,7.93-8.61,20.64-5.55,31.86,3.33,12.18,12.48,19.46,24.61,21.43Z"/>
</svg>