<?xml version="1.0" encoding="UTF-8"?>
<svg id="Layer_1" data-name="Layer 1" xmlns="http://www.w3.org/2000/svg" version="1.1" viewBox="0 0 1920 1920">
  <defs>
    <style>
      .cls-1 {
        fill: #0d0d0d;
      }

      .cls-1, .cls-2, .cls-3, .cls-4, .cls-5, .cls-6, .cls-7, .cls-8 {
        stroke-width: 0px;
      }

      .cls-2 {
        fill: #f7f7f7;
      }

      .cls-3 {
        fill: #fbfbfb;
      }

      .cls-4 {
        fill: #0f0f0f;
      }

      .cls-5 {
        fill: #070707;
      }

      .cls-6 {
        fill: #060606;
      }

      .cls-7 {
        fill: #121212;
      }

      .cls-8 {
        fill: #111;
      }
    </style>
  </defs>
  <path class="cls-6" d="M758.59,1150.41c-55.45,7.34-102.25-18.44-152.19-28.86-25.39-5.3-51.02-9.22-73.51-25.71-12.43-9.11-17.72-19.09-21.99-32.47-8.88-27.89-5.91-56.55-7.37-84.9-2.67-52.04,6.52-103.49,8.5-155.35,2.41-63.05,7.55-125.98,22.97-187.6,2.54-10.15,1.15-21.23,2.37-31.79,5.61-48.33,39.16-101.88,110.46-85.15,26.65,6.25,53.91,9.75,81.74,8.2,21.07-1.18,40.9-1.85,61.26-11.4,30.51-14.31,62.4-7.98,89.77,10.56,18.67,12.64,37.72,21.85,59.74,25.96,17.53,3.28,34.19,9.24,49.94,18.13,7.02,3.96,14.37,8.12,23.6,7.82,25.98-.85,48.22,10.31,64.25,29.19,20.96,24.68,49,39.43,73.33,59.26,42.03,34.25,79.62,72.99,113.16,115.6,3.86,4.91,8.69,11.22,8.53,16.75-.71,23.58,14.63,39.01,26.74,55.82,22.28,30.92,37.32,65.98,57.23,98.26,8.7,14.11,14.01,30.61,12.62,48.25-.76,9.58,2.13,18.27,5.5,27.56,12.92,35.64,23.66,72.06,35.71,108.03,12.53,37.38,5.24,69.84-19.71,100.43-24.51,30.05-56.76,46.91-91.52,60.39-16.64,6.45-33.73,12.04-50.99,16.57-46.9,12.31-90.68,33.12-136.24,48.97-38.59,13.42-75.5,31.93-116.09,39.44-17.41,3.22-34.71,7.45-52.26,9.51-25.29,2.98-46.29-4.97-66.09-22.62-36.55-32.59-62.92-70.96-76.53-117.71-5.54-19.02-9.78-38.49-14.64-57.72-5.59-22.1-16.74-40.79-28.28-63.39ZM911.23,1151.42c20.21,5.54,31.09-10.99,43.61-20.47,39.92-30.23,74.17-66.77,108.15-103.43,43.36-46.77,77.27-101.39,122.11-146.92,9.17-9.31,13.22-21.66,18.54-33.12,3.65-7.86,4.61-17.42-.2-24.67-19.79-29.79-37.32-61.81-71.4-80.96-8.51,37.88-24.02,71.46-43.78,102.74-27.8,43.99-49.87,90.92-72.63,137.44-29.35,59.96-59.11,119.42-103.51,170.1-1.41,1.16-2.83,2.32-4.31,3.55,4.5,1.17,5.32-.46,3.41-4.26ZM822.04,1066.86c25.56-32.83,29.58-73.57,38.41-112.47,20.99-92.45,17.09-187.73,31.05-281.05,2.67-17.85-.2-38.88-17.86-48.16-22.15-11.63-45.46-23.06-71.3-24.74-39.15-2.54-78.36-4.42-117.56-6.12-18-.78-36.15-2.03-53.59,3.26-32.21,51.69-87.33,386.34-73.83,447.36,46.02,29.7,160.33,39.23,264.66,21.91ZM1322.24,1087.12c-22.05,20.51-44.83,35.78-69.11,49.03-70.8,38.6-137.08,84.38-204.19,128.87-39.05,25.88-81.67,43.95-127.73,53.51-1.42.3-2.35,2.98-4.48,5.88,3.81,6.65,7.03,14.34,15.45,19.58,29.19,3.07,58.57-.23,87.12-9.37,46.34-14.84,92.03-31.49,136.66-51.04,49.36-21.63,95.79-49.53,146.85-67.57,9.71-3.43,18.14-10.82,26.72-17.01,10.14-7.31,17.25-18.9,15.01-30.08-5.36-26.69-3.92-55.43-22.29-81.8ZM930.94,1248.34c5.69-.85,12.07-1.22,18.13-2.82,35.23-9.29,66.65-26.78,96.75-46.66,51.32-33.89,104.1-65.56,150-107.37,20.22-18.42,44.88-31.9,67.29-47.96,17.92-12.84,35.17-30.2,29.89-52.13-6.96-28.91-14.5-59.72-40.08-81.44-15.27,22.59-32.94,42.28-52.83,60.05-55.65,49.69-106.23,104.51-156.81,159.13-27,29.16-56.45,54.41-88.54,77.16-14.32,10.15-29.3,18.84-48.78,17.97,6.22,12.25,15.46,17.59,24.99,24.06ZM965.51,639.49c-1.73,3.62-3.48,5.51-3.33,7.23,3.43,37.45-1.51,73.79-10.18,110.38-11.71,49.42-19.87,99.63-27.04,150.01-7.37,51.79-9.39,104.77-31.24,154,16.78,5.45,19.37-7.87,24.24-15.95,56.58-93.8,94.07-196.53,137.3-296.54,14.13-32.7,6.98-50.96-21.94-73.97-5.83-4.64-11.23-9.82-17.13-14.35-15.18-11.67-32.09-18.84-50.68-20.81Z"/>
  <path class="cls-3" d="M822.04,1066.86c-104.33,17.32-218.64,7.79-264.66-21.91-13.51-61.02,41.61-395.68,73.83-447.36,17.44-5.29,35.59-4.04,53.59-3.26,39.2,1.7,78.4,3.57,117.56,6.12,25.84,1.68,49.15,13.11,71.3,24.74,17.66,9.27,20.53,30.3,17.86,48.16-13.96,93.31-10.06,188.6-31.05,281.05-8.83,38.9-12.85,79.65-38.41,112.47ZM740.31,889.22c8.64,4.55,17.04,7.42,26.12,8.48,37.12,4.33,51.56-24.92,43.94-54.14-9.21-35.29-30.59-62.05-56.68-85.6-8.92-8.05-20.04-10.56-32.4-4.49-16.07,7.89-33.22,13.58-49.18,21.66-19.86,10.05-39.1,21.16-48.8,43.26-14.06,32.03,5.45,61.31,39.94,60,8.22-.31,15.53-3.5,26.48-7.69-4.17,13.18-6.81,22.97-10.39,32.4-3.62,9.52.34,17.01,6.42,22.86,14.78,14.23,35.31,12.71,51.58-1.81,5.91-11.19-2.47-21.91,2.98-34.91ZM764.91,1044.11c12.18-7.82,24.37-5.69,35.58-2.73,14.15-20.99,13.92-28.56-.22-41.47-11.64-10.62-25.9-11.64-36.95-2.64-14.33,11.67-14.58,23.53,1.59,46.83ZM671.47,616.38c-15.59-2.13-29.49.83-38.29,15.17-5.44,8.87-1.15,16.1,8.58,22.78,10.8-.3,23.49,2.27,35.72-2.09,4.9-1.75,7.96-6.58,9.14-11.98-2.57-8.24-5.07-16.34-15.15-23.88Z"/>
  <path class="cls-2" d="M1322.24,1087.12c18.36,26.37,16.93,55.1,22.29,81.8,2.24,11.18-4.87,22.77-15.01,30.08-8.58,6.18-17.01,13.58-26.72,17.01-51.06,18.03-97.49,45.94-146.85,67.57-44.63,19.56-90.32,36.21-136.66,51.04-28.55,9.14-57.94,12.43-87.12,9.37-8.42-5.23-11.64-12.93-15.45-19.58,2.13-2.9,3.06-5.58,4.48-5.88,46.06-9.56,88.68-27.63,127.73-53.51,67.11-44.49,133.4-90.27,204.19-128.87,24.29-13.24,47.07-28.52,69.11-49.03ZM1287.87,1182.17c23.88,2.56,35.69-2.46,39.1-16.08,3.71-14.83-4.19-24.44-30.77-37.44-13.87,2.22-21.96,10.32-24.59,25.13,5.26,9.18,10.9,19.04,16.26,28.4Z"/>
  <path class="cls-2" d="M930.94,1248.34c-9.53-6.47-18.77-11.81-24.99-24.06,19.48.88,34.46-7.82,48.78-17.97,32.09-22.75,61.54-48,88.54-77.16,50.58-54.62,101.16-109.44,156.81-159.13,19.9-17.77,37.56-37.46,52.83-60.05,25.59,21.72,33.13,52.53,40.08,81.44,5.28,21.92-11.97,39.29-29.89,52.13-22.41,16.05-47.07,29.54-67.29,47.96-45.9,41.81-98.67,73.48-150,107.37-30.1,19.87-61.52,37.36-96.75,46.66-6.06,1.6-12.44,1.97-18.13,2.82ZM1240.08,1017.5c32.87-.61,35.47-5.9,26.61-50.25-14.21-14.39-29.23-13.15-44.17-2.81-6.72,10.68-7.43,20.76-4.86,27.11,9.66,11.18,16.54,19.14,22.42,25.95Z"/>
  <path class="cls-2" d="M912.13,1152.14c44.39-50.68,74.16-110.14,103.51-170.1,22.77-46.52,44.84-93.45,72.63-137.44,19.76-31.27,35.27-64.86,43.78-102.74,34.07,19.15,51.61,51.17,71.4,80.96,4.81,7.24,3.85,16.81.2,24.67-5.32,11.46-9.37,23.81-18.54,33.12-44.85,45.52-78.76,100.15-122.11,146.92-33.99,36.66-68.23,73.2-108.15,103.43-12.52,9.48-23.41,26.01-43.61,20.47l.9.72ZM1123.43,830.53c6.91,18.89,22.09,25.53,39.2,26.37,16.09.78,19.15-13.11,22.66-27.05-10.48-10.7-13.56-31.74-35.48-29.02-16.67,2.07-24.44,14.05-26.39,29.7Z"/>
  <path class="cls-2" d="M965.51,639.49c18.59,1.96,35.5,9.14,50.68,20.81,5.9,4.54,11.3,9.72,17.13,14.35,28.92,23.01,36.08,41.27,21.94,73.97-43.23,100.01-80.72,202.74-137.3,296.54-4.87,8.08-7.46,21.4-24.24,15.95,21.85-49.23,23.86-102.21,31.24-154,7.17-50.39,15.33-100.59,27.04-150.01,8.67-36.6,13.6-72.94,10.18-110.38-.16-1.71,1.6-3.6,3.33-7.23ZM990.31,724.36c7.7,5.89,14.49,13.39,22.93,16.94,9.73,4.09,21.2,4.52,28.58-5.98,6.63-9.44,6.74-19.8.71-29.72-5.3-8.72-25.7-16.59-36.65-13.84-15.42,3.86-19.16,14.74-15.56,32.6Z"/>
  <path class="cls-2" d="M911.23,1151.42c1.91,3.8,1.09,5.43-3.41,4.26,1.49-1.22,2.9-2.38,4.31-3.55l-.9-.72Z"/>
  <path class="cls-5" d="M740.31,889.22c-5.45,13,2.93,23.72-2.98,34.91-16.26,14.53-36.79,16.04-51.58,1.81-6.08-5.85-10.04-13.34-6.42-22.86,3.58-9.43,6.22-19.22,10.39-32.4-10.95,4.19-18.25,7.38-26.48,7.69-34.49,1.31-54-27.97-39.94-60,9.7-22.1,28.94-33.22,48.8-43.26,15.96-8.08,33.11-13.77,49.18-21.66,12.37-6.07,23.49-3.56,32.4,4.49,26.09,23.56,47.47,50.31,56.68,85.6,7.62,29.22-6.82,58.47-43.94,54.14-9.08-1.06-17.48-3.93-26.12-8.48Z"/>
  <path class="cls-4" d="M764.91,1044.11c-16.17-23.3-15.91-35.17-1.59-46.83,11.05-9,25.31-7.98,36.95,2.64,14.14,12.91,14.36,20.47.22,41.47-11.21-2.96-23.4-5.09-35.58,2.73Z"/>
  <path class="cls-7" d="M671.47,616.38c10.09,7.55,12.58,15.64,15.15,23.88-1.18,5.4-4.24,10.23-9.14,11.98-12.23,4.36-24.92,1.79-35.72,2.09-9.73-6.68-14.02-13.91-8.58-22.78,8.8-14.34,22.69-17.3,38.29-15.17Z"/>
  <path class="cls-1" d="M1287.87,1182.17c-5.36-9.36-11-19.21-16.26-28.4,2.63-14.81,10.72-22.9,24.59-25.13,26.58,13,34.48,22.62,30.77,37.44-3.41,13.63-15.22,18.64-39.1,16.08Z"/>
  <path class="cls-1" d="M1240.08,1017.5c-5.88-6.81-12.76-14.77-22.42-25.95-2.57-6.35-1.86-16.43,4.86-27.11,14.94-10.34,29.96-11.58,44.17,2.81,8.86,44.35,6.26,49.63-26.61,50.25Z"/>
  <path class="cls-8" d="M1123.43,830.53c1.95-15.65,9.72-27.62,26.39-29.7,21.92-2.73,25,18.31,35.48,29.02-3.51,13.94-6.57,27.83-22.66,27.05-17.11-.83-32.3-7.48-39.2-26.37Z"/>
  <path class="cls-8" d="M990.31,724.36c-3.6-17.86.14-28.74,15.56-32.6,10.95-2.74,31.35,5.13,36.65,13.84,6.03,9.91,5.92,20.27-.71,29.72-7.37,10.5-18.85,10.07-28.58,5.98-8.44-3.55-15.23-11.05-22.93-16.94Z"/>
</svg>