<?xml version="1.0" encoding="UTF-8"?>
<svg id="Layer_1" data-name="Layer 1" xmlns="http://www.w3.org/2000/svg" version="1.1" viewBox="0 0 1920 1920">
  <defs>
    <style>
      .cls-1 {
        fill: #b6835f;
      }

      .cls-1, .cls-2, .cls-3, .cls-4, .cls-5, .cls-6, .cls-7, .cls-8, .cls-9 {
        stroke-width: 0px;
      }

      .cls-2 {
        fill: #b5815e;
      }

      .cls-3 {
        fill: #8a3624;
      }

      .cls-4 {
        fill: #060606;
      }

      .cls-5 {
        fill: #060605;
      }

      .cls-6 {
        fill: #d7cfbc;
      }

      .cls-7 {
        fill: #8c3725;
      }

      .cls-8 {
        fill: #8e3a28;
      }

      .cls-9 {
        fill: #d4cebb;
      }
    </style>
  </defs>
  <path class="cls-5" d="M378.08,809.83c2.3-6.76,1.67-12.52,1.69-18.2.04-14.47-.64-28.96.08-43.39.56-11.19,2.37-22.38,4.44-33.43,1.23-6.6,6.42-10.96,12.24-15.08,5.88-.12,12.04-.56,18.51,1.02,5.29,1.29,11.02-1.32,16.74-1.2,17.43.36,29.03,9.62,33.55,26.3,2.43,8.96,3.13,17.96,2.22,26.95-1.36,13.44,1.16,26.39,3.34,39.44,1.11,6.63,2.53,13.2,4.01,20.79,11.38,7.25,20.38,17.77,28.37,29.48,11.14,16.32,17.11,34.37,18.8,53.72.68,7.75-.63,15.84-2.14,23.56-2.47,12.63-2.14,25.46-3.64,38.16-2.3,19.41-3.59,38.89-8.95,57.85-1.19,4.23-.68,9.12-.18,13.62,2.08,18.83,1.24,37.59.21,56.47-.85,15.51-1.88,30.95-5.33,46.02-2.18,9.5-2.33,19.4-5.94,28.57-.94,2.38.4,4.28.89,6.46,3.79,16.84-7.88,34.98-24.91,38.36-3.2.64-5.49,2.4-8.18,3.6-31.44,14.05-63.11,15.54-95.5,3.07-10.4-4.01-20.78-7.96-32.32-9.23-10.9-1.19-20.81-6.76-27.91-17.76.53-20.45-1.45-41.98,2.16-63.49,2.18-12.97,3.09-26.16,4.57-39.25.55-4.86,1.37-9.64,2.63-14.41,1.63-6.16,2.77-12.46,2.79-18.97.03-8.65-.29-17.3,1.31-25.96,2.09-11.31-1.33-22.56-1.52-33.87-.27-15.59-.76-31.2-.16-46.77.34-8.94,2.48-17.83,4.1-26.69,3.12-17.02,5.69-34.12,6.82-51.38,1.06-16.29,9.03-28.72,21.53-38.14,8.01-6.04,15.71-12.82,25.68-16.22ZM347.38,903.91c-2.3,15.44-1.14,29.89.1,44.15.92,10.59,2.06,20.91-.58,31.37-2.24,8.86-2.68,17.91-2.58,27.04.07,6.05.09,12.2-.91,18.13-1.82,10.87-.58,21.67-1.15,32.14,10.95,4.81,21.93,5.74,32.61,7.85,7.75,1.53,15.28,3.96,23.29,4.43,17.52,1.03,34.73-2.17,52.07-3.44,5.74-.42,11.21-.7,16.47,1.24,3.55-1.77,6.88-3.44,10.64-5.32-.65-14.91,1.89-29.44,5.07-43.76,3.72-16.77,5.5-33.64,4.49-50.69-1.1-18.56,1.67-36.78,3.62-55.6-10.89-1.23-21.72-2.58-31.82-6.57-11.47-4.53-22.94-3.91-34.62-1.68-6.64,1.27-13.14,4.14-20.03,3.04-18.49-2.96-37.09-2.12-56.67-2.34ZM467.9,1082.01c-3.28,3.68-7.53,4.28-10.76,4.77-5.79.88-11.67,5.09-17.51,2.15-9.26-4.65-19.01-3.8-28.75-4.04-3.34-.08-6.56-.4-9.95-1.26-9.7-2.43-19.65-4.07-29.59-5.29-5.55-.69-11.07-.97-16.63-2.15-5.41-1.14-10.16-4.45-16.44-4.47-.66,7.04-2.53,13.74-3.21,20.87-.74,7.75-.69,15.82-2.66,23.27-2.93,11.05-3.99,22.06-3.77,33.35.12,6.02,3.45,11.57,2.33,17.75-.43,2.38.29,4.5,2.15,5.91,2.41,2.07,5.34.78,7.79,1.69,19.48,7.22,39.67,12.12,59.45,18.33,2.91.91,5.6,1.95,8.66,1.94,8.37-.04,16.89.92,25.09-.28,13.36-1.96,26.1-5.86,34.27-18.3,3.93-5.98,9.16-10.97,15.94-15.15-1.02-3.28,1.37-7.1-1.83-10.45-9.8-10.27-8.71-23.4-6.81-35.36,1.56-9.84.86-19.37,1.76-28.76-3.05-2.08-6.51-1.33-9.51-4.51ZM490.58,882.76c-1.85-8.97-3.28-17.89-9.08-25.82-8.14-11.15-17.57-20.65-29.32-27.79-6.44-3.91-9.33-9.3-9.25-16.78.18-17.89-.43-35.8.35-53.66.4-9.19-.47-18.15-.6-28.06-13.04-5.33-25.38-12.06-40.81-11.1.11,7.53-1.72,14.18-1.97,20.68-.77,20.66-1.29,41.4,4.28,61.75,4.33,15.85,1.96,19.96-12.63,27.53-8.28,4.3-17.05,7.73-24.58,13.41-8.33,6.28-14.97,14.13-17.2,24.3-1.41,6.44-.26,13.45-.26,20.84,9.83,1.17,19.63,1.59,29.16,2.21,15.71,1.04,31.57.66,47.53-1.05,16.77-1.79,33.77-4.41,50.85-3.1,2.65.2,5.34-.03,8,.12,2.7.15,4.13-1.52,5.54-3.48Z"/>
  <path class="cls-4" d="M1490.55,794.71c6.31-14.05,17.65-15.87,28.39-17.15,7.65-.91,15.86-1.89,23.52,1.48,1.01.44,2.27.63,3.36.5,13.38-1.54,26.2,2.3,39.25,3.96,2.6.33,5.21.73,7.74,1.39,11.24,2.93,15.9,11.34,15.75,21.87-.17,11.97,3.82,23.67,1.36,35.81-.76,3.75,1.89,7.91,1.97,12.15.32,17.96-2.03,35.32-10.5,51.5-2.08,3.98-3.21,8.45-5.27,12.43-4.17,8.05-13.44,11.32-20.9,6.38-4.67-3.09-9.19-3.23-14.04-3.04-17.53.7-34.33-2.6-50.94-7.97-8.18-2.64-12.66-8.02-14.52-15.74-2.76-11.42-3.77-23.01-1.04-34.66.88-3.75,1.21-7.62.07-11.29-2.36-7.61-2.59-15.49-3.81-23.24-1.89-12.03,1.64-23.81-.38-34.37ZM1512.88,803.3c-2.77,3.73-2.46,7.9-2.19,12.07.25,3.79.94,7.63.62,11.38-1.79,20.98,2.87,41.46,4.44,62.18.33,4.4,2.91,7.07,6.6,8.47,3.86,1.46,7.83,2.53,12.13,2.75,6.02.31,12.28.73,17.9,2.68,5.33,1.85,10.28,1.57,14.44,1.46,21.45-31.26,30.26-65.08,29.25-101.61-28.21-5.47-55.25-4.77-83.19.63Z"/>
  <path class="cls-6" d="M347.38,903.91c19.58.22,38.18-.62,56.67,2.34,6.89,1.1,13.39-1.77,20.03-3.04,11.68-2.24,23.15-2.85,34.62,1.68,10.1,3.99,20.93,5.34,31.82,6.57-1.96,18.81-4.72,37.04-3.62,55.6,1.01,17.05-.78,33.92-4.49,50.69-3.17,14.32-5.71,28.86-5.07,43.76-3.76,1.88-7.09,3.55-10.64,5.32-5.26-1.94-10.73-1.66-16.47-1.24-17.34,1.27-34.55,4.47-52.07,3.44-8.01-.47-15.54-2.91-23.29-4.43-10.68-2.1-21.66-3.04-32.61-7.85.58-10.47-.67-21.27,1.15-32.14.99-5.93.98-12.08.91-18.13-.1-9.13.34-18.18,2.58-27.04,2.64-10.46,1.5-20.78.58-31.37-1.24-14.26-2.4-28.71-.1-44.15ZM463.19,940.31c-10.85-15.76-28.01-19.3-44.83-21.61-11.72-1.61-23.77,2.84-35.89,1.95-2.01-.15-4.42,1.04-6.16,2.29-5.44,3.91-11.81,6.78-15.43,12.89v10.85c7.39,7.1,7.72,6.97,15.75,3.56,5.44-2.31,10.34-5.54,16.28-7.15,10.09-2.75,20.17-1.85,30.28-2.09,7.78-.18,14.69,2,19.99,8.16,1.71,1.99,3.82,3.65,5.66,5.39,3.58-.06,7,1.09,10.38-1.17,3.05-3.72,5.21-7.9,3.97-13.07ZM406.39,1011.96c2.24,0,3.76-.08,5.27.01,8.89.56,14.7-3.41,18.8-11.31,5.03-9.7,3.77-19.57,2.34-29.59-.98-6.86-5.58-11.54-10.72-15.2-5.33-3.8-11.41-5.13-17.82-1.19-11.08,6.82-15.59,17.56-18.35,29.43-.43,1.85.74,3.58,1.18,5.35,2.67,10.6,10,17.08,19.29,22.5ZM365.29,1015.93c-.14,13.11,3.47,20.08,13.68,25.7,21.05,11.6,42.42,13.6,63.9,1.15,9.39-5.45,14.31-13.59,13.89-24.37-4.64-4.26-9.54-5.16-14.72-3.91-3.11,2.2-4.93,4.87-6.65,7.92-1.59,2.83-4.15,4.74-7.9,5.75-11.8,3.2-22.74,4.29-32.38-5.46-2.26-2.28-5.44-3.86-8.05-6.03-6.72-5.61-13.87-7.12-21.75-.75Z"/>
  <path class="cls-7" d="M467.9,1082.01c3,3.18,6.45,2.43,9.51,4.51-.9,9.4-.21,18.92-1.76,28.76-1.9,11.97-2.99,25.09,6.81,35.36,3.2,3.36.81,7.17,1.83,10.45-6.78,4.19-12.02,9.17-15.94,15.15-8.16,12.44-20.9,16.33-34.27,18.3-8.2,1.21-16.71.24-25.09.28-3.05.01-5.75-1.03-8.66-1.94-19.78-6.21-39.97-11.11-59.45-18.33-2.45-.91-5.38.39-7.79-1.69-1.86-1.41-2.58-3.53-2.15-5.91,1.12-6.18-2.21-11.73-2.33-17.75-.22-11.3.85-22.31,3.77-33.35,1.97-7.45,1.93-15.52,2.66-23.27.68-7.13,2.56-13.84,3.21-20.87,6.28.02,11.03,3.33,16.44,4.47,5.57,1.18,11.08,1.46,16.63,2.15,9.94,1.23,19.89,2.86,29.59,5.29,3.39.85,6.61,1.17,9.95,1.26,9.74.24,19.49-.61,28.75,4.04,5.85,2.94,11.73-1.27,17.51-2.15,3.23-.49,7.48-1.09,10.76-4.77Z"/>
  <path class="cls-3" d="M490.58,882.76c-1.41,1.97-2.84,3.63-5.54,3.48-2.66-.15-5.34.08-8-.12-17.08-1.31-34.08,1.31-50.85,3.1-15.96,1.71-31.82,2.08-47.53,1.05-9.53-.63-19.33-1.05-29.16-2.21,0-7.39-1.15-14.39.26-20.84,2.23-10.17,8.87-18.02,17.2-24.3,7.53-5.68,16.3-9.11,24.58-13.41,14.59-7.57,16.96-11.68,12.63-27.53-5.56-20.34-5.05-41.08-4.28-61.75.24-6.5,2.08-13.15,1.97-20.68,15.43-.96,27.77,5.77,40.81,11.1.13,9.91,1,18.88.6,28.06-.78,17.86-.17,35.77-.35,53.66-.08,7.48,2.82,12.87,9.25,16.78,11.75,7.14,21.18,16.64,29.32,27.79,5.8,7.94,7.23,16.85,9.08,25.82Z"/>
  <path class="cls-9" d="M1512.88,803.3c27.94-5.4,54.98-6.1,83.19-.63,1,36.53-7.81,70.35-29.25,101.61-4.16.1-9.11.39-14.44-1.46-5.61-1.95-11.88-2.36-17.9-2.68-4.29-.22-8.27-1.29-12.13-2.75-3.69-1.39-6.27-4.06-6.6-8.47-1.57-20.72-6.23-41.2-4.44-62.18.32-3.75-.37-7.58-.62-11.38-.27-4.17-.58-8.34,2.19-12.07ZM1529.19,835.95c-8.03,7.59-10.81,17.65-7.78,28.99,1.91,7.15,4.44,14.14,7.02,22.25,11.39,5.49,24.17,4.16,35.53,5.95,5.84-4.4,6.54-9.54,6.64-14.95.11-5.63-.17-11.38,2.37-16.6,3.14-6.46,2.42-13.11,2.16-19.3-4.04-5.26-8.98-6.41-14.53-6.37-10.24.09-20.49.03-31.41.03Z"/>
  <path class="cls-1" d="M463.19,940.31c1.25,5.17-.91,9.35-3.97,13.07-3.38,2.26-6.81,1.11-10.38,1.17-1.84-1.73-3.95-3.39-5.66-5.39-5.3-6.17-12.21-8.35-19.99-8.16-10.1.24-20.19-.66-30.28,2.09-5.93,1.62-10.83,4.84-16.28,7.15-8.03,3.41-8.36,3.54-15.75-3.56,0-3.4,0-7.13,0-10.85,3.62-6.11,9.98-8.98,15.42-12.89,1.74-1.25,4.16-2.44,6.16-2.29,12.11.89,24.17-3.56,35.89-1.95,16.82,2.31,33.98,5.85,44.83,21.61Z"/>
  <path class="cls-2" d="M406.39,1011.96c-9.28-5.43-16.61-11.9-19.29-22.5-.45-1.78-1.61-3.5-1.18-5.35,2.76-11.87,7.27-22.61,18.35-29.43,6.4-3.94,12.49-2.6,17.82,1.19,5.14,3.66,9.74,8.34,10.72,15.2,1.43,10.02,2.69,19.89-2.34,29.59-4.1,7.9-9.91,11.87-18.8,11.31-1.51-.1-3.03-.01-5.27-.01Z"/>
  <path class="cls-2" d="M365.29,1015.93c7.89-6.37,15.03-4.85,21.75.75,2.61,2.17,5.79,3.75,8.05,6.03,9.65,9.75,20.58,8.66,32.38,5.46,3.75-1.02,6.31-2.92,7.9-5.75,1.71-3.04,3.54-5.72,6.65-7.92,5.18-1.25,10.08-.35,14.72,3.91.43,10.79-4.49,18.92-13.89,24.37-21.47,12.45-42.85,10.46-63.9-1.15-10.2-5.62-13.81-12.59-13.68-25.7Z"/>
  <path class="cls-8" d="M1529.19,835.95c10.92,0,21.17.06,31.41-.03,5.55-.05,10.48,1.11,14.53,6.37.26,6.19.98,12.84-2.16,19.3-2.54,5.22-2.26,10.97-2.37,16.6-.11,5.41-.8,10.55-6.64,14.95-11.36-1.79-24.14-.45-35.53-5.95-2.58-8.11-5.11-15.09-7.02-22.25-3.03-11.34-.25-21.4,7.78-28.99Z"/>
</svg>