<?xml version="1.0" encoding="UTF-8"?>
<svg id="Layer_1" data-name="Layer 1" xmlns="http://www.w3.org/2000/svg" version="1.1" viewBox="0 0 1920 1920">
  <defs>
    <style>
      .cls-1 {
        fill: #c8c2b0;
      }

      .cls-1, .cls-2, .cls-3, .cls-4, .cls-5, .cls-6 {
        stroke-width: 0px;
      }

      .cls-2 {
        fill: #7e6b65;
      }

      .cls-3 {
        fill: #d4cebc;
      }

      .cls-4 {
        fill: #e24638;
      }

      .cls-5 {
        fill: #080403;
      }

      .cls-6 {
        fill: #050404;
      }
    </style>
  </defs>
  <path class="cls-6" d="M1099.98,1102.52c-23.37-1.28-43.52-9.08-62.78-19.9-22.26-12.51-37.47-29.71-42.01-55.8-3.36-19.29-11.04-37.38-18.55-55.41-1.73-4.15-2.62-9-10.09-11.45-3.87-.77-6.91,4.45-11,7.49-37.36,27.75-79.85,45.81-122.49,62.99-29.86,12.03-59.87,24.52-92.48,28.49-32.78,4-66.54,2.84-95.02-11.41-36.76-18.4-67.28-45.12-69.36-93.41-1.18-27.29-2.61-54.62-1.84-81.83.94-33.39,17.92-60.47,40.73-83.67,13.32-13.54,26.46-27.02,38.76-41.63,16.09-19.11,37.72-32.51,58.02-47.15,32.63-23.53,70.5-34.19,108.26-44.44,49.75-13.5,97.08-33.27,144.65-52.49,47.5-19.19,94.67-39.22,142.15-58.46,20.9-8.47,40.74-19.07,63.18-24.43,48.88-11.66,91.6-.81,129.15,31.17,16.65,14.18,34.42,27.9,42.35,49.9,1.52,4.22,3.86,8,4.03,12.75,1.8,50.1-6.07,97.36-33.95,140.78-13.59,21.16-26.26,42.28-45.76,58.67-9.31,7.83-19.26,14.43-29.56,20.72-5.04,3.08-11.43,4.63-14.64,11.69,3.09,5.34,6.26,11.35,9.93,17.05,18.06,28.11,31.36,58.26,38.85,90.84,5.02,21.82.51,43.93.92,65.9.13,7.09-5.51,13.57-10.94,19.28-6.87,7.22-14.96,12.72-22.73,18.22,5.65,29.59,22.99,53.59,33.47,80.44,9.84,25.22,19.31,50.49,24.44,77.48,3.76,19.77,10.63,39.24,17.07,58.39,5.88,17.5,7.97,35.72,9.07,53.02,1.58,24.68-4.84,49.4-27.86,65.51-24.58,17.2-62.6,16.96-86.48-1.03-14.13-10.65-25.27-24.23-37.31-37.91-1.96-30.71-17.12-58.52-23.37-88.57-8.09-38.96-24.28-75.82-28.52-115.79-1.68-15.81-9.42-30.12-18.29-46.03ZM1250.6,588.6c-19.11-13.47-39.76-20.97-62.04-15.51-42.91,10.53-85.18,23.5-126.45,39.49-40.76,15.79-79.22,36.3-117.6,57-35.2,18.99-72.14,33.86-110.93,43.16-24.05,5.77-48.47,10.07-71.5,19.29-27.56,11.03-53.63,26.2-73.39,47.69-17.45,18.98-35.32,37.55-53.26,56.05-10.23,10.55-14.53,22.5-12.39,35.71,11.11,14.33,27.56,14.43,41.06,20.41,17.96,7.96,36.23,7.62,54.36-1.65,22.73-11.62,46.57-20.24,71.19-27.51,12.63-3.73,25.21-1.99,37.76-6.02,31.43-10.1,62.3-21.59,93.05-33.46,39.33-15.18,77.38-33.23,114.92-52.37,26.12-13.32,52.62-26.12,70.05-51.39,1.65-2.4,4.21-4.98,6.85-5.74,12.39-3.55,19.63-13.71,28.96-21.27,21.06-17.06,40.16-37.24,66.16-47.07,26.45-10,36.68-31.3,43.19-56.81ZM660.45,1007.95c18.01,0,37.8-.14,57.58.03,24.66.21,48.11-5.82,71.15-13.69,51.84-17.71,98.23-46.51,145.93-72.57,22.51-12.3,41.99-29.75,66.07-39.48,7.6-3.07,15.3-8.4,23.42-6.01,14.86,4.37,26.47-1.66,38.51-8.52,24.29-13.84,48.52-28.39,75.96-34.82,37.41-8.76,69.85-28.52,96.29-53.62,29.46-27.95,51.51-63.99,59.28-105.36,3.48-18.56,5.59-38.8-6.1-57.2-7.4,4.52-8.77,11.15-10.86,17.6-3.34,10.36-9.68,18.83-18.14,25.65-30.76,24.81-61.41,49.76-92.4,74.28-19.64,15.54-39.5,30.87-63.92,38.6-49.84,15.78-97.63,36.02-141.92,64.2-8.84,5.62-18.36,10.44-28.64,13.67-37.5,11.78-72.5,30.08-109.5,42.94-19.17,6.66-39.29,10.47-57.21,20.73-1.79,1.03-4.47.75-6.73.68-45.17-1.27-90.89,6.83-136.45-9.57-1.76,13.13-2.82,25.22-3.38,36.85-.76,15.69,2.47,31.91,14.51,43.83,7.5,7.43,16.33,13.51,26.53,21.79ZM1272.4,1343.75c8.64-27.48,7.01-52.93-4.12-78.17-13.83-31.36-28.86-62.26-39.25-95.05-6.31-19.92-12.58-39.77-21.61-58.79-6.35-13.38-10.78-27.8-14.92-42.08-6.42-22.14-2.01-34.63,16.84-46.17,8.59-5.26,16.12-11.04,23.91-21.43-7.39-46.66-25.6-90.9-50.4-133.09-13.84,5.06-26.45,9.57-38.96,14.34-2.05.78-3.4,2.89-2.85,6.07,4.11,4.78,8.55,9.96,11.85,13.8,3.52,23.19,9.46,44.59,4.83,65.29-7.42,9.45-15.9,6.44-22.25,5.96-20.24-10.43-21.51-30.08-26.11-46.86-2.62-9.56-5.54-16.67-14.82-22.27-6.24,4.57-11.83,10.26-19.19,12.97,2.52,5.21,4.42,8.46,5.71,11.93,6.24,16.79,15.1,32.9,13.69,51.73-.87,11.57-3.14,14.2-14.8,15.69-3.62.46-7.39-.27-10.41-.41-19.07-17.36-20.03-41.56-27.69-63.46-5.94,6.51-14.31,2.04-20.96,8.2,3.42,21.19,4.95,43.27,11.56,65.03,5.69,18.76,18.14,29.21,34.47,35.9,8.04,3.3,16.92,5.24,26.18,6.03,14.79,1.26,30.86,3.73,39.81,17.47,6.83,10.48,14.06,20.76,17.84,33.59,5.28,17.93,8.65,36.25,13.57,54.06,15.42,55.92,28.75,112.53,49.23,167,9.28,24.7,33.87,34.91,58.85,22.71Z"/>
  <path class="cls-4" d="M1250.6,588.6c-6.51,25.51-16.75,46.81-43.19,56.81-26,9.83-45.1,30.01-66.16,47.07-9.34,7.56-16.57,17.72-28.96,21.27-2.64.76-5.2,3.34-6.85,5.74-17.43,25.27-43.93,38.07-70.05,51.39-37.54,19.14-75.6,37.19-114.92,52.37-30.75,11.87-61.62,23.35-93.05,33.46-12.55,4.03-25.13,2.29-37.76,6.02-24.62,7.27-48.46,15.9-71.19,27.51-18.13,9.27-36.4,9.61-54.36,1.65-13.5-5.98-29.95-6.08-41.06-20.41-2.14-13.21,2.16-25.16,12.39-35.71,17.94-18.5,35.81-37.06,53.26-56.05,19.76-21.5,45.83-36.66,73.39-47.69,23.03-9.22,47.45-13.52,71.5-19.29,38.79-9.3,75.73-24.17,110.93-43.16,38.37-20.7,76.84-41.2,117.6-57,41.28-15.99,83.54-28.96,126.45-39.49,22.28-5.47,42.93,2.04,62.04,15.51ZM903.32,773.54c-5.95-4.9-4.92-12.25-7.56-18.57-4.59-10.98-12.63-17.61-23.84-18.25-22.3-1.27-44.76-4.23-66.97.59-4.3.93-8.2,3.48-12.97,3.68-26.2,1.1-40.33,20.15-55.04,37.97-3.29,3.99-5.59,9.1-7.29,14.06-6.79,19.73.76,33.57,20.68,39.98,11.81,3.8,22.84,4.33,35.27.78,15.05-4.29,30.7-6.98,46.89-6.45,13.36.44,25.97-3.33,38.32-10.51,16.45-9.57,24.75-23.76,32.5-43.28Z"/>
  <path class="cls-3" d="M660.45,1007.95c-10.2-8.28-19.03-14.36-26.53-21.79-12.04-11.92-15.27-28.13-14.51-43.83.56-11.63,1.63-23.73,3.38-36.85,45.56,16.4,91.28,8.3,136.45,9.57,2.26.06,4.94.34,6.73-.68,17.92-10.26,38.04-14.07,57.21-20.73,37-12.85,72-31.16,109.5-42.94,10.27-3.23,19.8-8.04,28.64-13.67,44.3-28.18,92.09-48.42,141.92-64.2,24.42-7.73,44.29-23.06,63.92-38.6,30.99-24.52,61.64-49.47,92.4-74.28,8.45-6.82,14.79-15.3,18.14-25.65,2.08-6.45,3.46-13.08,10.86-17.6,11.69,18.4,9.58,38.64,6.1,57.2-7.76,41.37-29.81,77.41-59.28,105.36-26.45,25.09-58.89,44.86-96.29,53.62-27.44,6.43-51.67,20.98-75.96,34.82-12.05,6.86-23.65,12.89-38.51,8.52-8.12-2.39-15.83,2.94-23.42,6.01-24.08,9.73-43.56,27.18-66.07,39.48-47.7,26.07-94.09,54.87-145.93,72.57-23.04,7.87-46.49,13.9-71.15,13.69-19.78-.17-39.57-.03-57.58-.03Z"/>
  <path class="cls-2" d="M1272.4,1343.75c-24.98,12.19-49.57,1.99-58.85-22.71-20.47-54.47-33.8-111.08-49.23-167-4.91-17.81-8.28-36.13-13.57-54.06-3.78-12.83-11.01-23.11-17.84-33.59-8.95-13.74-25.03-16.21-39.81-17.47-9.26-.79-18.14-2.73-26.18-6.03-16.33-6.7-28.78-17.14-34.47-35.9-6.61-21.76-8.14-43.84-11.56-65.03,6.64-6.16,15.01-1.69,20.96-8.2,7.67,21.9,8.63,46.1,27.69,63.46,3.02.15,6.79.88,10.41.41,11.66-1.49,13.93-4.13,14.8-15.69,1.42-18.83-7.45-34.94-13.69-51.73-1.29-3.48-3.2-6.73-5.71-11.93,7.36-2.7,12.95-8.4,19.19-12.97,9.29,5.6,12.21,12.71,14.82,22.27,4.59,16.78,5.87,36.43,26.11,46.86,6.36.48,14.83,3.49,22.25-5.96,4.62-20.71-1.31-42.11-4.83-65.29-3.3-3.84-7.74-9.02-11.85-13.8-.55-3.18.79-5.29,2.85-6.07,12.51-4.78,25.12-9.28,38.96-14.34,24.8,42.18,43.01,86.43,50.4,133.09-7.79,10.39-15.33,16.18-23.91,21.43-18.85,11.54-23.26,24.04-16.84,46.17,4.14,14.29,8.57,28.7,14.92,42.08,9.03,19.02,15.3,38.86,21.61,58.79,10.39,32.79,25.42,63.69,39.25,95.05,11.13,25.23,12.76,50.68,4.12,78.17Z"/>
  <path class="cls-5" d="M903.32,773.54c-7.76,19.52-16.05,33.71-32.5,43.28-12.34,7.18-24.96,10.95-38.32,10.51-16.19-.53-31.84,2.15-46.89,6.45-12.43,3.55-23.46,3.02-35.27-.78-19.93-6.4-27.47-20.24-20.68-39.98,1.7-4.96,4-10.07,7.29-14.06,14.71-17.82,28.84-36.87,55.04-37.97,4.77-.2,8.67-2.75,12.97-3.68,22.21-4.82,44.67-1.87,66.97-.59,11.21.64,19.25,7.27,23.84,18.25,2.64,6.31,1.61,13.67,7.56,18.57ZM854.91,771.38c-38.35-7.75-69.13,10.49-100.45,26.2-4.78,2.4-6.13,8.47-.09,15.67,37.85-1.77,65.78-30.51,100.54-41.87Z"/>
  <path class="cls-1" d="M854.91,771.38c-34.77,11.36-62.69,40.1-100.54,41.87-6.04-7.2-4.69-13.28.09-15.67,31.33-15.71,62.1-33.95,100.45-26.2Z"/>
</svg>