<?xml version="1.0" encoding="UTF-8"?>
<svg id="Layer_1" data-name="Layer 1" xmlns="http://www.w3.org/2000/svg" version="1.1" viewBox="0 0 1920 1920">
  <defs>
    <style>
      .cls-1 {
        fill: #b47f5b;
      }

      .cls-1, .cls-2, .cls-3 {
        stroke-width: 0px;
      }

      .cls-2 {
        fill: #000;
      }

      .cls-3 {
        fill: #8b3726;
      }
    </style>
  </defs>
  <path class="cls-2" d="M914.7,1201.85c-50.17,65.76-57.74,143.83-84.98,214.27-15.35,39.69-39.18,51.4-76,30.91-20.42-11.36-42.28-20.13-62.93-31.11-33.86-18-36.92-30.81-28.03-67.76,10.8-44.84,28.8-86.32,46.09-128.75,14.15-34.74,11.54-73.11-2.29-113.07-15.6-45.08-25.73-93.33-38.74-139.65-21.25-75.63-8.73-150.05-1.26-223.74,5.86-57.77,30.34-113.08,81.94-149.83,5.18-3.69,8.46-10.43,11.83-16.22,49.53-85.22,121.95-122.15,221.14-112.28,51.34,5.11,95.53,21.32,138.54,49.16,43.83,28.36,65.81,71.22,88.99,113.98,43.4,80.11,66,164.98,49.58,256.47-13.18,73.45-50.9,131.86-112.58,174.99-28.77,20.12-51.84,48.59-83.83,63.77-30.47,14.47-60.68,26.37-82.75,54.96-15.26,19.76-41.26,24.77-64.74,23.91Z"/>
  <path class="cls-3" d="M885.93,1137.83c-6.11-19.88-10.19-34.8-15.28-49.36-8.09-23.11-24.15-27.24-42.01-11.35-31.1,27.69-44.76,23.29-60.07-14.58-31.22-77.2-42.22-159.83-66.37-238.87-3.56-11.66-3.24-23.04,2.01-34.35,23.05-49.64,45.97-99.34,68.81-149.08,7.98-17.38,19.52-31.53,35.92-41.56,51.18-31.3,104.86-57.37,164.18-68.16,50.46-9.18,123.9,25.86,147.51,72.03,28.68,56.08,67.73,106.18,80.96,171.28,16.98,83.51-14.86,145.95-66.37,204.95-41.62,47.67-93.63,79.29-151.5,102.55-33.63,13.52-66.73,28-97.8,56.5Z"/>
  <path class="cls-1" d="M767.72,1138.02c19.74,5.17,39.75,7.68,59.76-3.77,9.91,14.3,18.62,26.87,28.32,40.86-28.59,65.05-57.42,130.65-87.1,198.2-19.28-7.75-38.31-11.27-55.72-28.53,37.45-62.85,16.97-141.18,54.75-206.76Z"/>
  <path class="cls-1" d="M868.19,617.71c21.45.42,31.77,10.87,30.53,31.19-1.32,21.67-12.8,33.88-35.31,33.94-20.83.06-29.98-11.05-29.38-31.23.68-22.74,13.08-33.29,34.16-33.9Z"/>
  <path class="cls-1" d="M981.52,759.32c-.12,25.65-10.4,36.54-32.28,35.62-21.28-.9-27.58-13.74-27.61-32.98-.03-20.62,9.69-35.95,29.29-36.29,21.88-.38,30.88,16.57,30.59,33.66Z"/>
  <path class="cls-1" d="M780.61,842.45c2.5-15.01,11.25-30.18,30.76-28.97,20.3,1.26,30.17,16.34,29.1,36.94-1,19.22-12.11,27.76-30.82,27.42-21.09-.39-29.51-12.21-29.04-35.39Z"/>
</svg>