<?xml version="1.0" encoding="UTF-8"?>
<svg id="Layer_1" data-name="Layer 1" xmlns="http://www.w3.org/2000/svg" version="1.1" viewBox="0 0 1920 1920">
  <defs>
    <style>
      .cls-1 {
        fill: #070504;
      }

      .cls-1, .cls-2, .cls-3, .cls-4 {
        stroke-width: 0px;
      }

      .cls-2 {
        fill: #493834;
      }

      .cls-3 {
        fill: #883524;
      }

      .cls-4 {
        fill: #483834;
      }
    </style>
  </defs>
  <path class="cls-1" d="M1265.63,1238.94c6.04,11.88,3.21,22.93-3.06,32.92-8.63,13.75-16.38,15.07-29.58,11.5-5.14-1.39-9-4.59-12.84-8.09-13.89-12.64-10.34-35.21,1.39-43.87,6.82-5.04,9.87-12.05,12.16-19.43,3.64-11.68,9.79-22.17,14.54-33.3,3.03-7.1,7.57-13.59,8.45-21.7.4-3.7,2.72-7.25,4.42-10.75,4.81-9.86,9.66-19.7,14.7-29.44,3.26-6.31,5.79-12.89,7.98-19.72-2.49-9.69-1.22-19.23,2.86-28.3,2.8-6.21,7.3-10.95,14.8-11.83,8.04-13.66,19.94-23.31,32.92-31.91,3.65-2.42,7.12-5.28,10.12-8.45,5.58-5.91,11.82-10.96,18.22-15.93,5.88-4.57,12.41-7.55,19.24-10.27,11.53-4.6,22.97-9.46,34.34-14.46,10.31-4.53,21.16-7.3,31.88-10.51,16.28-4.87,33.15-7.46,49.22-13.12,7.41-2.61,14.34-6.19,21.38-9.55,9.22-4.4,18.59-8.54,27.53-13.47,7.87-4.34,15.94-8.5,22.52-14.9,2.62-2.55,5.66-4.66,8.43-7.08,10.62-9.28,16.47-21.78,22.11-34.21,2.35-5.18,3.06-11.3,3.58-17.08,1.46-16.3.54-32.58-1.57-48.8-.22-1.68-.44-3.33-1.08-5-2.61-6.8-4.76-13.78-7.49-20.53-4.3-10.62-11.28-19.25-20.14-26.52-4.31-3.54-7.74-8.02-12-11.73-9.47-8.25-19.54-15.34-30.97-20.65-10.18-4.73-20.01-10.23-30.08-15.22-19.5-9.66-40.18-15.98-61.21-21.22-17.43-4.34-34.85-8.79-52.59-11.67-6.96-1.13-14.06-1.78-21.11-1.97-8.32-.22-16.5-1.24-24.53-3.17-3.89-.94-7.73-1.05-11.61-1.04-22.85,0-45.71.14-68.56.13-3.45,0-6.76.69-10.14,1.08-24.35,2.82-48.57,6.58-72.82,10.19-16.84,2.5-33.81,4.18-50.69,6.45-7.92,1.06-15.72,3.3-23.66,3.84-17.12,1.16-33.4,6.54-50.21,9.08-6.76,1.02-13.36,2.78-19.8,4.88-16.24,5.31-32.91,8.56-49.63,11.78-11.25,2.17-22.67,2.6-33.94,4.28-7.91,1.18-15.72,3.11-23.53,4.91-12.05,2.79-24.26,4.63-36.44,6.63-15.82,2.59-31.61,5.8-47.55,7-13.65,1.03-26.96,3.98-40.54,5.22-14.97,1.37-29.85,3.74-44.73,5.97-4.78.72-9.51,2.1-14.11,3.62-10.23,3.38-20.79,5.34-31.41,6.33-16.46,1.54-32.67,4.43-48.98,6.89-11.96,1.81-24.07,3.31-36.29,3.7-17.26.56-34.5,1.88-51.69,3.85-13.05,1.49-26.12,3.17-39.31,3.42-4.36.09-8.62,1.18-13.04,1.26-11.52.21-22.86-1.3-34.12-3.27-2.64-.46-5.24-.86-7.89-.99-11.43-.57-22.84-1.4-34.21-2.75-6.05-.72-12.12-1.27-18.2-1.62-20.99-1.19-41.42-5.53-61.54-11.29-13.22-3.78-25.39-9.75-35.82-19.07-3.41-3.05-7.69-5.17-11.7-7.48-5.07-2.93-10.33-5.52-15.41-8.43-8.62-4.94-14.24-12.55-18.1-21.47-1.31-3.03-1.78-6.26-.78-9.9,1.34-4.89.21-10.1,1.33-15.26,2.14-9.82,7.48-16.87,16.11-21.4,6.55-3.44,12.85-7.09,17.95-12.51,1.27-1.35,2.97-2.08,4.48-2.35,11.72-2.09,23.25-6.14,35.34-5.02,7.4.68,14.78.45,22.03-.25,8.3-.8,16.57-.95,24.85-.96,7.04-.01,14,1.19,20.95,2.54,10.78,2.1,21.72,3.44,32.72,3.51,7.61.05,14.86,2.46,22.41,2.74,2.58.1,4.39,1.87,5.74,4.25-.77,3.57-3.14,5.32-6.32,6.49-5.28,1.94-10.77,3.18-16.31,3.47-6.71.35-13.43,2.7-20.19.35-19.37.48-38.65-1.83-58.01-2.07-19.54-.24-38.26,3.62-56.73,9.43-5.44,1.71-10.26,4.47-14.42,8.41-4.51,4.26-7.08,9.24-6.39,15.96,5.88,6.74,11.11,14.39,19.52,19.05,3.59,1.99,6.47,5.23,9.79,7.74,7.05,5.34,14.71,9.37,23.26,11.96,8.16,2.47,16.63,3.72,24.66,6.46,15.68,5.35,32.06,7.57,48.14,11.08,9.94,2.17,20.24,2.76,30.4,3.91,23.23,2.64,46.52,1.36,69.79,1.05,1.47-.02,2.95-.1,4.42-.01,18.13,1.03,36.02-.94,53.87-3.9,5.51-.91,11.15-1.21,16.74-1.51,9.99-.54,19.81-2.23,29.65-3.85,10.07-1.65,20.21-2.76,30.34-3.94,10.6-1.23,21.17-2.87,31.71-4.54,10.76-1.7,21.48-3.66,32.22-5.48,14.37-2.44,28.69-5.35,43.14-7.18,21.23-2.68,42.15-7.03,63.17-10.79,16.51-2.96,33.22-4.32,49.68-7.44,13.37-2.53,26.71-5.26,40.11-7.68,8.09-1.47,16.25-2.64,24.4-3.74,11.09-1.49,22.09-3.41,32.63-7.29,9.44-3.48,19.35-4.75,29.18-5.91,27.32-3.23,54.28-8.34,81.07-14.44,6.85-1.56,13.68-3.23,20.49-4.96,4.56-1.16,9.2-.19,13.86-1.01,8.41-1.48,16.51-4.18,24.97-5.52,21.31-3.36,42.44-8.01,63.81-10.8,15.97-2.08,32.2-2.6,48.37-1.99,13.93.52,27.86.9,41.77,1.78,16.01,1.02,31.98,2.63,47.86,5.11,8.41,1.32,16.88,2.29,25.35,3.17,11.65,1.21,22.94,4.21,34.4,6.39,4.77.9,9.55,1.74,14.26,2.89,5.16,1.26,10.45,2.35,15.32,4.38,13.95,5.82,28.47,9.87,42.77,14.59,11.77,3.88,23.44,8.11,35.3,11.67,11.37,3.41,21.03,9.92,31.07,15.8,4.18,2.45,8.52,4.64,12.68,7.12,10.7,6.4,21.23,12.89,28.7,23.44,3.96,5.6,7.85,11.21,11.07,17.23,5.94,11.13,12.22,22.08,17.49,33.6,2.72,5.93,4.02,12.1,4.63,18.24.94,9.49,3.42,18.69,4.47,28.06,1.35,12.11,1.82,24.43-2.68,36.25-1.99,5.23-5.59,9.6-7.35,15.06-2.46,7.61-5.68,15.01-8.97,22.32-7.15,15.88-17.27,29.53-31.54,39.76-8.11,5.82-16.23,11.64-25.02,16.46-8.86,4.86-18.2,8.19-28.17,9.67-4.89.72-9.57,2.39-13.73,4.69-10.43,5.79-21.8,8.23-33.27,10.24-8.85,1.55-17.41,4.43-26.49,5.1-3.93.29-7.82,2.14-11.45,4.44-5.92,3.75-12.83,5.57-19.27,8.32-10.27,4.39-20.49,9-30.33,14.27-4.28,2.29-8.89,3.73-13.06,6.36-11.16,7.05-21.55,15.16-32.31,22.74-3.19,2.25-5.87,5.17-8.04,8.5-3.34,5.12-6.61,10.3-10.22,15.22-1.79,2.44-2.15,5.07-1.73,7.66,1.12,6.86-2.17,12.85-3.5,19.18-1.17,5.53-5.9,8.08-11.26,9.22-1.9,1.18-1.1,3.57-2.38,5.12-5.8,7.03-9.42,15.26-13.23,23.47-2.79,6.01-5.13,12.07-6.76,18.45-4.33,17-10.44,33.44-15.94,50.06-2.66,8.04-6.62,15.65-9.88,23.5-1.31,3.14-2.32,6.41-3.65,10.11ZM1326.11,1062.5c8.98-11.79,19.8-21.36,31.04-30.31,10.14-8.08,21.1-14.97,33.37-19.87,10.68-4.26,21.39-8.51,31.93-13.12,9.46-4.14,19.42-6.74,29.13-10.09,15.14-5.22,30.21-10.68,45.32-15.98,8.12-2.85,16.2-5.88,24.45-8.3,6.45-1.89,12.8-3.96,18.85-6.84,14.58-6.93,28.74-14.7,42.1-23.77,7.01-4.76,12.74-10.78,17.74-17.94,5.65-8.09,8.26-17.36,12.55-25.93,2.12-4.23,4.56-8.34,6.36-12.82,4.41-11,4.88-22.58,5.61-34.05.77-11.88-1.76-23.67-2.59-35.5-.66-9.45-3.51-18.1-7.89-25.98-4.47-8.03-8.75-16.16-12.73-24.4-5.31-10.98-13.11-19.3-23.13-25.89-4.03-2.65-8.24-5.25-11.66-8.61-9.29-9.12-20.3-15.68-31.5-21.9-10.32-5.74-21.82-8.56-33.05-11.99-7.31-2.23-14.62-4.54-21.71-7.37-10.22-4.09-20.12-8.9-30.8-11.91-13.22-3.73-26.48-6.7-40.26-7.37-5.03-.24-10.11-1-15.09-1.75-6.91-1.04-13.75-2.43-20.78-2.61-2.39-.06-4.77-.35-7.17-.73-6.17-.98-12.24-2.66-18.37-3.39-7.9-.94-15.71-2.62-23.56-3.73-7.9-1.11-15.87-1.12-23.75-2.04-17.25-2.02-34.63.98-51.98,1.16-.72,0-1.46.1-2.14.3-11.5,3.44-23.45,2.86-35.21,3.96-6.99.66-13.99.17-21.07,1.3-11.61,1.86-23.28,3.13-34.73,6.09-9.05,2.34-18.15,4.97-27.7,4.52-.71-.03-1.48.09-2.14.34-8.61,3.25-17.8,3.75-26.7,5.6-8.66,1.79-17.58,1.93-26.09,5.05-4.37,1.61-9.21,2.9-13.82,3.53-13.82,1.87-27.12,5.95-40.75,8.56-7.07,1.35-14.19,2.61-21.34,3.33-6.5.65-13.04.53-19.6,1.32-7.44.89-14.84,2.27-22.08,3.7-10.6,2.09-21.35,3.16-31.88,5.51-6.78,1.52-13.65,2.78-20.47,3.83-8.8,1.35-17.1,4.73-26.11,5.34-3.85.26-8.04,1.14-12.02,1.94-5.93,1.19-11.45,3.78-17.25,4.86-16.02,2.99-31.65,7.76-48,9.34-11.08,1.07-22.1,2.99-33.26,2.6-7.11-.25-14.11,1.05-21.01,1.93-11.14,1.43-22.19,3.89-33.29,5.83-13.4,2.35-26.52,6.3-39.83,9.2-7.49,1.63-15.09,2.93-22.72,3.67-8.21.8-16.5.66-24.76,1.21-11.63.78-23.05,3.16-34.7,3.55-4.26.14-8.66.86-12.86,1.71-6.17,1.24-12.39,2.12-18.59,2.42-24.69,1.21-49.45-1.53-74.14,1.43-10.7,1.28-21.4-.88-32.11-1.27-1.28-.05-2.29-.65-3.42-1.01-13.09-4.09-26.6-6.06-40.14-8.06-7.27-1.08-14.66-1.8-21.65-4.94-4.31-1.94-8.67-3.99-13.28-5.46-11.16-3.55-22.22-7.5-33.16-11.68-9.35-3.57-18.05-8.33-24.69-16.17-2.35-2.78-4.05-6.12-6.98-8.41-5.69-4.43-7.57-10.11-7.25-17.35.54-12.1,6.23-20.6,16.33-26.45,8.22-4.76,17.4-7.22,26.67-8.01,10.13-.86,19.94-3.25,29.84-5.07,4.16-.77,8.44-1.61,12.19-.73,4.88,1.14,9.67.74,14.47,1.18,1.22.11,2.49-.15,3.68.06,10.75,1.92,21.57,2.98,32.49,2.87,2.7-.03,5.56-.54,8.08.14,8.7,2.35,17.5.94,26.24,1.28,1.22.05,2.5.03,2.59-1.65-.33-.77-.85-1.29-1.63-1.24-11.99.81-23.81-1.98-35.8-1.73-5.49.11-11.02-1.06-16.51-1.79-5.72-.76-11.3-2.47-17.13-2.47-11.55-.01-23.1-.03-34.65.02-1.92,0-3.84-.25-5.79.51-8.23,3.23-16.87,4.13-25.61,3.92-3.47-.08-6.75.46-9.97,1.54-9.88,3.31-18.66,8.88-27.75,13.77-1.46.79-2.53,2.18-3.5,3.68-5.51,8.57-7.6,17.68-4.03,27.45,2.73,7.45,6.79,13.98,13.5,18.83,7.45,5.38,15.25,10.18,22.88,15.27,9.28,6.19,19.15,10.94,29.61,14.74,13.28,4.83,26.88,8.75,40.51,12.17,13.22,3.32,27.01,4.43,40.6,6.15,10.55,1.33,21.16,2.27,31.77,3,2.5.17,4.51,1.52,7.04,1.56,10.22.16,20.41.24,30.65,1.15,19.02,1.7,38.12-.45,57.15-1.44,5.01-.26,10.19-.58,15.13-1.45,8.36-1.48,16.67-2.72,25.17-2.69,6.88.02,13.76,0,20.64-.05,1.7-.01,3.41-.1,5.08-.39,7.56-1.29,15.14-2.52,22.65-4.07,5.02-1.04,10.31-.58,15.1-1.77,6.42-1.61,12.95-.84,19.36-2.39,4.84-1.17,9.88-1.87,14.85-2.74,9.69-1.7,19.45-3.09,29.12-4.89,7.54-1.4,15.15-2.31,22.69-3.81,6.09-1.22,12.07-3.03,18.33-3.73,7.4-.82,14.81-1.98,22.17-3.12,8.15-1.26,16.36-1.73,24.48-2.25,9.24-.6,18.13-2.64,27.14-4.12,7.27-1.19,14.47-3.12,21.67-4.76,14.95-3.41,30.2-5.66,45.4-7.97,4.03-.61,8.13-.78,12.14-1.59,5.17-1.04,10.39-2.03,15.63-2.46,8.42-.69,16.64-2.43,24.9-4.01,7.75-1.49,15.44-3.34,23.18-4.89,9.39-1.88,18.8-3.6,28.15-5.68,4.44-.98,8.61-2.8,13.22-3.38,9.77-1.24,19.42-3.24,29.21-4.55,12.31-1.64,24.27-5.36,36.51-7.68,9.65-1.83,19.35-3.49,29.02-5.12,7.33-1.23,14.69-2.64,22.09-3.64,7.27-.99,14.63-2.56,21.93-3.75,10.67-1.75,21.49-3.02,32.09-5,12.31-2.29,24.71-4.15,37.07-5.14,10.38-.83,20.87-2.05,31.34-1.75,11.45.32,22.85-.22,34.36,1.01,14.51,1.55,29.28-.36,43.88,1.69,5.01.7,10.06.29,15.18,1.35,10.34,2.13,20.92,3.07,31.38,4.68,12.55,1.94,24.88,5,37.17,8.13,14.13,3.59,28.28,7.16,42.3,11.17,10.58,3.03,21.21,5.88,30.96,11.44,7.95,4.53,16.42,8.13,24.66,12.15,10.81,5.28,21.82,10.09,31.6,17.4,4.7,3.51,8.69,7.75,13.15,11.46,7.08,5.89,13.81,12.38,19.31,20.03,3.34,4.64,4.93,9.94,7.05,14.99,4.25,10.14,8.28,20.39,11,31.13,2.93,11.57,2.97,23.46,4.14,35.2.84,8.41.7,17.01-1.19,25.5-1.42,6.36-2.73,12.9-6.14,18.29-6.05,9.55-10.51,19.99-18.21,28.71-8.63,9.77-17.8,18.28-29.16,24.78-8.82,5.05-17.89,9.37-27.35,12.9-6.99,2.61-13.09,6.97-19.9,9.85-18.58,7.86-38.02,12.8-57.71,17.01-7.92,1.69-15.78,4.02-23.35,6.89-7.6,2.88-15.36,5.33-22.82,8.74-6.26,2.86-12.84,5.27-19.22,7.98-7.95,3.37-16.32,5.79-23.83,10.16-4.37,2.54-8.49,5.6-13.05,7.71-7.39,3.41-12.66,9.19-17.61,15.17-6.75,8.16-12.87,16.85-19.28,25.34,2.02,2.68,5.36,2.94,7.82,4.69ZM1307.32,1107.79c-3.55-1.76-9.75-3.35-13.55-3.47-1.95,2.68-3.11,5.88-4.85,8.6-6.03,9.41-9.77,19.56-12.43,30.35-1.82,7.4-4.54,14.56-8.97,20.99-5.04,7.32-8.97,15.35-11.35,23.86-3.31,11.86-7.15,23.48-11.88,35.29,4.84,2.79,10.95,2.45,15.28,6.47,2.78-3.26,4.22-6.54,5.27-9.99,1.93-6.35,4.06-12.66,5.6-19.11,2.12-8.83,5.72-17.15,8.25-25.8,2.21-7.56,4.99-14.93,7.88-22.14,6.14-15.33,12.99-30.42,20.74-45.05ZM1253.09,1267.74c7.8-7.17,5.95-15.29,5.55-23.34-10.33-5.32-21.08-4.91-31.41-4.25-5.08,4.28-5.39,10.05-6.48,15.29-.8,3.87.72,7.12,4.48,9.8,4.45,3.17,9.42,3.12,14.22,4.16,4.86,1.04,9.51-.91,13.63-1.66ZM1290.51,1091.02c7.47,3.79,15.29,7.07,24.56,5.29,2.36-6.35,11.19-9.49,8.55-17.72-5.78-9.42-14.61-6.63-22.23-6.95-6.4,4.83-10.88,10.3-10.89,19.39Z"/>
  <path class="cls-3" d="M1326.11,1062.5c-2.46-1.75-5.8-2.01-7.82-4.69,6.41-8.49,12.53-17.18,19.28-25.34,4.95-5.98,10.23-11.76,17.61-15.17,4.56-2.11,8.68-5.16,13.05-7.71,7.51-4.38,15.88-6.79,23.83-10.16,6.38-2.71,12.96-5.12,19.22-7.98,7.46-3.41,15.22-5.85,22.82-8.74,7.57-2.87,15.43-5.2,23.35-6.89,19.69-4.2,39.14-9.15,57.71-17.01,6.8-2.88,12.9-7.23,19.9-9.85,9.46-3.54,18.53-7.85,27.35-12.9,11.36-6.51,20.53-15.01,29.16-24.78,7.7-8.72,12.16-19.16,18.21-28.71,3.42-5.39,4.72-11.93,6.14-18.29,1.9-8.49,2.03-17.09,1.19-25.5-1.17-11.74-1.21-23.62-4.14-35.2-2.71-10.74-6.75-20.99-11-31.13-2.12-5.05-3.71-10.34-7.05-14.99-5.5-7.65-12.23-14.14-19.31-20.03-4.46-3.71-8.45-7.95-13.15-11.46-9.78-7.31-20.79-12.12-31.6-17.4-8.24-4.02-16.71-7.62-24.66-12.15-9.75-5.56-20.38-8.41-30.96-11.44-14.02-4.01-28.16-7.58-42.3-11.17-12.3-3.13-24.62-6.19-37.17-8.13-10.45-1.61-21.04-2.55-31.38-4.68-5.12-1.05-10.17-.64-15.18-1.35-14.6-2.05-29.37-.14-43.88-1.69-11.51-1.23-22.92-.68-34.36-1.01-10.48-.3-20.96.92-31.34,1.75-12.36.99-24.76,2.85-37.07,5.14-10.6,1.97-21.41,3.24-32.09,5-7.3,1.2-14.66,2.77-21.93,3.75-7.4,1-14.76,2.41-22.09,3.64-9.67,1.62-19.37,3.28-29.02,5.12-12.24,2.33-24.21,6.04-36.51,7.68-9.79,1.3-19.44,3.31-29.21,4.55-4.61.58-8.78,2.4-13.22,3.38-9.35,2.07-18.76,3.8-28.15,5.68-7.74,1.55-15.43,3.41-23.18,4.89-8.25,1.58-16.48,3.32-24.9,4.01-5.24.43-10.46,1.42-15.63,2.46-4.02.81-8.12.98-12.14,1.59-15.2,2.31-30.44,4.56-45.4,7.97-7.2,1.64-14.4,3.57-21.67,4.76-9.01,1.48-17.9,3.52-27.14,4.12-8.12.52-16.33.99-24.48,2.25-7.35,1.14-14.76,2.3-22.17,3.12-6.26.7-12.24,2.51-18.33,3.73-7.54,1.5-15.15,2.41-22.69,3.81-9.68,1.8-19.43,3.19-29.12,4.89-4.96.87-10.01,1.57-14.85,2.74-6.41,1.55-12.94.79-19.36,2.39-4.79,1.2-10.07.74-15.1,1.77-7.51,1.55-15.09,2.77-22.65,4.07-1.67.28-3.38.38-5.08.39-6.88.06-13.76.07-20.64.05-8.49-.03-16.81,1.22-25.17,2.69-4.95.88-10.12,1.19-15.13,1.45-19.04.99-38.13,3.14-57.15,1.44-10.24-.92-20.43-.99-30.65-1.15-2.53-.04-4.53-1.38-7.04-1.56-10.61-.73-21.22-1.67-31.77-3-13.59-1.72-27.38-2.83-40.6-6.15-13.63-3.42-27.23-7.34-40.51-12.17-10.46-3.8-20.33-8.55-29.61-14.74-7.63-5.09-15.43-9.89-22.88-15.27-6.71-4.85-10.77-11.38-13.5-18.83-3.57-9.76-1.48-18.88,4.03-27.45.96-1.5,2.03-2.89,3.5-3.68,9.1-4.9,17.88-10.46,27.75-13.77,3.22-1.08,6.5-1.62,9.97-1.54,8.74.2,17.38-.69,25.61-3.92,1.94-.76,3.86-.5,5.79-.51,11.55-.05,23.1-.03,34.65-.02,5.83,0,11.41,1.71,17.13,2.47,5.49.73,11.02,1.91,16.51,1.79,11.99-.25,23.81,2.54,35.8,1.73.78-.05,1.29.47,1.63,1.24-.09,1.68-1.36,1.7-2.59,1.65-8.74-.34-17.55,1.07-26.24-1.28-2.52-.68-5.38-.17-8.08-.14-10.93.11-21.74-.95-32.49-2.87-1.19-.21-2.46.05-3.68-.06-4.81-.44-9.59-.04-14.47-1.18-3.75-.88-8.03-.03-12.19.73-9.9,1.83-19.7,4.21-29.84,5.07-9.26.79-18.45,3.25-26.67,8.01-10.1,5.85-15.8,14.35-16.33,26.45-.32,7.24,1.56,12.92,7.25,17.35,2.93,2.28,4.63,5.63,6.98,8.41,6.63,7.84,15.34,12.6,24.69,16.17,10.95,4.18,22,8.13,33.16,11.68,4.61,1.47,8.96,3.52,13.28,5.46,6.99,3.14,14.38,3.86,21.65,4.94,13.54,2,27.04,3.97,40.14,8.06,1.14.35,2.14.96,3.42,1.01,10.71.39,21.41,2.55,32.11,1.27,24.69-2.95,49.45-.22,74.14-1.43,6.19-.3,12.42-1.18,18.59-2.42,4.2-.85,8.6-1.57,12.86-1.71,11.66-.39,23.07-2.77,34.7-3.55,8.26-.55,16.55-.41,24.76-1.21,7.62-.74,15.23-2.04,22.72-3.67,13.32-2.9,26.43-6.85,39.83-9.2,11.11-1.94,22.15-4.41,33.29-5.83,6.9-.88,13.9-2.18,21.01-1.93,11.17.39,22.18-1.53,33.26-2.6,16.35-1.58,31.98-6.35,48-9.34,5.8-1.08,11.32-3.67,17.25-4.86,3.99-.8,8.18-1.68,12.02-1.94,9.02-.61,17.32-3.99,26.11-5.34,6.82-1.04,13.69-2.31,20.47-3.83,10.53-2.35,21.28-3.42,31.88-5.51,7.24-1.43,14.64-2.81,22.08-3.7,6.56-.79,13.1-.67,19.6-1.32,7.15-.72,14.27-1.97,21.34-3.33,13.63-2.61,26.93-6.69,40.75-8.56,4.61-.62,9.45-1.92,13.82-3.53,8.51-3.13,17.42-3.26,26.09-5.05,8.9-1.84,18.08-2.34,26.7-5.6.66-.25,1.43-.37,2.14-.34,9.55.45,18.65-2.18,27.7-4.52,11.45-2.96,23.12-4.23,34.73-6.09,7.09-1.13,14.08-.65,21.07-1.3,11.76-1.1,23.71-.51,35.21-3.96.68-.21,1.43-.29,2.14-.3,17.35-.17,34.72-3.18,51.98-1.16,7.88.92,15.84.93,23.75,2.04,7.85,1.1,15.66,2.78,23.56,3.73,6.12.73,12.2,2.41,18.37,3.39,2.4.38,4.78.67,7.17.73,7.03.18,13.86,1.56,20.78,2.61,4.98.75,10.06,1.5,15.09,1.75,13.78.67,27.04,3.64,40.26,7.37,10.69,3.01,20.58,7.82,30.8,11.91,7.09,2.84,14.4,5.14,21.71,7.37,11.23,3.43,22.73,6.25,33.05,11.99,11.2,6.23,22.21,12.79,31.5,21.9,3.42,3.35,7.62,5.95,11.66,8.61,10.02,6.59,17.82,14.91,23.13,25.89,3.98,8.23,8.27,16.37,12.73,24.4,4.38,7.87,7.23,16.53,7.89,25.98.83,11.83,3.36,23.62,2.59,35.5-.74,11.47-1.2,23.05-5.61,34.05-1.8,4.48-4.24,8.59-6.36,12.82-4.29,8.57-6.9,17.83-12.55,25.93-5,7.16-10.72,13.18-17.74,17.94-13.36,9.07-27.52,16.83-42.1,23.77-6.05,2.88-12.4,4.95-18.85,6.84-8.25,2.42-16.33,5.45-24.45,8.3-15.11,5.31-30.18,10.76-45.32,15.98-9.71,3.35-19.67,5.95-29.13,10.09-10.54,4.61-21.25,8.86-31.93,13.12-12.26,4.9-23.23,11.79-33.37,19.87-11.24,8.95-22.06,18.52-31.04,30.31Z"/>
  <path class="cls-4" d="M1307.32,1107.79c-7.75,14.63-14.6,29.71-20.74,45.05-2.88,7.21-5.67,14.59-7.88,22.14-2.53,8.65-6.14,16.97-8.25,25.8-1.55,6.45-3.67,12.75-5.6,19.11-1.05,3.45-2.49,6.72-5.27,9.99-4.33-4.02-10.45-3.68-15.28-6.47,4.73-11.81,8.58-23.43,11.88-35.29,2.37-8.51,6.3-16.54,11.35-23.86,4.43-6.43,7.16-13.59,8.97-20.99,2.65-10.79,6.4-20.94,12.43-30.35,1.74-2.72,2.9-5.91,4.85-8.6,3.8.12,10,1.71,13.55,3.47Z"/>
  <path class="cls-2" d="M1253.09,1267.74c-4.12.75-8.77,2.71-13.63,1.66-4.8-1.03-9.77-.99-14.22-4.16-3.75-2.67-5.28-5.92-4.48-9.8,1.08-5.25,1.4-11.01,6.48-15.29,10.33-.66,21.08-1.07,31.41,4.25.4,8.05,2.25,16.17-5.55,23.34Z"/>
  <path class="cls-2" d="M1290.51,1091.02c0-9.09,4.49-14.55,10.89-19.39,7.62.33,16.45-2.46,22.23,6.95,2.64,8.23-6.19,11.37-8.55,17.72-9.27,1.78-17.09-1.5-24.56-5.29Z"/>
</svg>